<?xml version="1.0" encoding="UTF-8" standalone="no"?>
<svg width="57px" height="29px" viewBox="0 0 57 29" version="1.1" xmlns="http://www.w3.org/2000/svg" xmlns:xlink="http://www.w3.org/1999/xlink" xmlns:sketch="http://www.bohemiancoding.com/sketch/ns">
    <!-- Generator: Sketch 3.1.1 (8761) - http://www.bohemiancoding.com/sketch -->
    <title>logo</title>
    <desc>Created with Sketch.</desc>
    <defs>
        <radialGradient cx="49.2494488%" cy="50.000231%" fx="49.2494488%" fy="50.000231%" r="53.617284%" id="radialGradient-1">
            <stop stop-color="#00B3C0" offset="0%"></stop>
            <stop stop-color="#01B4BF" offset="23.73%"></stop>
            <stop stop-color="#1CB5BC" offset="34.62%"></stop>
            <stop stop-color="#29B5B9" offset="44.27%"></stop>
            <stop stop-color="#40B7B2" offset="54%"></stop>
            <stop stop-color="#5ABBA5" offset="63.76%"></stop>
            <stop stop-color="#76C093" offset="73.56%"></stop>
            <stop stop-color="#93C87A" offset="83.38%"></stop>
            <stop stop-color="#B4D252" offset="93.08%"></stop>
            <stop stop-color="#CDDC29" offset="100%"></stop>
        </radialGradient>
        <linearGradient x1="49.9972358%" y1="87.6065568%" x2="49.9972358%" y2="-16.1378452%" id="linearGradient-2">
            <stop stop-color="#E4E517" offset="8.79%"></stop>
            <stop stop-color="#DDE22F" offset="14.22%"></stop>
            <stop stop-color="#CDDD55" offset="28.58%"></stop>
            <stop stop-color="#BFD96D" offset="43.74%"></stop>
            <stop stop-color="#B5D77C" offset="59.85%"></stop>
            <stop stop-color="#AFD584" offset="77.57%"></stop>
            <stop stop-color="#ADD586" offset="100%"></stop>
        </linearGradient>
        <linearGradient x1="50.0049858%" y1="12.3908495%" x2="50.0049858%" y2="116.136981%" id="linearGradient-3">
            <stop stop-color="#E4E517" offset="8.79%"></stop>
            <stop stop-color="#DDE22F" offset="14.22%"></stop>
            <stop stop-color="#CDDD55" offset="28.58%"></stop>
            <stop stop-color="#BFD96D" offset="43.74%"></stop>
            <stop stop-color="#B5D77C" offset="59.85%"></stop>
            <stop stop-color="#AFD584" offset="77.57%"></stop>
            <stop stop-color="#ADD586" offset="100%"></stop>
        </linearGradient>
    </defs>
    <g id="Page-1" stroke="none" stroke-width="1" fill="none" fill-rule="evenodd" sketch:type="MSPage">
        <g id="logo" sketch:type="MSLayerGroup" transform="translate(1.000000, 0.000000)">
            <path d="M-0.107309735,14.0735469 C-0.107309735,14.0735469 0.332909735,-0.0414265487 13.7665912,0.114047788 C13.7665912,0.114047788 24.4381699,0.0414265487 27.2641593,14.1 C27.2641593,14.1 29.3439717,27.6904035 41.8218478,28.0959345 C41.8218478,28.0959345 54.5023646,28.5311628 55.4698991,14.0281274 C55.4698991,14.0281274 54.2373345,26.5935982 41.8218478,26.5935982 C41.8218478,26.5935982 31.3010018,27.5449115 27.2017699,13.9440265 C27.2017699,13.9440265 24.1342088,1.36208496 13.9023504,1.67403186 C13.9023504,1.67403186 1.76561947,0.847497345 -0.107309735,14.0735469 L-0.107309735,14.0735469 Z" id="Shape" fill="url(#radialGradient-1)" sketch:type="MSShapeGroup"></path>
            <path d="M4.93774513,15.718131 C4.93774513,14.3952265 5.09646372,13.6283363 5.59907257,12.6760248 C5.99586903,11.908885 6.49847788,11.2740106 7.13335221,10.7978549 C8.2179292,9.95135575 9.2496,9.60721593 10.8367858,9.55455929 L10.8367858,10.5335735 C9.30250619,10.692292 8.66763186,10.9036673 7.74177345,11.6446035 C6.65719646,12.5440088 6.04877522,13.813508 6.04877522,15.2686779 L6.04877522,20.6122035 L4.93774513,20.6122035 L4.93774513,15.718131 L4.93774513,15.718131 Z" id="Shape" fill="#000000" sketch:type="MSShapeGroup"></path>
            <path d="M24.5130372,20.6122035 L23.2697416,16.8823168 C22.4232425,18.7604867 21.8412743,19.4482673 20.5450726,20.188954 C19.6721204,20.6651097 18.7198088,20.9031876 17.7145912,20.9031876 C14.5137664,20.9031876 11.9478159,18.3636903 11.9478159,15.1097097 C11.9478159,11.908885 14.5666726,9.31623186 17.8204035,9.31623186 C19.3546832,9.31623186 21.1008372,10.1100743 22.026446,11.2211044 C22.5819611,11.8824319 23.0581168,12.7553841 23.4020071,13.813508 L25.6240673,20.6122035 L24.5130372,20.6122035 L24.5130372,20.6122035 Z M17.7143416,19.8715168 C20.3331982,19.8715168 22.4496956,17.7285664 22.4496956,15.0832566 C22.4496956,12.4376973 20.386354,10.3479027 17.7407947,10.3479027 C15.1219381,10.3479027 13.0054407,12.4641504 13.0054407,15.1361628 C13.0056903,17.7550195 15.1219381,19.8715168 17.7143416,19.8715168 L17.7143416,19.8715168 Z" id="Shape" fill="#000000" sketch:type="MSShapeGroup"></path>
            <path d="M25.8084903,9.63391858 L29.802908,18.8662991 L34.1414655,9.63391858 L35.3321044,9.63391858 L29.7764549,21.4851558 L24.6181009,9.63391858 L25.8084903,9.63391858 L25.8084903,9.63391858 Z" id="Shape" fill="#000000" sketch:type="MSShapeGroup"></path>
            <path d="M36.9711982,9.60721593 L37.9235097,9.60721593 L37.9235097,6.77673451 L38.9551805,6.53865664 L38.9551805,9.66037168 L42.1298018,9.66037168 L42.1298018,10.5333239 L38.9816336,10.5333239 L38.9816336,17.3055664 C38.9554301,19.104377 39.6167575,19.8450637 41.2303965,19.8450637 C41.4422708,19.8450637 41.6800991,19.8188602 42.1298018,19.7921575 L42.1298018,20.744469 C41.6271929,20.8235788 41.3888655,20.8502814 41.0716779,20.8502814 C38.9025239,20.8502814 37.8708531,19.8715168 37.8708531,17.755269 L37.8708531,10.559777 L36.9714478,10.559777 L36.9714478,9.60721593 L36.9711982,9.60721593 Z" id="Shape" fill="#000000" sketch:type="MSShapeGroup"></path>
            <path d="M46.6797345,5.32181416 C46.6797345,5.85087611 46.2300319,6.27412566 45.6480637,6.27412566 C45.0660956,6.27412566 44.642846,5.82417345 44.642846,5.21600177 C44.642846,4.66023717 45.0660956,4.26369027 45.6745168,4.26369027 C46.256485,4.26369027 46.6797345,4.71339292 46.6797345,5.32181416 L46.6797345,5.32181416 Z M45.0660956,9.66037168 L46.2038283,9.66037168 L46.2038283,20.6122035 L45.0660956,20.6122035 L45.0660956,9.66037168 L45.0660956,9.66037168 Z" id="Shape" fill="#000000" sketch:type="MSShapeGroup"></path>
            <path d="M3.86814159,7.11238938 C3.86814159,7.11238938 -1.6638,13.5175327 3.28592389,21.5450496 C3.28592389,21.5450496 -0.623893805,16.3460177 3.86814159,7.11238938 L3.86814159,7.11238938 Z" id="Shape" fill="url(#linearGradient-2)" sketch:type="MSShapeGroup"></path>
            <path d="M51.0974018,21.5864761 C51.0974018,21.5864761 56.6293434,15.1813327 51.679869,7.15381593 C51.679869,7.15381593 55.5894372,12.3528478 51.0974018,21.5864761 L51.0974018,21.5864761 Z" id="Shape" fill="url(#linearGradient-3)" sketch:type="MSShapeGroup"></path>
        </g>
    </g>
</svg>