<?xml version="1.0" encoding="UTF-8" standalone="no"?>
<svg width="20px" height="20px" viewBox="0 0 20 20" version="1.1" xmlns="http://www.w3.org/2000/svg" xmlns:xlink="http://www.w3.org/1999/xlink" xmlns:sketch="http://www.bohemiancoding.com/sketch/ns">
    <!-- Generator: Sketch 3.1.1 (8761) - http://www.bohemiancoding.com/sketch -->
    <title>secure</title>
    <desc>Created with Sketch.</desc>
    <defs></defs>
    <g id="Illustrations" stroke="none" stroke-width="1" fill="none" fill-rule="evenodd" sketch:type="MSPage">
        <g id="secure" sketch:type="MSArtboardGroup" stroke="#373C3E">
            <path d="M6.5,5.99715203 L6.5,12.002848 C6.5,13.9333027 8.06940334,15.5 10,15.5 C11.9329697,15.5 13.5,13.9345467 13.5,12.002848 L13.5,5.99715203 C13.5,4.06669732 11.9305967,2.5 10,2.5 C8.06703031,2.5 6.5,4.06545325 6.5,5.99715203 Z M12.5,5.99715203 L12.5,12.002848 C12.5,13.3820365 11.3809102,14.5 10,14.5 C8.62130214,14.5 7.5,13.3806312 7.5,12.002848 L7.5,5.99715203 C7.5,4.61796353 8.61908978,3.5 10,3.5 C11.3786979,3.5 12.5,4.61936876 12.5,5.99715203 Z" id="Rectangle-126" fill="#373C3E" sketch:type="MSShapeGroup"></path>
            <rect id="Rectangle-125" fill="#FFFFFF" sketch:type="MSShapeGroup" x="4" y="10" width="12" height="8"></rect>
            <path d="M6.66666667,13.5 L13.3333333,13.5" id="Line" stroke-linecap="square" sketch:type="MSShapeGroup"></path>
            <rect id="Rectangle-128" fill="#373C3E" sketch:type="MSShapeGroup" x="4" y="16" width="12" height="2"></rect>
        </g>
    </g>
</svg>