<?xml version="1.0" encoding="UTF-8" standalone="no"?>
<svg width="40px" height="40px" viewBox="0 0 40 40" version="1.1" xmlns="http://www.w3.org/2000/svg" xmlns:xlink="http://www.w3.org/1999/xlink" xmlns:sketch="http://www.bohemiancoding.com/sketch/ns">
    <!-- Generator: Sketch 3.1.1 (8761) - http://www.bohemiancoding.com/sketch -->
    <title>Alert</title>
    <desc>Created with Sketch.</desc>
    <defs></defs>
    <g id="Illustrations" stroke="none" stroke-width="1" fill="none" fill-rule="evenodd" sketch:type="MSPage">
        <g id="Alert" sketch:type="MSArtboardGroup">
            <circle id="Oval-282" stroke="#4A4A4A" stroke-width="2" sketch:type="MSShapeGroup" cx="20" cy="20" r="17"></circle>
            <path d="M17.3974609,9.75 L22.5917969,9.75 L22.262207,22.7094727 L17.7270508,22.7094727 L17.3974609,9.75 Z M17.0019531,27.4291992 C17.0019531,26.5942341 17.2919893,25.8867217 17.8720703,25.3066406 C18.4521513,24.7265596 19.1596638,24.4365234 19.9946289,24.4365234 C20.829594,24.4365234 21.5371065,24.7265596 22.1171875,25.3066406 C22.6972685,25.8867217 22.9873047,26.5942341 22.9873047,27.4291992 C22.9873047,28.2729534 22.6972685,28.9848604 22.1171875,29.5649414 C21.5371065,30.1450224 20.829594,30.4350586 19.9946289,30.4350586 C19.1596638,30.4350586 18.4521513,30.1450224 17.8720703,29.5649414 C17.2919893,28.9848604 17.0019531,28.2729534 17.0019531,27.4291992 L17.0019531,27.4291992 Z" id="!" fill="#4A4A4A" sketch:type="MSShapeGroup"></path>
        </g>
    </g>
</svg>