<?xml version="1.0" encoding="UTF-8" standalone="no"?>
<svg width="24px" height="24px" viewBox="0 0 24 24" version="1.1" xmlns="http://www.w3.org/2000/svg" xmlns:xlink="http://www.w3.org/1999/xlink" xmlns:sketch="http://www.bohemiancoding.com/sketch/ns">
    <!-- Generator: Sketch 3.2.1 (9971) - http://www.bohemiancoding.com/sketch -->
    <title>bids</title>
    <desc>Created with Sketch.</desc>
    <defs></defs>
    <g id="Illustrations" stroke="none" stroke-width="1" fill="none" fill-rule="evenodd" sketch:type="MSPage">
        <g id="bids" sketch:type="MSArtboardGroup">
            <g id="scope-icon" sketch:type="MSLayerGroup" transform="translate(6.000000, 4.000000)">
                <path d="M12.031548,0 L0,0 L0,16 L12,16 L12,3.95430717 L12.031548,0 Z" id="Rectangle-21" stroke="#CED2D6" stroke-width="2" fill="#FFFFFF" sketch:type="MSShapeGroup"></path>
                <path d="M3.5,3.5 L5.6622777,3.5" id="Line" stroke="#AAACAD" stroke-linecap="square" sketch:type="MSShapeGroup"></path>
                <path d="M3.5,5.5 L6.6622777,5.5" id="Line-2" stroke="#AAACAD" stroke-linecap="square" sketch:type="MSShapeGroup"></path>
                <path d="M3.5,7.5 L8.49367989,7.5" id="Line-3" stroke="#AAACAD" stroke-linecap="square" sketch:type="MSShapeGroup"></path>
                <path d="M3.5,9.5 L8.49367989,9.5" id="Line-4" stroke="#AAACAD" stroke-linecap="square" sketch:type="MSShapeGroup"></path>
                <path d="M3.5,11.5 L8.49367989,11.5" id="Line-5" stroke="#AAACAD" stroke-linecap="square" sketch:type="MSShapeGroup"></path>
            </g>
            <path d="M20.5,11 L16,11 L16,12 L20.5,12 L20.5,13.6213203 L22.6213203,11.5 L20.5,9.37867966 L20.5,11 Z" id="Rectangle-539" fill="#0F0F0F" sketch:type="MSShapeGroup"></path>
            <path d="M6,14 L2,14 L2,15 L6,15 L6,16.5 L8,14.5 L6,12.5 L6,14 Z" id="Rectangle-541" fill="#0F0F0F" sketch:type="MSShapeGroup" transform="translate(5.000000, 14.500000) rotate(-180.000000) translate(-5.000000, -14.500000) "></path>
            <rect id="Rectangle-542" fill="#100F10" sketch:type="MSShapeGroup" x="13" y="2" width="1" height="4"></rect>
            <rect id="Rectangle-542" fill="#100F10" sketch:type="MSShapeGroup" x="10" y="18" width="1" height="4"></rect>
            <path d="M12,1 L15,1 L12,4 L12,1 Z" id="Rectangle-543" fill="#100F10" sketch:type="MSShapeGroup" transform="translate(13.500000, 2.500000) rotate(-315.000000) translate(-13.500000, -2.500000) "></path>
            <path d="M9,20 L12,20 L9,23 L9,20 Z" id="Rectangle-543" fill="#100F10" sketch:type="MSShapeGroup" transform="translate(10.500000, 21.500000) rotate(-135.000000) translate(-10.500000, -21.500000) "></path>
            <rect id="Rectangle-544" fill="#FFFFFF" sketch:type="MSShapeGroup" x="5" y="15" width="2" height="1"></rect>
            <rect id="Rectangle-544" fill="#FFFFFF" sketch:type="MSShapeGroup" x="17" y="12" width="2" height="1"></rect>
            <rect id="Rectangle-544" fill="#FFFFFF" sketch:type="MSShapeGroup" x="5" y="13" width="2" height="1"></rect>
            <rect id="Rectangle-544" fill="#FFFFFF" sketch:type="MSShapeGroup" x="17" y="10" width="2" height="1"></rect>
            <rect id="Rectangle-548" fill="#FFFFFF" sketch:type="MSShapeGroup" x="12" y="3" width="1" height="2"></rect>
            <rect id="Rectangle-548" fill="#FFFFFF" sketch:type="MSShapeGroup" x="9" y="19" width="1" height="2"></rect>
            <rect id="Rectangle-548" fill="#FFFFFF" sketch:type="MSShapeGroup" x="14" y="3" width="1" height="2"></rect>
            <rect id="Rectangle-548" fill="#FFFFFF" sketch:type="MSShapeGroup" x="11" y="19" width="1" height="2"></rect>
        </g>
    </g>
</svg>