<?xml version="1.0" encoding="UTF-8" standalone="no"?>
<svg width="60px" height="74px" viewBox="0 0 60 74" version="1.1" xmlns="http://www.w3.org/2000/svg" xmlns:xlink="http://www.w3.org/1999/xlink" xmlns:sketch="http://www.bohemiancoding.com/sketch/ns">
    <!-- Generator: Sketch 3.2.2 (9983) - http://www.bohemiancoding.com/sketch -->
    <title>rfq 7</title>
    <desc>Created with Sketch.</desc>
    <defs></defs>
    <g id="Illustrations" stroke="none" stroke-width="1" fill="none" fill-rule="evenodd" sketch:type="MSPage">
        <g id="rfq-7" sketch:type="MSArtboardGroup">
            <g id="cooperative" sketch:type="MSLayerGroup" transform="translate(2.000000, 2.000000)">
                <rect id="Rectangle-23" stroke="#E6E6E6" stroke-width="2" fill="#FFFFFF" sketch:type="MSShapeGroup" transform="translate(28.000000, 34.000000) rotate(-9.000000) translate(-28.000000, -34.000000) " x="5" y="4" width="46" height="60"></rect>
                <rect id="Rectangle-24" stroke="#E6E6E6" stroke-width="2" fill="#FFFFFF" sketch:type="MSShapeGroup" transform="translate(28.000000, 36.000000) rotate(9.000000) translate(-28.000000, -36.000000) " x="5" y="6" width="46" height="60"></rect>
                <rect id="Rectangle-22" stroke="#9B9B9B" stroke-width="2" fill="#FFFFFF" sketch:type="MSShapeGroup" x="5" y="5" width="46" height="60"></rect>
                <rect id="Rectangle-29" stroke="#E6E6E6" stroke-width="2" fill="#FFFFFF" sketch:type="MSShapeGroup" x="7" y="7" width="42" height="56"></rect>
                <rect id="Rectangle-24" fill="#979797" sketch:type="MSShapeGroup" x="30" y="13" width="12" height="1"></rect>
                <rect id="Rectangle-24" fill="#979797" sketch:type="MSShapeGroup" x="13" y="26" width="16.5" height="1"></rect>
                <rect id="Rectangle-24" fill="#979797" sketch:type="MSShapeGroup" x="13" y="34" width="12" height="1"></rect>
                <rect id="Rectangle-24" fill="#979797" sketch:type="MSShapeGroup" x="39" y="26" width="3" height="1"></rect>
                <rect id="Rectangle-24" fill="#9B9B9B" sketch:type="MSShapeGroup" x="39" y="34" width="3" height="1"></rect>
                <rect id="Rectangle-24" fill="#979797" sketch:type="MSShapeGroup" x="33" y="17" width="9" height="1"></rect>
                <rect id="Rectangle-24" fill="#979797" sketch:type="MSShapeGroup" x="13" y="30" width="11" height="1"></rect>
                <rect id="Rectangle-24" fill="#979797" sketch:type="MSShapeGroup" x="13" y="38" width="16.5" height="1"></rect>
                <rect id="Rectangle-24" fill="#979797" sketch:type="MSShapeGroup" x="39" y="30" width="3" height="1"></rect>
                <rect id="Rectangle-24" fill="#979797" sketch:type="MSShapeGroup" x="37" y="38" width="5" height="1"></rect>
                <g id="totals" transform="translate(13.000000, 42.000000)" sketch:type="MSShapeGroup">
                    <rect id="Rectangle-32" fill="#E6E6E6" x="0" y="0" width="29" height="1"></rect>
                    <rect id="Rectangle-39" fill="#E6E6E6" x="0" y="4" width="29" height="1"></rect>
                    <rect id="Rectangle-33" fill="#E6E6E6" x="0" y="4" width="29" height="1"></rect>
                    <rect id="Rectangle-33" fill="#E6E6E6" x="0" y="8" width="29" height="1"></rect>
                    <rect id="Rectangle-36" fill="#E6E6E6" x="0" y="12" width="29" height="1"></rect>
                    <rect id="Rectangle-31" fill="#979797" x="0" y="2" width="5" height="1"></rect>
                    <rect id="Rectangle-31" fill="#979797" x="0" y="6" width="4" height="1"></rect>
                    <rect id="Rectangle-35" fill="#979797" x="21" y="2" width="8" height="1"></rect>
                    <rect id="Rectangle-38" fill="#979797" x="0" y="10" width="5" height="1"></rect>
                    <rect id="Rectangle-37" fill="#979797" x="21" y="10" width="8" height="1"></rect>
                    <rect id="Rectangle-34" fill="#979797" x="25" y="6" width="4" height="1"></rect>
                </g>
                <rect id="Rectangle-40" fill="#E6E6E6" sketch:type="MSShapeGroup" x="13" y="23" width="29" height="1"></rect>
                <path d="M17.568,16.32 C17.568,16.8106691 17.4000017,17.2053318 17.064,17.504 C16.7599985,17.7813347 16.3546692,17.9519997 15.848,18.016 L15.848,18.912 L15.04,18.912 L15.04,18.048 C14.2826629,18.048 13.6533358,17.7973358 13.152,17.296 L13.872,16.576 C14.1920016,16.8960016 14.6159974,17.056 15.144,17.056 L15.144,15.608 L14.888,15.576 C13.879995,15.4479994 13.376,14.917338 13.376,13.984 C13.376,13.4933309 13.5333318,13.0960015 13.848,12.792 C14.1466682,12.4986652 14.5439975,12.3253336 15.04,12.272 L15.04,11.552 L15.848,11.552 L15.848,12.264 C16.4506697,12.264 16.9759978,12.4826645 17.424,12.92 L16.72,13.616 C16.453332,13.3599987 16.1253353,13.232 15.736,13.232 L15.736,14.624 L16.04,14.672 C16.5520026,14.7520004 16.9279988,14.9173321 17.168,15.168 C17.434668,15.434668 17.568,15.8186642 17.568,16.32 L17.568,16.32 Z M15.144,14.576 L15.144,13.24 C14.6799977,13.3040003 14.448,13.5386646 14.448,13.944 C14.448,14.3013351 14.6799977,14.5119997 15.144,14.576 L15.144,14.576 Z M16.48,16.352 C16.48,16.1226655 16.4106674,15.9546672 16.272,15.848 C16.1653328,15.7679996 15.9866679,15.7066669 15.736,15.664 L15.736,17.04 C16.2320025,16.981333 16.48,16.752002 16.48,16.352 L16.48,16.352 Z M22.52,16.32 C22.52,16.8106691 22.3520017,17.2053318 22.016,17.504 C21.7119985,17.7813347 21.3066692,17.9519997 20.8,18.016 L20.8,18.912 L19.992,18.912 L19.992,18.048 C19.2346629,18.048 18.6053358,17.7973358 18.104,17.296 L18.824,16.576 C19.1440016,16.8960016 19.5679974,17.056 20.096,17.056 L20.096,15.608 L19.84,15.576 C18.831995,15.4479994 18.328,14.917338 18.328,13.984 C18.328,13.4933309 18.4853318,13.0960015 18.8,12.792 C19.0986682,12.4986652 19.4959975,12.3253336 19.992,12.272 L19.992,11.552 L20.8,11.552 L20.8,12.264 C21.4026697,12.264 21.9279978,12.4826645 22.376,12.92 L21.672,13.616 C21.405332,13.3599987 21.0773353,13.232 20.688,13.232 L20.688,14.624 L20.992,14.672 C21.5040026,14.7520004 21.8799988,14.9173321 22.12,15.168 C22.386668,15.434668 22.52,15.8186642 22.52,16.32 L22.52,16.32 Z M20.096,14.576 L20.096,13.24 C19.6319977,13.3040003 19.4,13.5386646 19.4,13.944 C19.4,14.3013351 19.6319977,14.5119997 20.096,14.576 L20.096,14.576 Z M21.432,16.352 C21.432,16.1226655 21.3626674,15.9546672 21.224,15.848 C21.1173328,15.7679996 20.9386679,15.7066669 20.688,15.664 L20.688,17.04 C21.1840025,16.981333 21.432,16.752002 21.432,16.352 L21.432,16.352 Z M27.472,16.32 C27.472,16.8106691 27.3040017,17.2053318 26.968,17.504 C26.6639985,17.7813347 26.2586692,17.9519997 25.752,18.016 L25.752,18.912 L24.944,18.912 L24.944,18.048 C24.1866629,18.048 23.5573358,17.7973358 23.056,17.296 L23.776,16.576 C24.0960016,16.8960016 24.5199974,17.056 25.048,17.056 L25.048,15.608 L24.792,15.576 C23.783995,15.4479994 23.28,14.917338 23.28,13.984 C23.28,13.4933309 23.4373318,13.0960015 23.752,12.792 C24.0506682,12.4986652 24.4479975,12.3253336 24.944,12.272 L24.944,11.552 L25.752,11.552 L25.752,12.264 C26.3546697,12.264 26.8799978,12.4826645 27.328,12.92 L26.624,13.616 C26.357332,13.3599987 26.0293353,13.232 25.64,13.232 L25.64,14.624 L25.944,14.672 C26.4560026,14.7520004 26.8319988,14.9173321 27.072,15.168 C27.338668,15.434668 27.472,15.8186642 27.472,16.32 L27.472,16.32 Z M25.048,14.576 L25.048,13.24 C24.5839977,13.3040003 24.352,13.5386646 24.352,13.944 C24.352,14.3013351 24.5839977,14.5119997 25.048,14.576 L25.048,14.576 Z M26.384,16.352 C26.384,16.1226655 26.3146674,15.9546672 26.176,15.848 C26.0693328,15.7679996 25.8906679,15.7066669 25.64,15.664 L25.64,17.04 C26.1360025,16.981333 26.384,16.752002 26.384,16.352 L26.384,16.352 Z" id="$$$" fill="#9B9B9B" sketch:type="MSShapeGroup"></path>
            </g>
        </g>
    </g>
</svg>