<?xml version="1.0" encoding="UTF-8" standalone="no"?>
<svg width="24px" height="24px" viewBox="0 0 24 24" version="1.1" xmlns="http://www.w3.org/2000/svg" xmlns:xlink="http://www.w3.org/1999/xlink" xmlns:sketch="http://www.bohemiancoding.com/sketch/ns">
    <!-- Generator: Sketch 3.3.3 (12072) - http://www.bohemiancoding.com/sketch -->
    <title>jobs-unscheduled copy 2</title>
    <desc>Created with Sketch.</desc>
    <defs></defs>
    <g id="nav-bar-icons" stroke="none" stroke-width="1" fill="none" fill-rule="evenodd" sketch:type="MSPage">
        <g id="jobs-unscheduled-copy-2" sketch:type="MSArtboardGroup" fill="#93989C">
            <path d="M2,2 L22,2 L22,6 L2,6 L2,2 Z M5,2 L6,2 L6,5 L5,5 L5,2 Z M8,2 L9,2 L9,5 L8,5 L8,2 Z M6,4 L8,4 L8,5 L6,5 L6,4 Z M15,2 L16,2 L16,5 L15,5 L15,2 Z M18,2 L19,2 L19,5 L18,5 L18,2 Z M16,4 L18,4 L18,5 L16,5 L16,4 Z M2,20 L7,20 L7,22 L2,22 L2,20 Z M2,6 L4,6 L4,20 L2,20 L2,6 Z M20,6 L22,6 L22,10 L20,10 L20,6 Z" id="Rectangle-12" sketch:type="MSShapeGroup"></path>
            <path d="M12.0465911,21.6731115 C16.6802684,23.2686145 21.3903897,22.1807312 22.5096672,18.9301134 C23.6470683,15.6268606 19.8755016,10.3839699 15.3534089,8.82688852 C10.7197316,7.23138547 6.00961028,8.31926879 4.89033281,11.5698866 C3.75293165,14.8731394 7.52449838,20.1160301 12.0465911,21.6731115 L12.0465911,21.6731115 Z M12.6977274,19.7820743 C9.10761611,18.5458999 6.06154939,14.3115336 6.78136996,12.2210229 C7.46015576,10.2496858 10.9808221,9.4365275 14.7022726,10.7179257 C18.2923839,11.9541001 21.3384506,16.1884663 20.61863,18.2789771 C19.9398442,20.2503142 16.4191779,21.0634725 12.6977274,19.7820743 L12.6977274,19.7820743 Z" id="Shape" sketch:type="MSShapeGroup"></path>
            <rect id="Rectangle-120" sketch:type="MSShapeGroup" x="9" y="14" width="2" height="2"></rect>
            <rect id="Rectangle-120-Copy-4" sketch:type="MSShapeGroup" x="9" y="11" width="2" height="2"></rect>
            <rect id="Rectangle-120-Copy" sketch:type="MSShapeGroup" x="12" y="14" width="2" height="2"></rect>
            <rect id="Rectangle-120-Copy-3" sketch:type="MSShapeGroup" x="12" y="17" width="2" height="2"></rect>
            <rect id="Rectangle-120-Copy-5" sketch:type="MSShapeGroup" x="12" y="11" width="2" height="2"></rect>
            <rect id="Rectangle-120-Copy-2" sketch:type="MSShapeGroup" x="15" y="14" width="2" height="2"></rect>
            <rect id="Rectangle-120-Copy-7" sketch:type="MSShapeGroup" x="15" y="17" width="2" height="2"></rect>
        </g>
    </g>
</svg>