<?xml version="1.0" encoding="UTF-8" standalone="no"?>
<svg width="21px" height="21px" viewBox="0 0 21 21" version="1.1" xmlns="http://www.w3.org/2000/svg" xmlns:xlink="http://www.w3.org/1999/xlink" xmlns:sketch="http://www.bohemiancoding.com/sketch/ns">
    <!-- Generator: Sketch 3.3.3 (12072) - http://www.bohemiancoding.com/sketch -->
    <title>jobs-scheduled</title>
    <desc>Created with Sketch.</desc>
    <defs></defs>
    <g id="Page-1" stroke="none" stroke-width="1" fill="none" fill-rule="evenodd" sketch:type="MSPage">
        <g id="unscheduled-collapse-copy" sketch:type="MSArtboardGroup" transform="translate(-148.000000, -124.000000)">
            <g id="jobs-scheduled-+-(12)-Jobs-Unschedule-+-Rectangle-1553-+-Show" sketch:type="MSLayerGroup" transform="translate(104.000000, 124.000000)">
                <g id="jobs-scheduled" transform="translate(44.000000, 0.000000)">
                    <g id="calendar">
                        <path d="M0,0 L20,0 L20,4 L0,4 L0,0 Z M3,0 L4,0 L4,3 L3,3 L3,0 Z M6,0 L7,0 L7,3 L6,3 L6,0 Z M4,2 L6,2 L6,3 L4,3 L4,2 Z M13,0 L14,0 L14,3 L13,3 L13,0 Z M16,0 L17,0 L17,3 L16,3 L16,0 Z M14,2 L16,2 L16,3 L14,3 L14,2 Z M0,18 L9,18 L9,20 L0,20 L0,18 Z M0,4 L2,4 L2,18 L0,18 L0,4 Z M18,4 L20,4 L20,9 L18,9 L18,4 Z" id="Rectangle-12" fill="#93989C" sketch:type="MSShapeGroup"></path>
                        <g id="Rectangle-20-+-Rectangle-20-Copy-+-Rectangle-22" transform="translate(3.000000, 0.000000)"></g>
                        <g id="Rectangle-20-+-Rectangle-20-Copy-+-Rectangle-22-Copy" transform="translate(13.000000, 0.000000)"></g>
                        <rect id="Rectangle-22-Copy-5" fill="#93989C" sketch:type="MSShapeGroup" x="3" y="8" width="2" height="2"></rect>
                        <rect id="Rectangle-22-Copy-8" fill="#93989C" sketch:type="MSShapeGroup" x="6" y="5" width="2" height="2"></rect>
                        <rect id="Rectangle-22-Copy-6" fill="#93989C" sketch:type="MSShapeGroup" x="6" y="8" width="2" height="2"></rect>
                        <rect id="Rectangle-22-Copy-2" fill="#93989C" sketch:type="MSShapeGroup" x="9" y="5" width="2" height="2"></rect>
                        <rect id="Rectangle-22-Copy-7" fill="#93989C" sketch:type="MSShapeGroup" x="9" y="8" width="2" height="2"></rect>
                        <rect id="Rectangle-22-Copy-3" fill="#93989C" sketch:type="MSShapeGroup" x="12" y="5" width="2" height="2"></rect>
                        <rect id="Rectangle-22-Copy-4" fill="#93989C" sketch:type="MSShapeGroup" x="15" y="5" width="2" height="2"></rect>
                        <rect id="Rectangle-22-Copy-14" fill="#93989C" sketch:type="MSShapeGroup" x="3" y="11" width="2" height="2"></rect>
                        <rect id="Rectangle-22-Copy-13" fill="#93989C" sketch:type="MSShapeGroup" x="6" y="11" width="2" height="2"></rect>
                        <rect id="Rectangle-22-Copy-19" fill="#93989C" sketch:type="MSShapeGroup" x="3" y="14" width="2" height="2"></rect>
                        <rect id="Rectangle-22-Copy-20" fill="#93989C" sketch:type="MSShapeGroup" x="6" y="14" width="2" height="2"></rect>
                    </g>
                    <path d="M17,17 L21,17 L21,14 L17,14 L17,10 L14,10 L14,14 L10,14 L10,17 L14,17 L14,21 L17,21 L17,17 L17,17 Z" id="Rectangle-980" fill="#93989C" sketch:type="MSShapeGroup" transform="translate(15.500000, 15.500000) rotate(-315.000000) translate(-15.500000, -15.500000) "></path>
                </g>
            </g>
        </g>
    </g>
</svg>