<?xml version="1.0" encoding="UTF-8" standalone="no"?>
<svg width="20px" height="20px" viewBox="0 0 20 20" version="1.1" xmlns="http://www.w3.org/2000/svg" xmlns:xlink="http://www.w3.org/1999/xlink" xmlns:sketch="http://www.bohemiancoding.com/sketch/ns">
    <!-- Generator: Sketch 3.3.3 (12072) - http://www.bohemiancoding.com/sketch -->
    <title>free-schedule</title>
    <desc>Created with Sketch.</desc>
    <defs></defs>
    <g id="Page-1" stroke="none" stroke-width="1" fill="none" fill-rule="evenodd" sketch:type="MSPage">
        <g id="unscheduled-collapse-copy" sketch:type="MSArtboardGroup" transform="translate(-151.000000, -280.000000)" fill="#93989C">
            <g id="free-schedule" sketch:type="MSLayerGroup" transform="translate(151.000000, 280.000000)">
                <g id="jobs-scheduled" sketch:type="MSShapeGroup">
                    <g id="calendar">
                        <path d="M0,0 L20,0 L20,4 L0,4 L0,0 Z M3,0 L4,0 L4,3 L3,3 L3,0 Z M6,0 L7,0 L7,3 L6,3 L6,0 Z M4,2 L6,2 L6,3 L4,3 L4,2 Z M13,0 L14,0 L14,3 L13,3 L13,0 Z M16,0 L17,0 L17,3 L16,3 L16,0 Z M14,2 L16,2 L16,3 L14,3 L14,2 Z M0,18 L20,18 L20,20 L0,20 L0,18 Z M0,4 L2,4 L2,18 L0,18 L0,4 Z M18,4 L20,4 L20,18 L18,18 L18,4 Z" id="Rectangle-12"></path>
                        <rect id="Rectangle-22-Copy-3" x="7" y="6" width="2" height="3"></rect>
                        <rect id="Rectangle-22-Copy-4" x="11" y="6" width="2" height="3"></rect>
                    </g>
                </g>
                <path d="M5.16094244,12.2506014 C5.72916588,14.4456877 7.7077043,16 10,16 C12.2988549,16 14.2903922,14.4343573 14.8479105,12.2469839 L12.9098713,11.7530161 C12.5770397,13.0588512 11.3798746,14 10,14 C8.6251693,14 7.43837269,13.0676691 7.09712317,11.7493986 L5.16094244,12.2506014 L5.16094244,12.2506014 Z" id="Shape" sketch:type="MSShapeGroup"></path>
            </g>
        </g>
    </g>
</svg>