<?xml version="1.0" encoding="UTF-8" standalone="no"?>
<svg width="16px" height="16px" viewBox="0 0 16 16" version="1.1" xmlns="http://www.w3.org/2000/svg" xmlns:xlink="http://www.w3.org/1999/xlink" xmlns:sketch="http://www.bohemiancoding.com/sketch/ns">
    <!-- Generator: Sketch 3.1.1 (8761) - http://www.bohemiancoding.com/sketch -->
    <title>close</title>
    <desc>Created with Sketch.</desc>
    <defs></defs>
    <g id="Page-1" stroke="none" stroke-width="1" fill="none" fill-rule="evenodd" sketch:type="MSPage">
        <g id="close" sketch:type="MSArtboardGroup" fill="#092F3E">
            <path d="M13.1944738,11.0694368 L10.1250213,7.99998426 L13.1944738,4.93053177 C13.2361406,4.87497607 13.2639184,4.81942037 13.2639184,4.74997574 C13.2639184,4.68053111 13.2361406,4.62497541 13.1944738,4.56941971 L11.4305803,2.8055262 C11.3750246,2.76385942 11.3194689,2.73608157 11.2500243,2.73608157 C11.1805796,2.73608157 11.1250239,2.76385942 11.0694682,2.8055262 L8.00001574,5.87497869 L4.93056324,2.8055262 C4.87500754,2.76385942 4.81945184,2.73608157 4.75000721,2.73608157 C4.68056259,2.73608157 4.62500688,2.76385942 4.56945118,2.8055262 L2.80555767,4.56941971 C2.76389089,4.62497541 2.73611304,4.68053111 2.73611304,4.74997574 C2.73611304,4.81942037 2.76389089,4.87497607 2.80555767,4.93053177 L5.87501016,7.99998426 L2.80555767,11.0694368 C2.76389089,11.1249925 2.73611304,11.1805482 2.73611304,11.2499928 C2.73611304,11.3194374 2.76389089,11.3749931 2.80555767,11.4305488 L4.56945118,13.1944423 C4.62500688,13.2361091 4.68056259,13.263887 4.75000721,13.263887 C4.81945184,13.263887 4.87500754,13.2361091 4.93056324,13.1944423 L8.00001574,10.1249898 L11.0694682,13.1944423 C11.1250239,13.2361091 11.1805796,13.263887 11.2500243,13.263887 C11.3194689,13.263887 11.3750246,13.2361091 11.4305803,13.1944423 L13.1944738,11.4305488 C13.2361406,11.3749931 13.2639184,11.3194374 13.2639184,11.2499928 C13.2639184,11.1805482 13.2361406,11.1249925 13.1944738,11.0694368 L13.1944738,11.0694368 Z" id="delete" sketch:type="MSShapeGroup"></path>
        </g>
    </g>
</svg>