<?xml version="1.0" encoding="UTF-8" standalone="no"?>
<svg width="20px" height="20px" viewBox="0 0 20 20" version="1.1" xmlns="http://www.w3.org/2000/svg" xmlns:xlink="http://www.w3.org/1999/xlink" xmlns:sketch="http://www.bohemiancoding.com/sketch/ns">
    <!-- Generator: Sketch 3.2.1 (9971) - http://www.bohemiancoding.com/sketch -->
    <title>comment</title>
    <desc>Created with Sketch.</desc>
    <defs></defs>
    <g id="Illustrations" stroke="none" stroke-width="1" fill="none" fill-rule="evenodd" sketch:type="MSPage">
        <g id="comment" sketch:type="MSArtboardGroup" fill="#AAACAD">
            <path d="M14.6508733,9.07080015 C15.9947915,9.3680885 17,10.5666547 17,12 C17,13.6568542 15.6568542,15 14,15 C12.3431458,15 11,13.6568542 11,12 C11,11.275557 11.2567811,10.6110884 11.6842915,10.0926459 L14.6339746,4.90192376 L16.4037419,5.92369937 L14.6508733,9.07080015 Z" id="Oval-361" sketch:type="MSShapeGroup"></path>
            <path d="M6.65087328,9.07080015 C7.99479147,9.3680885 9,10.5666547 9,12 C9,13.6568542 7.65685425,15 6,15 C4.34314575,15 3,13.6568542 3,12 C3,11.275557 3.25678108,10.6110884 3.68429148,10.0926459 L6.6339746,4.90192376 L8.40374186,5.92369937 L6.65087328,9.07080015 Z" id="Oval-361" sketch:type="MSShapeGroup"></path>
        </g>
    </g>
</svg>