<?xml version="1.0" encoding="UTF-8" standalone="no"?>
<svg width="440px" height="200px" viewBox="0 0 440 200" version="1.1" xmlns="http://www.w3.org/2000/svg" xmlns:xlink="http://www.w3.org/1999/xlink" xmlns:sketch="http://www.bohemiancoding.com/sketch/ns">
    <!-- Generator: Sketch 3.2.2 (9983) - http://www.bohemiancoding.com/sketch -->
    <title>condition-bg 3</title>
    <desc>Created with Sketch.</desc>
    <defs></defs>
    <g id="Page-1" stroke="none" stroke-width="1" fill="none" fill-rule="evenodd" sketch:type="MSPage">
        <g id="condition-bg-3" sketch:type="MSArtboardGroup" fill="#FAFAFB">
            <path d="M50.041981,109.141612 L52.387981,109.685612 L65.715981,86.6676124 L63.335981,86.1576124 L50.041981,109.141612 Z M50.721981,88.9796124 C51.639981,88.9796124 52.285981,89.3536124 52.659981,89.7616124 C53.101981,90.2036124 53.407981,90.9176124 53.407981,91.7336124 C53.407981,92.5496124 53.101981,93.2636124 52.659981,93.7056124 C52.285981,94.1136124 51.639981,94.4876124 50.721981,94.4876124 C49.803981,94.4876124 49.157981,94.1136124 48.783981,93.7056124 C48.341981,93.2636124 48.035981,92.5496124 48.035981,91.7336124 C48.035981,90.9176124 48.341981,90.2036124 48.783981,89.7616124 C49.157981,89.3536124 49.803981,88.9796124 50.721981,88.9796124 L50.721981,88.9796124 Z M56.671981,91.7336124 C56.671981,89.7276124 55.787981,88.5036124 55.209981,87.9256124 C54.155981,86.8376124 52.523981,86.2256124 50.721981,86.2256124 C48.919981,86.2256124 47.287981,86.8376124 46.233981,87.9256124 C45.655981,88.5036124 44.771981,89.7276124 44.771981,91.7336124 C44.771981,93.7396124 45.655981,94.9636124 46.233981,95.5416124 C47.287981,96.6296124 48.919981,97.2416124 50.721981,97.2416124 C52.523981,97.2416124 54.155981,96.6296124 55.209981,95.5416124 C55.787981,94.9636124 56.671981,93.7396124 56.671981,91.7336124 L56.671981,91.7336124 Z M65.001981,101.253612 C65.919981,101.253612 66.565981,101.627612 66.939981,102.035612 C67.381981,102.477612 67.687981,103.191612 67.687981,104.007612 C67.687981,104.823612 67.381981,105.537612 66.939981,105.979612 C66.565981,106.387612 65.919981,106.761612 65.001981,106.761612 C64.083981,106.761612 63.437981,106.387612 63.063981,105.979612 C62.621981,105.537612 62.315981,104.823612 62.315981,104.007612 C62.315981,103.191612 62.621981,102.477612 63.063981,102.035612 C63.437981,101.627612 64.083981,101.253612 65.001981,101.253612 L65.001981,101.253612 Z M70.951981,104.007612 C70.951981,102.001612 70.067981,100.777612 69.489981,100.199612 C68.435981,99.1116124 66.803981,98.4996124 65.001981,98.4996124 C63.199981,98.4996124 61.567981,99.1116124 60.513981,100.199612 C59.935981,100.777612 59.051981,102.001612 59.051981,104.007612 C59.051981,106.013612 59.935981,107.237612 60.513981,107.815612 C61.567981,108.903612 63.199981,109.515612 65.001981,109.515612 C66.803981,109.515612 68.435981,108.903612 69.489981,107.815612 C70.067981,107.237612 70.951981,106.013612 70.951981,104.007612 L70.951981,104.007612 Z" id="%" sketch:type="MSShapeGroup"></path>
            <path d="M338.02649,25.5762569 L340.37249,26.1202569 L353.70049,3.10225687 L351.32049,2.59225687 L338.02649,25.5762569 Z M338.70649,5.41425687 C339.62449,5.41425687 340.27049,5.78825687 340.64449,6.19625687 C341.08649,6.63825687 341.39249,7.35225687 341.39249,8.16825687 C341.39249,8.98425687 341.08649,9.69825687 340.64449,10.1402569 C340.27049,10.5482569 339.62449,10.9222569 338.70649,10.9222569 C337.78849,10.9222569 337.14249,10.5482569 336.76849,10.1402569 C336.32649,9.69825687 336.02049,8.98425687 336.02049,8.16825687 C336.02049,7.35225687 336.32649,6.63825687 336.76849,6.19625687 C337.14249,5.78825687 337.78849,5.41425687 338.70649,5.41425687 L338.70649,5.41425687 Z M344.65649,8.16825687 C344.65649,6.16225687 343.77249,4.93825687 343.19449,4.36025687 C342.14049,3.27225687 340.50849,2.66025687 338.70649,2.66025687 C336.90449,2.66025687 335.27249,3.27225687 334.21849,4.36025687 C333.64049,4.93825687 332.75649,6.16225687 332.75649,8.16825687 C332.75649,10.1742569 333.64049,11.3982569 334.21849,11.9762569 C335.27249,13.0642569 336.90449,13.6762569 338.70649,13.6762569 C340.50849,13.6762569 342.14049,13.0642569 343.19449,11.9762569 C343.77249,11.3982569 344.65649,10.1742569 344.65649,8.16825687 L344.65649,8.16825687 Z M352.98649,17.6882569 C353.90449,17.6882569 354.55049,18.0622569 354.92449,18.4702569 C355.36649,18.9122569 355.67249,19.6262569 355.67249,20.4422569 C355.67249,21.2582569 355.36649,21.9722569 354.92449,22.4142569 C354.55049,22.8222569 353.90449,23.1962569 352.98649,23.1962569 C352.06849,23.1962569 351.42249,22.8222569 351.04849,22.4142569 C350.60649,21.9722569 350.30049,21.2582569 350.30049,20.4422569 C350.30049,19.6262569 350.60649,18.9122569 351.04849,18.4702569 C351.42249,18.0622569 352.06849,17.6882569 352.98649,17.6882569 L352.98649,17.6882569 Z M358.93649,20.4422569 C358.93649,18.4362569 358.05249,17.2122569 357.47449,16.6342569 C356.42049,15.5462569 354.78849,14.9342569 352.98649,14.9342569 C351.18449,14.9342569 349.55249,15.5462569 348.49849,16.6342569 C347.92049,17.2122569 347.03649,18.4362569 347.03649,20.4422569 C347.03649,22.4482569 347.92049,23.6722569 348.49849,24.2502569 C349.55249,25.3382569 351.18449,25.9502569 352.98649,25.9502569 C354.78849,25.9502569 356.42049,25.3382569 357.47449,24.2502569 C358.05249,23.6722569 358.93649,22.4482569 358.93649,20.4422569 L358.93649,20.4422569 Z" id="%" sketch:type="MSShapeGroup"></path>
            <path d="M133.735489,31.2648728 L148.491489,31.2648728 L148.491489,27.5248728 L133.735489,27.5248728 L133.735489,31.2648728 Z M133.735489,37.1128728 L148.491489,37.1128728 L148.491489,33.3728728 L133.735489,33.3728728 L133.735489,37.1128728 Z" id="=" sketch:type="MSShapeGroup"></path>
            <path d="M347.35849,79.5110179 L362.11449,79.5110179 L362.11449,75.7710179 L347.35849,75.7710179 L347.35849,79.5110179 Z M347.35849,85.3590179 L362.11449,85.3590179 L362.11449,81.6190179 L347.35849,81.6190179 L347.35849,85.3590179 Z" id="=" sketch:type="MSShapeGroup"></path>
            <path d="M111.679717,173.109219 L116.915717,173.109219 L116.915717,178.379219 L121.199717,178.379219 L121.199717,173.109219 L126.435717,173.109219 L126.435717,169.165219 L121.199717,169.165219 L121.199717,163.929219 L116.915717,163.929219 L116.915717,169.165219 L111.679717,169.165219 L111.679717,173.109219 Z" id="+" sketch:type="MSShapeGroup"></path>
            <path d="M414.420026,151.355364 L419.656026,151.355364 L419.656026,156.625364 L423.940026,156.625364 L423.940026,151.355364 L429.176026,151.355364 L429.176026,147.411364 L423.940026,147.411364 L423.940026,142.175364 L419.656026,142.175364 L419.656026,147.411364 L414.420026,147.411364 L414.420026,151.355364 Z" id="+" sketch:type="MSShapeGroup"></path>
            <path d="M413.498026,71.4688799 L422.202026,71.4688799 L422.202026,67.1848799 L413.498026,67.1848799 L413.498026,71.4688799 Z" id="-" sketch:type="MSShapeGroup"></path>
            <path d="M233.611515,19.1842569 L242.315515,19.1842569 L242.315515,14.9002569 L233.611515,14.9002569 L233.611515,19.1842569 Z" id="-" sketch:type="MSShapeGroup"></path>
            <path d="M18.9855244,25.3408799 L24.2215244,25.3408799 L24.2215244,30.6108799 L28.5055244,30.6108799 L28.5055244,25.3408799 L33.7415244,25.3408799 L33.7415244,21.3968799 L28.5055244,21.3968799 L28.5055244,16.1608799 L24.2215244,16.1608799 L24.2215244,21.3968799 L18.9855244,21.3968799 L18.9855244,25.3408799 Z" id="+" sketch:type="MSShapeGroup"></path>
            <path d="M333.52649,172.786 L335.87249,173.33 L349.20049,150.312 L346.82049,149.802 L333.52649,172.786 Z M334.20649,152.624 C335.12449,152.624 335.77049,152.998 336.14449,153.406 C336.58649,153.848 336.89249,154.562 336.89249,155.378 C336.89249,156.194 336.58649,156.908 336.14449,157.35 C335.77049,157.758 335.12449,158.132 334.20649,158.132 C333.28849,158.132 332.64249,157.758 332.26849,157.35 C331.82649,156.908 331.52049,156.194 331.52049,155.378 C331.52049,154.562 331.82649,153.848 332.26849,153.406 C332.64249,152.998 333.28849,152.624 334.20649,152.624 L334.20649,152.624 Z M340.15649,155.378 C340.15649,153.372 339.27249,152.148 338.69449,151.57 C337.64049,150.482 336.00849,149.87 334.20649,149.87 C332.40449,149.87 330.77249,150.482 329.71849,151.57 C329.14049,152.148 328.25649,153.372 328.25649,155.378 C328.25649,157.384 329.14049,158.608 329.71849,159.186 C330.77249,160.274 332.40449,160.886 334.20649,160.886 C336.00849,160.886 337.64049,160.274 338.69449,159.186 C339.27249,158.608 340.15649,157.384 340.15649,155.378 L340.15649,155.378 Z M348.48649,164.898 C349.40449,164.898 350.05049,165.272 350.42449,165.68 C350.86649,166.122 351.17249,166.836 351.17249,167.652 C351.17249,168.468 350.86649,169.182 350.42449,169.624 C350.05049,170.032 349.40449,170.406 348.48649,170.406 C347.56849,170.406 346.92249,170.032 346.54849,169.624 C346.10649,169.182 345.80049,168.468 345.80049,167.652 C345.80049,166.836 346.10649,166.122 346.54849,165.68 C346.92249,165.272 347.56849,164.898 348.48649,164.898 L348.48649,164.898 Z M354.43649,167.652 C354.43649,165.646 353.55249,164.422 352.97449,163.844 C351.92049,162.756 350.28849,162.144 348.48649,162.144 C346.68449,162.144 345.05249,162.756 343.99849,163.844 C343.42049,164.422 342.53649,165.646 342.53649,167.652 C342.53649,169.658 343.42049,170.882 343.99849,171.46 C345.05249,172.548 346.68449,173.16 348.48649,173.16 C350.28849,173.16 351.92049,172.548 352.97449,171.46 C353.55249,170.882 354.43649,169.658 354.43649,167.652 L354.43649,167.652 Z" id="%" sketch:type="MSShapeGroup"></path>
            <path d="M17.5335863,173.691736 L32.2895863,173.691736 L32.2895863,169.951736 L17.5335863,169.951736 L17.5335863,173.691736 Z M17.5335863,179.539736 L32.2895863,179.539736 L32.2895863,175.799736 L17.5335863,175.799736 L17.5335863,179.539736 Z" id="=" sketch:type="MSShapeGroup"></path>
            <path d="M237.298069,188.54 L246.002069,188.54 L246.002069,184.256 L237.298069,184.256 L237.298069,188.54 Z" id="-" sketch:type="MSShapeGroup"></path>
        </g>
    </g>
</svg>