<?xml version="1.0" encoding="UTF-8" standalone="no"?>
<svg width="130px" height="130px" viewBox="0 0 130 130" version="1.1" xmlns="http://www.w3.org/2000/svg" xmlns:xlink="http://www.w3.org/1999/xlink" xmlns:sketch="http://www.bohemiancoding.com/sketch/ns">
    <!-- Generator: Sketch 3.2.2 (9983) - http://www.bohemiancoding.com/sketch -->
    <title>Artboard 1</title>
    <desc>Created with Sketch.</desc>
    <defs></defs>
    <g id="Page-1" stroke="none" stroke-width="1" fill="none" fill-rule="evenodd" sketch:type="MSPage">
        <g id="Artboard-1" sketch:type="MSArtboardGroup">
            <rect id="Rectangle-2" fill="#FFFFFF" sketch:type="MSShapeGroup" x="0" y="0" width="130" height="130"></rect>
            <g id="rooster" sketch:type="MSLayerGroup" transform="translate(17.000000, 24.000000)">
                <path d="M45.859,0.126 C24.536,0.126 7.189,22.155 7.189,49.232 C7.189,60.344 11.706,69.547 16.587,77.837 C24.596,91.441 34.445,98.338 45.858,98.338 C57.335,98.338 66.725,92.168 74.568,79.477 C81.27,68.631 84.528,58.739 84.528,49.232 C84.529,22.156 67.182,0.126 45.859,0.126 L45.859,0.126 Z M69.466,76.323 C62.806,87.1 55.084,92.339 45.86,92.339 C36.593,92.339 28.71,86.6 21.758,74.793 C17.308,67.235 13.19,58.908 13.19,49.233 C13.19,25.464 27.846,6.127 45.86,6.127 C63.875,6.127 78.53,25.464 78.53,49.233 C78.529,57.592 75.564,66.453 69.466,76.323 L69.466,76.323 Z" id="Shape" fill="#B3B3B3" sketch:type="MSShapeGroup"></path>
                <path d="M40.759,63.459 C39.93,63.459 39.259,62.787 39.259,61.959 C39.259,61.131 39.93,60.459 40.759,60.459 L48.745,60.459 C49.573,60.459 50.245,61.131 50.245,61.959 C50.245,62.787 49.573,63.459 48.745,63.459 L40.759,63.459 Z" id="Shape" fill="#808080" sketch:type="MSShapeGroup"></path>
                <ellipse id="Oval" fill="#B3B3B3" sketch:type="MSShapeGroup" transform="translate(7.569540, 52.631824) rotate(170.049769) translate(-7.569540, -52.631824) " cx="7.5695398" cy="52.6318244" rx="5.35822728" ry="10.5434472"></ellipse>
                <ellipse id="Oval" fill="#B3B3B3" sketch:type="MSShapeGroup" transform="translate(84.096605, 52.640979) rotate(9.950231) translate(-84.096605, -52.640979) " cx="84.0966048" cy="52.6409788" rx="5.35922732" ry="10.5434472"></ellipse>
                <circle id="Oval" fill="#808080" sketch:type="MSShapeGroup" cx="31.396" cy="49.371" r="4.756"></circle>
                <circle id="Oval" fill="#808080" sketch:type="MSShapeGroup" cx="58.336" cy="49.371" r="4.756"></circle>
            </g>
            <path d="M62.859,24.126 C41.536,24.126 24.189,46.155 24.189,73.232 C24.189,84.344 28.706,93.547 33.587,101.837 C41.596,115.441 51.445,122.338 62.858,122.338 C74.335,122.338 83.725,116.168 91.568,103.477 C98.27,92.631 101.528,82.739 101.528,73.232 C101.529,46.156 84.182,24.126 62.859,24.126 L62.859,24.126 Z M92.8438254,56.116894 C94.571647,61.3662662 95.53,67.1547194 95.53,73.233 C95.529,81.592 92.564,90.453 86.466,100.323 C79.806,111.1 72.084,116.339 62.86,116.339 C53.593,116.339 45.71,110.6 38.758,98.793 C34.308,91.235 30.19,82.908 30.19,73.233 C30.19,68.9280196 30.6707685,64.7684244 31.5651808,60.8427694 L31.5651792,60.8427767 C39.5744947,58.4840468 46.1172503,52.7019035 49.5,45.1897928 C53.9628136,55.1004134 63.9256644,62 75.5,62 C82.0258878,62 88.0394886,59.806639 92.8438254,56.116894 Z" id="Shape-3" fill="#B3B3B3" sketch:type="MSShapeGroup"></path>
            <path d="M51.0601035,30.6341157 C51.0202405,31.2509378 51,31.8731052 51,32.5 C51,48.2401154 63.7598846,61 79.5,61 C83.5958181,61 87.4898388,60.136003 91.0097478,58.5803234" id="Oval-6" stroke="#FFFFFF" stroke-width="2" stroke-linecap="round" sketch:type="MSShapeGroup"></path>
            <path d="M61.5783557,15.4511735 C61.5384927,16.0679957 61.5182522,16.690163 61.5182522,17.3170578 C61.5182522,33.0571732 74.2781369,45.8170578 90.0182522,45.8170578 C94.1140703,45.8170578 98.008091,44.9530608 101.528,43.3973813" id="Oval-6" stroke="#FFFFFF" stroke-width="2" stroke-linecap="round" sketch:type="MSShapeGroup" transform="translate(81.523126, 30.634116) rotate(-15.000000) translate(-81.523126, -30.634116) "></path>
            <circle id="Oval-10" stroke="#FFFFFF" stroke-width="2" sketch:type="MSShapeGroup" cx="22.5" cy="29.5" r="28.5"></circle>
            <circle id="Oval-7" fill="#B3B3B3" sketch:type="MSShapeGroup" transform="translate(89.000000, 21.000000) rotate(-225.000000) translate(-89.000000, -21.000000) " cx="89" cy="21" r="12"></circle>
            <circle id="Oval-8" fill="#B3B3B3" sketch:type="MSShapeGroup" transform="translate(89.000000, 21.000000) rotate(-225.000000) translate(-89.000000, -21.000000) " cx="89" cy="21" r="12"></circle>
            <rect id="Rectangle-1" fill="#808080" sketch:type="MSShapeGroup" transform="translate(81.246830, 30.586325) rotate(-234.000000) translate(-81.246830, -30.586325) " x="78.7468304" y="20.6936884" width="5" height="19.7852732"></rect>
            <path d="M92.1611652,32.8388348 C97.0427189,37.7203884 104.957281,37.7203884 109.838835,32.8388348 C114.720388,27.9572811 114.720388,20.0427189 109.838835,15.1611652 C104.957281,10.2796116 97.0427189,10.2796116 92.1611652,15.1611652 C87.2796116,20.0427189 87.2796116,27.9572811 92.1611652,32.8388348 Z M109.131728,15.868272 C113.622757,20.3593014 113.622757,27.6406986 109.131728,32.131728 C104.640699,36.6227573 97.3593014,36.6227573 92.868272,32.131728 C88.3772427,27.6406986 88.3772427,20.3593014 92.868272,15.868272 C97.3593014,11.3772427 104.640699,11.3772427 109.131728,15.868272 Z" id="Oval-9" fill="#FFFFFF" sketch:type="MSShapeGroup"></path>
            <path d="M81.8807699,20.3388348 C86.7623235,25.2203884 94.6768858,25.2203884 99.5584394,20.3388348 C104.439993,15.4572811 104.439993,7.54271888 99.5584394,2.66116524 C94.6768858,-2.22038841 86.7623235,-2.22038841 81.8807699,2.66116524 C76.9992162,7.54271888 76.9992162,15.4572811 81.8807699,20.3388348 Z M98.8513326,3.36827202 C103.342362,7.85930137 103.342362,15.1406986 98.8513326,19.631728 C94.3603033,24.1227573 87.078906,24.1227573 82.5878767,19.631728 C78.0968473,15.1406986 78.0968473,7.85930137 82.5878767,3.36827202 C87.078906,-1.12275734 94.3603033,-1.12275734 98.8513326,3.36827202 Z" id="Oval-9" fill="#FFFFFF" sketch:type="MSShapeGroup"></path>
            <path d="M38.4239122,66.6219422 C41.6253551,64.3788102 43.887696,60.8609609 51.2114911,60.860961" id="Path-13" stroke="#979797" stroke-width="2" stroke-linecap="round" sketch:type="MSShapeGroup"></path>
            <path d="M50.2536816,98.5562732 C52.4582772,102.357604 57.3363975,105 63,105 C69.4281457,105 74.844427,101.596045 76.4883262,96.957113 C76.8217634,96.0161839 77,95.0244464 77,94" id="Oval-10" stroke="#979797" stroke-width="3" stroke-linecap="round" sketch:type="MSShapeGroup"></path>
        </g>
    </g>
</svg>