<?xml version="1.0" encoding="UTF-8" standalone="no"?>
<svg width="90px" height="90px" viewBox="0 0 90 90" version="1.1" xmlns="http://www.w3.org/2000/svg" xmlns:xlink="http://www.w3.org/1999/xlink" xmlns:sketch="http://www.bohemiancoding.com/sketch/ns">
    <!-- Generator: Sketch 3.2 (9961) - http://www.bohemiancoding.com/sketch -->
    <title>equipment</title>
    <desc>Created with Sketch.</desc>
    <defs></defs>
    <g id="Illustrations" stroke="none" stroke-width="1" fill="none" fill-rule="evenodd" sketch:type="MSPage">
        <g id="equipment" sketch:type="MSArtboardGroup">
            <circle id="Oval-1" stroke="#979797" stroke-width="2" fill="#FFFFFF" sketch:type="MSShapeGroup" cx="45" cy="45" r="36"></circle>
            <polygon id="Star-2" stroke="#E6E6E6" fill="#E6E6E6" sketch:type="MSShapeGroup" points="45 45 30.2479529 75.6329415 45 45 11.852451 52.5657118 45 45 18.4177296 23.8013467 45 45 45 11 45 45 71.5822704 23.8013467 45 45 78.147549 52.5657118 45 45 59.7520471 75.6329415 "></polygon>
            <g id="time-saver" sketch:type="MSLayerGroup" transform="translate(11.000000, 11.000000)"></g>
            <circle id="Oval-3" stroke="#E6E6E6" stroke-width="2" sketch:type="MSShapeGroup" cx="45" cy="45" r="33.8884479"></circle>
            <g id="wind" sketch:type="MSLayerGroup" transform="translate(18.000000, 30.000000)" stroke="#979797">
                <path d="M5.01423176,0.300703264 C2.198215,4.50428258 0.555776054,9.56033521 0.555776054,15" id="Oval-4" sketch:type="MSShapeGroup"></path>
                <path d="M6.8056777,3.02663454 C5.36765917,5.42884588 4.34158496,8.10599183 3.82505911,10.9604684" id="Oval-5" sketch:type="MSShapeGroup"></path>
                <path d="M8.83899377,4.51129167 C8.44435228,5.19683259 8.08662061,5.9063114 7.76851212,6.63701476" id="Oval-6" sketch:type="MSShapeGroup"></path>
            </g>
            <g id="wind-2" sketch:type="MSLayerGroup" transform="translate(51.000000, 39.000000) scale(-1, -1) translate(-51.000000, -39.000000) translate(30.000000, 18.000000)" stroke="#979797">
                <path d="M5.01423176,0.300703264 C2.198215,4.50428258 0.555776054,9.56033521 0.555776054,15" id="Oval-4" sketch:type="MSShapeGroup"></path>
                <path d="M6.8056777,3.02663454 C5.36765917,5.42884588 4.34158496,8.10599183 3.82505911,10.9604684" id="Oval-5" sketch:type="MSShapeGroup"></path>
                <path d="M8.83899377,4.51129167 C8.44435228,5.19683259 8.08662061,5.9063114 7.76851212,6.63701476" id="Oval-6" sketch:type="MSShapeGroup"></path>
            </g>
            <g id="fan-wheel" sketch:type="MSLayerGroup" transform="translate(45.701836, 45.086175) rotate(-308.000000) translate(-45.701836, -45.086175) translate(16.201836, 15.586175)">
                <g id="blades" transform="translate(23.000000, 1.000000)" stroke="#979797" fill="#FFFFFF" sketch:type="MSShapeGroup">
                    <path d="M8.84411679,0 L7.10542736e-15,0 L7.10542736e-15,21 L9.55707096,21 C10.0372229,21 12,18.9965027 12,18.4992555 L12,4.87001095 L8.84411679,0 Z" id="Rectangle-343"></path>
                    <path d="M8.84411679,37 L-7.10542736e-15,37 L-7.10542736e-15,58 L9.55707096,58 C10.0372229,58 12,55.9965027 12,55.4992555 L12,41.870011 L8.84411679,37 Z" id="Rectangle-345" transform="translate(6.000000, 47.500000) scale(-1, 1) translate(-6.000000, -47.500000) "></path>
                </g>
                <g id="blades-2" transform="translate(29.000000, 30.000000) rotate(-270.000000) translate(-29.000000, -30.000000) translate(23.000000, 1.000000)" stroke="#979797" fill="#FFFFFF" sketch:type="MSShapeGroup">
                    <path d="M8.84411679,7.10542736e-15 L2.13162821e-14,7.10542736e-15 L2.13162821e-14,21 L9.55707096,21 C10.0372229,21 12,18.9965027 12,18.4992555 L12,4.87001095 L8.84411679,7.10542736e-15 Z" id="Rectangle-343"></path>
                    <path d="M8.84411679,37 L0,37 L0,58 L9.55707096,58 C10.0372229,58 12,55.9965027 12,55.4992555 L12,41.870011 L8.84411679,37 Z" id="Rectangle-345" transform="translate(6.000000, 47.500000) scale(-1, 1) translate(-6.000000, -47.500000) "></path>
                </g>
                <path d="M26,27 L26,15 L32,15 L32,27 L44,27 L44,33 L32,33 L32,45 L26,45 L26,33 L14,33 L14,27 L26,27 Z" id="Rectangle-344" stroke="#979797" fill="#D8D8D8" sketch:type="MSShapeGroup"></path>
                <g id="blade-bolts" transform="translate(27.000000, 17.000000)" fill="#979797" sketch:type="MSShapeGroup">
                    <circle id="Oval-319" cx="0.5" cy="0.5" r="0.5"></circle>
                    <circle id="Oval-320" cx="3.5" cy="0.5" r="0.5"></circle>
                    <circle id="Oval-322" cx="0.5" cy="2.5" r="0.5"></circle>
                    <circle id="Oval-321" cx="3.5" cy="2.5" r="0.5"></circle>
                </g>
                <g id="blade-bolts-2" transform="translate(27.000000, 40.000000)" fill="#979797" sketch:type="MSShapeGroup">
                    <circle id="Oval-319" cx="0.5" cy="0.5" r="0.5"></circle>
                    <circle id="Oval-320" cx="3.5" cy="0.5" r="0.5"></circle>
                    <circle id="Oval-322" cx="0.5" cy="2.5" r="0.5"></circle>
                    <circle id="Oval-321" cx="3.5" cy="2.5" r="0.5"></circle>
                </g>
                <g id="blade-bolts-4-+-blade-bolts-3" transform="translate(29.000000, 30.000000) rotate(-90.000000) translate(-29.000000, -30.000000) translate(27.000000, 17.000000)" fill="#979797" sketch:type="MSShapeGroup">
                    <g id="blade-bolts-4">
                        <circle id="Oval-319" cx="0.5" cy="0.5" r="0.5"></circle>
                        <circle id="Oval-320" cx="3.5" cy="0.5" r="0.5"></circle>
                        <circle id="Oval-322" cx="0.5" cy="2.5" r="0.5"></circle>
                        <circle id="Oval-321" cx="3.5" cy="2.5" r="0.5"></circle>
                    </g>
                    <g id="blade-bolts-3" transform="translate(0.000000, 23.000000)">
                        <circle id="Oval-319" cx="0.5" cy="0.5" r="0.5"></circle>
                        <circle id="Oval-320" cx="3.5" cy="0.5" r="0.5"></circle>
                        <circle id="Oval-322" cx="0.5" cy="2.5" r="0.5"></circle>
                        <circle id="Oval-321" cx="3.5" cy="2.5" r="0.5"></circle>
                    </g>
                </g>
            </g>
            <circle id="Oval-317" stroke="#979797" fill="#D8D8D8" sketch:type="MSShapeGroup" cx="45" cy="45" r="5"></circle>
            <circle id="Oval-318" stroke="#979797" fill="#979797" sketch:type="MSShapeGroup" cx="45" cy="45" r="1"></circle>
        </g>
    </g>
</svg>