<?xml version="1.0" encoding="UTF-8" standalone="no"?>
<svg width="240px" height="120px" viewBox="0 0 240 120" version="1.1" xmlns="http://www.w3.org/2000/svg" xmlns:xlink="http://www.w3.org/1999/xlink" xmlns:sketch="http://www.bohemiancoding.com/sketch/ns">
    <!-- Generator: Sketch 3.3.3 (12072) - http://www.bohemiancoding.com/sketch -->
    <title>facility-blank</title>
    <desc>Created with Sketch.</desc>
    <defs>
        <rect id="path-1" x="20" y="13" width="38" height="80"></rect>
    </defs>
    <g id="Page-1" stroke="none" stroke-width="1" fill="none" fill-rule="evenodd" sketch:type="MSPage">
        <g id="facility-blank" sketch:type="MSArtboardGroup">
            <g id="Group" sketch:type="MSLayerGroup" transform="translate(60.000000, 13.000000)">
                <rect id="Rectangle-21-Copy" stroke="#C7CACD" stroke-width="2" fill="#C7CACD" sketch:type="MSShapeGroup" x="0" y="26" width="38" height="67"></rect>
                <rect id="Rectangle-21-Copy-3" stroke="#C7CACD" stroke-width="2" fill="#C7CACD" sketch:type="MSShapeGroup" x="40" y="26" width="38" height="67"></rect>
                <rect id="Rectangle-21-Copy-5" stroke="#C7CACD" stroke-width="2" fill="#C7CACD" sketch:type="MSShapeGroup" x="45" y="62" width="47" height="31"></rect>
                <g id="Rectangle-21-Copy-7-+-Rectangle-21-Copy-8-+-Rectangle-21-Copy-9" transform="translate(80.000000, 36.000000)" stroke="#C7CACD" stroke-width="2" fill="#C7CACD" sketch:type="MSShapeGroup">
                    <rect id="Rectangle-21-Copy-7" x="0" y="0" width="20" height="57"></rect>
                    <rect id="Rectangle-21-Copy-8" x="0" y="5" width="30" height="52"></rect>
                    <rect id="Rectangle-21-Copy-9" x="0" y="9" width="40" height="48"></rect>
                </g>
                <g id="Rectangle-21-Copy-2">
                    <use stroke="#C7CACD" stroke-width="2" fill="#C7CACD" fill-rule="evenodd" sketch:type="MSShapeGroup" xlink:href="#path-1"></use>
                    <use stroke="none" fill="none" xlink:href="#path-1"></use>
                </g>
                <rect id="Rectangle-2189" fill="#F7F8FA" sketch:type="MSShapeGroup" x="58" y="26" width="2" height="67"></rect>
                <rect id="Rectangle-2189-Copy" fill="#F7F8FA" sketch:type="MSShapeGroup" x="18" y="26" width="2" height="67"></rect>
                <rect id="Rectangle-2192" fill="#C7CACD" sketch:type="MSShapeGroup" x="37" y="0" width="2" height="13"></rect>
                <rect id="Rectangle-2192-Copy" fill="#C7CACD" sketch:type="MSShapeGroup" x="40" y="6" width="2" height="7"></rect>
            </g>
            <g id="Group" sketch:type="MSLayerGroup" transform="translate(74.000000, 57.000000)">
                <rect id="Rectangle-21-Copy-4" stroke="#93989C" stroke-width="2" fill="#FFFFFF" sketch:type="MSShapeGroup" x="36" y="4" width="57" height="45"></rect>
                <rect id="Rectangle-21-Copy-5" stroke="#93989C" stroke-width="2" fill="#FFFFFF" sketch:type="MSShapeGroup" x="0" y="15" width="38" height="34"></rect>
                <rect id="Rectangle-26" fill="#93989C" sketch:type="MSShapeGroup" x="42" y="15" width="31" height="2"></rect>
                <path d="M71,13 L73,13 L75,19 L69,19 L71,13 Z" id="Rectangle-30" stroke="#93989C" fill="#C7CACD" sketch:type="MSShapeGroup"></path>
                <rect id="Rectangle-32" fill="#93989C" sketch:type="MSShapeGroup" x="71" y="11" width="2" height="2"></rect>
                <rect id="Rectangle-33" fill="#93989C" sketch:type="MSShapeGroup" x="42" y="22" width="21" height="4"></rect>
                <rect id="Rectangle-33-Copy-11" fill="#C7CACD" sketch:type="MSShapeGroup" x="42" y="26" width="21" height="21"></rect>
                <rect id="Rectangle-66" stroke="#54545A" sketch:type="MSShapeGroup" x="79" y="0" width="1" height="49"></rect>
                <rect id="Rectangle-68" fill="#93989C" sketch:type="MSShapeGroup" x="79" y="44" width="6" height="1"></rect>
                <rect id="Rectangle-68-Copy" fill="#93989C" sketch:type="MSShapeGroup" x="79" y="41" width="6" height="1"></rect>
                <rect id="Rectangle-68-Copy-2" fill="#93989C" sketch:type="MSShapeGroup" x="79" y="38" width="6" height="1"></rect>
                <rect id="Rectangle-68-Copy-3" fill="#93989C" sketch:type="MSShapeGroup" x="79" y="35" width="6" height="1"></rect>
                <rect id="Rectangle-68-Copy-4" fill="#93989C" sketch:type="MSShapeGroup" x="79" y="32" width="6" height="1"></rect>
                <rect id="Rectangle-68-Copy-5" fill="#93989C" sketch:type="MSShapeGroup" x="79" y="29" width="6" height="1"></rect>
                <rect id="Rectangle-68-Copy-6" fill="#93989C" sketch:type="MSShapeGroup" x="79" y="26" width="6" height="1"></rect>
                <rect id="Rectangle-68-Copy-7" fill="#93989C" sketch:type="MSShapeGroup" x="79" y="23" width="6" height="1"></rect>
                <rect id="Rectangle-68-Copy-8" fill="#93989C" sketch:type="MSShapeGroup" x="79" y="20" width="6" height="1"></rect>
                <rect id="Rectangle-68-Copy-9" fill="#93989C" sketch:type="MSShapeGroup" x="79" y="17" width="6" height="1"></rect>
                <rect id="Rectangle-68-Copy-10" fill="#93989C" sketch:type="MSShapeGroup" x="79" y="14" width="6" height="1"></rect>
                <rect id="Rectangle-68-Copy-11" fill="#93989C" sketch:type="MSShapeGroup" x="79" y="11" width="6" height="1"></rect>
                <rect id="Rectangle-68-Copy-12" fill="#93989C" sketch:type="MSShapeGroup" x="79" y="8" width="6" height="1"></rect>
                <rect id="Rectangle-68-Copy-13" fill="#93989C" sketch:type="MSShapeGroup" x="79" y="5" width="6" height="1"></rect>
                <rect id="Rectangle-68-Copy-14" fill="#93989C" sketch:type="MSShapeGroup" x="79" y="2" width="6" height="1"></rect>
                <rect id="Rectangle-66-Copy" stroke="#54545A" sketch:type="MSShapeGroup" x="85" y="0" width="1" height="49"></rect>
                <rect id="Rectangle-1793-Copy" fill="#93989C" sketch:type="MSShapeGroup" x="42" y="27" width="21" height="1"></rect>
                <rect id="Rectangle-1793-Copy-2" fill="#93989C" sketch:type="MSShapeGroup" x="42" y="29" width="21" height="1"></rect>
                <rect id="Rectangle-1793-Copy-3" fill="#93989C" sketch:type="MSShapeGroup" x="42" y="31" width="21" height="1"></rect>
                <rect id="Rectangle-1793-Copy-4" fill="#93989C" sketch:type="MSShapeGroup" x="42" y="33" width="21" height="1"></rect>
                <rect id="Rectangle-1793-Copy-5" fill="#93989C" sketch:type="MSShapeGroup" x="42" y="35" width="21" height="1"></rect>
                <rect id="Rectangle-1793-Copy-6" fill="#93989C" sketch:type="MSShapeGroup" x="42" y="37" width="21" height="1"></rect>
                <rect id="Rectangle-1793-Copy-7" fill="#93989C" sketch:type="MSShapeGroup" x="42" y="39" width="21" height="1"></rect>
                <rect id="Rectangle-1793-Copy-8" fill="#93989C" sketch:type="MSShapeGroup" x="42" y="41" width="21" height="1"></rect>
                <rect id="Rectangle-1793-Copy-9" fill="#93989C" sketch:type="MSShapeGroup" x="42" y="43" width="21" height="1"></rect>
                <rect id="Rectangle-1793-Copy-10" fill="#93989C" sketch:type="MSShapeGroup" x="42" y="45" width="21" height="1"></rect>
                <path d="M69,19 L75,19 L84,47 L60,47 L69,19 Z" id="Rectangle-31" fill-opacity="0.599382926" fill="#C7CACD" sketch:type="MSShapeGroup"></path>
                <path d="M17,32 L16,32 L16,47 L18,47 L18,34 L24,34 L24,47 L26,47 L26,33 L26,32 L17,32 Z" id="Rectangle-1804" stroke="#979797" fill="#D8D8D8" sketch:type="MSShapeGroup"></path>
                <rect id="Rectangle-1807" stroke="#979797" fill="#D8D8D8" sketch:type="MSShapeGroup" x="22" y="38" width="1" height="4"></rect>
            </g>
        </g>
    </g>
</svg>