<?xml version="1.0" encoding="UTF-8" standalone="no"?>
<svg width="54px" height="54px" viewBox="0 0 54 54" version="1.1" xmlns="http://www.w3.org/2000/svg" xmlns:xlink="http://www.w3.org/1999/xlink" xmlns:sketch="http://www.bohemiancoding.com/sketch/ns">
    <!-- Generator: Sketch 3.3.3 (12072) - http://www.bohemiancoding.com/sketch -->
    <title>facility-blank copy</title>
    <desc>Created with Sketch.</desc>
    <defs></defs>
    <g id="Page-1" stroke="none" stroke-width="1" fill="none" fill-rule="evenodd" sketch:type="MSPage">
        <g id="facility-blank-copy" sketch:type="MSArtboardGroup">
            <rect id="Rectangle-21-Copy-4" stroke="#93989C" stroke-width="2" fill="#FFFFFF" sketch:type="MSShapeGroup" x="-19" y="11" width="57" height="45"></rect>
            <rect id="Rectangle-26" fill="#93989C" sketch:type="MSShapeGroup" x="-12" y="22" width="30" height="2"></rect>
            <path d="M16,20 L20,20 L21,26 L15,26 L16,20 Z" id="Rectangle-30" stroke="#93989C" fill="#C7CACD" sketch:type="MSShapeGroup"></path>
            <rect id="Rectangle-32" fill="#93989C" sketch:type="MSShapeGroup" x="17" y="18" width="2" height="2"></rect>
            <rect id="Rectangle-33" fill="#93989C" sketch:type="MSShapeGroup" x="-12" y="29" width="21" height="4"></rect>
            <rect id="Rectangle-33-Copy-11" fill="#C7CACD" sketch:type="MSShapeGroup" x="-12" y="33" width="21" height="21"></rect>
            <rect id="Rectangle-33-Copy" fill="#93989C" sketch:type="MSShapeGroup" x="-12" y="34" width="21" height="1"></rect>
            <rect id="Rectangle-33-Copy-2" fill="#93989C" sketch:type="MSShapeGroup" x="-12" y="36" width="21" height="1"></rect>
            <rect id="Rectangle-33-Copy-3" fill="#93989C" sketch:type="MSShapeGroup" x="-12" y="38" width="21" height="1"></rect>
            <rect id="Rectangle-33-Copy-4" fill="#93989C" sketch:type="MSShapeGroup" x="-12" y="40" width="21" height="1"></rect>
            <rect id="Rectangle-33-Copy-5" fill="#93989C" sketch:type="MSShapeGroup" x="-12" y="42" width="21" height="1"></rect>
            <rect id="Rectangle-33-Copy-6" fill="#93989C" sketch:type="MSShapeGroup" x="-12" y="44" width="21" height="1"></rect>
            <rect id="Rectangle-33-Copy-7" fill="#93989C" sketch:type="MSShapeGroup" x="-12" y="46" width="21" height="1"></rect>
            <rect id="Rectangle-33-Copy-8" fill="#93989C" sketch:type="MSShapeGroup" x="-12" y="48" width="21" height="1"></rect>
            <rect id="Rectangle-33-Copy-9" fill="#93989C" sketch:type="MSShapeGroup" x="-12" y="50" width="21" height="1"></rect>
            <rect id="Rectangle-33-Copy-10" fill="#93989C" sketch:type="MSShapeGroup" x="-12" y="52" width="21" height="1"></rect>
            <path d="M15,26 L21,26 L28,54 L8,54 L15,26 Z" id="Rectangle-31" fill-opacity="0.699671649" fill="#C7CACD" sketch:type="MSShapeGroup"></path>
            <rect id="Rectangle-66" stroke="#54545A" sketch:type="MSShapeGroup" x="27" y="5" width="1" height="49"></rect>
            <rect id="Rectangle-66-Copy" stroke="#54545A" sketch:type="MSShapeGroup" x="32" y="5" width="1" height="49"></rect>
            <rect id="Rectangle-68" fill="#93989C" sketch:type="MSShapeGroup" x="27" y="50" width="5" height="1"></rect>
            <rect id="Rectangle-68-Copy" fill="#93989C" sketch:type="MSShapeGroup" x="27" y="47" width="5" height="1"></rect>
            <rect id="Rectangle-68-Copy-2" fill="#93989C" sketch:type="MSShapeGroup" x="27" y="44" width="5" height="1"></rect>
            <rect id="Rectangle-68-Copy-3" fill="#93989C" sketch:type="MSShapeGroup" x="27" y="41" width="5" height="1"></rect>
            <rect id="Rectangle-68-Copy-4" fill="#93989C" sketch:type="MSShapeGroup" x="27" y="38" width="5" height="1"></rect>
            <rect id="Rectangle-68-Copy-5" fill="#93989C" sketch:type="MSShapeGroup" x="27" y="35" width="5" height="1"></rect>
            <rect id="Rectangle-68-Copy-6" fill="#93989C" sketch:type="MSShapeGroup" x="27" y="32" width="5" height="1"></rect>
            <rect id="Rectangle-68-Copy-7" fill="#93989C" sketch:type="MSShapeGroup" x="27" y="29" width="5" height="1"></rect>
            <rect id="Rectangle-68-Copy-8" fill="#93989C" sketch:type="MSShapeGroup" x="27" y="26" width="5" height="1"></rect>
            <rect id="Rectangle-68-Copy-9" fill="#93989C" sketch:type="MSShapeGroup" x="27" y="23" width="5" height="1"></rect>
            <rect id="Rectangle-68-Copy-10" fill="#93989C" sketch:type="MSShapeGroup" x="27" y="20" width="5" height="1"></rect>
            <rect id="Rectangle-68-Copy-11" fill="#93989C" sketch:type="MSShapeGroup" x="27" y="17" width="5" height="1"></rect>
            <rect id="Rectangle-68-Copy-12" fill="#93989C" sketch:type="MSShapeGroup" x="27" y="14" width="5" height="1"></rect>
            <rect id="Rectangle-68-Copy-13" fill="#93989C" sketch:type="MSShapeGroup" x="27" y="11" width="5" height="1"></rect>
            <rect id="Rectangle-68-Copy-14" fill="#93989C" sketch:type="MSShapeGroup" x="27" y="8" width="5" height="1"></rect>
        </g>
    </g>
</svg>