<?xml version="1.0" encoding="UTF-8" standalone="no"?>
<svg width="148px" height="148px" viewBox="0 0 148 148" version="1.1" xmlns="http://www.w3.org/2000/svg" xmlns:xlink="http://www.w3.org/1999/xlink" xmlns:sketch="http://www.bohemiancoding.com/sketch/ns">
    <!-- Generator: Sketch 3.2.2 (9983) - http://www.bohemiancoding.com/sketch -->
    <title>Group 2</title>
    <desc>Created with Sketch.</desc>
    <defs></defs>
    <g id="Illustrations" stroke="none" stroke-width="1" fill="none" fill-rule="evenodd" sketch:type="MSPage">
        <g id="equipment-2" sketch:type="MSArtboardGroup" transform="translate(-15.000000, -14.000000)">
            <g id="Group-2" sketch:type="MSLayerGroup" transform="translate(15.000000, 14.000000)">
                <polygon id="Star-2" stroke="#E6E6E6" stroke-width="3" fill="#E6E6E6" sketch:type="MSShapeGroup" points="74 74 44.4959057 135.265883 74 74 7.70490197 89.1314235 74 74 20.8354592 31.6026935 74 74 74 6 74 74 127.164541 31.6026935 74 74 140.295098 89.1314235 74 74 103.504094 135.265883 "></polygon>
                <path d="M143.776896,74 C143.776896,35.4632846 112.536715,4.22310422 74,4.22310422 C35.4632846,4.22310422 4.22310422,35.4632846 4.22310422,74 C4.22310422,112.536715 35.4632846,143.776896 74,143.776896 C112.536715,143.776896 143.776896,112.536715 143.776896,74 Z M8.22310422,74 C8.22310422,37.6724236 37.6724236,8.22310422 74,8.22310422 C110.327576,8.22310422 139.776896,37.6724236 139.776896,74 C139.776896,110.327576 110.327576,139.776896 74,139.776896 C37.6724236,139.776896 8.22310422,110.327576 8.22310422,74 Z" id="Oval-3" fill="#E6E6E6" sketch:type="MSShapeGroup"></path>
                <path d="M148,74 C148,33.1309285 114.869071,0 74,0 C33.1309285,0 0,33.1309285 0,74 C0,114.869071 33.1309285,148 74,148 C114.869071,148 148,114.869071 148,74 Z M4,74 C4,35.3400675 35.3400675,4 74,4 C112.659932,4 144,35.3400675 144,74 C144,112.659932 112.659932,144 74,144 C35.3400675,144 4,112.659932 4,74 Z" id="Oval-1" fill="#979797" sketch:type="MSShapeGroup"></path>
                <circle id="Oval-497" fill="#979797" sketch:type="MSShapeGroup" cx="74" cy="74" r="4"></circle>
            </g>
        </g>
    </g>
</svg>