<?xml version="1.0" encoding="UTF-8" standalone="no"?>
<svg width="90px" height="97px" viewBox="0 0 90 97" version="1.1" xmlns="http://www.w3.org/2000/svg" xmlns:xlink="http://www.w3.org/1999/xlink" xmlns:sketch="http://www.bohemiancoding.com/sketch/ns">
    <!-- Generator: Sketch 3.2.2 (9983) - http://www.bohemiancoding.com/sketch -->
    <title>Cooperative purchasing 3</title>
    <desc>Created with Sketch.</desc>
    <defs></defs>
    <g id="Illustrations" stroke="none" stroke-width="1" fill="none" fill-rule="evenodd" sketch:type="MSPage">
        <g id="Cooperative-purchasing-3" sketch:type="MSArtboardGroup">
            <g id="cooperative" sketch:type="MSLayerGroup" transform="translate(14.000000, 11.000000)">
                <rect id="Rectangle-49" stroke="#E6E6E6" stroke-width="2" fill="#FFFFFF" sketch:type="MSShapeGroup" x="0" y="0" width="46" height="60"></rect>
                <rect id="Rectangle-23" stroke="#E6E6E6" stroke-width="2" fill="#FFFFFF" sketch:type="MSShapeGroup" x="4" y="4" width="46" height="60"></rect>
                <g id="report" transform="translate(8.000000, 8.000000)" sketch:type="MSShapeGroup">
                    <rect id="Rectangle-22" stroke="#90ACF3" stroke-width="2" fill="#FFFFFF" x="0" y="0" width="46" height="60"></rect>
                    <rect id="Rectangle-29" stroke="#DAE3FB" stroke-width="2" fill="#FFFFFF" x="2" y="2" width="42" height="56"></rect>
                    <rect id="Rectangle-24" fill="#9B9B9B" x="23" y="6" width="17" height="1"></rect>
                    <rect id="Rectangle-24" fill="#9B9B9B" x="6" y="14" width="4.5" height="2"></rect>
                    <rect id="Rectangle-24" fill="#9B9B9B" x="6" y="22" width="5" height="2"></rect>
                    <rect id="Rectangle-24" fill="#9B9B9B" x="31" y="8" width="9" height="1"></rect>
                    <rect id="Rectangle-24" fill="#9B9B9B" x="6" y="18" width="6" height="2"></rect>
                    <rect id="Rectangle-24" fill="#9B9B9B" x="6" y="26" width="8.5" height="2"></rect>
                    <rect id="Rectangle-28" fill="#9B9B9B" x="6" y="30" width="6" height="2"></rect>
                    <rect id="Rectangle-26" fill="#9B9B9B" x="6" y="34" width="7" height="2"></rect>
                    <rect id="Rectangle-32" fill="#3DBB7E" x="16" y="34" width="2" height="2"></rect>
                    <rect id="Rectangle-34" fill-opacity="0.898777187" fill="#EE5334" x="19" y="30" width="2" height="2"></rect>
                    <rect id="Rectangle-36" fill-opacity="0.898777187" fill="#EE5334" x="19" y="26" width="2" height="2"></rect>
                    <rect id="Rectangle-40" fill="#3DBB7E" x="16" y="22" width="2" height="2"></rect>
                    <rect id="Rectangle-42" fill="#3DBB7E" x="16" y="18" width="2" height="2"></rect>
                    <rect id="Rectangle-44" fill="#3DBB7E" x="16" y="14" width="2" height="2"></rect>
                    <rect id="Rectangle-48" fill="#9B9B9B" x="26" y="14" width="4.5" height="2"></rect>
                    <rect id="Rectangle-25" fill="#9B9B9B" x="26" y="22" width="3" height="2"></rect>
                    <rect id="Rectangle-27" fill="#9B9B9B" x="26" y="18" width="4" height="2"></rect>
                    <rect id="Rectangle-30" fill="#9B9B9B" x="26" y="26" width="3.5" height="2"></rect>
                    <rect id="Rectangle-33" fill="#9B9B9B" x="26" y="30" width="6" height="2"></rect>
                    <rect id="Rectangle-35" fill="#9B9B9B" x="26" y="34" width="3" height="2"></rect>
                    <rect id="Rectangle-37" fill="#3DBB7E" x="34" y="34" width="2" height="2"></rect>
                    <rect id="Rectangle-38" fill="#3DBA7E" x="34" y="30" width="2" height="2"></rect>
                    <rect id="Rectangle-41" fill="#3DBA7E" x="34" y="26" width="2" height="2"></rect>
                    <rect id="Rectangle-43" fill="#EF6549" x="37" y="22" width="2" height="2"></rect>
                    <rect id="Rectangle-46" fill="#EF6549" x="37" y="18" width="2" height="2"></rect>
                    <rect id="Rectangle-47" fill="#3DBB7E" x="34" y="14" width="2" height="2"></rect>
                    <rect id="Rectangle-31" fill="#9B9B9B" x="6" y="39" width="20" height="1"></rect>
                    <rect id="Rectangle-31" fill="#9B9B9B" x="6" y="41" width="18" height="1"></rect>
                    <rect id="Rectangle-31" fill="#9B9B9B" x="6" y="45" width="20" height="1"></rect>
                    <rect id="Rectangle-31" fill="#9B9B9B" x="6" y="43" width="17" height="1"></rect>
                    <rect id="Rectangle-31" fill="#9B9B9B" x="6" y="47" width="13" height="1"></rect>
                </g>
            </g>
            <rect id="Rectangle-1047" fill="#FFFFFF" sketch:type="MSShapeGroup" x="49" y="10" width="5" height="7"></rect>
            <rect id="Rectangle-1048" fill="#FFFFFF" sketch:type="MSShapeGroup" transform="translate(15.500000, 28.500000) rotate(-270.000000) translate(-15.500000, -28.500000) " x="13" y="25" width="5" height="7"></rect>
            <rect id="Rectangle-1049" fill="#FFFFFF" sketch:type="MSShapeGroup" transform="translate(15.500000, 60.500000) rotate(-270.000000) translate(-15.500000, -60.500000) " x="13" y="57" width="5" height="7"></rect>
            <g id="arrow-4" sketch:type="MSLayerGroup" transform="translate(72.000000, 26.000000)" stroke="#092F3E">
                <path d="M0.5,2.5 L10.5,2.5" id="Line" stroke-linecap="square" sketch:type="MSShapeGroup"></path>
                <path d="M9,1 L9,4 L12,4 L9,1 Z" id="Rectangle-39" fill="#092F3E" sketch:type="MSShapeGroup" transform="translate(10.500000, 2.500000) rotate(-135.000000) translate(-10.500000, -2.500000) "></path>
            </g>
            <g id="arrow-4" sketch:type="MSLayerGroup" transform="translate(72.000000, 53.000000)" stroke="#092F3E">
                <path d="M0.5,2.5 L10.5,2.5" id="Line" stroke-linecap="square" sketch:type="MSShapeGroup"></path>
                <path d="M9,1 L9,4 L12,4 L9,1 Z" id="Rectangle-39" fill="#092F3E" sketch:type="MSShapeGroup" transform="translate(10.500000, 2.500000) rotate(-135.000000) translate(-10.500000, -2.500000) "></path>
            </g>
            <g id="arrow-4" sketch:type="MSLayerGroup" transform="translate(11.500000, 60.500000) scale(-1, 1) translate(-11.500000, -60.500000) translate(5.000000, 58.000000)" stroke="#092F3E">
                <path d="M0.5,2.5 L10.5,2.5" id="Line" stroke-linecap="square" sketch:type="MSShapeGroup"></path>
                <path d="M9,1 L9,4 L12,4 L9,1 Z" id="Rectangle-39" fill="#092F3E" sketch:type="MSShapeGroup" transform="translate(10.500000, 2.500000) rotate(-135.000000) translate(-10.500000, -2.500000) "></path>
            </g>
            <g id="arrow-5" sketch:type="MSLayerGroup" transform="translate(13.000000, 28.500000) scale(-1, 1) translate(-13.000000, -28.500000) translate(8.000000, 26.000000)" stroke="#092F3E">
                <path d="M0.5,2.5 L7.5,2.5" id="Line" stroke-linecap="square" sketch:type="MSShapeGroup"></path>
                <path d="M6,1 L6,4 L9,4 L6,1 Z" id="Rectangle-39" fill="#092F3E" sketch:type="MSShapeGroup" transform="translate(7.500000, 2.500000) rotate(-135.000000) translate(-7.500000, -2.500000) "></path>
            </g>
            <g id="arrow-6" sketch:type="MSLayerGroup" transform="translate(51.500000, 9.500000) scale(-1, 1) rotate(-90.000000) translate(-51.500000, -9.500000) translate(47.000000, 7.000000)" stroke="#092F3E">
                <path d="M-0.5,2.5 L6.5,2.5" id="Line" stroke-linecap="square" sketch:type="MSShapeGroup"></path>
                <path d="M5,1 L5,4 L8,4 L5,1 Z" id="Rectangle-39" fill="#092F3E" sketch:type="MSShapeGroup" transform="translate(6.500000, 2.500000) rotate(-135.000000) translate(-6.500000, -2.500000) "></path>
            </g>
            <g id="arrow-7" sketch:type="MSLayerGroup" transform="translate(31.500000, 87.500000) scale(-1, -1) rotate(-90.000000) translate(-31.500000, -87.500000) translate(27.000000, 85.000000)" stroke="#092F3E">
                <path d="M-0.5,2.5 L6.5,2.5" id="Line" stroke-linecap="square" sketch:type="MSShapeGroup"></path>
                <path d="M5,1 L5,4 L8,4 L5,1 Z" id="Rectangle-39" fill="#092F3E" sketch:type="MSShapeGroup" transform="translate(6.500000, 2.500000) rotate(-135.000000) translate(-6.500000, -2.500000) "></path>
            </g>
        </g>
    </g>
</svg>