<?xml version="1.0" encoding="UTF-8" standalone="no"?>
<svg width="102px" height="54px" viewBox="0 0 102 54" version="1.1" xmlns="http://www.w3.org/2000/svg" xmlns:xlink="http://www.w3.org/1999/xlink" xmlns:sketch="http://www.bohemiancoding.com/sketch/ns">
    <!-- Generator: Sketch 3.2.2 (9983) - http://www.bohemiancoding.com/sketch -->
    <title>blank-check</title>
    <desc>Created with Sketch.</desc>
    <defs></defs>
    <g id="Illustrations" stroke="none" stroke-width="1" fill="none" fill-rule="evenodd" sketch:type="MSPage">
        <g id="blank-check" sketch:type="MSArtboardGroup">
            <g id="blank-table" sketch:type="MSLayerGroup" transform="translate(4.000000, 4.000000)">
                <g id="cooperative"></g>
            </g>
            <rect id="Rectangle-22" stroke="#9B9B9B" stroke-width="2" sketch:type="MSShapeGroup" x="4" y="4" width="94" height="46"></rect>
            <rect id="Rectangle-29" stroke="#E6E6E6" stroke-width="2" sketch:type="MSShapeGroup" x="6" y="7" width="90" height="41"></rect>
            <rect id="Rectangle-23" stroke="#9B9B9B" stroke-width="2" fill="#9B9B9B" sketch:type="MSShapeGroup" x="4" y="4" width="94" height="3"></rect>
            <rect id="Rectangle-24" stroke="#9B9B9B" stroke-width="2" fill="#FFFFFF" sketch:type="MSShapeGroup" x="71" y="12" width="20" height="6"></rect>
            <path d="M10.5,27.5 L91.5246887,27.5" id="Line" stroke="#979797" stroke-linecap="square" sketch:type="MSShapeGroup"></path>
            <path d="M55.5,42.5 L91.5208244,42.5" id="Line-6" stroke="#E6E6E6" stroke-linecap="square" sketch:type="MSShapeGroup"></path>
            <path d="M10.5,42.5 L42.5,42.5" id="Line-7" stroke="#E6E6E6" stroke-linecap="square" sketch:type="MSShapeGroup"></path>
            <path d="M10.5,12.5 L24.6421356,12.5" id="Line-2" stroke="#979797" stroke-linecap="square" sketch:type="MSShapeGroup"></path>
            <path d="M10.5,14.5 L22.6421356,14.5" id="Line-3" stroke="#979797" stroke-linecap="square" sketch:type="MSShapeGroup"></path>
            <path d="M10.5,16.5 L24.6421356,16.5" id="Line-4" stroke="#979797" stroke-linecap="square" sketch:type="MSShapeGroup"></path>
            <path d="M52.733496,35.2096919 C46.0716693,35.0403667 47.8909509,50.8415411 53.9250893,43.8636496 M57.5452373,42.9185383 C59.6474058,41.0653679 59.7543989,38.6391753 59.754399,38.6391753 C59.7543988,38.6391753 61.306362,38.9391791 61.306362,38.9391791 C61.306362,38.9391791 60.4561551,42.4800288 61.7635215,41.9601881 C63.8290857,41.03495 63.9861701,38.8367922 63.9861701,38.9391791 C63.9861701,38.9391791 63.4921808,42.3893945 64.8670414,42.6747913 C65.294845,42.7635958 66.6694075,41.6461132 66.8249129,41.4767283 C67.2654964,40.9968209 68.2520389,38.4070559 68.2520389,38.2391792 C68.2520389,35.9890809 69.5706547,42.3777944 69.5706546,43.1384397 C69.5706545,43.8990849 65.7541507,40.9007204 65.7541507,40.9007204 L70.6013988,41.3007204" id="Path-445" stroke="#979797" stroke-linecap="round" stroke-linejoin="round" sketch:type="MSShapeGroup"></path>
            <path d="M75.2444689,35.9350665 C73.8632055,33.2421118 70.8846349,33.6410546 73.0645519,37.9235228 C75.2444689,42.2059911 76.6257324,38.6280212 75.2444689,35.9350665 Z" id="Path-446" stroke="#979797" sketch:type="MSShapeGroup"></path>
            <path d="M75.4680176,36.4112549 C75.4680176,36.4112549 77.8684082,45.5419922 75.4680176,46.0212403 C73.0676269,46.5004883 74.2990658,44.5207121 74.2990658,44.5207121 C74.2990658,44.5207121 77.6134034,41.2651368 77.9793167,37.9985442 C77.9793165,37.9985441 77.6036283,41.5027732 79.279419,41.1274319 C80.9552097,40.7520907 80.338496,38.830833 80.3384962,38.0982027 C80.3384964,37.3655724 82.0628148,37.2030261 82.0628149,37.9243251 C82.062815,38.6456241 81.6284299,41.654541 82.2450117,40.7265426 C82.8615935,39.7985441 84.2486571,40.9544678 84.0233154,33.2001953 C84.0233155,33.2001954 83.2457275,39.3861084 84.5997314,40.3792725 C85.9537354,41.3724365 87.9013671,37.2714844 87.0141602,36.9919434 C86.1269532,36.7124023 85.0430907,37.5357666 85.4337158,38.067627 C85.8243409,38.5994873 85.0455321,40.8782959 87.6245117,40.6287842 C90.2034913,40.3792725 89.2497559,36.6160889 89.2497559,36.6160889 L90.5169678,36.4858398 C90.5169678,36.4858398 89.2735595,41.3411865 91.1905518,40.7807617" id="Path-447" stroke="#979797" stroke-linecap="round" stroke-linejoin="round" sketch:type="MSShapeGroup"></path>
            <path d="M53.8854342,43.9159806 C54.5187786,39.8873745 60.2164885,33.2349487 57.9012734,33.2349487 C56.5285498,33.2349487 56.9748887,34.8658198 55.6710733,39.3524469 C56.291418,38.0109146 58.2567125,38.1087036 58.2567125,38.8414907 C56.3347507,42.9292731 57.3748887,42.929273 57.3748887,42.929273" id="Path-448" stroke="#979797" stroke-linecap="round" stroke-linejoin="round" sketch:type="MSShapeGroup"></path>
            <path d="M82.8074886,35.5966336 L85.0877028,35.27289" id="Path-450" stroke="#979797" stroke-linecap="round" sketch:type="MSShapeGroup"></path>
            <path d="M11.808,23.852 L11.808,23.332 L10.032,23.332 L10.032,23.852 L10.612,23.852 L10.612,26 L11.228,26 L11.228,23.852 L11.808,23.852 Z M11.956,26 L12.532,26 L12.532,25.108 C12.532,25.02 12.536,24.848 12.652,24.736 C12.684,24.704 12.756,24.648 12.88,24.648 C12.964,24.648 13.052,24.676 13.104,24.728 C13.196,24.816 13.2,24.96 13.2,25.084 L13.2,26 L13.776,26 L13.776,24.868 C13.776,24.732 13.764,24.512 13.6,24.348 C13.444,24.188 13.236,24.168 13.096,24.168 C12.968,24.168 12.868,24.18 12.748,24.244 C12.68,24.28 12.604,24.34 12.532,24.428 L12.532,23.084 L11.956,23.084 L11.956,26 Z M14.224,26 L14.8,26 L14.8,25.276 C14.8,25.124 14.812,24.932 14.94,24.796 C15.012,24.72 15.104,24.676 15.228,24.676 C15.328,24.676 15.412,24.7 15.488,24.74 L15.52,24.2 C15.456,24.18 15.404,24.172 15.332,24.172 C15.22,24.172 15.12,24.188 15.024,24.248 C14.932,24.304 14.852,24.396 14.8,24.496 L14.8,24.216 L14.224,24.216 L14.224,26 Z M16.216,24.864 C16.232,24.784 16.272,24.72 16.316,24.672 C16.372,24.616 16.46,24.556 16.608,24.556 C16.724,24.556 16.816,24.596 16.88,24.656 C16.964,24.736 16.992,24.848 16.996,24.864 L16.216,24.864 Z M17.528,25.148 C17.528,24.928 17.488,24.648 17.276,24.424 C17.056,24.192 16.768,24.156 16.568,24.156 C16.368,24.156 16.1,24.196 15.884,24.412 C15.704,24.596 15.612,24.86 15.612,25.116 C15.612,25.412 15.724,25.648 15.88,25.804 C16.088,26.012 16.324,26.06 16.592,26.06 C16.792,26.06 16.984,26.032 17.156,25.928 C17.26,25.864 17.42,25.732 17.5,25.48 L16.956,25.424 C16.908,25.524 16.84,25.568 16.832,25.572 C16.772,25.608 16.684,25.624 16.6,25.624 C16.512,25.624 16.392,25.608 16.304,25.512 C16.232,25.432 16.196,25.304 16.196,25.208 L17.528,25.208 L17.528,25.148 Z M18.404,24.864 C18.42,24.784 18.46,24.72 18.504,24.672 C18.56,24.616 18.648,24.556 18.796,24.556 C18.912,24.556 19.004,24.596 19.068,24.656 C19.152,24.736 19.18,24.848 19.184,24.864 L18.404,24.864 Z M19.716,25.148 C19.716,24.928 19.676,24.648 19.464,24.424 C19.244,24.192 18.956,24.156 18.756,24.156 C18.556,24.156 18.288,24.196 18.072,24.412 C17.892,24.596 17.8,24.86 17.8,25.116 C17.8,25.412 17.912,25.648 18.068,25.804 C18.276,26.012 18.512,26.06 18.78,26.06 C18.98,26.06 19.172,26.032 19.344,25.928 C19.448,25.864 19.608,25.732 19.688,25.48 L19.144,25.424 C19.096,25.524 19.028,25.568 19.02,25.572 C18.96,25.608 18.872,25.624 18.788,25.624 C18.7,25.624 18.58,25.608 18.492,25.512 C18.42,25.432 18.384,25.304 18.384,25.208 L19.716,25.208 L19.716,25.148 Z M22.592,23.852 L22.592,23.332 L20.816,23.332 L20.816,23.852 L21.396,23.852 L21.396,26 L22.012,26 L22.012,23.852 L22.592,23.852 Z M22.74,26 L23.316,26 L23.316,25.108 C23.316,25.02 23.32,24.848 23.436,24.736 C23.468,24.704 23.54,24.648 23.664,24.648 C23.748,24.648 23.836,24.676 23.888,24.728 C23.98,24.816 23.984,24.96 23.984,25.084 L23.984,26 L24.56,26 L24.56,24.868 C24.56,24.732 24.548,24.512 24.384,24.348 C24.228,24.188 24.02,24.168 23.88,24.168 C23.752,24.168 23.652,24.18 23.532,24.244 C23.464,24.28 23.388,24.34 23.316,24.428 L23.316,23.084 L22.74,23.084 L22.74,26 Z M26.972,25.108 C26.972,24.88 26.884,24.624 26.704,24.444 C26.544,24.284 26.272,24.156 25.924,24.156 C25.576,24.156 25.304,24.284 25.144,24.444 C24.964,24.624 24.876,24.88 24.876,25.108 C24.876,25.336 24.964,25.592 25.144,25.772 C25.304,25.932 25.576,26.06 25.924,26.06 C26.272,26.06 26.544,25.932 26.704,25.772 C26.884,25.592 26.972,25.336 26.972,25.108 L26.972,25.108 Z M25.924,24.644 C26.056,24.644 26.164,24.688 26.248,24.772 C26.332,24.856 26.38,24.964 26.38,25.108 C26.38,25.252 26.332,25.36 26.248,25.444 C26.164,25.528 26.056,25.572 25.928,25.572 C25.776,25.572 25.672,25.516 25.6,25.444 C25.532,25.376 25.468,25.272 25.468,25.108 C25.468,24.964 25.516,24.856 25.6,24.772 C25.684,24.688 25.792,24.644 25.924,24.644 L25.924,24.644 Z M27.332,24.216 L27.332,25.292 C27.332,25.488 27.364,25.668 27.528,25.828 C27.732,26.028 28.028,26.06 28.248,26.06 C28.46,26.06 28.76,26.028 28.964,25.828 C29.144,25.652 29.164,25.46 29.164,25.256 L29.164,24.216 L28.588,24.216 L28.588,25.2 C28.588,25.288 28.576,25.408 28.492,25.488 C28.44,25.536 28.356,25.572 28.248,25.572 C28.12,25.572 28.048,25.524 28.008,25.488 C27.916,25.404 27.908,25.28 27.908,25.2 L27.908,24.216 L27.332,24.216 Z M30.932,24.308 C30.788,24.224 30.604,24.156 30.34,24.156 C30.176,24.156 29.96,24.188 29.8,24.336 C29.696,24.432 29.628,24.576 29.628,24.748 C29.628,24.884 29.672,24.984 29.756,25.072 C29.832,25.148 29.94,25.204 30.044,25.236 L30.188,25.28 C30.272,25.304 30.324,25.32 30.364,25.344 C30.416,25.376 30.428,25.416 30.428,25.448 C30.428,25.492 30.404,25.536 30.368,25.564 C30.316,25.604 30.224,25.604 30.188,25.604 C30.112,25.604 30.028,25.588 29.948,25.548 C29.888,25.52 29.808,25.464 29.752,25.416 L29.508,25.804 C29.74,26.008 30,26.06 30.24,26.06 C30.428,26.06 30.644,26.032 30.82,25.856 C30.9,25.776 31.004,25.624 31.004,25.388 C31.004,25.252 30.968,25.144 30.864,25.048 C30.772,24.964 30.668,24.924 30.568,24.892 L30.416,24.844 C30.344,24.82 30.284,24.808 30.244,24.784 C30.216,24.768 30.188,24.744 30.188,24.704 C30.188,24.676 30.204,24.644 30.224,24.624 C30.26,24.588 30.328,24.572 30.388,24.572 C30.5,24.572 30.616,24.62 30.704,24.672 L30.932,24.308 Z M32.716,24.416 C32.552,24.192 32.308,24.156 32.156,24.156 C31.908,24.156 31.692,24.244 31.536,24.4 C31.372,24.564 31.26,24.82 31.26,25.12 C31.26,25.356 31.332,25.588 31.52,25.788 C31.716,25.996 31.932,26.06 32.188,26.06 C32.336,26.06 32.56,26.024 32.716,25.784 L32.716,26 L33.292,26 L33.292,24.216 L32.716,24.216 L32.716,24.416 Z M32.3,24.652 C32.404,24.652 32.532,24.692 32.62,24.776 C32.704,24.856 32.752,24.976 32.752,25.104 C32.752,25.256 32.688,25.368 32.612,25.44 C32.536,25.516 32.428,25.564 32.312,25.564 C32.176,25.564 32.052,25.508 31.972,25.424 C31.92,25.368 31.852,25.264 31.852,25.104 C31.852,24.944 31.924,24.84 31.984,24.78 C32.06,24.704 32.176,24.652 32.3,24.652 L32.3,24.652 Z M33.74,26 L34.316,26 L34.316,25.084 C34.316,24.968 34.332,24.84 34.428,24.744 C34.472,24.696 34.548,24.648 34.668,24.648 C34.772,24.648 34.844,24.684 34.888,24.728 C34.98,24.82 34.984,24.968 34.984,25.084 L34.984,26 L35.56,26 L35.56,24.872 C35.56,24.728 35.548,24.516 35.38,24.348 C35.228,24.196 35.024,24.168 34.868,24.168 C34.7,24.168 34.492,24.204 34.316,24.428 L34.316,24.216 L33.74,24.216 L33.74,26 Z M37.952,23.084 L37.376,23.084 L37.376,24.416 C37.232,24.22 37.016,24.156 36.82,24.156 C36.576,24.156 36.356,24.248 36.2,24.396 C36.028,24.56 35.92,24.804 35.92,25.1 C35.92,25.376 36.016,25.632 36.2,25.816 C36.356,25.976 36.548,26.06 36.812,26.06 C37.128,26.06 37.288,25.912 37.376,25.784 L37.376,26 L37.952,26 L37.952,23.084 Z M36.96,24.652 C37.084,24.652 37.192,24.688 37.284,24.784 C37.352,24.856 37.412,24.96 37.412,25.112 C37.412,25.26 37.348,25.368 37.28,25.432 C37.188,25.52 37.06,25.564 36.952,25.564 C36.852,25.564 36.74,25.524 36.652,25.44 C36.568,25.36 36.512,25.244 36.512,25.112 C36.512,24.968 36.568,24.852 36.652,24.772 C36.744,24.684 36.844,24.652 36.96,24.652 L36.96,24.652 Z M41.068,23.536 C40.756,23.304 40.46,23.272 40.276,23.272 C40.028,23.272 39.804,23.324 39.616,23.516 C39.456,23.68 39.384,23.88 39.384,24.116 C39.384,24.244 39.404,24.432 39.544,24.58 C39.648,24.692 39.792,24.748 39.916,24.792 L40.136,24.868 C40.212,24.896 40.376,24.956 40.448,25.016 C40.504,25.064 40.54,25.12 40.54,25.208 C40.54,25.308 40.496,25.38 40.444,25.424 C40.356,25.5 40.244,25.516 40.164,25.516 C40.04,25.516 39.932,25.484 39.828,25.42 C39.756,25.376 39.648,25.284 39.58,25.216 L39.26,25.656 C39.36,25.756 39.516,25.88 39.652,25.948 C39.82,26.032 39.988,26.06 40.18,26.06 C40.356,26.06 40.7,26.036 40.936,25.788 C41.076,25.644 41.172,25.404 41.172,25.128 C41.172,24.972 41.132,24.78 40.976,24.632 C40.872,24.532 40.728,24.472 40.612,24.428 L40.412,24.352 C40.232,24.284 40.14,24.26 40.076,24.2 C40.036,24.164 40.016,24.116 40.016,24.052 C40.016,23.984 40.044,23.924 40.084,23.884 C40.156,23.804 40.26,23.792 40.344,23.792 C40.42,23.792 40.592,23.804 40.792,23.984 L41.068,23.536 Z M41.588,24.216 L41.588,26 L42.164,26 L42.164,24.216 L41.588,24.216 Z M41.54,23.456 C41.54,23.644 41.688,23.792 41.876,23.792 C42.064,23.792 42.212,23.644 42.212,23.456 C42.212,23.268 42.064,23.12 41.876,23.12 C41.688,23.12 41.54,23.268 41.54,23.456 L41.54,23.456 Z M42.436,26 L43.18,26 L43.668,25.424 L44.156,26 L44.9,26 L44.028,25.028 L44.736,24.216 L44,24.216 L43.668,24.628 L43.336,24.216 L42.6,24.216 L43.308,25.028 L42.436,26 Z M46.748,23.332 L46.132,23.332 L46.132,26 L46.748,26 L46.748,24.868 L47.812,24.868 L47.812,26 L48.428,26 L48.428,23.332 L47.812,23.332 L47.812,24.348 L46.748,24.348 L46.748,23.332 Z M48.944,24.216 L48.944,25.292 C48.944,25.488 48.976,25.668 49.14,25.828 C49.344,26.028 49.64,26.06 49.86,26.06 C50.072,26.06 50.372,26.028 50.576,25.828 C50.756,25.652 50.776,25.46 50.776,25.256 L50.776,24.216 L50.2,24.216 L50.2,25.2 C50.2,25.288 50.188,25.408 50.104,25.488 C50.052,25.536 49.968,25.572 49.86,25.572 C49.732,25.572 49.66,25.524 49.62,25.488 C49.528,25.404 49.52,25.28 49.52,25.2 L49.52,24.216 L48.944,24.216 Z M51.224,26 L51.8,26 L51.8,25.084 C51.8,24.968 51.816,24.84 51.912,24.744 C51.956,24.696 52.032,24.648 52.152,24.648 C52.256,24.648 52.328,24.684 52.372,24.728 C52.464,24.82 52.468,24.968 52.468,25.084 L52.468,26 L53.044,26 L53.044,24.872 C53.044,24.728 53.032,24.516 52.864,24.348 C52.712,24.196 52.508,24.168 52.352,24.168 C52.184,24.168 51.976,24.204 51.8,24.428 L51.8,24.216 L51.224,24.216 L51.224,26 Z M55.436,23.084 L54.86,23.084 L54.86,24.416 C54.716,24.22 54.5,24.156 54.304,24.156 C54.06,24.156 53.84,24.248 53.684,24.396 C53.512,24.56 53.404,24.804 53.404,25.1 C53.404,25.376 53.5,25.632 53.684,25.816 C53.84,25.976 54.032,26.06 54.296,26.06 C54.612,26.06 54.772,25.912 54.86,25.784 L54.86,26 L55.436,26 L55.436,23.084 Z M54.444,24.652 C54.568,24.652 54.676,24.688 54.768,24.784 C54.836,24.856 54.896,24.96 54.896,25.112 C54.896,25.26 54.832,25.368 54.764,25.432 C54.672,25.52 54.544,25.564 54.436,25.564 C54.336,25.564 54.224,25.524 54.136,25.44 C54.052,25.36 53.996,25.244 53.996,25.112 C53.996,24.968 54.052,24.852 54.136,24.772 C54.228,24.684 54.328,24.652 54.444,24.652 L54.444,24.652 Z M55.9,26 L56.476,26 L56.476,25.276 C56.476,25.124 56.488,24.932 56.616,24.796 C56.688,24.72 56.78,24.676 56.904,24.676 C57.004,24.676 57.088,24.7 57.164,24.74 L57.196,24.2 C57.132,24.18 57.08,24.172 57.008,24.172 C56.896,24.172 56.796,24.188 56.7,24.248 C56.608,24.304 56.528,24.396 56.476,24.496 L56.476,24.216 L55.9,24.216 L55.9,26 Z M57.892,24.864 C57.908,24.784 57.948,24.72 57.992,24.672 C58.048,24.616 58.136,24.556 58.284,24.556 C58.4,24.556 58.492,24.596 58.556,24.656 C58.64,24.736 58.668,24.848 58.672,24.864 L57.892,24.864 Z M59.204,25.148 C59.204,24.928 59.164,24.648 58.952,24.424 C58.732,24.192 58.444,24.156 58.244,24.156 C58.044,24.156 57.776,24.196 57.56,24.412 C57.38,24.596 57.288,24.86 57.288,25.116 C57.288,25.412 57.4,25.648 57.556,25.804 C57.764,26.012 58,26.06 58.268,26.06 C58.468,26.06 58.66,26.032 58.832,25.928 C58.936,25.864 59.096,25.732 59.176,25.48 L58.632,25.424 C58.584,25.524 58.516,25.568 58.508,25.572 C58.448,25.608 58.36,25.624 58.276,25.624 C58.188,25.624 58.068,25.608 57.98,25.512 C57.908,25.432 57.872,25.304 57.872,25.208 L59.204,25.208 L59.204,25.148 Z M61.508,23.084 L60.932,23.084 L60.932,24.416 C60.788,24.22 60.572,24.156 60.376,24.156 C60.132,24.156 59.912,24.248 59.756,24.396 C59.584,24.56 59.476,24.804 59.476,25.1 C59.476,25.376 59.572,25.632 59.756,25.816 C59.912,25.976 60.104,26.06 60.368,26.06 C60.684,26.06 60.844,25.912 60.932,25.784 L60.932,26 L61.508,26 L61.508,23.084 Z M60.516,24.652 C60.64,24.652 60.748,24.688 60.84,24.784 C60.908,24.856 60.968,24.96 60.968,25.112 C60.968,25.26 60.904,25.368 60.836,25.432 C60.744,25.52 60.616,25.564 60.508,25.564 C60.408,25.564 60.296,25.524 60.208,25.44 C60.124,25.36 60.068,25.244 60.068,25.112 C60.068,24.968 60.124,24.852 60.208,24.772 C60.3,24.684 60.4,24.652 60.516,24.652 L60.516,24.652 Z" id="Three-Thousand-Six-H" fill="#E6E6E6" sketch:type="MSShapeGroup"></path>
            <path d="M77.772,24.132 C77.776,24.048 77.812,23.944 77.868,23.884 C77.92,23.832 78.004,23.796 78.108,23.796 C78.208,23.796 78.288,23.832 78.336,23.876 C78.388,23.924 78.424,24 78.424,24.092 C78.424,24.2 78.38,24.284 78.324,24.332 C78.236,24.404 78.092,24.408 78.056,24.408 L78.02,24.408 L78.02,24.832 L78.068,24.832 C78.16,24.832 78.3,24.84 78.396,24.916 C78.46,24.968 78.512,25.06 78.512,25.172 C78.512,25.28 78.468,25.384 78.404,25.444 C78.34,25.504 78.24,25.536 78.136,25.536 C78.008,25.536 77.904,25.492 77.84,25.428 C77.768,25.356 77.72,25.232 77.712,25.128 L77.096,25.128 C77.124,25.396 77.24,25.632 77.392,25.788 C77.628,26.024 77.912,26.064 78.172,26.064 C78.388,26.064 78.648,26.04 78.876,25.832 C79.064,25.66 79.144,25.428 79.144,25.224 C79.144,25.08 79.1,24.912 79.02,24.804 C78.948,24.704 78.828,24.628 78.716,24.588 C78.792,24.552 78.86,24.5 78.916,24.42 C79,24.304 79.024,24.188 79.024,24.056 C79.024,23.796 78.932,23.62 78.82,23.512 C78.684,23.376 78.448,23.276 78.12,23.276 C77.9,23.276 77.64,23.324 77.444,23.528 C77.304,23.672 77.204,23.908 77.18,24.132 L77.772,24.132 Z M80.172,24.132 C80.176,24.048 80.212,23.944 80.268,23.884 C80.32,23.832 80.404,23.796 80.508,23.796 C80.608,23.796 80.688,23.832 80.736,23.876 C80.788,23.924 80.824,24 80.824,24.092 C80.824,24.2 80.78,24.284 80.724,24.332 C80.636,24.404 80.492,24.408 80.456,24.408 L80.42,24.408 L80.42,24.832 L80.468,24.832 C80.56,24.832 80.7,24.84 80.796,24.916 C80.86,24.968 80.912,25.06 80.912,25.172 C80.912,25.28 80.868,25.384 80.804,25.444 C80.74,25.504 80.64,25.536 80.536,25.536 C80.408,25.536 80.304,25.492 80.24,25.428 C80.168,25.356 80.12,25.232 80.112,25.128 L79.496,25.128 C79.524,25.396 79.64,25.632 79.792,25.788 C80.028,26.024 80.312,26.064 80.572,26.064 C80.788,26.064 81.048,26.04 81.276,25.832 C81.464,25.66 81.544,25.428 81.544,25.224 C81.544,25.08 81.5,24.912 81.42,24.804 C81.348,24.704 81.228,24.628 81.116,24.588 C81.192,24.552 81.26,24.5 81.316,24.42 C81.4,24.304 81.424,24.188 81.424,24.056 C81.424,23.796 81.332,23.62 81.22,23.512 C81.084,23.376 80.848,23.276 80.52,23.276 C80.3,23.276 80.04,23.324 79.844,23.528 C79.704,23.672 79.604,23.908 79.58,24.132 L80.172,24.132 Z M81.86,26.736 L82.312,26.816 L84.42,23.084 L83.968,23.004 L81.86,26.736 Z M85.524,26 L86.14,26 L86.14,23.332 L85.144,23.332 L85.144,23.852 L85.524,23.852 L85.524,26 Z M89.004,24.668 C89.004,24.208 88.88,23.8 88.62,23.548 C88.464,23.396 88.232,23.272 87.904,23.272 C87.584,23.272 87.356,23.392 87.196,23.548 C86.936,23.8 86.812,24.208 86.812,24.668 C86.812,25.124 86.936,25.528 87.196,25.784 C87.356,25.94 87.584,26.06 87.904,26.06 C88.232,26.06 88.464,25.936 88.62,25.784 C88.88,25.528 89.004,25.124 89.004,24.668 L89.004,24.668 Z M87.908,23.8 C88.012,23.8 88.084,23.832 88.156,23.9 C88.352,24.092 88.38,24.476 88.38,24.664 C88.38,24.872 88.344,25.248 88.156,25.432 C88.084,25.5 88.012,25.532 87.908,25.532 C87.804,25.532 87.732,25.5 87.66,25.432 C87.472,25.248 87.436,24.872 87.436,24.664 C87.436,24.476 87.464,24.092 87.66,23.9 C87.732,23.832 87.804,23.8 87.908,23.8 L87.908,23.8 Z M91.404,24.668 C91.404,24.208 91.28,23.8 91.02,23.548 C90.864,23.396 90.632,23.272 90.304,23.272 C89.984,23.272 89.756,23.392 89.596,23.548 C89.336,23.8 89.212,24.208 89.212,24.668 C89.212,25.124 89.336,25.528 89.596,25.784 C89.756,25.94 89.984,26.06 90.304,26.06 C90.632,26.06 90.864,25.936 91.02,25.784 C91.28,25.528 91.404,25.124 91.404,24.668 L91.404,24.668 Z M90.308,23.8 C90.412,23.8 90.484,23.832 90.556,23.9 C90.752,24.092 90.78,24.476 90.78,24.664 C90.78,24.872 90.744,25.248 90.556,25.432 C90.484,25.5 90.412,25.532 90.308,25.532 C90.204,25.532 90.132,25.5 90.06,25.432 C89.872,25.248 89.836,24.872 89.836,24.664 C89.836,24.476 89.864,24.092 90.06,23.9 C90.132,23.832 90.204,23.8 90.308,23.8 L90.308,23.8 Z" id="33/100" fill="#E6E6E6" sketch:type="MSShapeGroup"></path>
        </g>
    </g>
</svg>