<?xml version="1.0" encoding="UTF-8" standalone="no"?>
<svg width="60px" height="60px" viewBox="0 0 60 60" version="1.1" xmlns="http://www.w3.org/2000/svg" xmlns:xlink="http://www.w3.org/1999/xlink" xmlns:sketch="http://www.bohemiancoding.com/sketch/ns">
    <!-- Generator: Sketch 3.3.1 (12002) - http://www.bohemiancoding.com/sketch -->
    <title>landlord-dummy-avatar</title>
    <desc>Created with Sketch.</desc>
    <defs></defs>
    <g id="Illustrations" stroke="none" stroke-width="1" fill="none" fill-rule="evenodd" sketch:type="MSPage">
        <g id="landlord-dummy-avatar" sketch:type="MSArtboardGroup">
            <rect id="Rectangle-1484-Copy" fill="#EAECF0" sketch:type="MSShapeGroup" x="0" y="0" width="60" height="60"></rect>
            <rect id="Rectangle-1527" stroke="#979797" stroke-width="2" fill="#E3E5EA" sketch:type="MSShapeGroup" x="8" y="19" width="44" height="30"></rect>
            <rect id="Rectangle-1527-Copy" stroke="#979797" stroke-width="2" fill="#E3E5EA" sketch:type="MSShapeGroup" x="14" y="16" width="32" height="33"></rect>
            <rect id="Rectangle-1527-Copy-2" stroke="#979797" stroke-width="2" fill="#E3E5EA" sketch:type="MSShapeGroup" x="20" y="25" width="20" height="24"></rect>
            <rect id="Rectangle-1527-Copy-4" stroke="#979797" stroke-width="2" fill="#E3E5EA" sketch:type="MSShapeGroup" x="25" y="40" width="10" height="9"></rect>
            <path d="M20,25 L40,25 L42,34 L18,34 L20,25 Z" id="Rectangle-1527-Copy-3" stroke="#979797" stroke-width="2" fill="#C7CACD" sketch:type="MSShapeGroup"></path>
            <rect id="Rectangle-1532" stroke="#979797" fill="#D8D8D8" sketch:type="MSShapeGroup" x="28" y="44" width="1" height="2"></rect>
            <rect id="Rectangle-1532-Copy" stroke="#979797" fill="#D8D8D8" sketch:type="MSShapeGroup" x="31" y="44" width="1" height="2"></rect>
            <rect id="Rectangle-1534" fill="#C7CACD" sketch:type="MSShapeGroup" x="29" y="41" width="2" height="7"></rect>
            <rect id="Rectangle-1535" fill="#C7CACD" sketch:type="MSShapeGroup" x="48" y="24" width="1" height="1"></rect>
            <rect id="Rectangle-1535-Copy" fill="#C7CACD" sketch:type="MSShapeGroup" x="49" y="25" width="1" height="1"></rect>
            <rect id="Rectangle-1535-Copy-4" fill="#C7CACD" sketch:type="MSShapeGroup" x="49" y="30" width="1" height="1"></rect>
            <rect id="Rectangle-1535-Copy-7" fill="#C7CACD" sketch:type="MSShapeGroup" x="49" y="36" width="1" height="1"></rect>
            <rect id="Rectangle-1535-Copy-2" fill="#C7CACD" sketch:type="MSShapeGroup" x="48" y="26" width="1" height="1"></rect>
            <rect id="Rectangle-1535-Copy-5" fill="#C7CACD" sketch:type="MSShapeGroup" x="48" y="31" width="1" height="1"></rect>
            <rect id="Rectangle-1535-Copy-8" fill="#C7CACD" sketch:type="MSShapeGroup" x="48" y="37" width="1" height="1"></rect>
            <rect id="Rectangle-1535-Copy-3" fill="#C7CACD" sketch:type="MSShapeGroup" x="49" y="28" width="1" height="1"></rect>
            <rect id="Rectangle-1535-Copy-6" fill="#C7CACD" sketch:type="MSShapeGroup" x="49" y="33" width="1" height="1"></rect>
            <rect id="Rectangle-1535-Copy-9" fill="#C7CACD" sketch:type="MSShapeGroup" x="49" y="39" width="1" height="1"></rect>
            <g id="Group" sketch:type="MSLayerGroup" transform="translate(11.000000, 32.000000) scale(-1, 1) translate(-11.000000, -32.000000) translate(10.000000, 24.000000)" fill="#C7CACD">
                <rect id="Rectangle-1535-Copy-10" sketch:type="MSShapeGroup" x="0" y="0" width="1" height="1"></rect>
                <rect id="Rectangle-1535-Copy-11" sketch:type="MSShapeGroup" x="1" y="1" width="1" height="1"></rect>
                <rect id="Rectangle-1535-Copy-12" sketch:type="MSShapeGroup" x="1" y="6" width="1" height="1"></rect>
                <rect id="Rectangle-1535-Copy-13" sketch:type="MSShapeGroup" x="1" y="12" width="1" height="1"></rect>
                <rect id="Rectangle-1535-Copy-14" sketch:type="MSShapeGroup" x="0" y="2" width="1" height="1"></rect>
                <rect id="Rectangle-1535-Copy-15" sketch:type="MSShapeGroup" x="0" y="7" width="1" height="1"></rect>
                <rect id="Rectangle-1535-Copy-16" sketch:type="MSShapeGroup" x="0" y="13" width="1" height="1"></rect>
                <rect id="Rectangle-1535-Copy-17" sketch:type="MSShapeGroup" x="1" y="4" width="1" height="1"></rect>
                <rect id="Rectangle-1535-Copy-18" sketch:type="MSShapeGroup" x="1" y="9" width="1" height="1"></rect>
                <rect id="Rectangle-1535-Copy-19" sketch:type="MSShapeGroup" x="1" y="15" width="1" height="1"></rect>
            </g>
            <rect id="Rectangle-1555" stroke="#979797" fill="#D8D8D8" sketch:type="MSShapeGroup" x="20" y="19" width="1" height="3"></rect>
            <rect id="Rectangle-1555-Copy" stroke="#979797" fill="#D8D8D8" sketch:type="MSShapeGroup" x="39" y="19" width="1" height="3"></rect>
            <rect id="Rectangle-1557" stroke="#979797" fill="#D8D8D8" sketch:type="MSShapeGroup" x="20" y="19" width="20" height="1"></rect>
            <rect id="Rectangle-1557-Copy" stroke="#979797" fill="#D8D8D8" sketch:type="MSShapeGroup" x="20" y="21" width="20" height="1"></rect>
            <rect id="Rectangle-1557-Copy-2" fill="#C7CACD" sketch:type="MSShapeGroup" x="21" y="20" width="18" height="1"></rect>
        </g>
    </g>
</svg>