<?xml version="1.0" encoding="UTF-8" standalone="no"?>
<svg width="20px" height="20px" viewBox="0 0 20 20" version="1.1" xmlns="http://www.w3.org/2000/svg" xmlns:xlink="http://www.w3.org/1999/xlink" xmlns:sketch="http://www.bohemiancoding.com/sketch/ns">
    <!-- Generator: Sketch 3.3.3 (12072) - http://www.bohemiancoding.com/sketch -->
    <title>mobileNav-facilities-icon</title>
    <desc>Created with Sketch.</desc>
    <defs></defs>
    <g id="Page-1" stroke="none" stroke-width="1" fill="none" fill-rule="evenodd" sketch:type="MSPage">
        <g id="ACTIVE-JOBS" sketch:type="MSArtboardGroup" transform="translate(-190.000000, -15.000000)" fill="#092F3E">
            <g id="mobileNav-facilities-icon" sketch:type="MSLayerGroup" transform="translate(190.000000, 15.000000)">
                <rect id="Rectangle-49" sketch:type="MSShapeGroup" x="0" y="0" width="2" height="20"></rect>
                <rect id="Rectangle-49-Copy" sketch:type="MSShapeGroup" x="9" y="0" width="2" height="20"></rect>
                <rect id="Rectangle-49-Copy-2" sketch:type="MSShapeGroup" x="18" y="6" width="2" height="14"></rect>
                <rect id="Rectangle-51" sketch:type="MSShapeGroup" x="0" y="0" width="10" height="2"></rect>
                <rect id="Rectangle-51-Copy-2" sketch:type="MSShapeGroup" x="11" y="6" width="8" height="2"></rect>
                <rect id="Rectangle-51-Copy-3" sketch:type="MSShapeGroup" x="11" y="18" width="8" height="2"></rect>
                <rect id="Rectangle-51-Copy" sketch:type="MSShapeGroup" x="0" y="18" width="10" height="2"></rect>
                <rect id="Rectangle-54" sketch:type="MSShapeGroup" x="3" y="3" width="2" height="2"></rect>
                <rect id="Rectangle-54-Copy-2" sketch:type="MSShapeGroup" x="3" y="6" width="2" height="2"></rect>
                <rect id="Rectangle-54-Copy" sketch:type="MSShapeGroup" x="6" y="3" width="2" height="2"></rect>
                <rect id="Rectangle-54-Copy-3" sketch:type="MSShapeGroup" x="6" y="6" width="2" height="2"></rect>
                <rect id="Rectangle-54-Copy-5" sketch:type="MSShapeGroup" x="3" y="9" width="2" height="2"></rect>
                <rect id="Rectangle-54-Copy-4" sketch:type="MSShapeGroup" x="6" y="9" width="2" height="2"></rect>
                <rect id="Rectangle-54-Copy-7" sketch:type="MSShapeGroup" x="3" y="12" width="2" height="2"></rect>
                <rect id="Rectangle-54-Copy-6" sketch:type="MSShapeGroup" x="6" y="12" width="2" height="2"></rect>
                <rect id="Rectangle-65" sketch:type="MSShapeGroup" x="13" y="2" width="1" height="4"></rect>
                <rect id="Rectangle-65-Copy" sketch:type="MSShapeGroup" x="15" y="3" width="1" height="3"></rect>
                <rect id="Rectangle-69" sketch:type="MSShapeGroup" x="12" y="9" width="2" height="2"></rect>
                <rect id="Rectangle-69-Copy" sketch:type="MSShapeGroup" x="12" y="12" width="2" height="2"></rect>
                <rect id="Rectangle-69-Copy-4" sketch:type="MSShapeGroup" x="15" y="9" width="2" height="2"></rect>
                <rect id="Rectangle-69-Copy-5" sketch:type="MSShapeGroup" x="15" y="12" width="2" height="2"></rect>
            </g>
        </g>
    </g>
</svg>