<?xml version="1.0" encoding="UTF-8" standalone="no"?>
<svg width="20px" height="20px" viewBox="0 0 20 20" version="1.1" xmlns="http://www.w3.org/2000/svg" xmlns:xlink="http://www.w3.org/1999/xlink" xmlns:sketch="http://www.bohemiancoding.com/sketch/ns">
    <!-- Generator: Sketch 3.3.3 (12072) - http://www.bohemiancoding.com/sketch -->
    <title>mobileNav-jobs-icon</title>
    <desc>Created with Sketch.</desc>
    <defs></defs>
    <g id="Page-1" stroke="none" stroke-width="1" fill="none" fill-rule="evenodd" sketch:type="MSPage">
        <g id="ACTIVE-JOBS" sketch:type="MSArtboardGroup" transform="translate(-30.000000, -15.000000)">
            <g id="mobileNav-jobs-icon" sketch:type="MSLayerGroup" transform="translate(30.000000, 15.000000)">
                <rect id="Rectangle-12" fill="#092F3E" sketch:type="MSShapeGroup" x="0" y="0" width="20" height="4"></rect>
                <rect id="Rectangle-12-Copy-3" fill="#092F3E" sketch:type="MSShapeGroup" x="0" y="18" width="20" height="2"></rect>
                <rect id="Rectangle-16" fill="#092F3E" sketch:type="MSShapeGroup" x="0" y="3" width="2" height="15"></rect>
                <rect id="Rectangle-16-Copy" fill="#092F3E" sketch:type="MSShapeGroup" x="18" y="3" width="2" height="15"></rect>
                <g id="Rectangle-20-+-Rectangle-20-Copy-+-Rectangle-22" transform="translate(3.000000, 0.000000)" fill="#FFFFFF" sketch:type="MSShapeGroup">
                    <rect id="Rectangle-20" x="0" y="0" width="1" height="3"></rect>
                    <rect id="Rectangle-20-Copy" x="3" y="0" width="1" height="3"></rect>
                    <rect id="Rectangle-22" x="0" y="2" width="4" height="1"></rect>
                </g>
                <g id="Rectangle-20-+-Rectangle-20-Copy-+-Rectangle-22-Copy" transform="translate(13.000000, 0.000000)" fill="#FFFFFF" sketch:type="MSShapeGroup">
                    <rect id="Rectangle-20" x="0" y="0" width="1" height="3"></rect>
                    <rect id="Rectangle-20-Copy" x="3" y="0" width="1" height="3"></rect>
                    <rect id="Rectangle-22" x="0" y="2" width="4" height="1"></rect>
                </g>
                <rect id="Rectangle-22-Copy-5" fill="#092F3E" sketch:type="MSShapeGroup" x="3" y="8" width="2" height="2"></rect>
                <rect id="Rectangle-22-Copy-6" fill="#092F3E" sketch:type="MSShapeGroup" x="6" y="8" width="2" height="2"></rect>
                <rect id="Rectangle-22-Copy-2" fill="#092F3E" sketch:type="MSShapeGroup" x="9" y="5" width="2" height="2"></rect>
                <rect id="Rectangle-22-Copy-7" fill="#092F3E" sketch:type="MSShapeGroup" x="9" y="8" width="2" height="2"></rect>
                <rect id="Rectangle-22-Copy-3" fill="#092F3E" sketch:type="MSShapeGroup" x="12" y="5" width="2" height="2"></rect>
                <rect id="Rectangle-22-Copy-8" fill="#092F3E" sketch:type="MSShapeGroup" x="12" y="8" width="2" height="2"></rect>
                <rect id="Rectangle-22-Copy-4" fill="#092F3E" sketch:type="MSShapeGroup" x="15" y="5" width="2" height="2"></rect>
                <rect id="Rectangle-22-Copy-9" fill="#092F3E" sketch:type="MSShapeGroup" x="15" y="8" width="2" height="2"></rect>
                <rect id="Rectangle-22-Copy-14" fill="#092F3E" sketch:type="MSShapeGroup" x="3" y="11" width="2" height="2"></rect>
                <rect id="Rectangle-22-Copy-13" fill="#092F3E" sketch:type="MSShapeGroup" x="6" y="11" width="2" height="2"></rect>
                <rect id="Rectangle-22-Copy-12" fill="#092F3E" sketch:type="MSShapeGroup" x="9" y="11" width="2" height="2"></rect>
                <rect id="Rectangle-22-Copy-11" fill="#092F3E" sketch:type="MSShapeGroup" x="12" y="11" width="2" height="2"></rect>
                <rect id="Rectangle-22-Copy-10" fill="#092F3E" sketch:type="MSShapeGroup" x="15" y="11" width="2" height="2"></rect>
                <rect id="Rectangle-22-Copy-19" fill="#092F3E" sketch:type="MSShapeGroup" x="3" y="14" width="2" height="2"></rect>
                <rect id="Rectangle-22-Copy-18" fill="#092F3E" sketch:type="MSShapeGroup" x="6" y="14" width="2" height="2"></rect>
                <rect id="Rectangle-22-Copy-17" fill="#092F3E" sketch:type="MSShapeGroup" x="9" y="14" width="2" height="2"></rect>
                <rect id="Rectangle-22-Copy-16" fill="#092F3E" sketch:type="MSShapeGroup" x="12" y="14" width="2" height="2"></rect>
            </g>
        </g>
    </g>
</svg>