<?xml version="1.0" encoding="UTF-8" standalone="no"?>
<svg width="282px" height="42px" viewBox="0 0 282 42" version="1.1" xmlns="http://www.w3.org/2000/svg" xmlns:xlink="http://www.w3.org/1999/xlink" xmlns:sketch="http://www.bohemiancoding.com/sketch/ns">
    <!-- Generator: Sketch 3.2.2 (9983) - http://www.bohemiancoding.com/sketch -->
    <title>no-activity</title>
    <desc>Created with Sketch.</desc>
    <defs></defs>
    <g id="Page-1" stroke="none" stroke-width="1" fill="none" fill-rule="evenodd" sketch:type="MSPage">
        <g id="Artboard" sketch:type="MSArtboardGroup" transform="translate(-292.000000, -596.000000)">
            <g id="no-activity" sketch:type="MSLayerGroup" transform="translate(293.000000, 597.000000)">
                <g id="ACTIVITY-2" sketch:type="MSShapeGroup">
                    <g id="work-request">
                        <g id="Illustrations">
                            <g id="work-request">
                                <g id="walkie-talkie">
                                    <rect id="Rectangle-450" fill="#FFFFFF" x="0" y="0" width="40" height="40" rx="2"></rect>
                                    <g id="signal" transform="translate(4.000000, 13.000000)" stroke="#FFFFFF">
                                        <path d="M25.5699198,11.5680376 C26.4646439,10.4543896 27,9.03971435 27,7.5 C27,5.97668382 26.4759864,4.57575757 25.5983841,3.4676461 M7.43183166,3.42978328 C6.53605479,4.54376474 6,5.95928122 6,7.5 C6,9.06539874 6.55336589,10.5015519 7.47515477,11.6235167" id="Oval-345"></path>
                                        <path d="M4.79565936,1.94065082 C3.6658614,3.50363039 3,5.42405506 3,7.5 C3,9.5934333 3.67712748,11.528715 4.82431126,13.0987739 M28.1175606,13.1774782 C29.2999643,11.5935995 30,9.62855079 30,7.5 C30,5.41580915 29.3288383,3.48837651 28.1908556,1.9220427" id="Oval-346"></path>
                                        <path d="M2.25814891,0.331930344 C0.835136966,2.36138888 0,4.8331661 0,7.5 C0,10.1761646 0.840991126,12.6559052 2.27310695,14.6893553 M30.7804692,14.6126768 C32.1799606,12.5937066 33,10.1426185 33,7.5 C33,4.87266825 32.1894205,2.43465748 30.8046979,0.422404008" id="Oval-347"></path>
                                    </g>
                                    <rect id="Rectangle-463" fill="#AAACAD" x="25" y="5" width="2" height="12" rx="1"></rect>
                                    <rect id="Rectangle-463" fill="#AAACAD" x="15" y="14" width="12" height="19"></rect>
                                    <rect id="Rectangle-464" fill="#FFFFFF" x="17" y="16" width="8" height="6"></rect>
                                    <rect id="Rectangle-467" fill="#AAACAD" x="18" y="17" width="6" height="4"></rect>
                                    <path d="M24,18 L24,19.5 L22,21 L20,21 L24,18 L24,18 Z" id="Rectangle-477" fill="#E6E6E6"></path>
                                    <path d="M18,19 L21,17 L24,17 L18,21 L18,19 L18,19 Z" id="Rectangle-476" fill="#E6E6E6"></path>
                                    <rect id="Rectangle-465" fill="#AAACAD" x="14" y="16" width="1" height="3"></rect>
                                    <rect id="Rectangle-469" fill="#AAACAD" x="17" y="12" width="4" height="2"></rect>
                                    <path d="M17.4,12 L18,12 L18,14 L17.4,14 L17.4,12 L17.4,12 Z" id="Rectangle-470" fill="#E6E6E6"></path>
                                    <path d="M18.4,12 L19,12 L19,14 L18.4,14 L18.4,12 L18.4,12 Z" id="Rectangle-471" fill="#E6E6E6"></path>
                                    <path d="M19.4,12 L20,12 L20,14 L19.4,14 L19.4,12 L19.4,12 Z" id="Rectangle-473" fill="#E6E6E6"></path>
                                    <path d="M20.4,12 L21,12 L21,14 L20.4,14 L20.4,12 L20.4,12 Z" id="Rectangle-474" fill="#E6E6E6"></path>
                                    <rect id="Rectangle-466" fill="#AAACAD" x="14" y="20" width="1" height="3"></rect>
                                    <g id="speaker" transform="translate(17.000000, 27.000000)" fill="#FFFFFF">
                                        <g id="row">
                                            <circle id="Oval-345" cx="0.5" cy="0.5" r="0.5"></circle>
                                            <circle id="Oval-348" cx="2.5" cy="0.5" r="0.5"></circle>
                                            <circle id="Oval-349" cx="4.5" cy="0.5" r="0.5"></circle>
                                            <circle id="Oval-349" cx="6.5" cy="0.5" r="0.5"></circle>
                                        </g>
                                        <g id="row" transform="translate(1.000000, 1.000000)">
                                            <circle id="Oval-353" cx="0.5" cy="0.5" r="0.5"></circle>
                                            <circle id="Oval-350" cx="2.5" cy="0.5" r="0.5"></circle>
                                            <circle id="Oval-351" cx="4.5" cy="0.5" r="0.5"></circle>
                                            <circle id="Oval-352" cx="6.5" cy="0.5" r="0.5"></circle>
                                        </g>
                                        <g id="row-2" transform="translate(1.000000, 3.000000)">
                                            <circle id="Oval-353" cx="0.5" cy="0.5" r="0.5"></circle>
                                            <circle id="Oval-350" cx="2.5" cy="0.5" r="0.5"></circle>
                                            <circle id="Oval-351" cx="4.5" cy="0.5" r="0.5"></circle>
                                            <circle id="Oval-352" cx="6.5" cy="0.5" r="0.5"></circle>
                                        </g>
                                        <g id="row" transform="translate(0.000000, 2.000000)">
                                            <circle id="Oval-357" cx="0.5" cy="0.5" r="0.5"></circle>
                                            <circle id="Oval-354" cx="2.5" cy="0.5" r="0.5"></circle>
                                            <circle id="Oval-355" cx="4.5" cy="0.5" r="0.5"></circle>
                                            <circle id="Oval-356" cx="6.5" cy="0.5" r="0.5"></circle>
                                        </g>
                                    </g>
                                    <rect id="Rectangle-468" fill="#FFFFFF" x="17" y="23" width="2" height="1"></rect>
                                    <rect id="Rectangle-468" fill="#FFFFFF" x="20" y="23" width="2" height="1"></rect>
                                    <rect id="Rectangle-468" fill="#FFFFFF" x="24" y="23" width="1" height="1"></rect>
                                    <rect id="Rectangle-468" fill="#FFFFFF" x="24" y="24" width="1" height="1"></rect>
                                    <path d="M24,23.7 L25,23.7 L25,24.3 L24,24.3 L24,23.7 L24,23.7 Z" id="Rectangle-475" fill="#AAACAD"></path>
                                    <rect id="Rectangle-472" fill="#E6E6E6" x="25" y="13" width="2" height="1"></rect>
                                    <rect id="Rectangle-450" stroke="#E6E6E6" x="0" y="0" width="40" height="40" rx="2"></rect>
                                </g>
                            </g>
                        </g>
                    </g>
                </g>
                <g id="SERVICE-CALLS-2" transform="translate(120.000000, 0.000000)" sketch:type="MSShapeGroup">
                    <g id="service">
                        <g id="Illustrations">
                            <g id="service">
                                <rect id="Rectangle-393" fill="#FFFFFF" x="0" y="0" width="40" height="40" rx="2"></rect>
                                <g id="cone" transform="translate(9.000000, 8.000000)">
                                    <path d="M8,1 L11.0755183,1 L14,1 L19,24 L11.0498245,24 L3,24 L8,1 L8,1 Z" id="Rectangle-396" fill="#FA9200"></path>
                                    <path d="M8,1 L11.0755183,1 L14,1 L19,24 L11.0498245,24 L3,24 L8,1 L8,1 Z" id="Rectangle-405" fill="#E6E6E6"></path>
                                    <path d="M4.90000001,15 L17.1,15 L17.9,19 L4.1,19 L4.90000001,15 L4.90000001,15 Z" id="Rectangle-395" fill="#FFFFFF"></path>
                                    <path d="M6.70000001,7 L15.3,7 L16.2,11 L5.8,11 L6.70000001,7 L6.70000001,7 Z" id="Rectangle-395" fill="#FFFFFF"></path>
                                    <rect id="Rectangle-397" fill="#AAACAD" x="0" y="24" width="22" height="2"></rect>
                                    <path d="M4.1,19 L17.9,19 L18.1,20 L3.9,20 L4.1,19 L4.1,19 Z" id="Rectangle-398" fill="#9B9B9B"></path>
                                    <path d="M5.16901409,14 L16.8309859,14 L17,15 L5,15 L5.16901409,14 L5.16901409,14 Z" id="Rectangle-399" fill="#AAACAD"></path>
                                    <path d="M5.84225352,11 L16.1577465,11 L16.4,12 L5.59999999,12 L5.84225352,11 L5.84225352,11 Z" id="Rectangle-400" fill="#AAACAD"></path>
                                    <path d="M6.91267606,6 L15.0873239,6 L15.3,7 L6.7,7 L6.91267606,6 L6.91267606,6 Z" id="Rectangle-401" fill="#AAACAD"></path>
                                    <path d="M8.14837865,0 L13.8516214,0 L14,1 L8,1 L8.14837865,0 L8.14837865,0 Z" id="Rectangle-401" fill="#AAACAD"></path>
                                </g>
                                <rect id="Rectangle-402" fill="#FFFFFF" x="0" y="34" width="40" height="6"></rect>
                                <path d="M27.4998169,40 C27.9559201,39.3927766 28.6820911,39 29.5,39 C29.6850188,39 29.8653433,39.0200987 30.0389093,39.0582318 C30.2475211,37.8882251 31.2700325,37 32.5,37 C33.3886205,37 34.1689552,37.4636267 34.6123081,38.1621842 L34.6123081,38.1621842 C34.8881651,38.0573806 35.1873816,38 35.5,38 C36.709479,38 37.7183558,38.8588798 37.9499909,40 L27.4998169,40 L27.4998169,40 Z" id="Oval-339" fill="#AAACAD"></path>
                                <path d="M35,11 C35,11 37.1230121,14.6924697 36.6,16 C36.0769879,17.3075303 33.8831386,17.2078465 33.4,16 C32.9168614,14.7921535 35,11 35,11 L35,11 Z" id="Rectangle-403" fill="#AAACAD"></path>
                                <path d="M22.5,8.8 L27.6,32.5" id="Line" stroke="#AAACAD" stroke-linecap="square"></path>
                                <path d="M12.3,8.8 L17.5,32.5" id="Line-2" stroke="#AAACAD" stroke-linecap="square" transform="translate(14.900000, 20.650000) scale(-1, 1) translate(-14.900000, -20.650000) "></path>
                                <rect id="Rectangle-404" fill="#FFFFFF" x="33" y="6" width="1" height="4"></rect>
                                <rect id="Rectangle-404" fill="#FFFFFF" x="33" y="2" width="1" height="2"></rect>
                                <rect id="Rectangle-404" fill="#FFFFFF" x="35" y="4" width="1" height="4"></rect>
                                <rect id="Rectangle-407" fill="#D0D0D0" x="0" y="34" width="40" height="1"></rect>
                                <rect id="Rectangle-393-2" stroke="#E6E6E6" x="0" y="0" width="40" height="40" rx="2"></rect>
                            </g>
                        </g>
                    </g>
                </g>
                <g id="replacement" transform="translate(240.000000, 0.000000)" sketch:type="MSShapeGroup">
                    <rect id="Rectangle-375" fill="#FFFFFF" x="0" y="0" width="40" height="40" rx="2"></rect>
                    <g id="save" transform="translate(20.500000, 19.000000) rotate(-90.000000) translate(-20.500000, -19.000000) translate(16.500000, 13.500000)" fill="#9B9B9B">
                        <path d="M3,6 L3,0 L5,0 L5,6 L7.5,6 L4,10.0710678 L0.5,6 L3,6 L3,6 Z" id="Rectangle-338"></path>
                    </g>
                    <g id="rtu-right" transform="translate(35.000000, 20.000000) scale(-1, 1) translate(-35.000000, -20.000000) translate(30.000000, 9.000000)">
                        <rect id="Rectangle-412" fill="#E6E6E6" x="0" y="0" width="6" height="18"></rect>
                        <path d="M6,2 L10,12 L6,12 L6,2 L6,2 Z" id="Rectangle-412" fill="#E6E6E6"></path>
                        <rect id="Rectangle-412" fill="#E6E6E6" x="0" y="18" width="4" height="4"></rect>
                        <rect id="Rectangle-427" fill="#9B9B9B" x="3" y="18" width="1" height="4"></rect>
                        <rect id="Rectangle-416" fill="#9B9B9B" x="0" y="17" width="6" height="1"></rect>
                        <rect id="Rectangle-419" fill-opacity="0.295459692" fill="#9B9B9B" x="0" y="16" width="4" height="1"></rect>
                        <rect id="Rectangle-416" fill="#9B9B9B" x="0" y="0" width="6" height="1"></rect>
                        <rect id="Rectangle-417" fill="#9B9B9B" x="5" y="0" width="1" height="17"></rect>
                        <rect id="Rectangle-418" fill-opacity="0.295459692" fill="#9B9B9B" x="4" y="1" width="1" height="16"></rect>
                        <path d="M6,11 L9.59999999,11 L10,12 L6,12 L6,11 L6,11 Z" id="Rectangle-420" fill="#9B9B9B"></path>
                        <path d="M6.98204068,2.54404803 L7.87339175,1.74517668 L7.81440097,11.6920242 L6.98204068,11.5440481 L6.98204068,2.54404803 L6.98204068,2.54404803 Z" id="Rectangle-421" fill="#9B9B9B" transform="translate(7.427716, 6.718600) rotate(-22.000000) translate(-7.427716, -6.718600) "></path>
                        <rect id="Rectangle-428" fill="#9B9B9B" x="0" y="21" width="4" height="1"></rect>
                    </g>
                    <g id="rtu-left" transform="translate(0.000000, 9.000000)">
                        <rect id="Rectangle-412" fill="#E6E6E6" x="0" y="0" width="9" height="18"></rect>
                        <path d="M9,2 L13,12 L9,12 L9,2 L9,2 Z" id="Rectangle-412" fill="#E6E6E6"></path>
                        <rect id="Rectangle-412" fill="#E6E6E6" x="0" y="18" width="7" height="4"></rect>
                        <rect id="Rectangle-427" fill="#9B9B9B" x="6" y="18" width="1" height="4"></rect>
                        <rect id="Rectangle-416" fill="#9B9B9B" x="0" y="17" width="9" height="1"></rect>
                        <rect id="Rectangle-416" fill="#9B9B9B" x="0" y="0" width="9" height="1"></rect>
                        <rect id="Rectangle-417" fill="#9B9B9B" x="8" y="0" width="1" height="17"></rect>
                        <path d="M9,11 L12.6,11 L13,12 L9,12 L9,11 L9,11 Z" id="Rectangle-420" fill="#9B9B9B"></path>
                        <path d="M9.98204068,2.54404804 L10.8733917,1.74517669 L10.814401,11.6920242 L9.98204068,11.5440481 L9.98204068,2.54404804 L9.98204068,2.54404804 Z" id="Rectangle-421" fill="#9B9B9B" transform="translate(10.427716, 6.718600) rotate(-22.000000) translate(-10.427716, -6.718600) "></path>
                        <rect id="Rectangle-429" fill="#9B9B9B" x="0" y="21" width="7" height="1"></rect>
                        <rect id="Rectangle-423" fill-opacity="0.295459692" fill="#9B9B9B" x="0" y="16" width="7" height="1"></rect>
                        <rect id="Rectangle-422" fill-opacity="0.295459692" fill="#9B9B9B" x="7" y="1" width="1" height="16"></rect>
                    </g>
                    <rect id="Rectangle-435" fill="#AAACAD" x="27" y="6" width="1" height="3"></rect>
                    <rect id="Rectangle-436" fill="#AAACAD" x="27" y="11" width="1" height="3"></rect>
                    <rect id="Rectangle-437" fill="#AAACAD" x="27" y="16" width="1" height="3"></rect>
                    <rect id="Rectangle-438" fill="#AAACAD" x="27" y="21" width="1" height="3"></rect>
                    <rect id="Rectangle-439" fill="#AAACAD" x="27" y="26" width="1" height="3"></rect>
                    <rect id="Rectangle-440" fill="#AAACAD" x="27" y="31" width="1" height="3"></rect>
                    <rect id="Rectangle-487" fill="#AAACAD" x="27" y="3" width="3" height="1"></rect>
                    <rect id="Rectangle-488" fill="#AAACAD" x="32" y="3" width="3" height="1"></rect>
                    <rect id="Rectangle-488" fill="#AAACAD" x="37" y="3" width="3" height="1"></rect>
                    <rect id="Rectangle-491" fill="#AAACAD" x="27" y="36" width="3" height="1"></rect>
                    <rect id="Rectangle-489" fill="#AAACAD" x="32" y="36" width="3" height="1"></rect>
                    <rect id="Rectangle-490" fill="#AAACAD" x="37" y="36" width="3" height="1"></rect>
                    <rect id="Rectangle-375" stroke="#E6E6E6" x="0" y="0" width="40" height="40" rx="2"></rect>
                </g>
                <g id="PREVENTATIVE" transform="translate(180.000000, 0.000000)" sketch:type="MSShapeGroup">
                    <rect id="Rectangle-377" stroke="#E6E6E6" fill="#FFFFFF" x="0" y="0" width="40" height="40" rx="2"></rect>
                    <rect id="Rectangle-378" fill="#AAACAD" x="7" y="4" width="26" height="33"></rect>
                    <rect id="Rectangle-379" fill="#E6E6E6" x="9" y="6" width="22" height="29"></rect>
                    <rect id="Rectangle-381" fill="#FFFFFF" x="10" y="7" width="20" height="27"></rect>
                    <g id="checkboxes" transform="translate(12.000000, 10.000000)" fill="#9B9B9B">
                        <rect id="Rectangle-380" x="0" y="4" width="2" height="2"></rect>
                        <rect id="Rectangle-380" x="0" y="0" width="2" height="2"></rect>
                        <rect id="Rectangle-380" x="0" y="8" width="2" height="2"></rect>
                        <rect id="Rectangle-382" x="0" y="12" width="2" height="2"></rect>
                        <rect id="Rectangle-383" x="0" y="16" width="2" height="2"></rect>
                        <rect id="Rectangle-384" x="4" y="0" width="8" height="1"></rect>
                        <rect id="Rectangle-384" x="4" y="4" width="3" height="1"></rect>
                        <rect id="Rectangle-385" x="8" y="4" width="5" height="1"></rect>
                        <rect id="Rectangle-384" x="4" y="8" width="6" height="1"></rect>
                        <rect id="Rectangle-386" x="4" y="12" width="8" height="1"></rect>
                        <rect id="Rectangle-387" x="4" y="16" width="7" height="1"></rect>
                    </g>
                    <path d="M15,5 L25,5 L26,8 L14,8 L15,5 Z M17,3 L23,3 L23,5 L17,5 L17,3 Z M20,7 C20.5522847,7 21,6.55228475 21,6 C21,5.44771525 20.5522847,5 20,5 C19.4477153,5 19,5.44771525 19,6 C19,6.55228475 19.4477153,7 20,7 Z" id="Rectangle-390" fill="#AAACAD"></path>
                    <circle id="Oval-20" fill="#FFFFFF" cx="20" cy="6" r="1"></circle>
                </g>
                <g id="REPLACEMENT" transform="translate(60.000000, 0.000000)" sketch:type="MSShapeGroup">
                    <rect id="Rectangle-368" fill="#FFFFFF" x="0" y="0" width="40" height="40" rx="2"></rect>
                    <path d="M19.9282032,8 L26.8564065,12 L26.8564065,20 L19.9282032,24 L13,20 L13,12 L19.9282032,8 Z M19.9282032,19 C21.5850575,19 22.9282032,17.6568542 22.9282032,16 C22.9282032,14.3431458 21.5850575,13 19.9282032,13 C18.271349,13 16.9282032,14.3431458 16.9282032,16 C16.9282032,17.6568542 18.271349,19 19.9282032,19 Z" id="Polygon-3" fill="#E6E6E6"></path>
                    <path d="M27,40.0914459 C32,28.4596119 37,27.2004472 37,19.9904973 C37,12.7805474 32.6330363,6.83534672 27,6 L27,33.9809946 L27,40.0914459 Z" id="Oval-338" fill="#AAACAD"></path>
                    <path d="M6.27202214,29.3159182 C3.4112624,20.1537211 5.29497135,11.4306641 13,9 C13,9 13.0451667,29.315918 13,39.8410645 C10.1220288,32.9265823 8.87258328,34.0639057 6.27202214,29.3159182 Z" id="Oval-339" fill="#AAACAD"></path>
                    <path d="M27,21.5625 L27,40 L13,40 L13,21.5625 L13,22.125 L20,26.875 L27,22.125 L27,21.5625 L27,21.5625 Z" id="Rectangle-369" fill="#AAACAD"></path>
                    <rect id="Rectangle-370" fill="#E6E6E6" x="17" y="37" width="7" height="3"></rect>
                    <rect id="Rectangle-371" fill="#E6E6E6" x="16" y="30" width="1" height="5"></rect>
                    <rect id="Rectangle-371" fill="#E6E6E6" x="18" y="30" width="1" height="5"></rect>
                    <rect id="Rectangle-372" fill="#E6E6E6" x="20" y="30" width="1" height="5"></rect>
                    <rect id="Rectangle-373" fill="#E6E6E6" x="22" y="30" width="1" height="5"></rect>
                    <rect id="Rectangle-374" fill="#E6E6E6" x="24" y="30" width="1" height="5"></rect>
                    <rect id="Rectangle-375" stroke="#E6E6E6" x="0" y="0" width="40" height="40" rx="2"></rect>
                </g>
            </g>
        </g>
    </g>
</svg>