<?xml version="1.0" encoding="UTF-8" standalone="no"?>
<svg width="661px" height="201px" viewBox="0 0 661 201" version="1.1" xmlns="http://www.w3.org/2000/svg" xmlns:xlink="http://www.w3.org/1999/xlink" xmlns:sketch="http://www.bohemiancoding.com/sketch/ns">
    <!-- Generator: Sketch 3.2.2 (9983) - http://www.bohemiancoding.com/sketch -->
    <title>highlighter</title>
    <desc>Created with Sketch.</desc>
    <defs></defs>
    <g id="Page-1" stroke="none" stroke-width="1" fill="none" fill-rule="evenodd" sketch:type="MSPage">
        <g id="-11" sketch:type="MSArtboardGroup" transform="translate(-227.000000, -130.000000)" fill-opacity="0.900000036" fill="#6FC9B7">
            <g id="highlighter" sketch:type="MSLayerGroup" transform="translate(226.000000, 130.000000)">
                <path d="M1,10.040286 L618.476098,0 L619,27.959714 L1.52390161,38 L1,10.040286 L1,10.040286 Z" id="Rectangle-489" sketch:type="MSShapeGroup"></path>
                <path d="M13,34.0252425 L628.47673,24 L629,51.9747575 L13.5232702,62 L13,34.0252425 L13,34.0252425 Z" id="Rectangle-489" sketch:type="MSShapeGroup"></path>
                <path d="M3.52417045,45 L634,55.1911273 L633.47583,83 L3,72.8088727 L3.52417045,45 L3.52417045,45 Z" id="Rectangle-490" sketch:type="MSShapeGroup"></path>
                <path d="M3.52373992,67 L655,77.7183977 L654.47626,106 L3,95.2816023 L3.52373992,67 L3.52373992,67 Z" id="Rectangle-490" sketch:type="MSShapeGroup"></path>
                <path d="M16.5234248,92 L660,102.354789 L659.476575,130 L16,119.645211 L16.5234248,92 L16.5234248,92 Z" id="Rectangle-491" sketch:type="MSShapeGroup"></path>
                <path d="M16.5236138,112 L643,122.15164 L642.476386,150 L16,139.84836 L16.5236138,112 L16.5236138,112 Z" id="Rectangle-492" sketch:type="MSShapeGroup"></path>
                <rect id="Rectangle-493" sketch:type="MSShapeGroup" x="14" y="136" width="625" height="28"></rect>
                <rect id="Rectangle-494" sketch:type="MSShapeGroup" x="14" y="156" width="635" height="28"></rect>
                <rect id="Rectangle-495" sketch:type="MSShapeGroup" x="14" y="173" width="648" height="28"></rect>
            </g>
        </g>
    </g>
</svg>