<?xml version="1.0" encoding="UTF-8" standalone="no"?>
<svg width="333px" height="270px" viewBox="0 0 333 270" version="1.1" xmlns="http://www.w3.org/2000/svg" xmlns:xlink="http://www.w3.org/1999/xlink" xmlns:sketch="http://www.bohemiancoding.com/sketch/ns">
    <!-- Generator: Sketch 3.2.2 (9983) - http://www.bohemiancoding.com/sketch -->
    <title>Group</title>
    <desc>Created with Sketch.</desc>
    <defs></defs>
    <g id="Page-1" stroke="none" stroke-width="1" fill="none" fill-rule="evenodd" sketch:type="MSPage">
        <g id="onboard-facility-highlight" sketch:type="MSLayerGroup" fill-opacity="0.0985054348" fill="#6FC9B7">
            <g id="Page-1" sketch:type="MSShapeGroup">
                <g id="-14">
                    <g id="Group">
                        <path d="M20.0928196,84.0131159 L4.11774065,85.974609 L0.0960523151,53.220586 L38.6891981,48.4819435 L36.6521876,38.002433 L229.051116,0.603869926 L233.703288,24.5372241 L294.882259,17.025391 L298.903948,49.779414 L259.901864,54.5682677 L315.48728,50.6813568 L317.789243,83.6009705 L21.5127204,104.318643 L20.0928196,84.0131159 L20.0928196,84.0131159 Z" id="Rectangle-531"></path>
                        <path d="M233.703288,24.5372241 L235.347812,32.997567 L42.9488844,70.3961301 L38.6891981,48.4819435 L233.703288,24.5372241 L233.703288,24.5372241 Z" id="Rectangle-541"></path>
                        <path d="M313.107672,107.372585 L313.265347,116.405805 L54.5877953,120.921038 L313.107672,107.372585 L313.107672,107.372585 Z" id="Rectangle-531"></path>
                        <path d="M313.107672,107.372585 L312.689418,83.4108307 L15.7346526,88.5941954 L16.310582,121.589169 L54.5877953,120.921038 L7.35573116,123.396366 L9.08281772,156.35114 L328.644269,139.603634 L326.917182,106.64886 L313.107672,107.372585 L313.107672,107.372585 Z" id="Rectangle-537"></path>
                        <path d="M327.462418,176 L138.592178,176 L325.398784,156.365835 L327.462418,176 L327.462418,176 Z" id="Rectangle-531"></path>
                        <path d="M327.462418,176 L333,176 L333,143 L13,143 L13,176 L138.592178,176 L7.1517771,189.814943 L10.6012164,222.634165 L328.848223,189.185057 L327.462418,176 L327.462418,176 Z" id="Rectangle-535"></path>
                        <path d="M288.861695,233 L84.5059916,233 L286.628864,211.75603 L288.861695,233 L288.861695,233 Z" id="Rectangle-531"></path>
                        <path d="M288.861695,233 L305,233 L305,200 L37,200 L37,233 L84.5059916,233 L51.9216967,236.424747 L55.371136,269.24397 L290.078303,244.575253 L288.861695,233 L288.861695,233 Z" id="Rectangle-533"></path>
                        <path d="M259.901864,54.5682677 L20.0928196,84.0131159 L19.2107567,71.3990295 L259.901864,54.5682677 L259.901864,54.5682677 Z" id="Rectangle-539"></path>
                    </g>
                </g>
            </g>
        </g>
    </g>
</svg>