<?xml version="1.0" encoding="UTF-8" standalone="no"?>
<svg width="22px" height="22px" viewBox="0 0 22 22" version="1.1" xmlns="http://www.w3.org/2000/svg" xmlns:xlink="http://www.w3.org/1999/xlink" xmlns:sketch="http://www.bohemiancoding.com/sketch/ns">
    <!-- Generator: Sketch 3.2.2 (9983) - http://www.bohemiancoding.com/sketch -->
    <title>pdf-download-1</title>
    <desc>Created with Sketch.</desc>
    <defs></defs>
    <g id="Illustrations" stroke="none" stroke-width="1" fill="none" fill-rule="evenodd" sketch:type="MSPage">
        <g id="pdf-download-1" sketch:type="MSArtboardGroup">
            <g id="scope-icon-2" sketch:type="MSLayerGroup" transform="translate(3.000000, 2.000000)">
                <path d="M10.031548,1 L2,1 L2,17 L14,17 L14,4.95430717 L10.031548,1 Z" id="Rectangle-21" stroke="#CED2D6" stroke-width="2" fill="#FFFFFF" sketch:type="MSShapeGroup"></path>
                <path d="M15.0215454,4.5 L10.4,7.4505806e-09 L10.4000244,4.5 L15.0215454,4.5 Z" id="Rectangle-24" fill="#AAACAD" sketch:type="MSShapeGroup"></path>
                <path d="M4.5,4.5 L7.6622777,4.5" id="Line" stroke="#AAACAD" stroke-linecap="square" sketch:type="MSShapeGroup"></path>
                <path d="M4.5,6.5 L8.6622777,6.5" id="Line-2" stroke="#AAACAD" stroke-linecap="square" sketch:type="MSShapeGroup"></path>
                <path d="M7.5,8.5 L10.4936799,8.5" id="Line-3" stroke="#AAACAD" stroke-linecap="square" sketch:type="MSShapeGroup"></path>
                <path d="M8.5,10.5 L10.4936799,10.5" id="Line-4" stroke="#AAACAD" stroke-linecap="square" sketch:type="MSShapeGroup"></path>
                <path d="M8.5,12.5 L10.4936799,12.5" id="Line-5" stroke="#AAACAD" stroke-linecap="square" sketch:type="MSShapeGroup"></path>
            </g>
            <rect id="Rectangle-893" fill="#092F3E" sketch:type="MSShapeGroup" x="1" y="9" width="9" height="9" rx="40"></rect>
            <path d="M3.7,14.5362397 L7.3,14.5362397 L5.5,16.5 L3.7,14.5362397 Z" id="Path-431" fill="#FFFFFF" sketch:type="MSShapeGroup"></path>
            <rect id="Rectangle-895" fill="#FFFFFF" sketch:type="MSShapeGroup" x="5" y="10" width="1" height="5"></rect>
        </g>
    </g>
</svg>