<?xml version="1.0" encoding="UTF-8" standalone="no"?>
<svg width="120px" height="120px" viewBox="0 0 120 120" version="1.1" xmlns="http://www.w3.org/2000/svg" xmlns:xlink="http://www.w3.org/1999/xlink" xmlns:sketch="http://www.bohemiancoding.com/sketch/ns">
    <!-- Generator: Sketch 3.3.2 (12043) - http://www.bohemiancoding.com/sketch -->
    <title>permission-locked</title>
    <desc>Created with Sketch.</desc>
    <defs></defs>
    <g id="Page-1" stroke="none" stroke-width="1" fill="none" fill-rule="evenodd" sketch:type="MSPage">
        <g id="permission-locked" sketch:type="MSArtboardGroup">
            <circle id="Oval-42-Copy" fill="#F7F8FA" sketch:type="MSShapeGroup" cx="34" cy="91" r="26"></circle>
            <circle id="Oval-42" stroke="#979797" stroke-width="3" sketch:type="MSShapeGroup" cx="29" cy="88" r="26"></circle>
            <g id="Oval-19-+-Oval-17-+-Oval-42" sketch:type="MSLayerGroup" transform="translate(17.000000, 75.000000)" fill="#9B9B9B">
                <circle id="Oval-19" sketch:type="MSShapeGroup" cx="12" cy="6" r="6"></circle>
                <path d="M22.9812429,20 C20.4513506,16.3730318 16.2481117,14 11.4906214,14 C6.73313122,14 2.52989227,16.3730318 -1.77635684e-15,20 C2.52989227,23.6269682 6.73313122,26 11.4906214,26 C16.2481117,26 20.4513506,23.6269682 22.9812429,20 L22.9812429,20 Z" id="Oval-17" sketch:type="MSShapeGroup"></path>
            </g>
            <g id="Group" sketch:type="MSLayerGroup" transform="translate(51.000000, 10.000000)" fill="#F7F8FA">
                <rect id="Rectangle-216-Copy-2" sketch:type="MSShapeGroup" x="0" y="0" width="62" height="44"></rect>
                <path d="M5.77358491,39.8867925 L31.7719184,39.8867925 L5.77358491,56.3067925 L5.77358491,39.8867925 Z" id="Rectangle-216-Copy-3" stroke="#F7F8FA" stroke-width="2" sketch:type="MSShapeGroup"></path>
                <path d="M25.5,39.5 L5.1,52.4" id="Rectangle-216-Copy" stroke="#93989C" stroke-width="3" sketch:type="MSShapeGroup"></path>
            </g>
            <g id="LOCK" sketch:type="MSLayerGroup" transform="translate(64.000000, 11.000000)">
                <path d="M6,7.99349036 L6,21.7207954 C6,26.1332633 9.58720763,29.7142857 14,29.7142857 C18.4182164,29.7142857 22,26.1361068 22,21.7207954 L22,7.99349036 C22,3.58102245 18.4127924,0 14,0 C9.58178357,0 6,3.57817886 6,7.99349036 Z M19.7142857,7.99349036 L19.7142857,21.7207954 C19.7142857,24.8732262 17.1563662,27.4285714 14,27.4285714 C10.8486906,27.4285714 8.28571429,24.8700143 8.28571429,21.7207954 L8.28571429,7.99349036 C8.28571429,4.8410595 10.8436338,2.28571429 14,2.28571429 C17.1513094,2.28571429 19.7142857,4.84427144 19.7142857,7.99349036 Z" id="Rectangle-126" stroke="#9B9B9B" fill="#93989C" sketch:type="MSShapeGroup"></path>
                <rect id="Rectangle-224" fill="#93989C" sketch:type="MSShapeGroup" x="0" y="13" width="3" height="18"></rect>
                <rect id="Rectangle-224-Copy" fill="#93989C" sketch:type="MSShapeGroup" x="25" y="13" width="3" height="18"></rect>
                <rect id="Rectangle-226" fill="#93989C" sketch:type="MSShapeGroup" x="0" y="13" width="28" height="3"></rect>
                <rect id="Rectangle-226-Copy" fill="#93989C" sketch:type="MSShapeGroup" x="0" y="26" width="28" height="5"></rect>
                <rect id="Rectangle-227" fill="#FFFFFF" sketch:type="MSShapeGroup" x="3" y="16" width="22" height="10"></rect>
                <path d="M7.33333333,21 L20.6666667,21" id="Line" stroke="#93989C" stroke-width="2" stroke-linecap="square" sketch:type="MSShapeGroup"></path>
                <rect id="Rectangle-128" fill="#93989C" sketch:type="MSShapeGroup" x="2" y="26" width="24" height="4"></rect>
            </g>
            <rect id="Rectangle-221" fill="#93989C" sketch:type="MSShapeGroup" x="46" y="5" width="3" height="46"></rect>
            <rect id="Rectangle-220" fill="#93989C" sketch:type="MSShapeGroup" x="46" y="48" width="64" height="3"></rect>
            <rect id="Rectangle-220-Copy" fill="#93989C" sketch:type="MSShapeGroup" x="46" y="5" width="64" height="3"></rect>
            <rect id="Rectangle-221-Copy" fill="#93989C" sketch:type="MSShapeGroup" x="107" y="5" width="3" height="46"></rect>
            <path d="M54,50.6 L57,51 L57,63.6 L54,65.6 L54,50.6 Z" id="Rectangle-224" fill="#93989C" sketch:type="MSShapeGroup"></path>
        </g>
    </g>
</svg>