<?xml version="1.0" encoding="UTF-8" standalone="no"?>
<svg width="40px" height="40px" viewBox="0 0 40 40" version="1.1" xmlns="http://www.w3.org/2000/svg" xmlns:xlink="http://www.w3.org/1999/xlink" xmlns:sketch="http://www.bohemiancoding.com/sketch/ns">
    <!-- Generator: Sketch 3.2.1 (9971) - http://www.bohemiancoding.com/sketch -->
    <title>preventative</title>
    <desc>Created with Sketch.</desc>
    <defs></defs>
    <g id="Illustrations" stroke="none" stroke-width="1" fill="none" fill-rule="evenodd" sketch:type="MSPage">
        <g id="preventative" sketch:type="MSArtboardGroup">
            <rect id="Rectangle-377" fill="#58A1ED" sketch:type="MSShapeGroup" x="0" y="0" width="40" height="40" rx="2"></rect>
            <rect id="Rectangle-378" fill="#F6D262" sketch:type="MSShapeGroup" x="7" y="4" width="26" height="33"></rect>
            <rect id="Rectangle-379" fill="#95C3F3" sketch:type="MSShapeGroup" x="9" y="6" width="22" height="29"></rect>
            <rect id="Rectangle-381" fill="#FFFFFF" sketch:type="MSShapeGroup" x="10" y="7" width="20" height="27"></rect>
            <g id="checkboxes" sketch:type="MSLayerGroup" transform="translate(12.000000, 10.000000)">
                <rect id="Rectangle-380" fill="#58A1ED" sketch:type="MSShapeGroup" x="0" y="4" width="2" height="2"></rect>
                <rect id="Rectangle-380" fill="#58A1ED" sketch:type="MSShapeGroup" x="0" y="0" width="2" height="2"></rect>
                <rect id="Rectangle-380" fill="#58A1ED" sketch:type="MSShapeGroup" x="0" y="8" width="2" height="2"></rect>
                <rect id="Rectangle-382" fill="#58A1ED" sketch:type="MSShapeGroup" x="0" y="12" width="2" height="2"></rect>
                <rect id="Rectangle-383" fill="#58A1ED" sketch:type="MSShapeGroup" x="0" y="16" width="2" height="2"></rect>
                <rect id="Rectangle-384" fill="#AAACAD" sketch:type="MSShapeGroup" x="4" y="0" width="8" height="1"></rect>
                <rect id="Rectangle-384" fill="#AAACAD" sketch:type="MSShapeGroup" x="4" y="4" width="3" height="1"></rect>
                <rect id="Rectangle-385" fill="#AAACAD" sketch:type="MSShapeGroup" x="8" y="4" width="5" height="1"></rect>
                <rect id="Rectangle-384" fill="#AAACAD" sketch:type="MSShapeGroup" x="4" y="8" width="6" height="1"></rect>
                <rect id="Rectangle-386" fill="#AAACAD" sketch:type="MSShapeGroup" x="4" y="12" width="8" height="1"></rect>
                <rect id="Rectangle-387" fill="#AAACAD" sketch:type="MSShapeGroup" x="4" y="16" width="7" height="1"></rect>
            </g>
            <path d="M15,5 L25,5 L26,8 L14,8 L15,5 Z M17,3 L23,3 L23,5 L17,5 L17,3 Z M20,7 C20.5522847,7 21,6.55228475 21,6 C21,5.44771525 20.5522847,5 20,5 C19.4477153,5 19,5.44771525 19,6 C19,6.55228475 19.4477153,7 20,7 Z" id="Rectangle-390" fill="#092F3E" sketch:type="MSShapeGroup"></path>
        </g>
    </g>
</svg>