<?xml version="1.0" encoding="UTF-8" standalone="no"?>
<svg width="40px" height="40px" viewBox="0 0 40 40" version="1.1" xmlns="http://www.w3.org/2000/svg" xmlns:xlink="http://www.w3.org/1999/xlink" xmlns:sketch="http://www.bohemiancoding.com/sketch/ns">
    <!-- Generator: Sketch 3.2.1 (9971) - http://www.bohemiancoding.com/sketch -->
    <title>replacement</title>
    <desc>Created with Sketch.</desc>
    <defs></defs>
    <g id="Illustrations" stroke="none" stroke-width="1" fill="none" fill-rule="evenodd" sketch:type="MSPage">
        <g id="replacement" sketch:type="MSArtboardGroup">
            <rect id="Rectangle-375" fill="#9999DC" sketch:type="MSShapeGroup" x="0" y="0" width="40" height="40" rx="2"></rect>
            <g id="save" sketch:type="MSLayerGroup" transform="translate(20.500000, 19.000000) rotate(-90.000000) translate(-20.500000, -19.000000) translate(16.500000, 13.500000)" fill="#FFFFFF">
                <path d="M3,6 L3,0 L5,0 L5,6 L7.5,6 L4,10.0710678 L0.5,6 L3,6 L3,6 Z" id="Rectangle-338" sketch:type="MSShapeGroup"></path>
            </g>
            <g id="rtu-right" sketch:type="MSLayerGroup" transform="translate(35.000000, 20.000000) scale(-1, 1) translate(-35.000000, -20.000000) translate(30.000000, 9.000000)">
                <rect id="Rectangle-412" fill="#9B9B9B" sketch:type="MSShapeGroup" x="0" y="0" width="6" height="18"></rect>
                <path d="M6,2 L10,12 L6,12 L6,2 Z" id="Rectangle-412" fill="#9B9B9B" sketch:type="MSShapeGroup"></path>
                <rect id="Rectangle-412" fill="#9B9B9B" sketch:type="MSShapeGroup" x="0" y="18" width="4" height="4"></rect>
                <rect id="Rectangle-427" fill="#092F3E" sketch:type="MSShapeGroup" x="3" y="18" width="1" height="4"></rect>
                <rect id="Rectangle-416" fill="#092F3E" sketch:type="MSShapeGroup" x="0" y="17" width="6" height="1"></rect>
                <rect id="Rectangle-419" fill="#706C6C" sketch:type="MSShapeGroup" x="0" y="16" width="4" height="1"></rect>
                <rect id="Rectangle-416" fill="#092F3E" sketch:type="MSShapeGroup" x="0" y="0" width="6" height="1"></rect>
                <rect id="Rectangle-417" fill="#092F3E" sketch:type="MSShapeGroup" x="5" y="0" width="1" height="17"></rect>
                <rect id="Rectangle-418" fill="#706C6C" sketch:type="MSShapeGroup" x="4" y="1" width="1" height="16"></rect>
                <path d="M6,11 L9.59999999,11 L10,12 L6,12 L6,11 Z" id="Rectangle-420" fill="#092F3E" sketch:type="MSShapeGroup"></path>
                <path d="M6.98204088,2.54404815 L7.87339195,1.7451768 L7.81440117,11.6920243 L6.98204088,11.5440482 L6.98204088,2.54404815 Z" id="Rectangle-421" fill="#092F3E" sketch:type="MSShapeGroup" transform="translate(7.427716, 6.718601) rotate(-22.000000) translate(-7.427716, -6.718601) "></path>
                <rect id="Rectangle-428" fill="#092F3E" sketch:type="MSShapeGroup" x="0" y="21" width="4" height="1"></rect>
            </g>
            <g id="rtu-left" sketch:type="MSLayerGroup" transform="translate(0.000000, 9.000000)">
                <rect id="Rectangle-412" fill="#9B9B9B" sketch:type="MSShapeGroup" x="0" y="0" width="9" height="18"></rect>
                <path d="M9,2 L13,12 L9,12 L9,2 Z" id="Rectangle-412" fill="#9B9B9B" sketch:type="MSShapeGroup"></path>
                <rect id="Rectangle-412" fill="#9B9B9B" sketch:type="MSShapeGroup" x="0" y="18" width="7" height="4"></rect>
                <rect id="Rectangle-427" fill="#092F3E" sketch:type="MSShapeGroup" x="6" y="18" width="1" height="4"></rect>
                <rect id="Rectangle-416" fill="#092F3E" sketch:type="MSShapeGroup" x="0" y="17" width="9" height="1"></rect>
                <rect id="Rectangle-416" fill="#092F3E" sketch:type="MSShapeGroup" x="0" y="0" width="9" height="1"></rect>
                <rect id="Rectangle-417" fill="#092F3E" sketch:type="MSShapeGroup" x="8" y="0" width="1" height="17"></rect>
                <path d="M9,11 L12.6,11 L13,12 L9,12 L9,11 Z" id="Rectangle-420" fill="#092F3E" sketch:type="MSShapeGroup"></path>
                <path d="M9.98204088,2.54404815 L10.8733919,1.7451768 L10.8144012,11.6920243 L9.98204088,11.5440482 L9.98204088,2.54404815 Z" id="Rectangle-421" fill="#092F3E" sketch:type="MSShapeGroup" transform="translate(10.427716, 6.718601) rotate(-22.000000) translate(-10.427716, -6.718601) "></path>
                <rect id="Rectangle-429" fill="#092F3E" sketch:type="MSShapeGroup" x="0" y="21" width="7" height="1"></rect>
                <rect id="Rectangle-423" fill="#706C6C" sketch:type="MSShapeGroup" x="0" y="16" width="7" height="1"></rect>
                <rect id="Rectangle-422" fill="#706C6C" sketch:type="MSShapeGroup" x="7" y="1" width="1" height="16"></rect>
            </g>
            <rect id="Rectangle-435" fill="#FFFFFF" sketch:type="MSShapeGroup" x="27" y="6" width="1" height="3"></rect>
            <rect id="Rectangle-436" fill="#FFFFFF" sketch:type="MSShapeGroup" x="27" y="11" width="1" height="3"></rect>
            <rect id="Rectangle-437" fill="#FFFFFF" sketch:type="MSShapeGroup" x="27" y="16" width="1" height="3"></rect>
            <rect id="Rectangle-438" fill="#FFFFFF" sketch:type="MSShapeGroup" x="27" y="21" width="1" height="3"></rect>
            <rect id="Rectangle-439" fill="#FFFFFF" sketch:type="MSShapeGroup" x="27" y="26" width="1" height="3"></rect>
            <rect id="Rectangle-440" fill="#FFFFFF" sketch:type="MSShapeGroup" x="27" y="31" width="1" height="3"></rect>
            <rect id="Rectangle-487" fill="#FFFFFF" sketch:type="MSShapeGroup" x="27" y="3" width="3" height="1"></rect>
            <rect id="Rectangle-488" fill="#FFFFFF" sketch:type="MSShapeGroup" x="32" y="3" width="3" height="1"></rect>
            <rect id="Rectangle-488" fill="#FFFFFF" sketch:type="MSShapeGroup" x="37" y="3" width="3" height="1"></rect>
            <rect id="Rectangle-491" fill="#FFFFFF" sketch:type="MSShapeGroup" x="27" y="36" width="3" height="1"></rect>
            <rect id="Rectangle-489" fill="#FFFFFF" sketch:type="MSShapeGroup" x="32" y="36" width="3" height="1"></rect>
            <rect id="Rectangle-490" fill="#FFFFFF" sketch:type="MSShapeGroup" x="37" y="36" width="3" height="1"></rect>
        </g>
    </g>
</svg>