<?xml version="1.0" encoding="UTF-8" standalone="no"?>
<svg width="60px" height="74px" viewBox="0 0 60 74" version="1.1" xmlns="http://www.w3.org/2000/svg" xmlns:xlink="http://www.w3.org/1999/xlink" xmlns:sketch="http://www.bohemiancoding.com/sketch/ns">
    <!-- Generator: Sketch 3.1.1 (8761) - http://www.bohemiancoding.com/sketch -->
    <title>propsal-view 2</title>
    <desc>Created with Sketch.</desc>
    <defs></defs>
    <g id="Illustrations" stroke="none" stroke-width="1" fill="none" fill-rule="evenodd" sketch:type="MSPage">
        <g id="propsal-view-2" sketch:type="MSArtboardGroup">
            <g id="cooperative" sketch:type="MSLayerGroup" transform="translate(4.000000, 4.000000)">
                <rect id="Rectangle-23" stroke="#E6E6E6" stroke-width="2" fill="#FFFFFF" sketch:type="MSShapeGroup" x="0" y="6" width="46" height="60"></rect>
                <rect id="Rectangle-24" stroke="#E6E6E6" stroke-width="2" fill="#FFFFFF" sketch:type="MSShapeGroup" x="3" y="3" width="46" height="60"></rect>
                <rect id="Rectangle-22" stroke="#90ACF3" stroke-width="2" fill="#FFFFFF" sketch:type="MSShapeGroup" x="6" y="0" width="46" height="60"></rect>
                <rect id="Rectangle-29" stroke="#DAE3FB" stroke-width="2" fill="#FFFFFF" sketch:type="MSShapeGroup" x="8" y="2" width="42" height="56"></rect>
                <rect id="Rectangle-23" sketch:type="MSShapeGroup" x="12" y="6" width="9" height="9"></rect>
                <g id="three" transform="translate(13.000000, 42.000000)" fill="#373C3E" sketch:type="MSShapeGroup">
                    <rect id="Rectangle-28" x="7" y="0" width="11" height="1"></rect>
                    <rect id="Rectangle-26" x="7" y="4" width="18" height="1"></rect>
                    <path d="M0.311035156,3.44824219 L1.70214844,3.44824219 C1.70214844,3.76497554 1.81835821,3.92333984 2.05078125,3.92333984 C2.16699277,3.92333984 2.26155563,3.87833704 2.33447266,3.78833008 C2.40738969,3.69832312 2.44384766,3.58040438 2.44384766,3.43457031 C2.44384766,3.06314918 2.2501647,2.87744141 1.86279297,2.87744141 C1.83544908,2.87744141 1.80126974,2.87915037 1.76025391,2.88256836 C1.71923808,2.88598635 1.6725263,2.88997394 1.62011719,2.89453125 L1.62011719,1.77001953 C1.65885436,1.77229819 1.69246405,1.77400716 1.72094727,1.77514648 C1.74943048,1.77628581 1.77278637,1.77685547 1.79101562,1.77685547 C2.18066601,1.77685547 2.37548828,1.59798356 2.37548828,1.24023437 C2.37548828,0.94856625 2.27408956,0.802734375 2.07128906,0.802734375 C1.91178306,0.802734375 1.82063813,0.920083462 1.79785156,1.15478516 L1.79101562,1.2265625 L0.413574219,1.2265625 C0.452311392,0.734372539 0.624347432,0.34586731 0.9296875,0.0610351562 C1.23274891,-0.228354312 1.63036863,-0.373046875 2.12255859,-0.373046875 C2.59196198,-0.373046875 2.98160652,-0.224936377 3.29150391,0.0712890625 C3.60823726,0.365235845 3.76660156,0.728676221 3.76660156,1.16162109 C3.76660156,1.64697508 3.55355031,2.01725133 3.12744141,2.27246094 C3.59912345,2.54362115 3.83496094,2.95149467 3.83496094,3.49609375 C3.83496094,3.9677758 3.66748214,4.35172378 3.33251953,4.64794922 C3.00211423,4.94417466 2.57259379,5.09228516 2.04394531,5.09228516 C1.52669012,5.09228516 1.1097021,4.94759259 0.79296875,4.65820312 C0.471678081,4.36881366 0.311035156,3.99170154 0.311035156,3.52685547 L0.311035156,3.44824219 Z" id="3"></path>
                </g>
                <g id="two" transform="translate(13.000000, 30.000000)" fill="#373C3E" sketch:type="MSShapeGroup">
                    <rect id="Rectangle-24" x="7" y="0" width="16" height="1"></rect>
                    <rect id="Rectangle-24" x="7" y="4" width="20.943919" height="1"></rect>
                    <path d="M3.85888672,5 L0.225585938,5 L1.66796875,3.07568359 C1.83203207,2.8569325 1.96988876,2.66154057 2.08154297,2.48950195 C2.19319717,2.31746333 2.28092416,2.16536524 2.34472656,2.03320312 C2.47005271,1.78482949 2.53271484,1.52962371 2.53271484,1.26757812 C2.53271484,1.12402272 2.50309274,1.01009157 2.44384766,0.92578125 C2.38460257,0.841470933 2.30371145,0.799316406 2.20117188,0.799316406 C1.97330615,0.799316406 1.859375,1.01350697 1.859375,1.44189453 C1.859375,1.4646811 1.85994466,1.49202458 1.86108398,1.52392578 C1.86222331,1.55582698 1.86393228,1.59342426 1.86621094,1.63671875 L0.481933594,1.63671875 L0.475097656,1.4453125 C0.475097656,0.914385366 0.639158516,0.479168364 0.967285156,0.139648438 C1.29769045,-0.202150146 1.72037503,-0.373046875 2.23535156,-0.373046875 C2.73209884,-0.373046875 3.13769374,-0.211264639 3.45214844,0.112304688 C3.76888179,0.429038042 3.92724609,0.842608125 3.92724609,1.35302734 C3.92724609,1.76318564 3.8190115,2.16194468 3.60253906,2.54931641 C3.49316352,2.74300227 3.35131923,2.94636938 3.17700195,3.15942383 C3.00268468,3.37247828 2.79134239,3.59635299 2.54296875,3.83105469 C2.75716253,3.81510409 2.97306206,3.80371097 3.19067383,3.796875 C3.40828559,3.79003903 3.631021,3.78662109 3.85888672,3.78662109 L3.85888672,5 Z" id="2"></path>
                </g>
                <g id="one" transform="translate(14.000000, 19.000000)" fill="#373C3E" sketch:type="MSShapeGroup">
                    <rect id="Rectangle-24" x="6" y="0" width="20.943919" height="1"></rect>
                    <rect id="Rectangle-24" x="6" y="4" width="14" height="1"></rect>
                    <path d="M2.05224609,5 L0.626953125,5 L0.626953125,0.963378906 L0.0561523438,0.963378906 L0.0561523438,-0.27734375 L2.05224609,-0.27734375 L2.05224609,5 Z" id="1"></path>
                </g>
            </g>
            <path d="M21.344,15.32 C21.344,15.8853362 21.1253355,16.3226651 20.688,16.632 C20.3039981,16.9093347 19.8186696,17.048 19.232,17.048 C18.3466622,17.048 17.6533358,16.7973358 17.152,16.296 L17.872,15.576 C18.1920016,15.8960016 18.6506637,16.056 19.248,16.056 C19.9200034,16.056 20.256,15.8213357 20.256,15.352 C20.256,14.9626647 20.0293356,14.7360003 19.576,14.672 L18.888,14.576 C17.879995,14.4373326 17.376,13.9066713 17.376,12.984 C17.376,12.4293306 17.5733314,11.9973349 17.968,11.688 C18.3306685,11.3999986 18.7946638,11.256 19.36,11.256 C20.1280038,11.256 20.741331,11.4773311 21.2,11.92 L20.496,12.616 C20.2186653,12.3546654 19.8293358,12.224 19.328,12.224 C19.0773321,12.224 18.8746674,12.2799994 18.72,12.392 C18.5386658,12.5200006 18.448,12.7039988 18.448,12.944 C18.448,13.3013351 18.6799977,13.5119997 19.144,13.576 L19.816,13.672 C20.8346718,13.8160007 21.344,14.3653286 21.344,15.32 L21.344,15.32 Z M26.392,15.248 C26.3013329,15.8080028 26.0706685,16.2479984 25.7,16.568 C25.3293315,16.8880016 24.8613362,17.048 24.296,17.048 C23.687997,17.048 23.1760021,16.8400021 22.76,16.424 C22.5093321,16.1733321 22.3440004,15.8453354 22.264,15.44 C22.2213331,15.2213322 22.2,14.7920032 22.2,14.152 C22.2,13.5226635 22.2213331,13.0933345 22.264,12.864 C22.338667,12.4586646 22.5039987,12.1306679 22.76,11.88 C23.1813354,11.4639979 23.6933303,11.256 24.296,11.256 C24.8666695,11.256 25.3346648,11.4146651 25.7,11.732 C26.0653352,12.0493349 26.2959995,12.4906638 26.392,13.056 L25.264,13.056 C25.1359994,12.5173306 24.8160026,12.248 24.304,12.248 C23.9679983,12.248 23.7093342,12.3733321 23.528,12.624 C23.3839993,12.8266677 23.312,13.3359959 23.312,14.152 L23.312,14.664 C23.312,14.7653338 23.3173333,14.8719994 23.328,14.984 C23.3973337,15.6986702 23.7226638,16.056 24.304,16.056 C24.8106692,16.056 25.130666,15.7866694 25.264,15.248 L26.392,15.248 Z M31.368,14.152 C31.368,14.7333362 31.3440002,15.1626653 31.296,15.44 C31.2266663,15.840002 31.0613346,16.1679987 30.8,16.424 C30.3786646,16.8400021 29.8666697,17.048 29.264,17.048 C28.655997,17.048 28.1413354,16.8400021 27.72,16.424 C27.4693321,16.1786654 27.3040004,15.8506687 27.224,15.44 C27.1813331,15.2213322 27.16,14.7920032 27.16,14.152 C27.16,13.5226635 27.1813331,13.0933345 27.224,12.864 C27.298667,12.4586646 27.4639987,12.1306679 27.72,11.88 C28.1413354,11.4639979 28.655997,11.256 29.264,11.256 C29.872003,11.256 30.3839979,11.4639979 30.8,11.88 C31.0506679,12.1306679 31.2159996,12.4586646 31.296,12.864 C31.3440002,13.1040012 31.368,13.5333302 31.368,14.152 L31.368,14.152 Z M30.256,14.152 L30.256,13.736 C30.256,13.5759992 30.2506667,13.4373339 30.24,13.32 C30.1759997,12.6053298 29.8506696,12.248 29.264,12.248 C28.6986638,12.248 28.3733338,12.6053298 28.288,13.32 L28.272,14.152 C28.2666666,14.5200018 28.2719999,14.7973324 28.288,14.984 C28.3573337,15.6986702 28.6826638,16.056 29.264,16.056 C29.589335,16.056 29.847999,15.9280013 30.04,15.672 C30.1840007,15.479999 30.256,14.9733374 30.256,14.152 L30.256,14.152 Z M36.592,13.08 C36.592,13.613336 36.4133351,14.042665 36.056,14.368 C35.6986649,14.693335 35.2506694,14.856 34.712,14.856 L33.616,14.856 L33.616,17 L32.504,17 L32.504,11.304 L34.712,11.304 C35.2506694,11.304 35.6986649,11.466665 36.056,11.792 C36.4133351,12.117335 36.592,12.546664 36.592,13.08 L36.592,13.08 Z M35.48,13.08 C35.48,12.8399988 35.4040008,12.649334 35.252,12.508 C35.0999992,12.366666 34.9013346,12.296 34.656,12.296 L33.616,12.296 L33.616,13.856 L34.656,13.856 C34.9013346,13.856 35.0999992,13.7866674 35.252,13.648 C35.4040008,13.5093326 35.48,13.3200012 35.48,13.08 L35.48,13.08 Z M41.28,17 L37.528,17 L37.528,11.304 L41.28,11.304 L41.28,12.296 L38.64,12.296 L38.64,13.632 L40.888,13.632 L40.888,14.624 L38.64,14.624 L38.64,16.008 L41.28,16.008 L41.28,17 Z" id="SCOPE" fill="#5883ED" sketch:type="MSShapeGroup"></path>
        </g>
    </g>
</svg>