<?xml version="1.0" encoding="UTF-8" standalone="no"?>
<svg width="46px" height="59px" viewBox="0 0 46 59" version="1.1" xmlns="http://www.w3.org/2000/svg" xmlns:xlink="http://www.w3.org/1999/xlink" xmlns:sketch="http://www.bohemiancoding.com/sketch/ns">
    <!-- Generator: Sketch 3.1.1 (8761) - http://www.bohemiancoding.com/sketch -->
    <title>scope-dual</title>
    <desc>Created with Sketch.</desc>
    <defs></defs>
    <g id="Illustrations" stroke="none" stroke-width="1" fill="none" fill-rule="evenodd" sketch:type="MSPage">
        <g id="scope-dual" sketch:type="MSArtboardGroup">
            <g id="cooperative" sketch:type="MSLayerGroup" transform="translate(2.000000, 2.000000)">
                <rect id="Rectangle-22" stroke="#90ACF3" stroke-width="2" fill="#FFFFFF" sketch:type="MSShapeGroup" x="0" y="0" width="42" height="55"></rect>
                <rect id="Rectangle-29" stroke="#DAE3FB" stroke-width="2" fill="#FFFFFF" sketch:type="MSShapeGroup" x="2" y="2" width="38" height="51"></rect>
                <rect id="Rectangle-23" sketch:type="MSShapeGroup" x="2" y="6" width="9" height="9"></rect>
                <g id="three" transform="translate(12.000000, 39.000000)" fill="#373C3E" sketch:type="MSShapeGroup">
                    <rect id="Rectangle-28" x="0" y="0" width="11" height="1"></rect>
                </g>
                <g id="two" transform="translate(12.000000, 31.000000)" fill="#373C3E" sketch:type="MSShapeGroup">
                    <rect id="Rectangle-24" x="0" y="0" width="16" height="1"></rect>
                </g>
                <g id="one" transform="translate(12.000000, 17.000000)" fill="#373C3E" sketch:type="MSShapeGroup">
                    <rect id="Rectangle-24" x="0" y="0" width="20.943919" height="1"></rect>
                    <rect id="Rectangle-24" x="0" y="7" width="14" height="1"></rect>
                </g>
            </g>
            <path d="M11.1801758,22 L10.1621094,22 L10.1621094,19.1166992 L9.75439453,19.1166992 L9.75439453,18.2304688 L11.1801758,18.2304688 L11.1801758,22 Z" id="1" fill="#092F3E" sketch:type="MSShapeGroup"></path>
            <path d="M11.7563477,29 L9.16113281,29 L10.1914062,27.6254883 C10.3085943,27.4692375 10.4070634,27.3296718 10.4868164,27.2067871 C10.5665694,27.0839024 10.6292315,26.9752609 10.6748047,26.8808594 C10.7643234,26.7034496 10.809082,26.5211598 10.809082,26.3339844 C10.809082,26.2314448 10.7879234,26.1500654 10.7456055,26.0898438 C10.7032875,26.0296221 10.6455082,25.9995117 10.5722656,25.9995117 C10.4095044,25.9995117 10.328125,26.152505 10.328125,26.4584961 C10.328125,26.4747722 10.3285319,26.4943033 10.3293457,26.5170898 C10.3301595,26.5398764 10.3313802,26.5667316 10.3330078,26.5976562 L9.34423828,26.5976562 L9.33935547,26.4609375 C9.33935547,26.0817038 9.4565418,25.7708345 9.69091797,25.5283203 C9.92692175,25.2841785 10.2288393,25.1621094 10.5966797,25.1621094 C10.9514992,25.1621094 11.2412098,25.2776681 11.4658203,25.5087891 C11.6920584,25.7350272 11.8051758,26.0304344 11.8051758,26.3950195 C11.8051758,26.6879897 11.7278654,26.9728176 11.5732422,27.2495117 C11.4951168,27.3878588 11.3937995,27.533121 11.2692871,27.6853027 C11.1447748,27.8374845 10.993816,27.997395 10.8164062,28.1650391 C10.9694018,28.1536458 11.1236158,28.1455078 11.2790527,28.140625 C11.4344897,28.1357422 11.5935864,28.1333008 11.7563477,28.1333008 L11.7563477,29 Z" id="2" fill="#092F3E" sketch:type="MSShapeGroup"></path>
            <path d="M9.22216797,34.8916016 L10.2158203,34.8916016 C10.2158203,35.1178397 10.2988273,35.230957 10.4648438,35.230957 C10.547852,35.230957 10.6153969,35.1988122 10.6674805,35.1345215 C10.7195641,35.0702308 10.7456055,34.9860031 10.7456055,34.8818359 C10.7456055,34.6165351 10.6072605,34.4838867 10.3305664,34.4838867 C10.3110351,34.4838867 10.2866212,34.4851074 10.2573242,34.4875488 C10.2280272,34.4899902 10.1946616,34.4928385 10.1572266,34.4960938 L10.1572266,33.6928711 C10.184896,33.6944987 10.2089029,33.6957194 10.229248,33.6965332 C10.2495932,33.697347 10.266276,33.6977539 10.2792969,33.6977539 C10.5576186,33.6977539 10.6967773,33.5699883 10.6967773,33.3144531 C10.6967773,33.1061188 10.6243497,33.0019531 10.4794922,33.0019531 C10.3655593,33.0019531 10.3004558,33.0857739 10.2841797,33.253418 L10.2792969,33.3046875 L9.29541016,33.3046875 C9.32307957,32.9531232 9.44596245,32.6756195 9.6640625,32.472168 C9.88053494,32.2654612 10.164549,32.1621094 10.5161133,32.1621094 C10.8514014,32.1621094 11.1297189,32.2679026 11.3510742,32.4794922 C11.5773123,32.6894542 11.6904297,32.9490544 11.6904297,33.2583008 C11.6904297,33.6049822 11.5382502,33.8694652 11.2338867,34.0517578 C11.5708025,34.2454437 11.7392578,34.5367819 11.7392578,34.9257812 C11.7392578,35.262697 11.6196301,35.5369456 11.3803711,35.7485352 C11.1443673,35.9601248 10.837567,36.065918 10.4599609,36.065918 C10.0904929,36.065918 9.79264436,35.9625661 9.56640625,35.7558594 C9.33691292,35.5491526 9.22216797,35.2797868 9.22216797,34.9477539 L9.22216797,34.8916016 Z" id="3" fill="#092F3E" sketch:type="MSShapeGroup"></path>
            <path d="M11.5366211,44 L10.5209961,44 L10.5209961,43.2358398 L9.15136719,43.2358398 L9.15136719,42.4399414 L10.2890625,40.2304688 L11.5366211,40.2304688 L11.5366211,42.425293 L11.8588867,42.425293 L11.8588867,43.2358398 L11.5366211,43.2358398 L11.5366211,44 Z M10.5673828,42.425293 L10.5673828,41.7197266 C10.5673828,41.6871743 10.5694173,41.6350915 10.5734863,41.5634766 C10.5775554,41.4918616 10.5836588,41.3999029 10.5917969,41.2875977 L10.4404297,41.6098633 C10.3655595,41.7677417 10.2906905,41.9146315 10.2158203,42.0505371 C10.1409501,42.1864427 10.0660811,42.3113601 9.99121094,42.425293 L10.5673828,42.425293 Z" id="4" fill="#092F3E" sketch:type="MSShapeGroup"></path>
            <path d="M12.258,11.74 C12.258,12.1640021 12.0940016,12.4919988 11.766,12.724 C11.4779986,12.932001 11.1140022,13.036 10.674,13.036 C10.0099967,13.036 9.49000188,12.8480019 9.114,12.472 L9.654,11.932 C9.8940012,12.1720012 10.2379978,12.292 10.686,12.292 C11.1900025,12.292 11.442,12.1160018 11.442,11.764 C11.442,11.4719985 11.2720017,11.3020002 10.932,11.254 L10.416,11.182 C9.65999622,11.0779995 9.282,10.6800035 9.282,9.988 C9.282,9.57199792 9.42999852,9.24800116 9.726,9.016 C9.99800136,8.79999892 10.3459979,8.692 10.77,8.692 C11.3460029,8.692 11.8059983,8.85799834 12.15,9.19 L11.622,9.712 C11.413999,9.51599902 11.1220019,9.418 10.746,9.418 C10.5579991,9.418 10.4060006,9.45999958 10.29,9.544 C10.1539993,9.64000048 10.086,9.7779991 10.086,9.958 C10.086,10.2260013 10.2599983,10.3839998 10.608,10.432 L11.112,10.504 C11.8760038,10.6120005 12.258,11.0239964 12.258,11.74 L12.258,11.74 Z M16.044,11.686 C15.9759997,12.1060021 15.8030014,12.4359988 15.525,12.676 C15.2469986,12.9160012 14.8960021,13.036 14.472,13.036 C14.0159977,13.036 13.6320016,12.8800016 13.32,12.568 C13.1319991,12.3799991 13.0080003,12.1340015 12.948,11.83 C12.9159998,11.6659992 12.9,11.3440024 12.9,10.864 C12.9,10.3919976 12.9159998,10.0700009 12.948,9.898 C13.0040003,9.59399848 13.127999,9.34800094 13.32,9.16 C13.6360016,8.84799844 14.0199977,8.692 14.472,8.692 C14.9000021,8.692 15.2509986,8.81099881 15.525,9.049 C15.7990014,9.28700119 15.9719996,9.61799788 16.044,10.042 L15.198,10.042 C15.1019995,9.63799798 14.8620019,9.436 14.478,9.436 C14.2259987,9.436 14.0320007,9.52999906 13.896,9.718 C13.7879995,9.87000076 13.734,10.2519969 13.734,10.864 L13.734,11.248 C13.734,11.3240004 13.738,11.4039996 13.746,11.488 C13.7980003,12.0240027 14.0419978,12.292 14.478,12.292 C14.8580019,12.292 15.0979995,12.090002 15.198,11.686 L16.044,11.686 Z M19.776,10.864 C19.776,11.3000022 19.7580002,11.621999 19.722,11.83 C19.6699997,12.1300015 19.546001,12.375999 19.35,12.568 C19.0339984,12.8800016 18.6500023,13.036 18.198,13.036 C17.7419977,13.036 17.3560016,12.8800016 17.04,12.568 C16.8519991,12.3839991 16.7280003,12.1380015 16.668,11.83 C16.6359998,11.6659992 16.62,11.3440024 16.62,10.864 C16.62,10.3919976 16.6359998,10.0700009 16.668,9.898 C16.7240003,9.59399848 16.847999,9.34800094 17.04,9.16 C17.3560016,8.84799844 17.7419977,8.692 18.198,8.692 C18.6540023,8.692 19.0379984,8.84799844 19.35,9.16 C19.5380009,9.34800094 19.6619997,9.59399848 19.722,9.898 C19.7580002,10.0780009 19.776,10.3999977 19.776,10.864 L19.776,10.864 Z M18.942,10.864 L18.942,10.552 C18.942,10.4319994 18.938,10.3280004 18.93,10.24 C18.8819998,9.70399732 18.6380022,9.436 18.198,9.436 C17.7739979,9.436 17.5300003,9.70399732 17.466,10.24 L17.454,10.864 C17.45,11.1400014 17.4539999,11.3479993 17.466,11.488 C17.5180003,12.0240027 17.7619978,12.292 18.198,12.292 C18.4420012,12.292 18.6359993,12.196001 18.78,12.004 C18.8880005,11.8599993 18.942,11.4800031 18.942,10.864 L18.942,10.864 Z M23.694,10.06 C23.694,10.460002 23.5600013,10.7819988 23.292,11.026 C23.0239987,11.2700012 22.688002,11.392 22.284,11.392 L21.462,11.392 L21.462,13 L20.628,13 L20.628,8.728 L22.284,8.728 C22.688002,8.728 23.0239987,8.84999878 23.292,9.094 C23.5600013,9.33800122 23.694,9.659998 23.694,10.06 L23.694,10.06 Z M22.86,10.06 C22.86,9.8799991 22.8030006,9.73700053 22.689,9.631 C22.5749994,9.52499947 22.4260009,9.472 22.242,9.472 L21.462,9.472 L21.462,10.642 L22.242,10.642 C22.4260009,10.642 22.5749994,10.5900005 22.689,10.486 C22.8030006,10.3819995 22.86,10.2400009 22.86,10.06 L22.86,10.06 Z M27.21,13 L24.396,13 L24.396,8.728 L27.21,8.728 L27.21,9.472 L25.23,9.472 L25.23,10.474 L26.916,10.474 L26.916,11.218 L25.23,11.218 L25.23,12.256 L27.21,12.256 L27.21,13 Z" id="SCOPE" fill="#5883ED" sketch:type="MSShapeGroup"></path>
        </g>
    </g>
</svg>