<?xml version="1.0" encoding="UTF-8" standalone="no"?>
<svg width="16px" height="18px" viewBox="0 0 16 18" version="1.1" xmlns="http://www.w3.org/2000/svg" xmlns:xlink="http://www.w3.org/1999/xlink" xmlns:sketch="http://www.bohemiancoding.com/sketch/ns">
    <!-- Generator: Sketch 3.1.1 (8761) - http://www.bohemiancoding.com/sketch -->
    <title>scope-icon</title>
    <desc>Created with Sketch.</desc>
    <defs></defs>
    <g id="Page-1" stroke="none" stroke-width="1" fill="none" fill-rule="evenodd" sketch:type="MSPage">
        <g id="scope-icon" sketch:type="MSLayerGroup" transform="translate(1.000000, 0.000000)">
            <path d="M10.031548,1 L2,1 L2,17 L14,17 L14,4.95430717 L10.031548,1 Z" id="Rectangle-21" stroke="#CED2D6" stroke-width="2" fill="#FFFFFF" sketch:type="MSShapeGroup"></path>
            <path d="M15.0215454,4.5 L10.4,7.4505806e-09 L10.4000244,4.5 L15.0215454,4.5 Z" id="Rectangle-24" fill="#AAACAD" sketch:type="MSShapeGroup"></path>
            <path d="M4.5,4.5 L7.6622777,4.5" id="Line" stroke="#AAACAD" stroke-linecap="square" sketch:type="MSShapeGroup"></path>
            <path d="M4.5,6.5 L8.6622777,6.5" id="Line-2" stroke="#AAACAD" stroke-linecap="square" sketch:type="MSShapeGroup"></path>
            <path d="M4.5,8.5 L10.4936799,8.5" id="Line-3" stroke="#AAACAD" stroke-linecap="square" sketch:type="MSShapeGroup"></path>
            <path d="M4.5,10.5 L10.4936799,10.5" id="Line-4" stroke="#AAACAD" stroke-linecap="square" sketch:type="MSShapeGroup"></path>
            <path d="M4.5,12.5 L10.4936799,12.5" id="Line-5" stroke="#AAACAD" stroke-linecap="square" sketch:type="MSShapeGroup"></path>
            <g id="bullseye-2" transform="translate(0.000000, 6.000000)" stroke="#092F3E" sketch:type="MSShapeGroup">
                <circle id="Oval-3" fill="#FFFFFF" cx="4" cy="4" r="4"></circle>
                <g id="Line-+-Line-2" transform="translate(3.000000, 0.000000)" stroke-linecap="square">
                    <path d="M1,0.333333333 L1,2.16666666" id="Line"></path>
                    <path d="M1,5.83333334 L1,7.66666667" id="Line-2"></path>
                </g>
                <g id="Line-+-Line-3" transform="translate(4.000000, 4.000000) rotate(-90.000000) translate(-4.000000, -4.000000) translate(3.000000, 0.000000)" stroke-linecap="square">
                    <path d="M1,0.333333333 L1,2.16666667" id="Line"></path>
                    <path d="M1,5.83333333 L1,7.66666667" id="Line-2"></path>
                </g>
            </g>
        </g>
    </g>
</svg>