<?xml version="1.0" encoding="UTF-8" standalone="no"?>
<svg width="24px" height="24px" viewBox="0 0 24 24" version="1.1" xmlns="http://www.w3.org/2000/svg" xmlns:xlink="http://www.w3.org/1999/xlink" xmlns:sketch="http://www.bohemiancoding.com/sketch/ns">
    <!-- Generator: Sketch 3.2.1 (9971) - http://www.bohemiancoding.com/sketch -->
    <title>service call complete</title>
    <desc>Created with Sketch.</desc>
    <defs></defs>
    <g id="Illustrations" stroke="none" stroke-width="1" fill="none" fill-rule="evenodd" sketch:type="MSPage">
        <g id="service-call-complete" sketch:type="MSArtboardGroup">
            <rect id="Rectangle-608" fill="#F6D262" sketch:type="MSShapeGroup" x="0" y="0" width="24" height="24" rx="4"></rect>
            <g id="check-2" sketch:type="MSLayerGroup" transform="translate(17.500000, 7.500000) rotate(-315.000000) translate(-17.500000, -7.500000) translate(15.000000, 3.000000)" fill="#092F3E">
                <path d="M2.47058824,7.99360578e-15 L2.47058824,6.58823529 L4.11764706,6.58823529 L4.11764706,7.99360578e-15 L2.47058824,7.99360578e-15 Z M2.26485497e-14,8.23529412 L4.11764706,8.23529412 L4.11764706,6.58823529 L2.2749403e-14,6.58823529 L2.26485497e-14,8.23529412 Z" id="Rectangle-142" sketch:type="MSShapeGroup"></path>
            </g>
            <path d="M15.2873338,21.446824 C15.8089453,21.2653306 16.0846655,20.6953514 15.9031721,20.1737399 C15.7216787,19.6521284 15.1516995,19.3764082 14.630088,19.5579016 C13.7924125,19.8493687 12.9071658,20 12,20 C11.4477153,20 11,20.4477153 11,21 C11,21.5522847 11.4477153,22 12,22 C13.1316813,22 14.239043,21.8115742 15.2873338,21.446824 Z M20.439523,17.3662976 C20.736258,16.9005006 20.5992061,16.2823463 20.1334092,15.9856114 C19.6676122,15.6888764 19.0494579,15.8259283 18.752723,16.2917252 C18.271898,17.0464958 17.666979,17.7168193 16.9654187,18.2729871 C16.5326322,18.6160823 16.459923,19.2450586 16.8030182,19.6778451 C17.1461133,20.1106316 17.7750897,20.1833408 18.2078762,19.8402457 C19.0837868,19.1458601 19.838936,18.3090634 20.439523,17.3662976 Z M21.9999458,12.0332298 C22.000004,11.6502368 21.98198,11.2978776 21.9449107,10.9448168 C21.887241,10.3955513 21.3952228,9.99703407 20.8459572,10.0547038 C20.2966916,10.1123734 19.8981744,10.6043917 19.9558441,11.1536572 C19.9855395,11.4364858 19.9999944,11.7190714 19.9999512,12.0298309 C19.9979499,12.6422556 19.9265826,13.2478849 19.7885723,13.8359159 C19.6623806,14.3735906 19.9959536,14.9117606 20.5336283,15.0379523 C21.071303,15.164144 21.609473,14.8305711 21.7356647,14.2928963 C21.9082691,13.5574674 21.997444,12.8007221 21.9999458,12.0332298 Z M13.1532078,2.06586902 C12.6045362,2.00279843 12.1086211,2.39645586 12.0455506,2.94512748 C11.98248,3.4937991 12.3761374,3.98971413 12.924809,4.05278471 C13.8200326,4.15569193 14.6825131,4.40779704 15.4838215,4.79611786 C15.9808219,5.03696848 16.5789684,4.82931802 16.819819,4.33231759 C17.0606696,3.83531716 16.8530192,3.23717071 16.3560187,2.9963201 C15.3530885,2.51029161 14.273065,2.19459819 13.1532078,2.06586902 Z M6.79969384,3.45699961 C6.32818419,3.74457064 6.17907248,4.35992711 6.46664351,4.83143676 C6.75421454,5.30294641 7.36957101,5.45205812 7.84108066,5.16448709 C8.60326885,4.69963289 9.43838664,4.36521574 10.3162601,4.17728508 C10.8563088,4.06167423 11.2003837,3.53015717 11.0847728,2.99010849 C10.969162,2.45005981 10.4376449,2.10598496 9.89759622,2.22159581 C8.79858743,2.45686598 7.75309271,2.87552712 6.79969384,3.45699961 Z M2.60634006,8.56370529 C2.41656315,9.08236044 2.68317164,9.6566581 3.2018268,9.84643501 C3.72048195,10.0362119 4.29477961,9.76960343 4.48455652,9.25094827 C4.79217023,8.41024834 5.23979532,7.62805172 5.80664346,6.93574592 C6.15652487,6.50842701 6.09374937,5.87838168 5.66643047,5.52850027 C5.23911156,5.17861886 4.60906623,5.24139436 4.25918482,5.66871326 C3.55095659,6.53369009 2.99126499,7.51171589 2.60634006,8.56370529 Z M2.00000051,11.9967724 C1.99999996,13.0756171 2.17022005,14.1298937 2.50087586,15.1329524 C2.6737827,15.6574729 3.2391592,15.942512 3.76367962,15.7696051 C4.28820004,15.5966983 4.57323916,15.0313218 4.40033232,14.5068014 C4.13609809,13.7052353 4.00000006,12.8622975 4.00000046,11.9970894 C4.00019059,11.9328442 4.00019059,11.9328442 4.00105685,11.8684622 C4.00993692,11.3162489 3.56947826,10.8613928 3.01726491,10.8525127 C2.46505155,10.8436327 2.01019546,11.2840913 2.0013154,11.8363047 C2.0002371,11.9164473 2.0002371,11.9164473 2.00000051,11.9967724 Z M6.49747852,20.3511806 C6.95840173,20.6554308 7.57869741,20.5284223 7.88294769,20.0674991 C8.18719797,19.6065759 8.06018946,18.9862802 7.59926624,18.6820299 C6.85234829,18.1889977 6.19182326,17.573343 5.64710062,16.8629251 C5.31104639,16.4246489 4.68332757,16.3417816 4.24505141,16.6778359 C3.80677524,17.0138901 3.72390798,17.6416089 4.05996221,18.0798851 C4.74008337,18.9668874 5.56461562,19.7354082 6.49747852,20.3511806 Z M11.9659314,21.9999431 C12.5182131,22.0017889 12.9674221,21.5555724 12.9692679,21.0032908 C12.9711137,20.4510091 12.5248973,20.0018 11.9726156,19.9999542 C11.31304,19.9977499 10.6649115,19.9159046 10.0377524,19.7578286 C9.50221688,19.6228464 8.95865491,19.947559 8.82367272,20.4830945 C8.68869053,21.01863 9.01340314,21.562192 9.54893862,21.6971742 C10.333428,21.8949054 11.1434485,21.9971942 11.9659314,21.9999431 Z" id="Oval-384" fill="#FFFFFF" sketch:type="MSShapeGroup"></path>
        </g>
    </g>
</svg>