<?xml version="1.0" encoding="UTF-8" standalone="no"?>
<svg width="30px" height="60px" viewBox="0 0 30 60" version="1.1" xmlns="http://www.w3.org/2000/svg" xmlns:xlink="http://www.w3.org/1999/xlink" xmlns:sketch="http://www.bohemiancoding.com/sketch/ns">
    <!-- Generator: Sketch 3.2.2 (9983) - http://www.bohemiancoding.com/sketch -->
    <title>rfq 6</title>
    <desc>Created with Sketch.</desc>
    <defs></defs>
    <g id="Illustrations" stroke="none" stroke-width="1" fill="none" fill-rule="evenodd" sketch:type="MSPage">
        <g id="rfq-6" sketch:type="MSArtboardGroup">
            <g id="walkie-talkie" sketch:type="MSLayerGroup" transform="translate(2.000000, 2.000000)">
                <rect id="Rectangle-463" fill="#9B9B9B" sketch:type="MSShapeGroup" x="22" y="0" width="4" height="24" rx="1"></rect>
                <rect id="Rectangle-463" fill="#9B9B9B" sketch:type="MSShapeGroup" x="2" y="18" width="24" height="38"></rect>
                <rect id="Rectangle-464" fill="#FFFFFF" sketch:type="MSShapeGroup" x="6" y="22" width="16" height="12"></rect>
                <rect id="Rectangle-467" fill="#9B9B9B" sketch:type="MSShapeGroup" x="8" y="24" width="12" height="8"></rect>
                <path d="M20,26 L20,29 L16,32 L12,32 L20,26 Z" id="Rectangle-477" fill="#E6E6E6" sketch:type="MSShapeGroup"></path>
                <path d="M8,28 L14,24 L20,24 L8,32 L8,28 Z" id="Rectangle-476" fill="#E6E6E6" sketch:type="MSShapeGroup"></path>
                <rect id="Rectangle-465" fill="#9B9B9B" sketch:type="MSShapeGroup" x="0" y="22" width="2" height="6"></rect>
                <rect id="Rectangle-469" fill="#9B9B9B" sketch:type="MSShapeGroup" x="6" y="14" width="8" height="4"></rect>
                <path d="M6.80000001,14 L8,14 L8,18 L6.80000001,18 L6.80000001,14 Z" id="Rectangle-470" fill="#E6E6E6" sketch:type="MSShapeGroup"></path>
                <path d="M8.80000001,14 L10,14 L10,18 L8.80000001,18 L8.80000001,14 Z" id="Rectangle-471" fill="#E6E6E6" sketch:type="MSShapeGroup"></path>
                <path d="M10.8,14 L12,14 L12,18 L10.8,18 L10.8,14 Z" id="Rectangle-473" fill="#E6E6E6" sketch:type="MSShapeGroup"></path>
                <path d="M12.8,14 L14,14 L14,18 L12.8,18 L12.8,14 Z" id="Rectangle-474" fill="#E6E6E6" sketch:type="MSShapeGroup"></path>
                <rect id="Rectangle-466" fill="#9B9B9B" sketch:type="MSShapeGroup" x="0" y="30" width="2" height="6"></rect>
                <g id="speaker" transform="translate(6.000000, 44.000000)" fill="#FFFFFF" sketch:type="MSShapeGroup">
                    <g id="row">
                        <circle id="Oval-345" cx="1" cy="1" r="1"></circle>
                        <circle id="Oval-348" cx="5" cy="1" r="1"></circle>
                        <circle id="Oval-349" cx="9" cy="1" r="1"></circle>
                        <circle id="Oval-349" cx="13" cy="1" r="1"></circle>
                    </g>
                    <g id="row" transform="translate(2.000000, 2.000000)">
                        <circle id="Oval-353" cx="1" cy="1" r="1"></circle>
                        <circle id="Oval-350" cx="5" cy="1" r="1"></circle>
                        <circle id="Oval-351" cx="9" cy="1" r="1"></circle>
                        <circle id="Oval-352" cx="13" cy="1" r="1"></circle>
                    </g>
                    <g id="row-2" transform="translate(2.000000, 6.000000)">
                        <circle id="Oval-353" cx="1" cy="1" r="1"></circle>
                        <circle id="Oval-350" cx="5" cy="1" r="1"></circle>
                        <circle id="Oval-351" cx="9" cy="1" r="1"></circle>
                        <circle id="Oval-352" cx="13" cy="1" r="1"></circle>
                    </g>
                    <g id="row" transform="translate(0.000000, 4.000000)">
                        <circle id="Oval-357" cx="1" cy="1" r="1"></circle>
                        <circle id="Oval-354" cx="5" cy="1" r="1"></circle>
                        <circle id="Oval-355" cx="9" cy="1" r="1"></circle>
                        <circle id="Oval-356" cx="13" cy="1" r="1"></circle>
                    </g>
                </g>
                <rect id="Rectangle-468" fill="#FFFFFF" sketch:type="MSShapeGroup" x="6" y="36" width="4" height="2"></rect>
                <rect id="Rectangle-468" fill="#FFFFFF" sketch:type="MSShapeGroup" x="12" y="36" width="4" height="2"></rect>
                <rect id="Rectangle-468" fill="#FFFFFF" sketch:type="MSShapeGroup" x="20" y="36" width="2" height="2"></rect>
                <rect id="Rectangle-468" fill="#FFFFFF" sketch:type="MSShapeGroup" x="20" y="38" width="2" height="2"></rect>
                <path d="M20,37.4 L22,37.4 L22,38.6 L20,38.6 L20,37.4 Z" id="Rectangle-475" fill="#9B9B9B" sketch:type="MSShapeGroup"></path>
                <rect id="Rectangle-472" fill="#E6E6E6" sketch:type="MSShapeGroup" x="22" y="16" width="4" height="2"></rect>
            </g>
        </g>
    </g>
</svg>