<?xml version="1.0" encoding="UTF-8" standalone="no"?>
<svg width="24px" height="24px" viewBox="0 0 24 24" version="1.1" xmlns="http://www.w3.org/2000/svg" xmlns:xlink="http://www.w3.org/1999/xlink" xmlns:sketch="http://www.bohemiancoding.com/sketch/ns">
    <!-- Generator: Sketch 3.2.1 (9971) - http://www.bohemiancoding.com/sketch -->
    <title>reccomended 3</title>
    <desc>Created with Sketch.</desc>
    <defs></defs>
    <g id="Illustrations" stroke="none" stroke-width="1" fill="none" fill-rule="evenodd" sketch:type="MSPage">
        <g id="reccomended-3" sketch:type="MSArtboardGroup">
            <rect id="Rectangle-608" fill="#F6D262" sketch:type="MSShapeGroup" x="0" y="0" width="24" height="24"></rect>
            <path d="M15.2881091,21.4513189 C15.8097206,21.2698255 16.0854408,20.6998464 15.9039474,20.1782348 C15.722454,19.6566233 15.1524748,19.3809031 14.6308633,19.5623965 C13.7931878,19.8538636 12.9079411,20.0044949 12.0007753,20.0044949 C11.4484905,20.0044949 11.0007753,20.4522102 11.0007753,21.0044949 C11.0007753,21.5567797 11.4484905,22.0044949 12.0007753,22.0044949 C13.1324566,22.0044949 14.2398183,21.8160691 15.2881091,21.4513189 Z M20.4402983,17.3707925 C20.7370333,16.9049955 20.5999814,16.2868413 20.1341845,15.9901063 C19.6683875,15.6933713 19.0502332,15.8304232 18.7534983,16.2962201 C18.2726733,17.0509908 17.6677543,17.7213142 16.966194,18.277482 C16.5334075,18.6205772 16.4606983,19.2495535 16.8037935,19.68234 C17.1468886,20.1151265 17.775865,20.1878357 18.2086515,19.8447406 C19.0845621,19.1503551 19.8397113,18.3135584 20.4402983,17.3707925 Z M21.9572543,11.9957893 C21.8995846,11.4465238 21.4309607,11.1246364 20.8816951,11.1823061 C20.3324296,11.2399758 19.9339124,11.731994 19.9915821,12.2812596 C20.0212774,12.5640881 19.9273579,13.2523798 19.7893476,13.8404108 C19.6631559,14.3780855 19.9967289,14.9162556 20.5344036,15.0424472 C21.0720783,15.1686389 21.6102483,14.835066 21.73644,14.2973913 C21.9090444,13.5619624 21.9943236,12.3488501 21.9572543,11.9957893 Z M13.1539831,2.07036394 C12.5973102,2.07000277 12.1093964,2.40095078 12.0463259,2.9496224 C11.9832553,3.49829402 12.3693473,4.07171742 12.9255843,4.05727964 C13.5911815,4.04000328 13.6296378,4.05727969 14.0472348,4.27301328 C14.5329904,4.52395813 15.1423817,4.30621344 15.3832323,3.80921301 C15.6240829,3.31221258 15.4164324,2.71406613 14.919432,2.47321552 C13.9165017,1.98718703 13.7616263,2.07075817 13.1539831,2.07036394 Z M6.80046914,3.46149453 C6.32895949,3.74906556 6.17984778,4.36442203 6.46741881,4.83593168 C6.75498983,5.30744133 7.37034631,5.45655304 7.84185595,5.16898202 C8.60404415,4.70412781 9.43916194,4.36971066 10.3170354,4.18178001 C10.8570841,4.06616916 11.201159,3.53465209 11.0855481,2.99460341 C10.9699373,2.45455473 10.4384202,2.11047989 9.89837152,2.22609074 C8.79936272,2.4613609 7.753868,2.88002204 6.80046914,3.46149453 Z M2.60711536,8.56820021 C2.41733845,9.08685536 2.68394694,9.66115302 3.2026021,9.85092993 C3.72125725,10.0407068 4.29555491,9.77409835 4.48533182,9.2554432 C4.79294553,8.41474326 5.24057061,7.63254664 5.80741876,6.94024084 C6.15730016,6.51292194 6.09452467,5.8828766 5.66720577,5.53299519 C5.23988686,5.18311379 4.60984152,5.24588928 4.25996012,5.67320818 C3.55173189,6.53818502 2.99204029,7.51621081 2.60711536,8.56820021 Z M2.00077581,12.0012673 C2.00077526,13.0801121 2.17099535,14.1343886 2.50165116,15.1374474 C2.674558,15.6619678 3.2399345,15.9470069 3.76445492,15.7741001 C4.28897534,15.6011932 4.57401446,15.0358167 4.40110762,14.5112963 C4.13687338,13.7097303 4.00077535,12.8667924 4.00077576,12.0015843 C4.00096588,11.9373391 4.00096588,11.9373391 4.00183215,11.8729572 C4.01071222,11.3207438 3.57025356,10.8658877 3.0180402,10.8570076 C2.46582685,10.8481276 2.01097076,11.2885862 2.0020907,11.8407996 C2.00101239,11.9209422 2.00101239,11.9209422 2.00077581,12.0012673 Z M6.49825382,20.3556755 C6.95917703,20.6599258 7.57947271,20.5329173 7.88372299,20.071994 C8.18797327,19.6110708 8.06096476,18.9907751 7.60004154,18.6865249 C6.85312359,18.1934926 6.19259856,17.5778379 5.64787591,16.86742 C5.31182168,16.4291438 4.68410287,16.3462766 4.2458267,16.6823308 C3.80755054,17.018385 3.72468328,17.6461038 4.06073751,18.08438 C4.74085867,18.9713824 5.56539092,19.7399031 6.49825382,20.3556755 Z M11.9667067,22.004438 C12.5189884,22.0062838 12.9681974,21.5600673 12.9700432,21.0077857 C12.971889,20.455504 12.5256726,20.006295 11.9733909,20.0044492 C11.3138153,20.0022448 10.6656868,19.9203996 10.0385277,19.7623235 C9.50299218,19.6273414 8.95943021,19.952054 8.82444802,20.4875894 C8.68946583,21.0231249 9.01417843,21.5666869 9.54971392,21.7016691 C10.3342033,21.8994003 11.1442238,22.0016892 11.9667067,22.004438 Z" id="Oval-384" fill="#FFFFFF" sketch:type="MSShapeGroup" transform="translate(11.983290, 12.034809) rotate(-15.000000) translate(-11.983290, -12.034809) "></path>
            <path d="M15.7,2 L18.3,2 L18,9 L16,9 L15.7,2 Z" id="Rectangle-535" fill="#092F3E" sketch:type="MSShapeGroup"></path>
            <rect id="Rectangle-536" fill="#092F3E" sketch:type="MSShapeGroup" x="16" y="10" width="2" height="2"></rect>
        </g>
    </g>
</svg>