<?xml version="1.0" encoding="UTF-8" standalone="no"?>
<svg width="40px" height="40px" viewBox="0 0 40 40" version="1.1" xmlns="http://www.w3.org/2000/svg" xmlns:xlink="http://www.w3.org/1999/xlink" xmlns:sketch="http://www.bohemiancoding.com/sketch/ns">
    <!-- Generator: Sketch 3.2.1 (9971) - http://www.bohemiancoding.com/sketch -->
    <title>service</title>
    <desc>Created with Sketch.</desc>
    <defs></defs>
    <g id="Illustrations" stroke="none" stroke-width="1" fill="none" fill-rule="evenodd" sketch:type="MSPage">
        <g id="service" sketch:type="MSArtboardGroup">
            <rect id="Rectangle-393" fill="#F6D262" sketch:type="MSShapeGroup" x="0" y="0" width="40" height="40" rx="2"></rect>
            <g id="cone" sketch:type="MSLayerGroup" transform="translate(9.000000, 8.000000)">
                <path d="M8,1 L11.0755183,1 L14,1 L19,24 L11.0498245,24 L3,24 L8,1 Z" id="Rectangle-396" fill="#FA9200" sketch:type="MSShapeGroup"></path>
                <path d="M8,1 L11.0755183,1 L14,1 L19,24 L11.0498245,24 L3,24 L8,1 Z" id="Rectangle-405" fill="#FA9200" sketch:type="MSShapeGroup"></path>
                <path d="M4.90000001,15 L17.1,15 L17.9,19 L4.1,19 L4.90000001,15 Z" id="Rectangle-395" fill="#FFFFFF" sketch:type="MSShapeGroup"></path>
                <path d="M6.70000001,7 L15.3,7 L16.2,11 L5.8,11 L6.70000001,7 Z" id="Rectangle-395" fill="#FFFFFF" sketch:type="MSShapeGroup"></path>
                <rect id="Rectangle-397" fill="#00070A" sketch:type="MSShapeGroup" x="0" y="24" width="22" height="2"></rect>
                <path d="M4.1,19 L17.9,19 L18.1,20 L3.9,20 L4.1,19 Z" id="Rectangle-398" fill="#D17B03" sketch:type="MSShapeGroup"></path>
                <path d="M5.16901409,14 L16.8309859,14 L17,15 L5,15 L5.16901409,14 Z" id="Rectangle-399" fill="#D17B03" sketch:type="MSShapeGroup"></path>
                <path d="M5.84225352,11 L16.1577465,11 L16.4,12 L5.59999999,12 L5.84225352,11 Z" id="Rectangle-400" fill="#D17B03" sketch:type="MSShapeGroup"></path>
                <path d="M6.91267606,6 L15.0873239,6 L15.3,7 L6.7,7 L6.91267606,6 Z" id="Rectangle-401" fill="#D17B03" sketch:type="MSShapeGroup"></path>
                <path d="M8.14837865,0 L13.8516214,0 L14,1 L8,1 L8.14837865,0 Z" id="Rectangle-401" fill="#E58704" sketch:type="MSShapeGroup"></path>
            </g>
            <rect id="Rectangle-402" fill="#BBE8FF" sketch:type="MSShapeGroup" x="0" y="34" width="40" height="6"></rect>
            <path d="M27.4998169,40 C27.9559201,39.3927766 28.6820911,39 29.5,39 C29.6850188,39 29.8653433,39.0200987 30.0389093,39.0582318 C30.2475211,37.8882251 31.2700325,37 32.5,37 C33.3886205,37 34.1689552,37.4636267 34.6123081,38.1621842 L34.6123081,38.1621842 C34.8881651,38.0573806 35.1873816,38 35.5,38 C36.709479,38 37.7183558,38.8588798 37.9499909,40 L27.4998169,40 L27.4998169,40 Z" id="Oval-339" fill="#58A1ED" sketch:type="MSShapeGroup"></path>
            <path d="M35,11 C35,11 37.1230121,14.6924697 36.6,16 C36.0769879,17.3075303 33.8831386,17.2078465 33.4,16 C32.9168614,14.7921535 35,11 35,11 Z" id="Rectangle-403" fill="#5883ED" sketch:type="MSShapeGroup"></path>
            <rect id="Rectangle-404" fill="#FFFFFF" sketch:type="MSShapeGroup" x="33" y="6" width="1" height="4"></rect>
            <rect id="Rectangle-404" fill="#FFFFFF" sketch:type="MSShapeGroup" x="33" y="2" width="1" height="2"></rect>
            <rect id="Rectangle-404" fill="#FFFFFF" sketch:type="MSShapeGroup" x="35" y="4" width="1" height="4"></rect>
            <rect id="Rectangle-407" fill="#7ACAFF" sketch:type="MSShapeGroup" x="0" y="34" width="40" height="1"></rect>
        </g>
    </g>
</svg>