<?xml version="1.0" encoding="UTF-8" standalone="no"?>
<svg width="20px" height="20px" viewBox="0 0 20 20" version="1.1" xmlns="http://www.w3.org/2000/svg" xmlns:xlink="http://www.w3.org/1999/xlink" xmlns:sketch="http://www.bohemiancoding.com/sketch/ns">
    <!-- Generator: Sketch 3.2.2 (9983) - http://www.bohemiancoding.com/sketch -->
    <title>tag 19</title>
    <desc>Created with Sketch.</desc>
    <defs></defs>
    <g id="Illustrations" stroke="none" stroke-width="1" fill="none" fill-rule="evenodd" sketch:type="MSPage">
        <g id="tag-19" sketch:type="MSArtboardGroup">
            <path d="M5.2,7 L10,3.9 L14.8,7 L10,10.1 L5.2,7 Z" id="box-center" stroke="#4A4A4A" fill="#80614E" sketch:type="MSShapeGroup"></path>
            <g id="box-bottom" sketch:type="MSLayerGroup" transform="translate(5.000000, 7.000000)" stroke="#4A4A4A">
                <path d="M0.100000001,9 L0.100000001,0.311354063 L5.0000001,2.9999999 L9.90000019,0.311354063 L9.9,9 L5,11.7 L0.100000001,9 Z" id="Rectangle-1176" fill="#BA937B" sketch:type="MSShapeGroup"></path>
                <path d="M5.01391602,3.6680553 L5.01391602,11.5938782" id="Path-619" sketch:type="MSShapeGroup"></path>
            </g>
            <g id="flaps" sketch:type="MSLayerGroup" transform="translate(2.000000, 1.000000)" stroke="#4A4A4A" fill="#BA937B">
                <path d="M0,3 L5,0 L8,3 L3,6 L0,3 Z" id="Rectangle-1172" sketch:type="MSShapeGroup"></path>
                <path d="M8,3 L13,0 L16,3 L11,6 L8,3 Z" id="Rectangle-1172" sketch:type="MSShapeGroup" transform="translate(12.000000, 3.000000) scale(-1, 1) translate(-12.000000, -3.000000) "></path>
                <g id="Rectangle-1174-+-Rectangle-1173" transform="translate(8.000000, 9.000000) scale(1, -1) translate(-8.000000, -9.000000) translate(0.000000, 6.000000)" sketch:type="MSShapeGroup">
                    <path d="M0,3 L5,0 L8,3 L3,6 L0,3 Z" id="Rectangle-1174"></path>
                    <path d="M8,3 L13,0 L16,3 L11,6 L8,3 Z" id="Rectangle-1173" transform="translate(12.000000, 3.000000) scale(-1, 1) translate(-12.000000, -3.000000) "></path>
                </g>
            </g>
            <g id="flaps-shadow-bottom" sketch:type="MSLayerGroup" transform="translate(4.000000, 8.000000)" stroke-opacity="0.301743659" stroke="#FFFFFF">
                <path d="M4.65734863,2.39257811 L0.825744623,0.0438232273" id="Path-620" sketch:type="MSShapeGroup"></path>
                <path d="M11.1573486,2.39257811 L7.32574463,0.0438232273" id="Path-621" sketch:type="MSShapeGroup" transform="translate(9.241547, 1.218201) scale(-1, 1) translate(-9.241547, -1.218201) "></path>
            </g>
            <g id="flaps-shadow-top" sketch:type="MSLayerGroup" transform="translate(10.000000, 4.500000) scale(1, -1) translate(-10.000000, -4.500000) translate(4.000000, 3.000000)" stroke-opacity="0.301743659" stroke="#FFFFFF">
                <path d="M4.65734863,2.39257811 L0.825744623,0.0438232273" id="Path-620" sketch:type="MSShapeGroup"></path>
                <path d="M11.1573486,2.39257811 L7.32574463,0.0438232273" id="Path-621" sketch:type="MSShapeGroup" transform="translate(9.241547, 1.218201) scale(-1, 1) translate(-9.241547, -1.218201) "></path>
            </g>
        </g>
    </g>
</svg>