<?xml version="1.0" encoding="UTF-8" standalone="no"?>
<svg width="57px" height="57px" viewBox="0 0 57 57" version="1.1" xmlns="http://www.w3.org/2000/svg" xmlns:xlink="http://www.w3.org/1999/xlink" xmlns:sketch="http://www.bohemiancoding.com/sketch/ns">
    <!-- Generator: Sketch 3.2.2 (9983) - http://www.bohemiancoding.com/sketch -->
    <title>status-schedule</title>
    <desc>Created with Sketch.</desc>
    <defs></defs>
    <g id="Page-1" stroke="none" stroke-width="1" fill="none" fill-rule="evenodd" sketch:type="MSPage">
        <g id="Job-Summary-2" sketch:type="MSArtboardGroup" transform="translate(-403.000000, -760.000000)">
            <g id="status-schedule" sketch:type="MSLayerGroup" transform="translate(404.000000, 761.000000)">
                <circle id="Oval-3" stroke="#E3E5EA" stroke-width="2" fill="#FFFFFF" sketch:type="MSShapeGroup" cx="27.5" cy="27.5" r="27.5"></circle>
                <g id="schedule" transform="translate(20.000000, 20.000000)" sketch:type="MSShapeGroup">
                    <rect id="Rectangle-297" stroke="#AAACAD" stroke-width="2" x="0" y="0" width="14" height="14"></rect>
                    <path d="M0,11 L0,11.6 L14,11.6 L14,11 L0,11 Z" id="Rectangle-299" fill="#AAACAD"></path>
                    <path d="M0,3 L0,3.59999999 L14,3.59999999 L14,3 L0,3 Z" id="Rectangle-300" fill="#AAACAD"></path>
                    <rect id="Rectangle-300" fill="#AAACAD" x="3" y="2" width="1" height="3"></rect>
                    <rect id="Rectangle-301" fill="#AAACAD" x="10" y="2" width="1" height="3"></rect>
                    <path d="M6.74,7.745 C6.74,7.17 6.585,6.66 6.26,6.345 C6.065,6.155 5.775,6 5.365,6 C4.965,6 4.68,6.15 4.48,6.345 C4.155,6.66 4,7.17 4,7.745 C4,8.315 4.155,8.82 4.48,9.14 C4.68,9.335 4.965,9.485 5.365,9.485 C5.775,9.485 6.065,9.33 6.26,9.14 C6.585,8.82 6.74,8.315 6.74,7.745 L6.74,7.745 Z M5.37,6.66 C5.5,6.66 5.59,6.7 5.68,6.785 C5.925,7.025 5.96,7.505 5.96,7.74 C5.96,8 5.915,8.47 5.68,8.7 C5.59,8.785 5.5,8.825 5.37,8.825 C5.24,8.825 5.15,8.785 5.06,8.7 C4.825,8.47 4.78,8 4.78,7.74 C4.78,7.505 4.815,7.025 5.06,6.785 C5.15,6.7 5.24,6.66 5.37,6.66 L5.37,6.66 Z M9.335,6.075 L7.695,6.075 L7.355,7.88 C7.52,7.79 7.755,7.705 8.035,7.705 C8.385,7.705 8.55,7.845 8.59,7.88 C8.67,7.95 8.76,8.07 8.76,8.27 C8.76,8.465 8.67,8.61 8.565,8.69 C8.445,8.785 8.265,8.825 8.09,8.825 C7.89,8.825 7.725,8.77 7.585,8.68 C7.48,8.615 7.355,8.505 7.265,8.405 L7.09,9.12 C7.51,9.445 7.885,9.485 8.2,9.485 C8.54,9.485 8.905,9.435 9.21,9.135 C9.365,8.98 9.55,8.705 9.55,8.275 C9.55,7.88 9.395,7.62 9.245,7.47 C9.06,7.28 8.77,7.145 8.395,7.145 C8.31,7.145 8.205,7.155 8.12,7.17 L8.21,6.725 L9.335,6.725 L9.335,6.075 Z" id="05" fill="#AAACAD"></path>
                </g>
            </g>
        </g>
    </g>
</svg>