<?xml version="1.0" encoding="UTF-8" standalone="no"?>
<svg width="36px" height="40px" viewBox="0 0 36 40" version="1.1" xmlns="http://www.w3.org/2000/svg" xmlns:xlink="http://www.w3.org/1999/xlink" xmlns:sketch="http://www.bohemiancoding.com/sketch/ns">
    <!-- Generator: Sketch 3.2 (9961) - http://www.bohemiancoding.com/sketch -->
    <title>forgot-password-icon</title>
    <desc>Created with Sketch.</desc>
    <defs></defs>
    <g id="Illustrations" stroke="none" stroke-width="1" fill="none" fill-rule="evenodd" sketch:type="MSPage">
        <g id="forgot-password-icon" sketch:type="MSArtboardGroup">
            <path d="M6.70586464,30.042199 C3.79893408,27.3880587 2,23.7159492 2,19.6588941 C2,11.5630103 9.16344416,5 18,5 C26.8365558,5 34,11.5630103 34,19.6588941 C34,27.7547776 26.8365558,34.3177879 18,34.3177879 C15.793215,34.3177879 13.6907766,33.9084733 11.7781978,33.1681895 L7.35472096,35 L6.70586464,30.042199 L6.70586464,30.042199 Z" id="Oval-216" stroke="#E3E5EA" stroke-width="2" sketch:type="MSShapeGroup"></path>
            <path d="M19.38,21.72 L19.38,20.04 C20.52,19.88 21.26,19.3 21.66,18.86 C22.2,18.28 22.66,17.42 22.66,16.32 C22.66,15.36 22.34,14.34 21.54,13.56 C20.86,12.9 19.8,12.36 18.24,12.36 C16.42,12.36 15.44,13.06 14.94,13.58 C14.38,14.16 13.86,15.12 13.84,16.34 L16.92,16.34 C16.9,15.94 17.04,15.46 17.26,15.22 C17.44,15.04 17.76,14.84 18.28,14.84 C18.56,14.84 18.94,14.9 19.24,15.22 C19.48,15.48 19.62,15.84 19.62,16.24 C19.62,16.8 19.38,17.3 19.02,17.62 C18.42,18.14 17.34,18.24 16.46,18.04 L16.46,21.72 L19.38,21.72 Z M16.18,24.48 C16.18,25.5 16.98,26.3 18,26.3 C19.02,26.3 19.82,25.5 19.82,24.48 C19.82,23.46 19.02,22.66 18,22.66 C16.98,22.66 16.18,23.46 16.18,24.48 L16.18,24.48 Z" id="?" fill="#93989C" sketch:type="MSShapeGroup"></path>
        </g>
    </g>
</svg>