<?xml version="1.0" encoding="UTF-8" standalone="no"?>
<svg width="20px" height="20px" viewBox="0 0 20 20" version="1.1" xmlns="http://www.w3.org/2000/svg" xmlns:xlink="http://www.w3.org/1999/xlink" xmlns:sketch="http://www.bohemiancoding.com/sketch/ns">
    <!-- Generator: Sketch 3.2.2 (9983) - http://www.bohemiancoding.com/sketch -->
    <title>tag 4</title>
    <desc>Created with Sketch.</desc>
    <defs></defs>
    <g id="Illustrations" stroke="none" stroke-width="1" fill="none" fill-rule="evenodd" sketch:type="MSPage">
        <g id="tag-4" sketch:type="MSArtboardGroup" fill="#D8D8D8">
            <g id="nav-caret" sketch:type="MSLayerGroup" transform="translate(11.000000, 10.000000) rotate(-90.000000) translate(-11.000000, -10.000000) translate(3.000000, 5.000000)">
                <g id="Welcome" sketch:type="MSShapeGroup">
                    <g id="ACCOUNTING">
                        <path d="M15.000037,2.732584 C15.000037,2.6492796 14.967629,2.582636 14.919018,2.5159925 L12.877346,0.4167214 C12.76392,0.3000953 12.569475,0.3000953 12.456049,0.4167214 L8.000018,5.0151248 L3.543988,0.4167214 C3.430562,0.3000953 3.236117,0.3000953 3.122691,0.4167214 L1.081019,2.5159925 C0.967593,2.6326187 0.967593,2.8325493 1.081019,2.9491754 L7.78937,9.8467804 C7.902796,9.9634066 8.097241,9.9634066 8.210667,9.8467804 L14.919018,2.9491754 C14.967629,2.8825319 15.000037,2.8158884 15.000037,2.732584 L15.000037,2.732584 L15.000037,2.732584 Z" id="ï”"></path>
                    </g>
                </g>
            </g>
        </g>
    </g>
</svg>