<?xml version="1.0" encoding="UTF-8" standalone="no"?>
<svg width="60px" height="74px" viewBox="0 0 60 74" version="1.1" xmlns="http://www.w3.org/2000/svg" xmlns:xlink="http://www.w3.org/1999/xlink" xmlns:sketch="http://www.bohemiancoding.com/sketch/ns">
    <!-- Generator: Sketch 3.2.2 (9983) - http://www.bohemiancoding.com/sketch -->
    <title>lease-view</title>
    <desc>Created with Sketch.</desc>
    <defs></defs>
    <g id="Illustrations" stroke="none" stroke-width="1" fill="none" fill-rule="evenodd" sketch:type="MSPage">
        <g id="lease-view" sketch:type="MSArtboardGroup">
            <g id="cooperative-2" sketch:type="MSLayerGroup" transform="translate(7.000000, 7.000000)">
                <rect id="Rectangle-22" stroke="#90ACF3" stroke-width="2" fill="#FFFFFF" sketch:type="MSShapeGroup" x="0" y="0" width="46" height="60"></rect>
                <rect id="Rectangle-29" stroke="#DAE3FB" stroke-width="2" fill="#FFFFFF" sketch:type="MSShapeGroup" x="2" y="2" width="42" height="56"></rect>
                <rect id="Rectangle-23" sketch:type="MSShapeGroup" x="6" y="6" width="9" height="9"></rect>
                <rect id="Rectangle-24" fill="#9B9B9B" sketch:type="MSShapeGroup" x="6" y="8" width="30" height="1"></rect>
                <rect id="Rectangle-24" fill="#9B9B9B" sketch:type="MSShapeGroup" x="6" y="11" width="31" height="1"></rect>
                <rect id="Rectangle-24" fill="#9B9B9B" sketch:type="MSShapeGroup" x="6" y="14" width="31" height="1"></rect>
                <rect id="Rectangle-32" fill="#9B9B9B" sketch:type="MSShapeGroup" x="6" y="17" width="30" height="1"></rect>
                <rect id="Rectangle-33" fill="#9B9B9B" sketch:type="MSShapeGroup" x="6" y="20" width="31" height="1"></rect>
                <rect id="Rectangle-34" fill="#9B9B9B" sketch:type="MSShapeGroup" x="6" y="23" width="28" height="1"></rect>
                <rect id="Rectangle-792" fill="#4A4A4A" sketch:type="MSShapeGroup" x="6" y="6" width="5" height="1"></rect>
                <rect id="Rectangle-27" fill="#9B9B9B" sketch:type="MSShapeGroup" x="6" y="30" width="30" height="1"></rect>
                <rect id="Rectangle-25" fill="#9B9B9B" sketch:type="MSShapeGroup" x="6" y="33" width="31" height="1"></rect>
                <rect id="Rectangle-26" fill="#9B9B9B" sketch:type="MSShapeGroup" x="6" y="36" width="27" height="1"></rect>
                <rect id="Rectangle-28" fill="#CED2D6" sketch:type="MSShapeGroup" x="6" y="49" width="14" height="1"></rect>
                <rect id="Rectangle-30" fill="#CED2D6" sketch:type="MSShapeGroup" x="26" y="49" width="14" height="1"></rect>
                <rect id="Rectangle-793" fill="#4A4A4A" sketch:type="MSShapeGroup" x="6" y="28" width="7" height="1"></rect>
            </g>
            <path d="M20.5148119,51.43978 C18.0733249,49.5866567 13.7931888,47.8699598 18.2339223,53.4195942 C22.6746558,58.9692285 17.1250212,58.9148609 16.249492,57.2566382 C15.3739627,55.5984155 22.1150759,49.2750614 23.3214293,51.6100645 C24.5277827,53.9450676 25.0971071,60.9090366 22.8059596,58.205 C20.514812,55.5009634 24.5134207,50.9294392 25.7536259,50.2775367" id="Path-394" stroke="#F35B5B" stroke-linecap="round" sketch:type="MSShapeGroup"></path>
        </g>
    </g>
</svg>