<?xml version="1.0" encoding="UTF-8" standalone="no"?>
<svg width="60px" height="74px" viewBox="0 0 60 74" version="1.1" xmlns="http://www.w3.org/2000/svg" xmlns:xlink="http://www.w3.org/1999/xlink" xmlns:sketch="http://www.bohemiancoding.com/sketch/ns">
    <!-- Generator: Sketch 3.3.1 (12002) - http://www.bohemiancoding.com/sketch -->
    <title>lease-enrolled copy</title>
    <desc>Created with Sketch.</desc>
    <defs></defs>
    <g id="Illustrations" stroke="none" stroke-width="1" fill="none" fill-rule="evenodd" sketch:type="MSPage">
        <g id="lease-enrolled-copy" sketch:type="MSArtboardGroup">
            <g id="cooperative" sketch:type="MSLayerGroup" transform="translate(4.000000, 4.000000)">
                <rect id="Rectangle-23" stroke="#E6E6E6" stroke-width="2" fill="#FFFFFF" sketch:type="MSShapeGroup" x="0" y="6" width="46" height="60"></rect>
                <rect id="Rectangle-24" stroke="#E6E6E6" stroke-width="2" fill="#FFFFFF" sketch:type="MSShapeGroup" x="3" y="3" width="46" height="60"></rect>
                <rect id="Rectangle-22" stroke="#9B9B9B" stroke-width="2" fill="#FFFFFF" sketch:type="MSShapeGroup" x="6" y="0" width="46" height="60"></rect>
                <rect id="Rectangle-29" fill="#FFFFFF" sketch:type="MSShapeGroup" x="8" y="2" width="42" height="56"></rect>
                <rect id="Rectangle-1188" stroke="#9B9B9B" stroke-linecap="square" stroke-dasharray="1,2.5" sketch:type="MSShapeGroup" x="13" y="17" width="32" height="37"></rect>
            </g>
            <g id="cooperative-2-+-Path-394" sketch:type="MSLayerGroup" transform="translate(10.000000, 4.000000)">
                <g id="cooperative-2" sketch:type="MSShapeGroup">
                    <rect id="Rectangle-22" stroke="#54545A" stroke-width="2" fill="#FFFFFF" x="0" y="0" width="46" height="60"></rect>
                    <rect id="Rectangle-29" stroke="#C4E9D6" stroke-width="2" fill="#FFFFFF" x="2" y="2" width="42" height="56"></rect>
                    <rect id="Rectangle-23" x="6" y="6" width="9" height="9"></rect>
                    <rect id="Rectangle-1454" fill="#E1F4EA" x="5" y="27" width="9" height="3"></rect>
                    <rect id="Rectangle-1454-Copy" fill="#E1F4EA" x="5" y="29" width="32" height="3"></rect>
                    <rect id="Rectangle-1454-Copy-2" fill="#E1F4EA" x="5" y="32" width="35" height="3"></rect>
                    <rect id="Rectangle-1454-Copy-3" fill="#E1F4EA" x="5" y="35" width="30" height="3"></rect>
                    <rect id="Rectangle-24" fill="#9B9B9B" x="6" y="8" width="30" height="1"></rect>
                    <rect id="Rectangle-24" fill="#9B9B9B" x="6" y="11" width="31" height="1"></rect>
                    <rect id="Rectangle-24" fill="#9B9B9B" x="6" y="14" width="31" height="1"></rect>
                    <rect id="Rectangle-32" fill="#9B9B9B" x="6" y="17" width="30" height="1"></rect>
                    <rect id="Rectangle-33" fill="#9B9B9B" x="6" y="20" width="31" height="1"></rect>
                    <rect id="Rectangle-34" fill="#9B9B9B" x="6" y="23" width="28" height="1"></rect>
                    <rect id="Rectangle-792" fill="#4A4A4A" x="6" y="6" width="5" height="1"></rect>
                    <rect id="Rectangle-27" fill="#9B9B9B" x="6" y="30" width="30" height="1"></rect>
                    <rect id="Rectangle-25" fill="#9B9B9B" x="6" y="33" width="31" height="1"></rect>
                    <rect id="Rectangle-26" fill="#9B9B9B" x="6" y="36" width="27" height="1"></rect>
                    <rect id="Rectangle-28" fill="#CED2D6" x="6" y="49" width="14" height="1"></rect>
                    <rect id="Rectangle-30" fill="#CED2D6" x="26" y="49" width="14" height="1"></rect>
                    <rect id="Rectangle-793" fill="#4A4A4A" x="6" y="28" width="7" height="1"></rect>
                </g>
                <path d="M13.5148119,44.43978 C11.0733249,42.5866567 6.79318882,40.8699598 11.2339223,46.4195942 C15.6746558,51.9692285 10.1250212,51.9148609 9.24949196,50.2566382 C8.37396274,48.5984155 15.1150759,42.2750614 16.3214293,44.6100645 C17.5277827,46.9450676 18.0971071,53.9090366 15.8059596,51.205 C13.514812,48.5009634 17.5134207,43.9294392 18.7536259,43.2775367" id="Path-394" stroke="#000000" stroke-linecap="round" sketch:type="MSShapeGroup"></path>
            </g>
        </g>
    </g>
</svg>