<?xml version="1.0" encoding="UTF-8" standalone="no"?>
<svg width="60px" height="60px" viewBox="0 0 60 60" version="1.1" xmlns="http://www.w3.org/2000/svg" xmlns:xlink="http://www.w3.org/1999/xlink" xmlns:sketch="http://www.bohemiancoding.com/sketch/ns">
    <!-- Generator: Sketch 3.3.1 (12002) - http://www.bohemiancoding.com/sketch -->
    <title>tenant-dummy-avatar</title>
    <desc>Created with Sketch.</desc>
    <defs></defs>
    <g id="Illustrations" stroke="none" stroke-width="1" fill="none" fill-rule="evenodd" sketch:type="MSPage">
        <g id="tenant-dummy-avatar" sketch:type="MSArtboardGroup">
            <rect id="Rectangle-1484" fill="#EAECF0" sketch:type="MSShapeGroup" x="0" y="0" width="60" height="60"></rect>
            <g id="Group" sketch:type="MSLayerGroup" transform="translate(10.000000, 11.000000)">
                <path d="M36.4230596,23.9261006 C34.481645,32.0314283 27.8644696,38 20,38 C10.6111593,38 3,29.4934102 3,19 C3,8.50658975 10.6111593,0 20,0 C28.4784778,0 35.5072968,6.93693006 36.7906449,16.0095883 C36.8598113,16.0032312 36.9296227,16 37,16 C38.6568542,16 40,17.790861 40,20 C40,22.209139 38.6568542,24 37,24 C36.8026563,24 36.609763,23.9745938 36.4230596,23.9261006 Z" id="Oval-549-Copy-5" stroke="#93989C" stroke-width="2" fill="#C7CACD" sketch:type="MSShapeGroup"></path>
                <path d="M33.4230596,23.9261006 C31.481645,32.0314283 24.8644696,38 17,38 C7.61115925,38 0,29.4934102 0,19 C0,8.50658975 7.61115925,0 17,0 C25.4784778,0 32.5072968,6.93693006 33.7906449,16.0095883 C33.8598113,16.0032312 33.9296227,16 34,16 C35.6568542,16 37,17.790861 37,20 C37,22.209139 35.6568542,24 34,24 C33.8026563,24 33.609763,23.9745938 33.4230596,23.9261006 Z" id="Oval-549-Copy-6" stroke="#93989C" stroke-width="2" fill="#E3E5EA" sketch:type="MSShapeGroup" transform="translate(18.500000, 19.000000) scale(-1, 1) translate(-18.500000, -19.000000) "></path>
                <path d="M36.0477333,12.7145107 C34.041268,6.31509887 29.0570432,1.48019077 22.9522667,0.285489322 C24.958732,6.68490113 29.9429568,11.5198092 36.0477333,12.7145107 Z" id="Oval-549-Copy-4" stroke="#93989C" stroke-width="2" fill="#C7CACD" sketch:type="MSShapeGroup"></path>
                <path d="M26.2797051,1.33836685 C24.3369667,0.474778168 22.2180922,0 20,0 C13.287534,0 7.48371295,4.34806211 4.7202949,10.6616332 C6.66303327,11.5252218 8.78190778,12 11,12 C17.712466,12 23.516287,7.65193789 26.2797051,1.33836685 Z" id="Oval-549" stroke="#93989C" stroke-width="2" fill="#C7CACD" sketch:type="MSShapeGroup"></path>
                <ellipse id="Oval-549-Copy-2" stroke="#93989C" stroke-width="2" sketch:type="MSShapeGroup" cx="20" cy="19" rx="17" ry="19"></ellipse>
                <path id="Path-801" stroke="#979797" sketch:type="MSShapeGroup" d=""></path>
            </g>
        </g>
    </g>
</svg>