<?xml version="1.0" encoding="UTF-8" standalone="no"?>
<svg width="2px" height="9px" viewBox="0 0 2 9" version="1.1" xmlns="http://www.w3.org/2000/svg" xmlns:xlink="http://www.w3.org/1999/xlink" xmlns:sketch="http://www.bohemiancoding.com/sketch/ns">
    <!-- Generator: Sketch 3.1.1 (8761) - http://www.bohemiancoding.com/sketch -->
    <title>alert</title>
    <desc>Created with Sketch.</desc>
    <defs></defs>
    <g id="Welcome" stroke="none" stroke-width="1" fill="none" fill-rule="evenodd" sketch:type="MSPage">
        <g id="Project-Progress-view" sketch:type="MSArtboardGroup" transform="translate(-214.000000, -524.000000)" fill="#34343F">
            <g id="alert" sketch:type="MSLayerGroup" transform="translate(214.000000, 524.000000)">
                <path d="M0,0 L2,0 L1.87309645,6 L0.126903553,6 L0,0 Z" id="!-2" sketch:type="MSShapeGroup"></path>
                <path d="M0,7.9978022 C0,7.71941253 0.0969153304,7.48351745 0.290748899,7.29010989 C0.484582467,7.09670233 0.720997137,7 1,7 C1.27900286,7 1.51541753,7.09670233 1.7092511,7.29010989 C1.90308467,7.48351745 2,7.71941253 2,7.9978022 C2,8.27912229 1.90308467,8.51648255 1.7092511,8.70989011 C1.51541753,8.90329767 1.27900286,9 1,9 C0.720997137,9 0.484582467,8.90329767 0.290748899,8.70989011 C0.0969153304,8.51648255 0,8.27912229 0,7.9978022 L0,7.9978022 Z" id="Path" sketch:type="MSShapeGroup"></path>
            </g>
        </g>
    </g>
</svg>