<?xml version="1.0" encoding="UTF-8" standalone="no"?>
<svg width="40px" height="40px" viewBox="0 0 40 40" version="1.1" xmlns="http://www.w3.org/2000/svg" xmlns:xlink="http://www.w3.org/1999/xlink" xmlns:sketch="http://www.bohemiancoding.com/sketch/ns">
    <!-- Generator: Sketch 3.2.2 (9983) - http://www.bohemiancoding.com/sketch -->
    <title>vendor-dash-scheduling</title>
    <desc>Created with Sketch.</desc>
    <defs></defs>
    <g id="Illustrations" stroke="none" stroke-width="1" fill="none" fill-rule="evenodd" sketch:type="MSPage">
        <g id="vendor-dash-scheduling" sketch:type="MSArtboardGroup">
            <circle id="Oval-495" stroke="#E6E6E6" stroke-width="2" fill="#FFFFFF" sketch:type="MSShapeGroup" cx="20" cy="20" r="18"></circle>
            <rect id="Rectangle-514" fill="#9B9B9B" sketch:type="MSShapeGroup" x="10" y="10" width="20" height="5"></rect>
            <g id="Group" sketch:type="MSLayerGroup" transform="translate(24.000000, 16.000000)" fill="#BDB8B8">
                <rect id="Rectangle-517" sketch:type="MSShapeGroup" x="0" y="0" width="1" height="1"></rect>
                <rect id="Rectangle-517" sketch:type="MSShapeGroup" x="0" y="3" width="1" height="1"></rect>
                <rect id="Rectangle-520" sketch:type="MSShapeGroup" x="0" y="6" width="1" height="1"></rect>
            </g>
            <g id="Group" sketch:type="MSLayerGroup" transform="translate(21.000000, 16.000000)" fill="#BDB8B8">
                <rect id="Rectangle-516" sketch:type="MSShapeGroup" x="0" y="0" width="1" height="1"></rect>
                <rect id="Rectangle-516" sketch:type="MSShapeGroup" x="0" y="3" width="1" height="1"></rect>
                <rect id="Rectangle-521" sketch:type="MSShapeGroup" x="0" y="6" width="1" height="1"></rect>
            </g>
            <g id="Group" sketch:type="MSLayerGroup" transform="translate(18.000000, 16.000000)" fill="#BDB8B8">
                <rect id="Rectangle-516" sketch:type="MSShapeGroup" x="0" y="0" width="1" height="1"></rect>
                <rect id="Rectangle-516" sketch:type="MSShapeGroup" x="0" y="3" width="1" height="1"></rect>
                <rect id="Rectangle-521" sketch:type="MSShapeGroup" x="0" y="6" width="1" height="1"></rect>
                <rect id="Rectangle-526" sketch:type="MSShapeGroup" x="0" y="9" width="1" height="1"></rect>
            </g>
            <g id="Group" sketch:type="MSLayerGroup" transform="translate(15.000000, 16.000000)" fill="#BDB8B8">
                <rect id="Rectangle-516" sketch:type="MSShapeGroup" x="0" y="0" width="1" height="1"></rect>
                <rect id="Rectangle-516" sketch:type="MSShapeGroup" x="0" y="3" width="1" height="1"></rect>
                <rect id="Rectangle-521" sketch:type="MSShapeGroup" x="0" y="6" width="1" height="1"></rect>
                <rect id="Rectangle-526" sketch:type="MSShapeGroup" x="0" y="9" width="1" height="1"></rect>
            </g>
            <ellipse id="Oval-383" stroke="#9B9B9B" sketch:type="MSShapeGroup" transform="translate(23.966506, 23.325962) rotate(-311.000000) translate(-23.966506, -23.325962) " cx="23.9665064" cy="23.3259619" rx="2.18301272" ry="3.11602545"></ellipse>
            <path d="M12,28 L28,28 L28,30 L11.5,30 L10,30 L10,15 L12,15 L12,28 Z M30,15 L30,30 L28,30 L28,15 L30,15 Z" id="Path" fill="#9B9B9B" sketch:type="MSShapeGroup"></path>
        </g>
    </g>
</svg>