<?xml version="1.0" encoding="UTF-8" standalone="no"?>
<svg width="30px" height="30px" viewBox="0 0 30 30" version="1.1" xmlns="http://www.w3.org/2000/svg" xmlns:xlink="http://www.w3.org/1999/xlink" xmlns:sketch="http://www.bohemiancoding.com/sketch/ns">
    <!-- Generator: Sketch 3.3.1 (12002) - http://www.bohemiancoding.com/sketch -->
    <title>Artboard 169 Copy 2</title>
    <desc>Created with Sketch.</desc>
    <defs></defs>
    <g id="Illustrations" stroke="none" stroke-width="1" fill="none" fill-rule="evenodd" sketch:type="MSPage">
        <g id="Artboard-169-Copy-2" sketch:type="MSArtboardGroup">
            <path d="M9,9 L6,9 L6,16 L10,16 L10,13 L16,13 L16,19 L21,19 L21,7 L16,7 L16,9 L9,9 Z" id="Rectangle-1397" stroke="#092F3E" fill="#F35B5B" sketch:type="MSShapeGroup"></path>
            <rect id="Rectangle-1397-Copy-3" stroke="#092F3E" fill="#C7CACD" sketch:type="MSShapeGroup" x="17" y="19" width="3" height="2"></rect>
            <path d="M6.49999999,9.49999999 L9.50000001,9.49999999 L9.50000001,15.5 L6.49999999,15.5 L6.49999999,9.49999999 Z" id="Rectangle-1511" fill="#092F3E" sketch:type="MSShapeGroup"></path>
            <rect id="Rectangle-1401" fill="#092F3E" sketch:type="MSShapeGroup" x="18" y="21" width="1" height="5"></rect>
            <rect id="Rectangle-1401-Copy" fill="#F35B5B" sketch:type="MSShapeGroup" x="7" y="9.50000001" width="1" height="5.99999999"></rect>
            <rect id="Rectangle-1401-Copy-2" fill="#092F3E" sketch:type="MSShapeGroup" x="17" y="8" width="1" height="6"></rect>
            <rect id="Rectangle-1401-Copy-3" fill="#092F3E" sketch:type="MSShapeGroup" x="19" y="8" width="1" height="8"></rect>
            <path d="M16.5,17 L20.5,17 L20.5,18.5 L16.5,18.5" id="Path-809" fill="#C7CACD" sketch:type="MSShapeGroup"></path>
            <rect id="Rectangle-1405" fill="#092F3E" sketch:type="MSShapeGroup" x="17" y="17" width="3" height="1"></rect>
            <path d="M16.574793,24.7077574 L14.4324859,22.5654504" id="Path-805" stroke="#93989C" sketch:type="MSShapeGroup"></path>
            <path d="M20.5,25.0030347 L21.7765409,23.7264938" id="Path-805-Copy" stroke="#93989C" sketch:type="MSShapeGroup"></path>
            <path d="M17.4060694,23.5060694 L16.1295286,22.2295285" id="Path-805-Copy-3" stroke="#93989C" sketch:type="MSShapeGroup"></path>
            <path d="M22.5121389,24 L18.7538148,20.2416759" id="Path-805-Copy-2" stroke="#93989C" sketch:type="MSShapeGroup" transform="translate(21.006069, 22.493931) scale(-1, 1) translate(-21.006069, -22.493931) "></path>
        </g>
    </g>
</svg>