<?xml version="1.0" encoding="UTF-8" standalone="no"?>
<svg width="54px" height="54px" viewBox="0 0 54 54" version="1.1" xmlns="http://www.w3.org/2000/svg" xmlns:xlink="http://www.w3.org/1999/xlink" xmlns:sketch="http://www.bohemiancoding.com/sketch/ns">
    <!-- Generator: Sketch 3.2.2 (9983) - http://www.bohemiancoding.com/sketch -->
    <title>watching</title>
    <desc>Created with Sketch.</desc>
    <defs></defs>
    <g id="Page-1" stroke="none" stroke-width="1" fill="none" fill-rule="evenodd" sketch:type="MSPage">
        <g id="watching" sketch:type="MSArtboardGroup">
            <rect id="Rectangle-41" stroke="#3F4047" sketch:type="MSShapeGroup" x="4" y="8" width="46" height="38"></rect>
            <path d="M42.5,42.8 L42.5,43.8 L43,43.8 L43,42.8 L42.5,42.8 Z" id="Rectangle-52" fill="#3F4047" sketch:type="MSShapeGroup"></path>
            <path d="M45.5,42.8 L45.5,43.8 L46,43.8 L46,42.8 L45.5,42.8 Z" id="Rectangle-52" fill="#3F4047" sketch:type="MSShapeGroup"></path>
            <path d="M42.5,41.4 L42.5,42.4 L43,42.4 L43,41.4 L42.5,41.4 Z" id="Rectangle-52" fill="#3F4047" sketch:type="MSShapeGroup"></path>
            <path d="M45.5,41.3 L45.5,42.3 L46,42.3 L46,41.3 L45.5,41.3 Z" id="Rectangle-52" fill="#3F4047" sketch:type="MSShapeGroup"></path>
            <rect id="Rectangle-42" fill="#3F4047" sketch:type="MSShapeGroup" x="5" y="39" width="44" height="1"></rect>
            <path d="M6.07071068,41.0707107 L6.42426408,43.5757359 L8.57573592,41.4242641 L6.07071068,41.0707107 Z" id="Rectangle-43" fill="#3F4047" sketch:type="MSShapeGroup" transform="translate(7.500000, 42.500000) rotate(-225.000000) translate(-7.500000, -42.500000) "></path>
            <rect id="Rectangle-44" fill="#3F4047" sketch:type="MSShapeGroup" x="12" y="42" width="1" height="1"></rect>
            <path d="M13,42 L13,43 L14,43.5 L14,41.5 L13,42 Z" id="Rectangle-44" fill="#3F4047" sketch:type="MSShapeGroup"></path>
            <path d="M14.2,41.3 L14.2,43.7 L14.4,43.7 L14.4,41.3 L14.2,41.3 Z" id="Rectangle-46" fill="#3F4047" sketch:type="MSShapeGroup"></path>
            <path d="M14.6,41 L14.6,44 L14.8,44 L14.8,41 L14.6,41 Z" id="Rectangle-46" fill="#3F4047" sketch:type="MSShapeGroup"></path>
            <path d="M45,41.3 L45,41.8 L46,41.8 L46,41.3 L45,41.3 Z" id="Rectangle-48" fill="#3F4047" sketch:type="MSShapeGroup"></path>
            <path d="M45,43.3 L45,43.8 L46,43.8 L46,43.3 L45,43.3 Z" id="Rectangle-48" fill="#3F4047" sketch:type="MSShapeGroup"></path>
            <path d="M42.5,41.3 L42.5,41.8 L43.5,41.8 L43.5,41.3 L42.5,41.3 Z" id="Rectangle-48" fill="#3F4047" sketch:type="MSShapeGroup"></path>
            <path d="M42.5,43.3 L42.5,43.8 L43.5,43.8 L43.5,43.3 L42.5,43.3 Z" id="Rectangle-48" fill="#3F4047" sketch:type="MSShapeGroup"></path>
            <circle id="Oval-2" stroke="#3F4047" fill="#3F4047" sketch:type="MSShapeGroup" cx="27" cy="25" r="7"></circle>
            <path d="M24.1898305,22.604044 L25.1805498,27.2808681 L28.8666546,23.5947633 L24.1898305,22.604044 Z" id="Rectangle-56" fill="#FFFFFF" sketch:type="MSShapeGroup" transform="translate(26.585786, 25.000000) rotate(-225.000000) translate(-26.585786, -25.000000) "></path>
            <path d="M16.055,42.4499992 C16.055,42.3933323 16.06,42.3424995 16.07,42.2974992 C16.08,42.252499 16.0949999,42.2144994 16.115,42.1834992 C16.1350001,42.1524991 16.1603332,42.1288327 16.191,42.1124992 C16.2216668,42.0961658 16.2579998,42.0879992 16.3,42.0879992 C16.3446669,42.0879992 16.3824998,42.0959992 16.4135,42.1119992 C16.4445002,42.1279993 16.4696666,42.1513324 16.489,42.1819992 C16.5083334,42.2126661 16.5223333,42.250499 16.531,42.2954992 C16.5396667,42.3404995 16.544,42.3919989 16.544,42.4499992 C16.544,42.5066662 16.539,42.557499 16.529,42.6024992 C16.519,42.6474995 16.5040001,42.6854991 16.484,42.7164992 C16.4639999,42.7474994 16.4386668,42.7711658 16.408,42.7874992 C16.3773332,42.8038327 16.3410002,42.8119992 16.299,42.8119992 C16.2549998,42.8119992 16.2175002,42.803166 16.1865,42.7854992 C16.1554998,42.7678325 16.1301668,42.7429994 16.1105,42.7109992 C16.0908332,42.6789991 16.0766667,42.6408328 16.068,42.5964992 C16.0593333,42.5521657 16.055,42.5033328 16.055,42.4499992 L16.055,42.4499992 Z M16.462,42.4499992 C16.462,42.4146657 16.46,42.3809994 16.456,42.3489992 L16.159,42.6199992 C16.1703334,42.6579994 16.1873332,42.6883325 16.21,42.7109992 C16.2326668,42.733666 16.2623331,42.7449992 16.299,42.7449992 C16.357667,42.7449992 16.3994999,42.7206661 16.4245,42.6719992 C16.4495001,42.6233323 16.462,42.5493331 16.462,42.4499992 L16.462,42.4499992 Z M16.138,42.4499992 C16.138,42.466666 16.1385,42.4826658 16.1395,42.4979992 C16.1405,42.5133326 16.1416667,42.5283325 16.143,42.5429992 L16.441,42.2729992 C16.4296666,42.2369991 16.4128334,42.2083327 16.3905,42.1869992 C16.3681666,42.1656658 16.3380002,42.1549992 16.3,42.1549992 C16.2406664,42.1549992 16.1988335,42.179499 16.1745,42.2284992 C16.1501665,42.2774995 16.138,42.3513321 16.138,42.4499992 L16.138,42.4499992 Z M16.833,42.3519992 C16.833,42.3306658 16.8389999,42.314166 16.851,42.3024992 C16.8630001,42.2908325 16.8789999,42.2849992 16.899,42.2849992 C16.9203334,42.2849992 16.9369999,42.2908325 16.949,42.3024992 C16.9610001,42.314166 16.967,42.3306658 16.967,42.3519992 C16.967,42.3713327 16.9610001,42.3873325 16.949,42.3999992 C16.9369999,42.412666 16.9203334,42.4189992 16.899,42.4189992 C16.8789999,42.4189992 16.8630001,42.412666 16.851,42.3999992 C16.8389999,42.3873325 16.833,42.3713327 16.833,42.3519992 L16.833,42.3519992 Z M16.833,42.7449992 C16.833,42.7236658 16.8389999,42.707166 16.851,42.6954992 C16.8630001,42.6838325 16.8789999,42.6779992 16.899,42.6779992 C16.9203334,42.6779992 16.9369999,42.6838325 16.949,42.6954992 C16.9610001,42.707166 16.967,42.7236658 16.967,42.7449992 C16.967,42.7643327 16.9610001,42.7803325 16.949,42.7929992 C16.9369999,42.805666 16.9203334,42.8119992 16.899,42.8119992 C16.8789999,42.8119992 16.8630001,42.805666 16.851,42.7929992 C16.8389999,42.7803325 16.833,42.7643327 16.833,42.7449992 L16.833,42.7449992 Z M17.255,42.4499992 C17.255,42.3933323 17.2599999,42.3424995 17.27,42.2974992 C17.28,42.252499 17.2949999,42.2144994 17.315,42.1834992 C17.3350001,42.1524991 17.3603332,42.1288327 17.391,42.1124992 C17.4216668,42.0961658 17.4579998,42.0879992 17.5,42.0879992 C17.5446669,42.0879992 17.5824998,42.0959992 17.6135,42.1119992 C17.6445001,42.1279993 17.6696666,42.1513324 17.689,42.1819992 C17.7083334,42.2126661 17.7223333,42.250499 17.731,42.2954992 C17.7396667,42.3404995 17.744,42.3919989 17.744,42.4499992 C17.744,42.5066662 17.739,42.557499 17.729,42.6024992 C17.7189999,42.6474995 17.7040001,42.6854991 17.684,42.7164992 C17.6639999,42.7474994 17.6386668,42.7711658 17.608,42.7874992 C17.5773332,42.8038327 17.5410002,42.8119992 17.499,42.8119992 C17.4549998,42.8119992 17.4175001,42.803166 17.3865,42.7854992 C17.3554998,42.7678325 17.3301668,42.7429994 17.3105,42.7109992 C17.2908332,42.6789991 17.2766667,42.6408328 17.268,42.5964992 C17.2593333,42.5521657 17.255,42.5033328 17.255,42.4499992 L17.255,42.4499992 Z M17.662,42.4499992 C17.662,42.4146657 17.66,42.3809994 17.656,42.3489992 L17.359,42.6199992 C17.3703334,42.6579994 17.3873332,42.6883325 17.41,42.7109992 C17.4326668,42.733666 17.4623331,42.7449992 17.499,42.7449992 C17.5576669,42.7449992 17.5994999,42.7206661 17.6245,42.6719992 C17.6495001,42.6233323 17.662,42.5493331 17.662,42.4499992 L17.662,42.4499992 Z M17.338,42.4499992 C17.338,42.466666 17.3385,42.4826658 17.3395,42.4979992 C17.3405,42.5133326 17.3416666,42.5283325 17.343,42.5429992 L17.641,42.2729992 C17.6296666,42.2369991 17.6128334,42.2083327 17.5905,42.1869992 C17.5681665,42.1656658 17.5380002,42.1549992 17.5,42.1549992 C17.4406664,42.1549992 17.3988334,42.179499 17.3745,42.2284992 C17.3501665,42.2774995 17.338,42.3513321 17.338,42.4499992 L17.338,42.4499992 Z M17.855,42.4499992 C17.855,42.3933323 17.8599999,42.3424995 17.87,42.2974992 C17.88,42.252499 17.8949999,42.2144994 17.915,42.1834992 C17.9350001,42.1524991 17.9603332,42.1288327 17.991,42.1124992 C18.0216668,42.0961658 18.0579998,42.0879992 18.1,42.0879992 C18.1446669,42.0879992 18.1824998,42.0959992 18.2135,42.1119992 C18.2445001,42.1279993 18.2696665,42.1513324 18.289,42.1819992 C18.3083334,42.2126661 18.3223333,42.250499 18.331,42.2954992 C18.3396667,42.3404995 18.344,42.3919989 18.344,42.4499992 C18.344,42.5066662 18.339,42.557499 18.329,42.6024992 C18.3189999,42.6474995 18.3040001,42.6854991 18.284,42.7164992 C18.2639999,42.7474994 18.2386668,42.7711658 18.208,42.7874992 C18.1773332,42.8038327 18.1410002,42.8119992 18.099,42.8119992 C18.0549998,42.8119992 18.0175001,42.803166 17.9865,42.7854992 C17.9554998,42.7678325 17.9301667,42.7429994 17.9105,42.7109992 C17.8908332,42.6789991 17.8766667,42.6408328 17.868,42.5964992 C17.8593333,42.5521657 17.855,42.5033328 17.855,42.4499992 L17.855,42.4499992 Z M18.262,42.4499992 C18.262,42.4146657 18.26,42.3809994 18.256,42.3489992 L17.959,42.6199992 C17.9703334,42.6579994 17.9873332,42.6883325 18.01,42.7109992 C18.0326668,42.733666 18.0623331,42.7449992 18.099,42.7449992 C18.1576669,42.7449992 18.1994999,42.7206661 18.2245,42.6719992 C18.2495001,42.6233323 18.262,42.5493331 18.262,42.4499992 L18.262,42.4499992 Z M17.938,42.4499992 C17.938,42.466666 17.9385,42.4826658 17.9395,42.4979992 C17.9405,42.5133326 17.9416666,42.5283325 17.943,42.5429992 L18.241,42.2729992 C18.2296666,42.2369991 18.2128334,42.2083327 18.1905,42.1869992 C18.1681665,42.1656658 18.1380002,42.1549992 18.1,42.1549992 C18.0406663,42.1549992 17.9988334,42.179499 17.9745,42.2284992 C17.9501665,42.2774995 17.938,42.3513321 17.938,42.4499992 L17.938,42.4499992 Z M18.851,42.0879992 L18.914,42.1159992 L18.549,42.9399992 L18.486,42.9119992 L18.851,42.0879992 Z M19.248,42.7429992 C19.2746668,42.7429992 19.2991665,42.7394993 19.3215,42.7324992 C19.3438334,42.7254992 19.3633332,42.715666 19.38,42.7029992 C19.3966667,42.6903325 19.4096666,42.6749993 19.419,42.6569992 C19.4283333,42.6389991 19.433,42.6189993 19.433,42.5969992 C19.433,42.550999 19.4168335,42.518166 19.3845,42.4984992 C19.3521665,42.4788325 19.3086669,42.4689992 19.254,42.4689992 L19.19,42.4689992 L19.19,42.4209992 L19.387,42.1719992 L19.088,42.1719992 L19.088,42.0999992 L19.483,42.0999992 L19.483,42.1719992 L19.286,42.4029992 L19.302,42.4029992 C19.3326668,42.4029992 19.3606665,42.4073325 19.386,42.4159992 C19.4113334,42.4246659 19.4333332,42.4369992 19.452,42.4529992 C19.4706667,42.4689993 19.4851666,42.4883325 19.4955,42.5109992 C19.5058334,42.533666 19.511,42.5593324 19.511,42.5879992 C19.511,42.6239994 19.504,42.6559991 19.49,42.6839992 C19.4759999,42.7119994 19.4570001,42.7354991 19.433,42.7544992 C19.4089998,42.7734993 19.3808335,42.7878325 19.3485,42.7974992 C19.3161665,42.807166 19.2816668,42.8119992 19.245,42.8119992 C19.2109998,42.8119992 19.1815001,42.8094993 19.1565,42.8044992 C19.1314998,42.7994992 19.1086667,42.7933326 19.088,42.7859992 L19.108,42.7159992 C19.1253334,42.7239993 19.1456665,42.7304992 19.169,42.7354992 C19.1923334,42.7404993 19.2186665,42.7429992 19.248,42.7429992 L19.248,42.7429992 Z M19.833,42.3519992 C19.833,42.3306658 19.8389999,42.314166 19.851,42.3024992 C19.863,42.2908325 19.8789999,42.2849992 19.899,42.2849992 C19.9203334,42.2849992 19.9369999,42.2908325 19.949,42.3024992 C19.961,42.314166 19.967,42.3306658 19.967,42.3519992 C19.967,42.3713327 19.961,42.3873325 19.949,42.3999992 C19.9369999,42.412666 19.9203334,42.4189992 19.899,42.4189992 C19.8789999,42.4189992 19.863,42.412666 19.851,42.3999992 C19.8389999,42.3873325 19.833,42.3713327 19.833,42.3519992 L19.833,42.3519992 Z M19.833,42.7449992 C19.833,42.7236658 19.8389999,42.707166 19.851,42.6954992 C19.863,42.6838325 19.8789999,42.6779992 19.899,42.6779992 C19.9203334,42.6779992 19.9369999,42.6838325 19.949,42.6954992 C19.961,42.707166 19.967,42.7236658 19.967,42.7449992 C19.967,42.7643327 19.961,42.7803325 19.949,42.7929992 C19.9369999,42.805666 19.9203334,42.8119992 19.899,42.8119992 C19.8789999,42.8119992 19.863,42.805666 19.851,42.7929992 C19.8389999,42.7803325 19.833,42.7643327 19.833,42.7449992 L19.833,42.7449992 Z M20.327,42.7279992 L20.484,42.7279992 L20.484,42.2019992 L20.324,42.3139992 L20.285,42.2569992 L20.505,42.0999992 L20.561,42.0999992 L20.561,42.7279992 L20.715,42.7279992 L20.715,42.7999992 L20.327,42.7999992 L20.327,42.7279992 Z M21.3389999,42.5889992 C21.3389999,42.617666 21.3338333,42.6453324 21.3234999,42.6719992 C21.3131666,42.698666 21.298,42.7223325 21.2779999,42.7429992 C21.2579998,42.763666 21.2333334,42.7803325 21.2039999,42.7929992 C21.1746665,42.805666 21.1406668,42.8119992 21.1019999,42.8119992 C21.0659998,42.8119992 21.0333334,42.8063326 21.0039999,42.7949992 C20.9746665,42.7836658 20.9493334,42.7674993 20.9279999,42.7464992 C20.9066665,42.7254991 20.8901667,42.6996661 20.8784999,42.6689992 C20.8668332,42.6383324 20.8609999,42.6039994 20.8609999,42.5659992 C20.8609999,42.5033323 20.8701665,42.4439995 20.8884999,42.3879992 C20.9068334,42.331999 20.9324998,42.2826661 20.9654999,42.2399992 C20.9985001,42.1973324 21.0378331,42.162666 21.0834999,42.1359992 C21.1291668,42.1093324 21.179333,42.0933326 21.2339999,42.0879992 L21.2479999,42.1519992 C21.2059997,42.1573326 21.1675001,42.1696658 21.1324999,42.1889992 C21.0974998,42.2083327 21.0670001,42.2323324 21.0409999,42.2609992 C21.0149998,42.289666 20.9938334,42.3213324 20.9774999,42.3559992 C20.9611665,42.3906661 20.9506666,42.4259991 20.9459999,42.4619992 C20.9513333,42.4533325 20.9591666,42.4443326 20.9694999,42.4349992 C20.9798333,42.4256659 20.9921665,42.4174993 21.0064999,42.4104992 C21.0208334,42.4034992 21.0368332,42.3976659 21.0544999,42.3929992 C21.0721667,42.3883325 21.0913332,42.3859992 21.1119999,42.3859992 C21.1473335,42.3859992 21.1789998,42.3908325 21.2069999,42.4004992 C21.2350001,42.410166 21.2588332,42.4238325 21.2784999,42.4414992 C21.2981667,42.459166 21.3131666,42.4804991 21.3234999,42.5054992 C21.3338333,42.5304994 21.3389999,42.5583324 21.3389999,42.5889992 L21.3389999,42.5889992 Z M21.2569999,42.5969992 C21.2569999,42.5503323 21.2440001,42.514666 21.2179999,42.4899992 C21.1919998,42.4653324 21.1520002,42.4529992 21.0979999,42.4529992 C21.0786665,42.4529992 21.0606667,42.4553325 21.0439999,42.4599992 C21.0273332,42.4646659 21.0123333,42.4708325 20.9989999,42.4784992 C20.9856665,42.4861659 20.974,42.4949992 20.9639999,42.5049992 C20.9539999,42.5149993 20.9463333,42.5249992 20.9409999,42.5349992 C20.9396666,42.5443326 20.9389999,42.5516659 20.9389999,42.5569992 L20.9389999,42.5759992 C20.9389999,42.5959993 20.9423332,42.6161658 20.9489999,42.6364992 C20.9556666,42.6568327 20.9658332,42.6749992 20.9794999,42.6909992 C20.9931667,42.7069993 21.0103332,42.7199992 21.0309999,42.7299992 C21.0516667,42.7399993 21.0759998,42.7449992 21.1039999,42.7449992 C21.1266667,42.7449992 21.1473332,42.7409993 21.1659999,42.7329992 C21.1846667,42.7249992 21.2008332,42.7143326 21.2144999,42.7009992 C21.2281667,42.6876658 21.2386666,42.6719993 21.2459999,42.6539992 C21.2533333,42.6359991 21.2569999,42.6169993 21.2569999,42.5969992 L21.2569999,42.5969992 Z" id="0:00/3:16" fill="#212529" sketch:type="MSShapeGroup"></path>
        </g>
    </g>
</svg>