<?xml version="1.0" encoding="UTF-8" standalone="no"?>
<svg width="20px" height="21px" viewBox="0 0 20 21" version="1.1" xmlns="http://www.w3.org/2000/svg" xmlns:xlink="http://www.w3.org/1999/xlink" xmlns:sketch="http://www.bohemiancoding.com/sketch/ns">
    <!-- Generator: Sketch 3.3 (11970) - http://www.bohemiancoding.com/sketch -->
    <title>tag 19 copy 3</title>
    <desc>Created with Sketch.</desc>
    <defs></defs>
    <g id="Illustrations" stroke="none" stroke-width="1" fill="none" fill-rule="evenodd" sketch:type="MSPage">
        <g id="tag-19-copy-3" sketch:type="MSArtboardGroup" transform="translate(0.000000, 0.000000)" stroke="#4A4A4A">
            <path d="M5,9 L9,9 L9,18 L7,16 L5,18 L5,9 Z" id="Rectangle-1394" fill="#6FC99D" sketch:type="MSShapeGroup" transform="translate(7.000000, 13.500000) rotate(-345.000000) translate(-7.000000, -13.500000) "></path>
            <path d="M11.1,9 L15.1,9 L15.1,18 L13.1,16 L11.1,18 L11.1,9 Z" id="Rectangle-1394-Copy" fill="#6FC99D" sketch:type="MSShapeGroup" transform="translate(13.100000, 13.500000) rotate(-15.000000) translate(-13.100000, -13.500000) "></path>
            <polygon id="Star-7" fill="#F6D262" sketch:type="MSShapeGroup" points="10 12.3999999 8.6648744 12.8495675 7.65702787 11.8652318 6.25906119 11.6909889 5.77811011 10.3668448 4.59418679 9.60330243 4.73538941 8.20161301 4 7 4.73538941 5.79838699 4.59418679 4.39669757 5.77811011 3.63315516 6.25906119 2.30901111 7.65702787 2.13476824 8.6648744 1.15043253 10 1.60000014 11.3351256 1.15043253 12.3429721 2.13476824 13.7409388 2.30901111 14.2218899 3.63315516 15.4058132 4.39669757 15.2646106 5.79838699 16 7 15.2646106 8.20161301 15.4058132 9.60330243 14.2218899 10.3668448 13.7409388 11.6909889 12.3429721 11.8652318 11.3351256 12.8495675 "></polygon>
        </g>
    </g>
</svg>