<?xml version="1.0" encoding="UTF-8" standalone="no"?>
<svg width="90px" height="90px" viewBox="0 0 90 90" version="1.1" xmlns="http://www.w3.org/2000/svg" xmlns:xlink="http://www.w3.org/1999/xlink" xmlns:sketch="http://www.bohemiancoding.com/sketch/ns">
    <!-- Generator: Sketch 3.1.1 (8761) - http://www.bohemiancoding.com/sketch -->
    <title>invoice</title>
    <desc>Created with Sketch.</desc>
    <defs></defs>
    <g id="Illustrations" stroke="none" stroke-width="1" fill="none" fill-rule="evenodd" sketch:type="MSPage">
        <g id="invoice" sketch:type="MSArtboardGroup">
            <g id="cooperative" sketch:type="MSLayerGroup" transform="translate(22.000000, 14.000000)">
                <rect id="Rectangle-22" stroke="#71CC68" stroke-width="2" fill="#FFFFFF" sketch:type="MSShapeGroup" x="0" y="0" width="46" height="60"></rect>
                <rect id="Rectangle-29" stroke="#AADC6F" stroke-width="2" fill="#FFFFFF" sketch:type="MSShapeGroup" x="2" y="2" width="42" height="56"></rect>
                <rect id="Rectangle-23" sketch:type="MSShapeGroup" x="6" y="6" width="9" height="9"></rect>
                <rect id="Rectangle-24" fill="#373C3E" sketch:type="MSShapeGroup" x="23" y="8" width="12" height="1"></rect>
                <rect id="Rectangle-24" fill="#373C3E" sketch:type="MSShapeGroup" x="6" y="19" width="16.5" height="1"></rect>
                <rect id="Rectangle-24" fill="#373C3E" sketch:type="MSShapeGroup" x="6" y="27" width="12" height="1"></rect>
                <rect id="Rectangle-24" fill="#373C3E" sketch:type="MSShapeGroup" x="32" y="19" width="3" height="1"></rect>
                <rect id="Rectangle-24" fill="#373C3E" sketch:type="MSShapeGroup" x="32" y="27" width="3" height="1"></rect>
                <rect id="Rectangle-24" fill="#373C3E" sketch:type="MSShapeGroup" x="26" y="12" width="9" height="1"></rect>
                <rect id="Rectangle-24" fill="#373C3E" sketch:type="MSShapeGroup" x="6" y="23" width="11" height="1"></rect>
                <rect id="Rectangle-24" fill="#373C3E" sketch:type="MSShapeGroup" x="6" y="31" width="16.5" height="1"></rect>
                <rect id="Rectangle-24" fill="#373C3E" sketch:type="MSShapeGroup" x="32" y="23" width="3" height="1"></rect>
                <rect id="Rectangle-24" fill="#373C3E" sketch:type="MSShapeGroup" x="30" y="31" width="5" height="1"></rect>
                <rect id="Rectangle-28" fill="#373C3E" sketch:type="MSShapeGroup" x="6" y="35" width="9" height="1"></rect>
                <rect id="Rectangle-27" fill="#373C3E" sketch:type="MSShapeGroup" x="32" y="35" width="3" height="1"></rect>
                <rect id="Rectangle-26" fill="#373C3E" sketch:type="MSShapeGroup" x="6" y="39" width="9" height="1"></rect>
                <rect id="Rectangle-25" fill="#373C3E" sketch:type="MSShapeGroup" x="32" y="39" width="3" height="1"></rect>
                <rect id="Rectangle-30" fill="#373C3E" sketch:type="MSShapeGroup" x="32" y="46" width="3" height="2"></rect>
                <rect id="Rectangle-31" fill="#373C3E" sketch:type="MSShapeGroup" x="6" y="46" width="9" height="2"></rect>
                <ellipse id="Oval-125" stroke-opacity="0.898777187" stroke="#EE5334" sketch:type="MSShapeGroup" transform="translate(32.899014, 46.945281) rotate(-15.000000) translate(-32.899014, -46.945281) " cx="32.8990143" cy="46.9452805" rx="6.23273402" ry="3.44539709"></ellipse>
            </g>
            <g id="ADD" sketch:type="MSLayerGroup" transform="translate(57.000000, 7.000000)">
                <circle id="Oval-287" stroke="#373D3E" stroke-width="2" fill="#FFFFFF" sketch:type="MSShapeGroup" cx="9" cy="9" r="9"></circle>
                <g id="Rectangle-144-+-Rectangle-146" transform="translate(9.000000, 9.000000) rotate(-270.000000) translate(-9.000000, -9.000000) translate(5.000000, 5.000000)" fill="#373D3E" sketch:type="MSShapeGroup">
                    <rect id="Rectangle-144" transform="translate(4.000000, 4.000000) rotate(-90.000000) translate(-4.000000, -4.000000) " x="3" y="0" width="2" height="8"></rect>
                    <rect id="Rectangle-145" transform="translate(4.000000, 4.000000) rotate(-180.000000) translate(-4.000000, -4.000000) " x="3" y="0" width="2" height="8"></rect>
                </g>
            </g>
            <path d="M32.568,25.32 C32.568,25.8106691 32.4000017,26.2053318 32.064,26.504 C31.7599985,26.7813347 31.3546692,26.9519997 30.848,27.016 L30.848,27.912 L30.04,27.912 L30.04,27.048 C29.2826629,27.048 28.6533358,26.7973358 28.152,26.296 L28.872,25.576 C29.1920016,25.8960016 29.6159974,26.056 30.144,26.056 L30.144,24.608 L29.888,24.576 C28.879995,24.4479994 28.376,23.917338 28.376,22.984 C28.376,22.4933309 28.5333318,22.0960015 28.848,21.792 C29.1466682,21.4986652 29.5439975,21.3253336 30.04,21.272 L30.04,20.552 L30.848,20.552 L30.848,21.264 C31.4506697,21.264 31.9759978,21.4826645 32.424,21.92 L31.72,22.616 C31.453332,22.3599987 31.1253353,22.232 30.736,22.232 L30.736,23.624 L31.04,23.672 C31.5520026,23.7520004 31.9279988,23.9173321 32.168,24.168 C32.434668,24.434668 32.568,24.8186642 32.568,25.32 L32.568,25.32 Z M30.144,23.576 L30.144,22.24 C29.6799977,22.3040003 29.448,22.5386646 29.448,22.944 C29.448,23.3013351 29.6799977,23.5119997 30.144,23.576 L30.144,23.576 Z M31.48,25.352 C31.48,25.1226655 31.4106674,24.9546672 31.272,24.848 C31.1653328,24.7679996 30.9866679,24.7066669 30.736,24.664 L30.736,26.04 C31.2320025,25.981333 31.48,25.752002 31.48,25.352 L31.48,25.352 Z M37.52,25.32 C37.52,25.8106691 37.3520017,26.2053318 37.016,26.504 C36.7119985,26.7813347 36.3066692,26.9519997 35.8,27.016 L35.8,27.912 L34.992,27.912 L34.992,27.048 C34.2346629,27.048 33.6053358,26.7973358 33.104,26.296 L33.824,25.576 C34.1440016,25.8960016 34.5679974,26.056 35.096,26.056 L35.096,24.608 L34.84,24.576 C33.831995,24.4479994 33.328,23.917338 33.328,22.984 C33.328,22.4933309 33.4853318,22.0960015 33.8,21.792 C34.0986682,21.4986652 34.4959975,21.3253336 34.992,21.272 L34.992,20.552 L35.8,20.552 L35.8,21.264 C36.4026697,21.264 36.9279978,21.4826645 37.376,21.92 L36.672,22.616 C36.405332,22.3599987 36.0773353,22.232 35.688,22.232 L35.688,23.624 L35.992,23.672 C36.5040026,23.7520004 36.8799988,23.9173321 37.12,24.168 C37.386668,24.434668 37.52,24.8186642 37.52,25.32 L37.52,25.32 Z M35.096,23.576 L35.096,22.24 C34.6319977,22.3040003 34.4,22.5386646 34.4,22.944 C34.4,23.3013351 34.6319977,23.5119997 35.096,23.576 L35.096,23.576 Z M36.432,25.352 C36.432,25.1226655 36.3626674,24.9546672 36.224,24.848 C36.1173328,24.7679996 35.9386679,24.7066669 35.688,24.664 L35.688,26.04 C36.1840025,25.981333 36.432,25.752002 36.432,25.352 L36.432,25.352 Z M42.472,25.32 C42.472,25.8106691 42.3040017,26.2053318 41.968,26.504 C41.6639985,26.7813347 41.2586692,26.9519997 40.752,27.016 L40.752,27.912 L39.944,27.912 L39.944,27.048 C39.1866629,27.048 38.5573358,26.7973358 38.056,26.296 L38.776,25.576 C39.0960016,25.8960016 39.5199974,26.056 40.048,26.056 L40.048,24.608 L39.792,24.576 C38.783995,24.4479994 38.28,23.917338 38.28,22.984 C38.28,22.4933309 38.4373318,22.0960015 38.752,21.792 C39.0506682,21.4986652 39.4479975,21.3253336 39.944,21.272 L39.944,20.552 L40.752,20.552 L40.752,21.264 C41.3546697,21.264 41.8799978,21.4826645 42.328,21.92 L41.624,22.616 C41.357332,22.3599987 41.0293353,22.232 40.64,22.232 L40.64,23.624 L40.944,23.672 C41.4560026,23.7520004 41.8319988,23.9173321 42.072,24.168 C42.338668,24.434668 42.472,24.8186642 42.472,25.32 L42.472,25.32 Z M40.048,23.576 L40.048,22.24 C39.5839977,22.3040003 39.352,22.5386646 39.352,22.944 C39.352,23.3013351 39.5839977,23.5119997 40.048,23.576 L40.048,23.576 Z M41.384,25.352 C41.384,25.1226655 41.3146674,24.9546672 41.176,24.848 C41.0693328,24.7679996 40.8906679,24.7066669 40.64,24.664 L40.64,26.04 C41.1360025,25.981333 41.384,25.752002 41.384,25.352 L41.384,25.352 Z" id="$$$" fill="#34BA26" sketch:type="MSShapeGroup"></path>
        </g>
    </g>
</svg>