<?xml version="1.0" encoding="UTF-8" standalone="no"?>
<svg width="60px" height="60px" viewBox="0 0 60 60" version="1.1" xmlns="http://www.w3.org/2000/svg" xmlns:xlink="http://www.w3.org/1999/xlink" xmlns:sketch="http://www.bohemiancoding.com/sketch/ns">
    <!-- Generator: Sketch 3.1.1 (8761) - http://www.bohemiancoding.com/sketch -->
    <title>favicon</title>
    <desc>Created with Sketch.</desc>
    <defs></defs>
    <g id="Welcome" stroke="none" stroke-width="1" fill="none" fill-rule="evenodd" sketch:type="MSPage">
        <g id="PROJECTS-DIGDOWN" sketch:type="MSArtboardGroup">
            <g id="favicon" sketch:type="MSLayerGroup">
                <rect id="Rectangle-2" fill="#092F3E" sketch:type="MSShapeGroup" x="0" y="0" width="60" height="60"></rect>
                <path d="M24.752,19.992 L24.752,36 L28.448,36 L28.448,29.688 L32.768,36 L37.28,36 L32.36,29.448 C33.248,29.232 34.04,28.752 34.592,28.224 C35.624,27.216 35.84,25.968 35.84,24.96 C35.84,23.184 35.12,22.032 34.448,21.384 C33.68,20.664 32.408,19.992 30.368,19.992 L24.752,19.992 Z M28.448,22.872 L29.312,22.872 C29.792,22.872 30.752,22.92 31.352,23.376 C31.664,23.616 32.096,24.096 32.096,25.008 C32.096,25.8 31.76,26.304 31.496,26.568 C30.872,27.192 29.96,27.264 29.288,27.264 L28.448,27.264 L28.448,22.872 Z" id="R-2" fill="#FFFFFF" sketch:type="MSShapeGroup"></path>
            </g>
        </g>
    </g>
</svg>