<?xml version="1.0" encoding="UTF-8" standalone="no"?>
<svg width="90px" height="90px" viewBox="0 0 90 90" version="1.1" xmlns="http://www.w3.org/2000/svg" xmlns:xlink="http://www.w3.org/1999/xlink" xmlns:sketch="http://www.bohemiancoding.com/sketch/ns">
    <!-- Generator: Sketch 3.1.1 (8761) - http://www.bohemiancoding.com/sketch -->
    <title>rfq</title>
    <desc>Created with Sketch.</desc>
    <defs></defs>
    <g id="Illustrations" stroke="none" stroke-width="1" fill="none" fill-rule="evenodd" sketch:type="MSPage">
        <g id="rfq" sketch:type="MSArtboardGroup">
            <g id="cooperative" sketch:type="MSLayerGroup" transform="translate(22.000000, 14.000000)">
                <rect id="Rectangle-22" stroke="#90ACF3" stroke-width="2" fill="#FFFFFF" sketch:type="MSShapeGroup" x="0" y="0" width="46" height="60"></rect>
                <rect id="Rectangle-29" stroke="#DAE3FB" stroke-width="2" fill="#FFFFFF" sketch:type="MSShapeGroup" x="2" y="2" width="42" height="56"></rect>
                <rect id="Rectangle-23" sketch:type="MSShapeGroup" x="6" y="6" width="9" height="9"></rect>
                <rect id="Rectangle-24" fill="#373C3E" sketch:type="MSShapeGroup" x="23" y="8" width="12" height="1"></rect>
                <rect id="Rectangle-24" fill="#373C3E" sketch:type="MSShapeGroup" x="6" y="19" width="16.5" height="1"></rect>
                <rect id="Rectangle-24" fill="#373C3E" sketch:type="MSShapeGroup" x="6" y="27" width="12" height="1"></rect>
                <rect id="Rectangle-24" fill="#373C3E" sketch:type="MSShapeGroup" x="32" y="19" width="3" height="1"></rect>
                <rect id="Rectangle-24" fill="#373C3E" sketch:type="MSShapeGroup" x="32" y="27" width="3" height="1"></rect>
                <rect id="Rectangle-24" fill="#373C3E" sketch:type="MSShapeGroup" x="26" y="12" width="9" height="1"></rect>
                <rect id="Rectangle-24" fill="#373C3E" sketch:type="MSShapeGroup" x="6" y="23" width="11" height="1"></rect>
                <rect id="Rectangle-24" fill="#373C3E" sketch:type="MSShapeGroup" x="6" y="31" width="16.5" height="1"></rect>
                <rect id="Rectangle-24" fill="#373C3E" sketch:type="MSShapeGroup" x="32" y="23" width="3" height="1"></rect>
                <rect id="Rectangle-24" fill="#373C3E" sketch:type="MSShapeGroup" x="30" y="31" width="5" height="1"></rect>
                <rect id="Rectangle-28" fill="#373C3E" sketch:type="MSShapeGroup" x="6" y="35" width="9" height="1"></rect>
                <rect id="Rectangle-27" fill="#373C3E" sketch:type="MSShapeGroup" x="32" y="35" width="3" height="1"></rect>
                <rect id="Rectangle-26" fill="#373C3E" sketch:type="MSShapeGroup" x="6" y="39" width="9" height="1"></rect>
                <rect id="Rectangle-25" fill="#373C3E" sketch:type="MSShapeGroup" x="32" y="39" width="3" height="1"></rect>
                <rect id="Rectangle-30" fill="#373C3E" sketch:type="MSShapeGroup" x="32" y="46" width="3" height="2"></rect>
                <rect id="Rectangle-31" fill="#373C3E" sketch:type="MSShapeGroup" x="6" y="46" width="9" height="2"></rect>
                <ellipse id="Oval-125" stroke-opacity="0.898777187" stroke="#EE5334" sketch:type="MSShapeGroup" transform="translate(32.899014, 46.945281) rotate(-15.000000) translate(-32.899014, -46.945281) " cx="32.8990143" cy="46.9452805" rx="6.23273402" ry="3.44539709"></ellipse>
            </g>
            <text id="RFQ" sketch:type="MSTextLayer" font-family="DINbek Bold" font-size="8" font-weight="bold" fill="#5883ED">
                <tspan x="28" y="27">RFQ</tspan>
            </text>
            <g id="ADD-2" sketch:type="MSLayerGroup" transform="translate(59.000000, 7.000000)">
                <circle id="Oval-287" stroke="#373D3E" stroke-width="2" fill="#FFFFFF" sketch:type="MSShapeGroup" cx="9" cy="9" r="9"></circle>
                <g id="Rectangle-144-+-Rectangle-146" transform="translate(9.000000, 9.000000) rotate(-270.000000) translate(-9.000000, -9.000000) translate(5.000000, 5.000000)" fill="#373D3E" sketch:type="MSShapeGroup">
                    <rect id="Rectangle-144" transform="translate(4.000000, 4.000000) rotate(-90.000000) translate(-4.000000, -4.000000) " x="3" y="0" width="2" height="8"></rect>
                    <rect id="Rectangle-145" transform="translate(4.000000, 4.000000) rotate(-180.000000) translate(-4.000000, -4.000000) " x="3" y="0" width="2" height="8"></rect>
                </g>
            </g>
        </g>
    </g>
</svg>