<?xml version="1.0" encoding="UTF-8" standalone="no"?>
<svg width="20px" height="20px" viewBox="0 0 20 20" version="1.1" xmlns="http://www.w3.org/2000/svg" xmlns:xlink="http://www.w3.org/1999/xlink" xmlns:sketch="http://www.bohemiancoding.com/sketch/ns">
    <!-- Generator: Sketch 3.1.1 (8761) - http://www.bohemiancoding.com/sketch -->
    <title>cloud 2</title>
    <desc>Created with Sketch.</desc>
    <defs></defs>
    <g id="Illustrations" stroke="none" stroke-width="1" fill="none" fill-rule="evenodd" sketch:type="MSPage">
        <g id="cloud-2" sketch:type="MSArtboardGroup" fill="#373C3E">
            <path d="M4,14.9499909 C2.85887984,14.7183558 2,13.709479 2,12.5 C2,11.2283779 2.94940593,10.1785013 4.17804977,10.0205385 C4.06282089,9.70197353 4,9.35832307 4,9 C4,7.34314575 5.34314575,6 7,6 C7.64248858,6 8.2378047,6.2019693 8.72592184,6.54588137 C9.40813226,6.19687676 10.1810746,6 11,6 C13.4305639,6 15.4560644,7.7342826 15.9065426,10.0328889 L15.9065426,10.0328889 C17.0939005,10.2270676 18,11.2577184 18,12.5 C18,13.709479 17.1411202,14.7183558 16,14.9499909 L16,15 L14.0004875,15 C13.1647434,15.6279105 12.1258248,16 11,16 C9.87417521,16 8.83525658,15.6279105 7.99951255,15 L4,15 L4,14.9499909 Z" id="cloud" sketch:type="MSShapeGroup"></path>
        </g>
    </g>
</svg>