<?xml version="1.0" encoding="UTF-8" standalone="no"?>
<svg width="90px" height="90px" viewBox="0 0 90 90" version="1.1" xmlns="http://www.w3.org/2000/svg" xmlns:xlink="http://www.w3.org/1999/xlink" xmlns:sketch="http://www.bohemiancoding.com/sketch/ns">
    <!-- Generator: Sketch 3.1 (8751) - http://www.bohemiancoding.com/sketch -->
    <title>help</title>
    <desc>Created with Sketch.</desc>
    <defs></defs>
    <g id="Illustrations" stroke="none" stroke-width="1" fill="none" fill-rule="evenodd" sketch:type="MSPage">
        <g id="help" sketch:type="MSArtboardGroup">
            <g id="wrench" sketch:type="MSLayerGroup" transform="translate(44.000000, 45.000000) rotate(-315.000000) translate(-44.000000, -45.000000) translate(33.000000, 15.000000)">
                <rect id="Rectangle-49" stroke="#979797" fill="#FFFFFF" sketch:type="MSShapeGroup" x="7" y="15" width="8" height="45"></rect>
                <rect id="Rectangle-50" stroke="#D8D8D8" fill="#FFFFFF" sketch:type="MSShapeGroup" x="8" y="15" width="6" height="44"></rect>
                <path d="M16,-0.113248654 L22.2583302,3.5 L22.2583302,16.5 L11,23 L-0.258330249,16.5 L-0.258330249,5.5 L6,0.774982529 L6,9 L16,6 L16,-0.113248654 Z" id="Polygon-1" stroke="#979797" fill="#FFFFFF" sketch:type="MSShapeGroup"></path>
                <path d="M16.980867,1.5637944 L21.3145826,4.06586627 L21.3145826,16.0761203 L11,22.0312473 L0.685417438,16.0761203 L0.685417438,5.99821305 L5.01913307,2.68425746 L5.01913307,10.3048199 L16.980867,6.75629975 L16.980867,1.5637944 Z" id="Polygon-2" stroke="#D8D8D8" fill="#FFFFFF" sketch:type="MSShapeGroup"></path>
                <rect id="Rectangle-51" stroke="#979797" fill="#D8D8D8" sketch:type="MSShapeGroup" x="7" y="12" width="2" height="4"></rect>
                <rect id="Rectangle-51" stroke="#979797" fill="#D8D8D8" sketch:type="MSShapeGroup" x="10" y="11" width="2" height="4"></rect>
                <rect id="Rectangle-52" stroke="#979797" fill="#D8D8D8" sketch:type="MSShapeGroup" x="13" y="10" width="2" height="4"></rect>
                <circle id="Oval-126" stroke="#979797" fill="#D8D8D8" sketch:type="MSShapeGroup" cx="11" cy="54" r="2"></circle>
                <circle id="Oval-127" stroke="#D8D8D8" fill="#FFFFFF" sketch:type="MSShapeGroup" cx="11" cy="54" r="1"></circle>
            </g>
        </g>
    </g>
</svg>