<?xml version="1.0" encoding="UTF-8" standalone="no"?>
<svg width="90px" height="90px" viewBox="0 0 90 90" version="1.1" xmlns="http://www.w3.org/2000/svg" xmlns:xlink="http://www.w3.org/1999/xlink" xmlns:sketch="http://www.bohemiancoding.com/sketch/ns">
    <!-- Generator: Sketch 3.1.1 (8761) - http://www.bohemiancoding.com/sketch -->
    <title>keys</title>
    <desc>Created with Sketch.</desc>
    <defs></defs>
    <g id="Illustrations" stroke="none" stroke-width="1" fill="none" fill-rule="evenodd" sketch:type="MSPage">
        <g id="keys" sketch:type="MSArtboardGroup">
            <g id="key" sketch:type="MSLayerGroup" transform="translate(40.500000, 50.500000) scale(-1, 1) rotate(-267.000000) translate(-40.500000, -50.500000) translate(4.000000, 35.000000)">
                <path d="M60.8284271,22 L67.8181818,22 L73,15.5 L67.8181818,7 L28.4635744,7 C25.6934558,2.78377682 20.9218209,5.68434189e-14 15.5,5.68434189e-14 C6.93958638,5.68434189e-14 7.10542736e-15,6.93958638 7.10542736e-15,15.5 C7.10542736e-15,24.0604136 6.93958638,31 15.5,31 C21.739232,31 27.1174514,27.3135669 29.5753624,22 L30.7573593,22 L33,24.2426407 L34.5,22.7426407 L37,25.2426407 L40.2426407,22 L40.2426407,22 L40.4644661,22 L40.4644661,22 L42.5,24.0355339 L44.5,22.0355339 L46.5,24.0355339 L48,22.5355339 L51.5,26.0355339 L54.8535534,22.6819805 L56,23.8284271 L57.5,22.3284271 L59,23.8284271 L60.8284271,22 Z" id="Oval-265" stroke="#9B9B9B" stroke-width="2" fill="#FFFFFF" sketch:type="MSShapeGroup"></path>
                <path d="M64.4490345,13.5537064 L29.4490345,13.5537064" id="Line" stroke="#9B9B9B" stroke-linecap="square" sketch:type="MSShapeGroup"></path>
                <circle id="Oval-265" stroke="#9B9B9B" fill="#FFFFFF" sketch:type="MSShapeGroup" cx="8.5" cy="14.5" r="3.5"></circle>
                <rect id="Rectangle-116" fill="#373C3E" sketch:type="MSShapeGroup" x="16" y="8" width="3" height="15"></rect>
            </g>
            <g id="key" sketch:type="MSLayerGroup" transform="translate(50.500000, 49.500000) rotate(-285.000000) translate(-50.500000, -49.500000) translate(14.000000, 34.000000)">
                <path d="M60.8284271,22 L67.8181818,22 L73,15.5 L67.8181818,7 L28.4635744,7 C25.6934558,2.78377682 20.9218209,4.26325641e-14 15.5,4.26325641e-14 C6.93958638,4.26325641e-14 -7.10542736e-15,6.93958638 -7.10542736e-15,15.5 C-7.10542736e-15,24.0604136 6.93958638,31 15.5,31 C21.739232,31 27.1174514,27.3135669 29.5753624,22 L31.4644661,22 L33.9659258,24.5014597 L35.4659258,23.0014597 L37.9659258,25.5014597 L41.3194792,22.1479063 L43.4659258,24.294353 L45.1123724,22.6479063 L46.5,24.0355339 L48,22.5355339 L51.5,26.0355339 L54.8535534,22.6819805 L56,23.8284271 L57.5,22.3284271 L59,23.8284271 L60.8284271,22 Z" id="Oval-265" stroke="#9B9B9B" stroke-width="2" fill="#FFFFFF" sketch:type="MSShapeGroup"></path>
                <path d="M65.5,14.5 L30.5,14.5" id="Line" stroke="#9B9B9B" stroke-linecap="square" sketch:type="MSShapeGroup"></path>
                <circle id="Oval-265" stroke="#9B9B9B" fill="#FFFFFF" sketch:type="MSShapeGroup" cx="8.5" cy="14.5" r="3.5"></circle>
                <rect id="Rectangle-116" fill="#9B9B9B" sketch:type="MSShapeGroup" x="16" y="8" width="1" height="15"></rect>
            </g>
            <path d="M41.5,23 C43.9852814,23 46,18.9705627 46,14 C46,9.02943725 43.9852814,5 41.5,5 C39.0147186,5 37,9.02943725 37,14" id="Oval-267" stroke="#9B9B9B" stroke-linecap="square" sketch:type="MSShapeGroup"></path>
        </g>
    </g>
</svg>