<?xml version="1.0" encoding="UTF-8" standalone="no"?>
<svg width="14px" height="14px" viewBox="0 0 14 14" version="1.1" xmlns="http://www.w3.org/2000/svg" xmlns:xlink="http://www.w3.org/1999/xlink" xmlns:sketch="http://www.bohemiancoding.com/sketch/ns">
    <!-- Generator: Sketch 3.3.2 (12043) - http://www.bohemiancoding.com/sketch -->
    <title>alias</title>
    <desc>Created with Sketch.</desc>
    <defs></defs>
    <g id="Illustrations" stroke="none" stroke-width="1" fill="none" fill-rule="evenodd" sketch:type="MSPage">
        <g id="alias" sketch:type="MSArtboardGroup" fill="#6FC99B">
            <path d="M9.82206588,7.59214768 C11.0039016,8.11339424 12.0143121,8.95200728 12.7453107,10 L12.7453107,10 C11.4803646,11.8134841 9.37874511,13 7,13 C4.62125489,13 2.51963541,11.8134841 1.25468928,10 C1.98568788,8.95200728 2.99609843,8.11339424 4.17793412,7.59214768 L6,9.41421356 L7,8.41421356 L8,9.41421356 L9.82206588,7.59214768 L9.82206588,7.59214768 Z M6.70000001,11.7 L7.3,11.7 L7.3,12.3 L6.70000001,12.3 L6.70000001,11.7 Z M6.7,10.6 L7.3,10.6 L7.3,11.2 L6.7,11.2 L6.7,10.6 Z M6.7,9.5 L7.3,9.5 L7.3,10.1 L6.7,10.1 L6.7,9.5 Z M7,7 C8.65685425,7 10,5.65685425 10,4 C10,2.34314575 8.65685425,1 7,1 C5.34314575,1 4,2.34314575 4,4 C4,5.65685425 5.34314575,7 7,7 Z" id="Oval-19" sketch:type="MSShapeGroup"></path>
        </g>
    </g>
</svg>