<?xml version="1.0" encoding="UTF-8" standalone="no"?>
<svg width="40px" height="40px" viewBox="0 0 40 40" version="1.1" xmlns="http://www.w3.org/2000/svg" xmlns:xlink="http://www.w3.org/1999/xlink" xmlns:sketch="http://www.bohemiancoding.com/sketch/ns">
    <!-- Generator: Sketch 3.1 (8751) - http://www.bohemiancoding.com/sketch -->
    <title>secure</title>
    <desc>Created with Sketch.</desc>
    <defs></defs>
    <g id="Illustrations" stroke="none" stroke-width="1" fill="none" fill-rule="evenodd" sketch:type="MSPage">
        <g id="secure" sketch:type="MSArtboardGroup">
            <path d="M12,12.0058601 L12,32 L12,33 L13,33 L27,33 L28,33 L28,32 L28,12.0058601 C28,7.58707632 24.413142,4 20,4 C15.5816027,4 12,7.5846756 12,12.0058601 Z M26,12.0058601 L26,32 L27,31 L13,31 L14,32 L14,12.0058601 C14,8.68886132 16.6865563,6 20,6 C23.3085452,6 26,8.69161857 26,12.0058601 Z" id="Rectangle-60" fill="#6FC9B7" sketch:type="MSShapeGroup"></path>
            <rect id="Rectangle-57" stroke="#6FC9B7" stroke-width="2" fill="#FFFFFF" sketch:type="MSShapeGroup" x="6" y="19" width="28" height="16"></rect>
            <rect id="Rectangle-60" stroke="#C4E9E1" stroke-width="2" fill="#FFFFFF" sketch:type="MSShapeGroup" x="8" y="21" width="24" height="12"></rect>
        </g>
    </g>
</svg>