<?xml version="1.0" encoding="UTF-8" standalone="no"?>
<svg width="20px" height="20px" viewBox="0 0 20 20" version="1.1" xmlns="http://www.w3.org/2000/svg" xmlns:xlink="http://www.w3.org/1999/xlink" xmlns:sketch="http://www.bohemiancoding.com/sketch/ns">
    <!-- Generator: Sketch 3.2.2 (9983) - http://www.bohemiancoding.com/sketch -->
    <title>equipment</title>
    <desc>Created with Sketch.</desc>
    <defs></defs>
    <g id="Illustrations" stroke="none" stroke-width="1" fill="none" fill-rule="evenodd" sketch:type="MSPage">
        <g id="equipment" sketch:type="MSArtboardGroup">
            <circle id="Oval-281" stroke="#FFFFFF" fill="#FFFFFF" sketch:type="MSShapeGroup" cx="10" cy="10" r="3"></circle>
            <circle id="Oval-458" stroke="#979797" fill="#FFFFFF" sketch:type="MSShapeGroup" cx="10" cy="10" r="8"></circle>
            <circle id="Oval-459" stroke="#979797" fill="#FFFFFF" sketch:type="MSShapeGroup" cx="10" cy="10" r="6"></circle>
            <circle id="Oval-462" stroke="#979797" fill="#FFFFFF" sketch:type="MSShapeGroup" cx="10" cy="10" r="4"></circle>
            <circle id="Oval-460" stroke="#979797" fill="#D8D8D8" sketch:type="MSShapeGroup" cx="10" cy="10" r="2"></circle>
            <g id="fanblades" sketch:type="MSLayerGroup" transform="translate(9.383975, 9.066987) rotate(-330.000000) translate(-9.383975, -9.066987) translate(-0.616025, -0.433013)" stroke="#FFFFFF" fill="#FFFFFF">
                <g id="Rectangle-141-+-Rectangle-142" transform="translate(8.000000, 1.000000)" sketch:type="MSShapeGroup">
                    <path d="M2.74076767,-9.41469125e-14 C1.50543777,-9.41469125e-14 0.631270688,0.982010365 0.797616303,2.20098495 L2.1567234,10.0049735 C2.62466412,11.1067962 3.51066487,11.1751914 3.84433647,9.9914698 L5.20648129,2.20098495 C5.37079912,0.98541453 4.51616593,-9.41469125e-14 3.26724239,-9.41469125e-14 L2.74076767,-9.41469125e-14 Z" id="Rectangle-141" transform="translate(3.002003, 5.427712) scale(-1, 1) translate(-3.002003, -5.427712) "></path>
                    <path d="M2.74099077,7.14457569 C1.50566088,7.14457569 0.631493798,8.12658605 0.797839411,9.34556064 L2.1569465,17.1495492 C2.62488722,18.2513719 3.51088797,18.3197671 3.84455956,17.1360455 L5.20670437,9.34556064 C5.3710222,8.12999022 4.50442063,7.14457569 3.26746548,7.14457569 L2.74099077,7.14457569 Z" id="Rectangle-142" transform="translate(3.002114, 12.572288) scale(-1, -1) translate(-3.002114, -12.572288) "></path>
                </g>
                <g id="Rectangle-144-+-Rectangle-143" transform="translate(10.500000, 10.500000) rotate(-270.000000) translate(-10.500000, -10.500000) translate(7.000000, 1.000000)" sketch:type="MSShapeGroup">
                    <path d="M3,-4.97379915e-14 C1.34314575,-4.97379915e-14 0.229326409,1.33005953 0.523044325,2.95089941 L1.87528084,9.29200322 C2.49644608,10.7875885 3.65115481,10.8710691 4.11799698,9.27701426 L5.47186294,2.95089941 C5.76354498,1.32116267 4.65348288,-4.97379915e-14 3,-4.97379915e-14 L3,-4.97379915e-14 Z" id="Rectangle-144" transform="translate(3.000000, 6.000000) scale(-1, 1) translate(-3.000000, -6.000000) "></path>
                    <path d="M3,6 C1.34314575,6 0.229326409,7.33005953 0.523044325,8.95089941 L1.87528084,15.2920032 C2.49644608,16.7875885 3.65115481,16.8710691 4.11799698,15.2770143 L5.47186294,8.95089941 C5.76354498,7.32116267 4.65348288,6 3,6 L3,6 Z" id="Rectangle-143" transform="translate(3.000000, 12.000000) scale(-1, -1) translate(-3.000000, -12.000000) "></path>
                </g>
            </g>
            <circle id="Oval-461" stroke="#979797" fill="#FFFFFF" sketch:type="MSShapeGroup" cx="10" cy="10" r="2"></circle>
            <circle id="Oval-463" stroke="#FFFFFF" fill="#979797" sketch:type="MSShapeGroup" cx="10" cy="10" r="1"></circle>
        </g>
    </g>
</svg>