<?xml version="1.0" encoding="UTF-8" standalone="no"?>
<svg width="20px" height="20px" viewBox="0 0 20 20" version="1.1" xmlns="http://www.w3.org/2000/svg" xmlns:xlink="http://www.w3.org/1999/xlink" xmlns:sketch="http://www.bohemiancoding.com/sketch/ns">
    <!-- Generator: Sketch 3.2.2 (9983) - http://www.bohemiancoding.com/sketch -->
    <title>tag 7</title>
    <desc>Created with Sketch.</desc>
    <defs></defs>
    <g id="Illustrations" stroke="none" stroke-width="1" fill="none" fill-rule="evenodd" sketch:type="MSPage">
        <g id="tag-7" sketch:type="MSArtboardGroup">
            <g id="street-icon" sketch:type="MSLayerGroup" transform="translate(2.000000, 2.000000)">
                <g sketch:type="MSShapeGroup">
                    <rect id="Rectangle-15" fill="#FFFFFF" x="0" y="0" width="16" height="16"></rect>
                    <path d="M0,16 L16,16 L16,0 L0,16 L0,16 Z" id="Rectangle-16" fill="#FFFFFF"></path>
                    <path d="M0,16 L0,14.9257333 L6.960194,8 L15,16 L0,16 L0,16 Z M16,14 L16,0 L14.8549254,0 L8,6.46041317 L16,14 L16,14 Z M0,12 L0,0 L12,0 L0,12 L0,12 Z" id="Rectangle-1" fill="#D8D8D8"></path>
                    <path d="M0,12 L0,0 L12,0 L0,12 L0,12 Z" id="Rectangle-3" fill="#D8D8D8"></path>
                    <path d="M16,14 L16,0 L14.8549254,0 L8,6.46041317 L16,14 L16,14 Z" id="Rectangle-2" fill="#D8D8D8"></path>
                    <path d="M8,13 C8,13 12,9.46785312 12,7.16666666 C12,4.86548021 10.209139,3 8,3 C5.790861,3 4,4.86548021 4,7.16666666 C4,9.46785312 8,13 8,13 L8,13 L8,13 Z" id="Oval-1" stroke="#FFFFFF" stroke-width="2" fill="#D8D8D8"></path>
                    <circle id="Oval-2" fill="#FFFFFF" cx="8" cy="7" r="1"></circle>
                </g>
            </g>
        </g>
    </g>
</svg>