<?xml version="1.0" encoding="UTF-8" standalone="no"?>
<svg width="34px" height="22px" viewBox="0 0 34 22" version="1.1" xmlns="http://www.w3.org/2000/svg" xmlns:xlink="http://www.w3.org/1999/xlink" xmlns:sketch="http://www.bohemiancoding.com/sketch/ns">
    <!-- Generator: Sketch 3.2.2 (9983) - http://www.bohemiancoding.com/sketch -->
    <title>proposal-not-ready 2</title>
    <desc>Created with Sketch.</desc>
    <defs></defs>
    <g id="Illustrations" stroke="none" stroke-width="1" fill="none" fill-rule="evenodd" sketch:type="MSPage">
        <g id="proposal-not-ready-2" sketch:type="MSArtboardGroup">
            <path d="M17,20 C25.2842712,20 32,11 32,11 C32,11 25.2842712,2 17,2 C8.7157288,2 2,11 2,11 C2,11 8.7157288,20 17,20 L17,20 Z" id="Oval-3" stroke="#FFFFFF" stroke-width="2" sketch:type="MSShapeGroup"></path>
            <circle id="Oval-4" stroke="#FFFFFF" stroke-width="2" sketch:type="MSShapeGroup" cx="17" cy="11" r="9"></circle>
            <circle id="Oval-5" fill="#FFFFFF" sketch:type="MSShapeGroup" cx="17" cy="11" r="6"></circle>
            <path d="M20.6790208,9.4274151 C20.8856222,9.9101262 21,10.4417059 21,11 C21,13.209139 19.209139,15 17,15 C14.790861,15 13,13.209139 13,11 C13,8.790861 14.790861,7 17,7 C17.5582941,7 18.0898738,7.1143778 18.5725849,7.3209792 C18.2238874,7.5956428 18,8.0216755 18,8.5 C18,9.3284271 18.6715729,10 19.5,10 C19.9783245,10 20.4043572,9.7761126 20.6790208,9.4274151 L20.6790208,9.4274151 Z" id="Oval-5" fill="#092F3E" sketch:type="MSShapeGroup"></path>
        </g>
    </g>
</svg>