<?xml version="1.0" encoding="UTF-8" standalone="no"?>
<svg width="240px" height="120px" viewBox="0 0 240 120" version="1.1" xmlns="http://www.w3.org/2000/svg" xmlns:xlink="http://www.w3.org/1999/xlink" xmlns:sketch="http://www.bohemiancoding.com/sketch/ns">
    <!-- Generator: Sketch 3.3.3 (12072) - http://www.bohemiancoding.com/sketch -->
    <title>facility-blank</title>
    <desc>Created with Sketch.</desc>
    <defs>
        <path d="M20,13 L58,13 L58,93 L20,93 L20,13 Z M37,0 L39,0 L39,13 L37,13 L37,0 Z M40,6 L42,6 L42,13 L40,13 L40,6 Z" id="path-1"></path>
    </defs>
    <g id="Page-1" stroke="none" stroke-width="1" fill="none" fill-rule="evenodd" sketch:type="MSPage">
        <g id="facility-blank" sketch:type="MSArtboardGroup">
            <g id="backdrop" sketch:type="MSLayerGroup" transform="translate(60.000000, 13.000000)">
                <rect id="Rectangle-21-Copy" fill="#ECEDF0" sketch:type="MSShapeGroup" x="0" y="26" width="18" height="67"></rect>
                <rect id="Rectangle-21-Copy-3" fill="#ECEDF0" sketch:type="MSShapeGroup" x="60" y="26" width="18" height="67"></rect>
                <g id="Rectangle-21-Copy-7-+-Rectangle-21-Copy-8-+-Rectangle-21-Copy-9" transform="translate(80.000000, 36.000000)" fill="#ECEDF0" sketch:type="MSShapeGroup">
                    <path d="M0,44 L0,31 L0,0 L20,0 L20,5 L20,5 L30,5 L30,9 L40,9 L40,57 L0,57 L0,44 Z" id="Rectangle-21-Copy-7"></path>
                </g>
                <g id="Rectangle-21-Copy-2">
                    <use fill="#ECEEF1" fill-rule="evenodd" sketch:type="MSShapeGroup" xlink:href="#path-1"></use>
                    <use fill="none" xlink:href="#path-1"></use>
                </g>
            </g>
            <g id="Group-+-Group" sketch:type="MSLayerGroup" transform="translate(74.000000, 57.000000)">
                <g id="Rectangle-2290-+-Rectangle-2294" transform="translate(36.000000, 4.000000)" sketch:type="MSShapeGroup">
                    <path d="M0,0 L2,0 L2,45 L0,45 L0,0 L0,0 Z M55,0 L57,0 L57,45 L55,45 L55,0 L55,0 Z M2,0 L55,0 L55,2 L2,2 L2,0 L2,0 Z M2,43 L55,43 L55,45 L2,45 L2,43 L2,43 Z" id="Rectangle-2290" fill="#C7CACD"></path>
                    <rect id="Rectangle-2294" fill="#FFFFFF" x="2" y="2" width="53" height="41"></rect>
                </g>
                <rect id="Rectangle-26" fill="#C7CACD" sketch:type="MSShapeGroup" x="42" y="15" width="30" height="2"></rect>
                <path d="M73.9459074,19 L72.0513167,13.3162278 L73,14 L71,14 L71.9486833,13.3162278 L70.0540926,19 L69.7207592,19 L69.2279241,18.3162278 L69.3333333,18 L74.6666667,18 L74.7720759,18.3162278 L74.2792408,19 L73.9459074,19 L73.9459074,19 Z" id="Path" fill="#93989C" sketch:type="MSShapeGroup"></path>
                <path d="M71,13 L73,13 L75,19 L69,19 L71,13 L71,13 Z" id="Path" fill="#C7CACD" sketch:type="MSShapeGroup"></path>
                <path d="M72,13.1999969 L70.3000031,17.9999999 L73.6999969,17.9999999 L72,13.1999969 Z" id="Path" fill="#F7F8FA" sketch:type="MSShapeGroup"></path>
                <rect id="Rectangle-32" fill="#C7CACD" sketch:type="MSShapeGroup" x="71" y="11" width="2" height="2"></rect>
                <rect id="Rectangle-33" fill="#C7CACD" sketch:type="MSShapeGroup" x="42" y="22" width="21" height="4"></rect>
                <rect id="Rectangle-33-Copy-11" fill="#E3E5EA" sketch:type="MSShapeGroup" x="42" y="26" width="21" height="21"></rect>
                <rect id="Rectangle-66" fill="#93989C" sketch:type="MSShapeGroup" x="79" y="0" width="1" height="49"></rect>
                <rect id="Rectangle-68" fill="#C7CACD" sketch:type="MSShapeGroup" x="79" y="44" width="6" height="1"></rect>
                <rect id="Rectangle-68-Copy" fill="#C7CACD" sketch:type="MSShapeGroup" x="79" y="41" width="6" height="1"></rect>
                <rect id="Rectangle-68-Copy-2" fill="#C7CACD" sketch:type="MSShapeGroup" x="79" y="38" width="6" height="1"></rect>
                <rect id="Rectangle-68-Copy-3" fill="#C7CACD" sketch:type="MSShapeGroup" x="79" y="35" width="6" height="1"></rect>
                <rect id="Rectangle-68-Copy-4" fill="#C7CACD" sketch:type="MSShapeGroup" x="79" y="32" width="6" height="1"></rect>
                <rect id="Rectangle-68-Copy-5" fill="#C7CACD" sketch:type="MSShapeGroup" x="79" y="29" width="6" height="1"></rect>
                <rect id="Rectangle-68-Copy-6" fill="#C7CACD" sketch:type="MSShapeGroup" x="79" y="26" width="6" height="1"></rect>
                <rect id="Rectangle-68-Copy-7" fill="#C7CACD" sketch:type="MSShapeGroup" x="79" y="23" width="6" height="1"></rect>
                <rect id="Rectangle-68-Copy-8" fill="#C7CACD" sketch:type="MSShapeGroup" x="79" y="20" width="6" height="1"></rect>
                <rect id="Rectangle-68-Copy-9" fill="#C7CACD" sketch:type="MSShapeGroup" x="79" y="17" width="6" height="1"></rect>
                <rect id="Rectangle-68-Copy-10" fill="#C7CACD" sketch:type="MSShapeGroup" x="79" y="14" width="6" height="1"></rect>
                <rect id="Rectangle-68-Copy-11" fill="#C7CACD" sketch:type="MSShapeGroup" x="79" y="11" width="6" height="1"></rect>
                <rect id="Rectangle-68-Copy-12" fill="#C7CACD" sketch:type="MSShapeGroup" x="79" y="8" width="6" height="1"></rect>
                <rect id="Rectangle-68-Copy-13" fill="#C7CACD" sketch:type="MSShapeGroup" x="79" y="5" width="6" height="1"></rect>
                <rect id="Rectangle-68-Copy-14" fill="#C7CACD" sketch:type="MSShapeGroup" x="79" y="2" width="6" height="1"></rect>
                <rect id="Rectangle-66-Copy" fill="#93989C" sketch:type="MSShapeGroup" x="85" y="0" width="1" height="49"></rect>
                <rect id="Rectangle-1793-Copy" fill="#C7CACD" sketch:type="MSShapeGroup" x="42" y="27" width="21" height="1"></rect>
                <rect id="Rectangle-1793-Copy-2" fill="#C7CACD" sketch:type="MSShapeGroup" x="42" y="29" width="21" height="1"></rect>
                <rect id="Rectangle-1793-Copy-3" fill="#C7CACD" sketch:type="MSShapeGroup" x="42" y="31" width="21" height="1"></rect>
                <rect id="Rectangle-1793-Copy-4" fill="#C7CACD" sketch:type="MSShapeGroup" x="42" y="33" width="21" height="1"></rect>
                <rect id="Rectangle-1793-Copy-5" fill="#C7CACD" sketch:type="MSShapeGroup" x="42" y="35" width="21" height="1"></rect>
                <rect id="Rectangle-1793-Copy-6" fill="#C7CACD" sketch:type="MSShapeGroup" x="42" y="37" width="21" height="1"></rect>
                <rect id="Rectangle-1793-Copy-7" fill="#C7CACD" sketch:type="MSShapeGroup" x="42" y="39" width="21" height="1"></rect>
                <rect id="Rectangle-1793-Copy-8" fill="#C7CACD" sketch:type="MSShapeGroup" x="42" y="41" width="21" height="1"></rect>
                <rect id="Rectangle-1793-Copy-9" fill="#C7CACD" sketch:type="MSShapeGroup" x="42" y="43" width="21" height="1"></rect>
                <rect id="Rectangle-1793-Copy-10" fill="#C7CACD" sketch:type="MSShapeGroup" x="42" y="45" width="21" height="1"></rect>
                <path d="M69,19 L75,19 L84,47 L60,47 L69,19 Z" id="Rectangle-31" fill-opacity="0.599382926" fill="#C7CACD" sketch:type="MSShapeGroup"></path>
                <g id="Group" transform="translate(0.000000, 15.000000)" sketch:type="MSShapeGroup">
                    <path d="M0,0 L2,0 L2,34 L0,34 L0,0 L0,0 Z M36,0 L38,0 L38,34 L36,34 L36,0 L36,0 Z M2,0 L36,0 L36,2 L2,2 L2,0 L2,0 Z M2,32 L36,32 L36,34 L2,34 L2,32 L2,32 Z" id="Rectangle-2290" fill="#C7CACD"></path>
                    <rect id="Rectangle-2293" fill="#FFFFFF" x="2" y="2" width="34" height="30"></rect>
                    <path d="M17,17 L16,17 L16,32 L18,32 L18,19 L24,19 L24,32 L26,32 L26,18 L26,17 L17,17 Z" id="Rectangle-1804" fill="#C7CACD"></path>
                    <rect id="Rectangle-1807" fill="#93989C" x="22" y="23" width="1" height="4"></rect>
                </g>
            </g>
        </g>
    </g>
</svg>