<?xml version="1.0" encoding="UTF-8" standalone="no"?>
<svg width="148px" height="148px" viewBox="0 0 148 148" version="1.1" xmlns="http://www.w3.org/2000/svg" xmlns:xlink="http://www.w3.org/1999/xlink" xmlns:sketch="http://www.bohemiancoding.com/sketch/ns">
    <!-- Generator: Sketch 3.2.2 (9983) - http://www.bohemiancoding.com/sketch -->
    <title>Group</title>
    <desc>Created with Sketch.</desc>
    <defs></defs>
    <g id="Illustrations" stroke="none" stroke-width="1" fill="none" fill-rule="evenodd" sketch:type="MSPage">
        <g id="equipment-2" sketch:type="MSArtboardGroup" transform="translate(-15.000000, -14.000000)">
            <g id="Group" sketch:type="MSLayerGroup" transform="translate(1.000000, 2.000000)">
                <path d="M162,86 C162,45.1309285 128.869071,12 88,12 C47.1309285,12 14,45.1309285 14,86 C14,126.869071 47.1309285,160 88,160 C128.869071,160 162,126.869071 162,86 Z" id="Oval-2" fill="#FFFFFF" sketch:type="MSShapeGroup"></path>
                <g id="time-saver" transform="translate(20.000000, 18.000000)"></g>
                <g id="wind" transform="translate(34.000000, 56.000000)" fill="#979797" sketch:type="MSShapeGroup">
                    <path d="M0.111552108,30 L2.11155211,30 C2.11155211,19.5827559 5.1863913,9.62609779 10.8592684,1.15797039 L9.1976587,0.0448426683 C3.30585541,8.83976988 0.111552108,19.1832656 0.111552108,30 Z" id="Oval-4"></path>
                    <path d="M6.6660988,21.7428755 L8.63413764,22.0989979 C9.63165367,16.5864256 11.6137523,11.3372065 14.4693692,6.56689572 L12.7533416,5.53964244 C9.77461808,10.515603 7.70673572,15.9920043 6.6660988,21.7428755 Z" id="Oval-5"></path>
                    <path d="M14.620143,12.8748693 L16.4539054,13.6731897 C17.0730867,12.2509144 17.7712253,10.8650123 18.5446449,9.52148714 L16.8113302,8.52367956 C16.000795,9.93167913 15.2691105,11.3841745 14.620143,12.8748693 Z" id="Oval-6"></path>
                </g>
                <g id="wind-2" transform="translate(132.000000, 100.000000) scale(-1, -1) translate(-132.000000, -100.000000) translate(122.000000, 84.000000)" fill="#979797" sketch:type="MSShapeGroup">
                    <path d="M0.111552108,30 L2.11155211,30 C2.11155211,19.5827559 5.1863913,9.62609779 10.8592684,1.15797039 L9.1976587,0.0448426683 C3.30585541,8.83976988 0.111552108,19.1832656 0.111552108,30 Z" id="Oval-4"></path>
                    <path d="M6.6660988,21.7428755 L8.63413764,22.0989979 C9.63165367,16.5864256 11.6137523,11.3372065 14.4693692,6.56689572 L12.7533416,5.53964244 C9.77461808,10.515603 7.70673572,15.9920043 6.6660988,21.7428755 Z" id="Oval-5"></path>
                    <path d="M14.620143,12.8748693 L16.4539054,13.6731897 C17.0730867,12.2509144 17.7712253,10.8650123 18.5446449,9.52148714 L16.8113302,8.52367956 C16.000795,9.93167913 15.2691105,11.3841745 14.620143,12.8748693 Z" id="Oval-6"></path>
                </g>
                <g id="fan-wheel" transform="translate(86.596328, 85.827651) rotate(-308.000000) translate(-86.596328, -85.827651) translate(25.596328, 24.827651)" sketch:type="MSShapeGroup">
                    <g id="blades" transform="translate(48.000000, 0.000000)">
                        <path d="M19.6882336,2 L2,2 L2,44 L21.1141419,44 C22.0744457,44 26,39.9930053 26,38.9985111 L26,11.7400219 L19.6882336,2 Z" id="Rectangle-343" stroke="#979797" fill="#FFFFFF"></path>
                        <path d="M19.6882336,76 L2,76 L2,118 L21.1141419,118 C22.0744457,118 26,113.993005 26,112.998511 L26,85.7400219 L19.6882336,76 Z" id="Rectangle-345" stroke="#979797" fill="#FFFFFF" transform="translate(14.000000, 97.000000) scale(-1, 1) translate(-14.000000, -97.000000) "></path>
                        <path d="M26,77 L25,76 L25,118 L26,117 L6.88585808,117 C6.47974152,117 3,113.442432 3,112.998511 L3,85.7400219 L2.83920059,86.2838439 L9.15096702,76.543822 L8.31176642,77 L26,77 Z M7.76818005,75 L7.47256583,75.456178 L1.16079941,85.1961999 L1,85.444338 L1,85.7400219 L1,112.998511 C1,114.537222 5.36514963,119 6.88585808,119 L26,119 L27,119 L27,118 L27,76 L27,75 L26,75 L8.31176642,75 L7.76818005,75 Z" id="Rectangle-346" fill="#979797"></path>
                        <path d="M2,1 L1,1 L1,2 L1,44 L1,45 L2,45 L21.1141419,45 C22.6348504,45 27,40.5372218 27,38.9985111 L27,11.7400219 L27,11.444338 L26.8392006,11.1961999 L20.5274342,1.45617801 L20.2318199,1 L19.6882336,1 L2,1 Z M18.849033,2.54382199 L25.1607994,12.2838439 L25,11.7400219 L25,38.9985111 C25,39.4424325 21.5202585,43 21.1141419,43 L2,43 L3,44 L3,2 L2,3 L19.6882336,3 L18.849033,2.54382199 Z" id="Rectangle-347" fill="#979797"></path>
                    </g>
                    <g id="blades-2" transform="translate(62.000000, 60.000000) rotate(-270.000000) translate(-62.000000, -60.000000) translate(48.000000, 0.000000)">
                        <path d="M19.6882336,2 L2,2 L2,44 L21.1141419,44 C22.0744457,44 26,39.9930053 26,38.9985111 L26,11.7400219 L19.6882336,2 Z" id="Rectangle-343" stroke="#979797" fill="#FFFFFF"></path>
                        <path d="M19.6882336,76 L2,76 L2,118 L21.1141419,118 C22.0744457,118 26,113.993005 26,112.998511 L26,85.7400219 L19.6882336,76 Z" id="Rectangle-345" stroke="#979797" fill="#FFFFFF" transform="translate(14.000000, 97.000000) scale(-1, 1) translate(-14.000000, -97.000000) "></path>
                        <path d="M2,1 L1,1 L1,2 L1,44 L1,45 L2,45 L21.1141419,45 C22.6348504,45 27,40.5372218 27,38.9985111 L27,11.7400219 L27,11.444338 L26.8392006,11.1961999 L20.5274342,1.45617801 L20.2318199,1 L19.6882336,1 L2,1 Z M18.849033,2.54382199 L25.1607994,12.2838439 L25,11.7400219 L25,38.9985111 C25,39.4424325 21.5202585,43 21.1141419,43 L2,43 L3,44 L3,2 L2,3 L19.6882336,3 L18.849033,2.54382199 Z" id="Rectangle-349" fill="#979797"></path>
                        <path d="M26,77 L25,76 L25,118 L26,117 L6.88585808,117 C6.47974152,117 3,113.442432 3,112.998511 L3,85.7400219 L2.83920059,86.2838439 L9.15096702,76.543822 L8.31176642,77 L26,77 Z M7.76818005,75 L7.47256583,75.456178 L1.16079941,85.1961999 L1,85.444338 L1,85.7400219 L1,112.998511 C1,114.537222 5.36514963,119 6.88585808,119 L26,119 L27,119 L27,118 L27,76 L27,75 L26,75 L8.31176642,75 L7.76818005,75 Z" id="Rectangle-348" fill="#979797"></path>
                    </g>
                    <path d="M56,54 L56,30 L68,30 L68,54 L92,54 L92,66 L68,66 L68,90 L56,90 L56,66 L32,66 L32,54 L56,54 Z" id="Rectangle-344" stroke="#979797" fill="#D8D8D8"></path>
                    <g id="blade-bolts" transform="translate(58.000000, 32.000000)" fill="#979797">
                        <circle id="Oval-319" cx="1" cy="3" r="1"></circle>
                        <circle id="Oval-320" cx="7" cy="3" r="1"></circle>
                        <circle id="Oval-322" cx="1" cy="7" r="1"></circle>
                        <circle id="Oval-321" cx="7" cy="7" r="1"></circle>
                    </g>
                    <g id="blade-bolts-2" transform="translate(58.000000, 80.000000)" fill="#979797">
                        <circle id="Oval-319" cx="1" cy="1" r="1"></circle>
                        <circle id="Oval-320" cx="7" cy="1" r="1"></circle>
                        <circle id="Oval-322" cx="1" cy="5" r="1"></circle>
                        <circle id="Oval-321" cx="7" cy="5" r="1"></circle>
                    </g>
                    <g id="blade-bolts-4-+-blade-bolts-3" transform="translate(62.000000, 60.000000) rotate(-90.000000) translate(-62.000000, -60.000000) translate(58.000000, 34.000000)" fill="#979797">
                        <g id="blade-bolts-4">
                            <circle id="Oval-319" cx="1" cy="1" r="1"></circle>
                            <circle id="Oval-320" cx="7" cy="1" r="1"></circle>
                            <circle id="Oval-322" cx="1" cy="5" r="1"></circle>
                            <circle id="Oval-321" cx="7" cy="5" r="1"></circle>
                        </g>
                        <g id="blade-bolts-3" transform="translate(0.000000, 46.000000)">
                            <circle id="Oval-319" cx="1" cy="1" r="1"></circle>
                            <circle id="Oval-320" cx="7" cy="1" r="1"></circle>
                            <circle id="Oval-322" cx="1" cy="5" r="1"></circle>
                            <circle id="Oval-321" cx="7" cy="5" r="1"></circle>
                        </g>
                    </g>
                    <path d="M57,30 L56,31 L68,31 L67,30 L67,54 L67,55 L68,55 L92,55 L91,54 L91,66 L92,65 L68,65 L67,65 L67,66 L67,90 L68,89 L56,89 L57,90 L57,66 L57,65 L56,65 L32,65 L33,66 L33,54 L32,55 L56,55 L57,55 L57,54 L57,30 Z M56,53 L32,53 L31,53 L31,54 L31,66 L31,67 L32,67 L56,67 L55,66 L55,90 L55,91 L56,91 L68,91 L69,91 L69,90 L69,66 L68,67 L92,67 L93,67 L93,66 L93,54 L93,53 L92,53 L68,53 L69,54 L69,30 L69,29 L68,29 L56,29 L55,29 L55,30 L55,54 L56,53 Z" id="Rectangle-350" fill="#979797"></path>
                </g>
                <circle id="Oval-317" stroke="#979797" fill="#D8D8D8" sketch:type="MSShapeGroup" cx="88" cy="86" r="10"></circle>
                <circle id="Oval-318" stroke="#979797" fill="#979797" sketch:type="MSShapeGroup" cx="88" cy="86" r="2"></circle>
                <path d="M99,86 C99,79.9248678 94.0751322,75 88,75 C81.9248678,75 77,79.9248678 77,86 C77,92.0751322 81.9248678,97 88,97 C94.0751322,97 99,92.0751322 99,86 Z M79,86 C79,81.0294373 83.0294373,77 88,77 C92.9705627,77 97,81.0294373 97,86 C97,90.9705627 92.9705627,95 88,95 C83.0294373,95 79,90.9705627 79,86 Z" id="Oval-323" fill="#979797" sketch:type="MSShapeGroup"></path>
                <path d="M91,86 C91,84.3431458 89.6568542,83 88,83 C86.3431458,83 85,84.3431458 85,86 C85,87.6568542 86.3431458,89 88,89 C89.6568542,89 91,87.6568542 91,86 Z M87,86 C87,85.4477153 87.4477153,85 88,85 C88.5522847,85 89,85.4477153 89,86 C89,86.5522847 88.5522847,87 88,87 C87.4477153,87 87,86.5522847 87,86 Z" id="Oval-324" fill="#979797" sketch:type="MSShapeGroup"></path>
            </g>
        </g>
    </g>
</svg>