<?xml version="1.0" encoding="UTF-8" standalone="no"?>
<svg width="131px" height="80px" viewBox="0 0 131 80" version="1.1" xmlns="http://www.w3.org/2000/svg" xmlns:xlink="http://www.w3.org/1999/xlink" xmlns:sketch="http://www.bohemiancoding.com/sketch/ns">
    <!-- Generator: Sketch 3.2.2 (9983) - http://www.bohemiancoding.com/sketch -->
    <title>rfq-submitted 2</title>
    <desc>Created with Sketch.</desc>
    <defs></defs>
    <g id="Illustrations" stroke="none" stroke-width="1" fill="none" fill-rule="evenodd" sketch:type="MSPage">
        <g id="rfq-submitted-2" sketch:type="MSArtboardGroup">
            <g id="rfq-submitted" sketch:type="MSLayerGroup" transform="translate(8.000000, 4.000000)">
                <path d="M114.5,0.377757841 L57.5332446,29.7583957 L0.499999993,0.377757826" id="Path-499" stroke="#E6E6E6" stroke-width="2" fill="#FFFFFF" sketch:type="MSShapeGroup" transform="translate(57.500000, 15.068077) scale(1, -1) translate(-57.500000, -15.068077) "></path>
                <g id="check" transform="translate(10.000000, 8.000000)">
                    <g id="blank-table">
                        <g id="cooperative"></g>
                    </g>
                    <rect id="Rectangle-22" stroke="#90ACF3" stroke-width="2" sketch:type="MSShapeGroup" x="0" y="0" width="94" height="46"></rect>
                    <rect id="Rectangle-29" stroke="#DAE3FB" stroke-width="2" fill="#F0F4FD" sketch:type="MSShapeGroup" x="2" y="3" width="90" height="41"></rect>
                    <rect id="Rectangle-23" stroke="#90ACF3" stroke-width="2" fill="#90ACF3" sketch:type="MSShapeGroup" x="0" y="0" width="94" height="3"></rect>
                    <rect id="Rectangle-24" stroke="#092F3E" stroke-width="2" fill="#FFFFFF" sketch:type="MSShapeGroup" x="67" y="8" width="20" height="6"></rect>
                    <path d="M6.5,23.5 L87.5246887,23.5" id="Line" stroke="#092F3E" stroke-linecap="square" sketch:type="MSShapeGroup"></path>
                    <path d="M51.5,38.5 L87.5208244,38.5" id="Line-6" stroke="#E6E6E6" stroke-linecap="square" sketch:type="MSShapeGroup"></path>
                    <path d="M6.5,38.5 L38.5,38.5" id="Line-7" stroke="#E6E6E6" stroke-linecap="square" sketch:type="MSShapeGroup"></path>
                    <path d="M6.5,8.5 L20.6421356,8.5" id="Line-2" stroke="#092F3E" stroke-linecap="square" sketch:type="MSShapeGroup"></path>
                    <path d="M6.5,10.5 L18.6421356,10.5" id="Line-3" stroke="#092F3E" stroke-linecap="square" sketch:type="MSShapeGroup"></path>
                    <path d="M6.5,12.5 L20.6421356,12.5" id="Line-4" stroke="#092F3E" stroke-linecap="square" sketch:type="MSShapeGroup"></path>
                    <path d="M48.733496,31.2096919 C42.0716693,31.0403667 43.8909509,46.8415411 49.9250893,39.8636496 M53.5452373,38.9185383 C55.6474058,37.0653679 55.7543989,34.6391753 55.754399,34.6391753 C55.7543988,34.6391753 57.306362,34.9391791 57.306362,34.9391791 C57.306362,34.9391791 56.4561551,38.4800288 57.7635215,37.9601881 C59.8290857,37.03495 59.9861701,34.8367922 59.9861701,34.9391791 C59.9861701,34.9391791 59.4921808,38.3893945 60.8670414,38.6747913 C61.294845,38.7635958 62.6694075,37.6461132 62.8249129,37.4767283 C63.2654964,36.9968209 64.2520389,34.4070559 64.2520389,34.2391792 C64.2520389,31.9890809 65.5706547,38.3777944 65.5706546,39.1384397 C65.5706545,39.8990849 61.7541507,36.9007204 61.7541507,36.9007204 L66.6013988,37.3007204" id="Path-445" stroke="#092F3E" stroke-linecap="round" stroke-linejoin="round" sketch:type="MSShapeGroup"></path>
                    <path d="M71.2444689,31.9350665 C69.8632055,29.2421118 66.8846349,29.6410546 69.0645519,33.9235228 C71.2444689,38.2059911 72.6257324,34.6280212 71.2444689,31.9350665 Z" id="Path-446" stroke="#092F3E" sketch:type="MSShapeGroup"></path>
                    <path d="M71.4680176,32.4112549 C71.4680176,32.4112549 73.8684082,41.5419922 71.4680176,42.0212403 C69.0676269,42.5004883 70.2990658,40.5207121 70.2990658,40.5207121 C70.2990658,40.5207121 73.6134034,37.2651368 73.9793167,33.9985442 C73.9793165,33.9985441 73.6036283,37.5027732 75.279419,37.1274319 C76.9552097,36.7520907 76.338496,34.830833 76.3384962,34.0982027 C76.3384964,33.3655724 78.0628148,33.2030261 78.0628149,33.9243251 C78.062815,34.6456241 77.6284299,37.654541 78.2450117,36.7265426 C78.8615935,35.7985441 80.2486571,36.9544678 80.0233154,29.2001953 C80.0233155,29.2001954 79.2457275,35.3861084 80.5997314,36.3792725 C81.9537354,37.3724365 83.9013671,33.2714844 83.0141602,32.9919434 C82.1269532,32.7124023 81.0430907,33.5357666 81.4337158,34.067627 C81.8243409,34.5994873 81.0455321,36.8782959 83.6245117,36.6287842 C86.2034913,36.3792725 85.2497559,32.6160889 85.2497559,32.6160889 L86.5169678,32.4858398 C86.5169678,32.4858398 85.2735595,37.3411865 87.1905518,36.7807617" id="Path-447" stroke="#092F3E" stroke-linecap="round" stroke-linejoin="round" sketch:type="MSShapeGroup"></path>
                    <path d="M49.8854342,39.9159806 C50.5187786,35.8873745 56.2164885,29.2349487 53.9012734,29.2349487 C52.5285498,29.2349487 52.9748887,30.8658198 51.6710733,35.3524469 C52.291418,34.0109146 54.2567125,34.1087036 54.2567125,34.8414907 C52.3347507,38.9292731 53.3748887,38.929273 53.3748887,38.929273" id="Path-448" stroke="#092F3E" stroke-linecap="round" stroke-linejoin="round" sketch:type="MSShapeGroup"></path>
                    <path d="M78.8074886,31.5966336 L81.0877028,31.27289" id="Path-450" stroke="#979797" stroke-linecap="round" sketch:type="MSShapeGroup"></path>
                    <path d="M7.808,19.852 L7.808,19.332 L6.032,19.332 L6.032,19.852 L6.612,19.852 L6.612,22 L7.228,22 L7.228,19.852 L7.808,19.852 Z M7.956,22 L8.532,22 L8.532,21.108 C8.532,21.02 8.536,20.848 8.652,20.736 C8.684,20.704 8.756,20.648 8.88,20.648 C8.964,20.648 9.052,20.676 9.104,20.728 C9.196,20.816 9.2,20.96 9.2,21.084 L9.2,22 L9.776,22 L9.776,20.868 C9.776,20.732 9.764,20.512 9.6,20.348 C9.444,20.188 9.236,20.168 9.096,20.168 C8.968,20.168 8.868,20.18 8.748,20.244 C8.68,20.28 8.604,20.34 8.532,20.428 L8.532,19.084 L7.956,19.084 L7.956,22 Z M10.224,22 L10.8,22 L10.8,21.276 C10.8,21.124 10.812,20.932 10.94,20.796 C11.012,20.72 11.104,20.676 11.228,20.676 C11.328,20.676 11.412,20.7 11.488,20.74 L11.52,20.2 C11.456,20.18 11.404,20.172 11.332,20.172 C11.22,20.172 11.12,20.188 11.024,20.248 C10.932,20.304 10.852,20.396 10.8,20.496 L10.8,20.216 L10.224,20.216 L10.224,22 Z M12.216,20.864 C12.232,20.784 12.272,20.72 12.316,20.672 C12.372,20.616 12.46,20.556 12.608,20.556 C12.724,20.556 12.816,20.596 12.88,20.656 C12.964,20.736 12.992,20.848 12.996,20.864 L12.216,20.864 Z M13.528,21.148 C13.528,20.928 13.488,20.648 13.276,20.424 C13.056,20.192 12.768,20.156 12.568,20.156 C12.368,20.156 12.1,20.196 11.884,20.412 C11.704,20.596 11.612,20.86 11.612,21.116 C11.612,21.412 11.724,21.648 11.88,21.804 C12.088,22.012 12.324,22.06 12.592,22.06 C12.792,22.06 12.984,22.032 13.156,21.928 C13.26,21.864 13.42,21.732 13.5,21.48 L12.956,21.424 C12.908,21.524 12.84,21.568 12.832,21.572 C12.772,21.608 12.684,21.624 12.6,21.624 C12.512,21.624 12.392,21.608 12.304,21.512 C12.232,21.432 12.196,21.304 12.196,21.208 L13.528,21.208 L13.528,21.148 Z M14.404,20.864 C14.42,20.784 14.46,20.72 14.504,20.672 C14.56,20.616 14.648,20.556 14.796,20.556 C14.912,20.556 15.004,20.596 15.068,20.656 C15.152,20.736 15.18,20.848 15.184,20.864 L14.404,20.864 Z M15.716,21.148 C15.716,20.928 15.676,20.648 15.464,20.424 C15.244,20.192 14.956,20.156 14.756,20.156 C14.556,20.156 14.288,20.196 14.072,20.412 C13.892,20.596 13.8,20.86 13.8,21.116 C13.8,21.412 13.912,21.648 14.068,21.804 C14.276,22.012 14.512,22.06 14.78,22.06 C14.98,22.06 15.172,22.032 15.344,21.928 C15.448,21.864 15.608,21.732 15.688,21.48 L15.144,21.424 C15.096,21.524 15.028,21.568 15.02,21.572 C14.96,21.608 14.872,21.624 14.788,21.624 C14.7,21.624 14.58,21.608 14.492,21.512 C14.42,21.432 14.384,21.304 14.384,21.208 L15.716,21.208 L15.716,21.148 Z M18.592,19.852 L18.592,19.332 L16.816,19.332 L16.816,19.852 L17.396,19.852 L17.396,22 L18.012,22 L18.012,19.852 L18.592,19.852 Z M18.74,22 L19.316,22 L19.316,21.108 C19.316,21.02 19.32,20.848 19.436,20.736 C19.468,20.704 19.54,20.648 19.664,20.648 C19.748,20.648 19.836,20.676 19.888,20.728 C19.98,20.816 19.984,20.96 19.984,21.084 L19.984,22 L20.56,22 L20.56,20.868 C20.56,20.732 20.548,20.512 20.384,20.348 C20.228,20.188 20.02,20.168 19.88,20.168 C19.752,20.168 19.652,20.18 19.532,20.244 C19.464,20.28 19.388,20.34 19.316,20.428 L19.316,19.084 L18.74,19.084 L18.74,22 Z M22.972,21.108 C22.972,20.88 22.884,20.624 22.704,20.444 C22.544,20.284 22.272,20.156 21.924,20.156 C21.576,20.156 21.304,20.284 21.144,20.444 C20.964,20.624 20.876,20.88 20.876,21.108 C20.876,21.336 20.964,21.592 21.144,21.772 C21.304,21.932 21.576,22.06 21.924,22.06 C22.272,22.06 22.544,21.932 22.704,21.772 C22.884,21.592 22.972,21.336 22.972,21.108 L22.972,21.108 Z M21.924,20.644 C22.056,20.644 22.164,20.688 22.248,20.772 C22.332,20.856 22.38,20.964 22.38,21.108 C22.38,21.252 22.332,21.36 22.248,21.444 C22.164,21.528 22.056,21.572 21.928,21.572 C21.776,21.572 21.672,21.516 21.6,21.444 C21.532,21.376 21.468,21.272 21.468,21.108 C21.468,20.964 21.516,20.856 21.6,20.772 C21.684,20.688 21.792,20.644 21.924,20.644 L21.924,20.644 Z M23.332,20.216 L23.332,21.292 C23.332,21.488 23.364,21.668 23.528,21.828 C23.732,22.028 24.028,22.06 24.248,22.06 C24.46,22.06 24.76,22.028 24.964,21.828 C25.144,21.652 25.164,21.46 25.164,21.256 L25.164,20.216 L24.588,20.216 L24.588,21.2 C24.588,21.288 24.576,21.408 24.492,21.488 C24.44,21.536 24.356,21.572 24.248,21.572 C24.12,21.572 24.048,21.524 24.008,21.488 C23.916,21.404 23.908,21.28 23.908,21.2 L23.908,20.216 L23.332,20.216 Z M26.932,20.308 C26.788,20.224 26.604,20.156 26.34,20.156 C26.176,20.156 25.96,20.188 25.8,20.336 C25.696,20.432 25.628,20.576 25.628,20.748 C25.628,20.884 25.672,20.984 25.756,21.072 C25.832,21.148 25.94,21.204 26.044,21.236 L26.188,21.28 C26.272,21.304 26.324,21.32 26.364,21.344 C26.416,21.376 26.428,21.416 26.428,21.448 C26.428,21.492 26.404,21.536 26.368,21.564 C26.316,21.604 26.224,21.604 26.188,21.604 C26.112,21.604 26.028,21.588 25.948,21.548 C25.888,21.52 25.808,21.464 25.752,21.416 L25.508,21.804 C25.74,22.008 26,22.06 26.24,22.06 C26.428,22.06 26.644,22.032 26.82,21.856 C26.9,21.776 27.004,21.624 27.004,21.388 C27.004,21.252 26.968,21.144 26.864,21.048 C26.772,20.964 26.668,20.924 26.568,20.892 L26.416,20.844 C26.344,20.82 26.284,20.808 26.244,20.784 C26.216,20.768 26.188,20.744 26.188,20.704 C26.188,20.676 26.204,20.644 26.224,20.624 C26.26,20.588 26.328,20.572 26.388,20.572 C26.5,20.572 26.616,20.62 26.704,20.672 L26.932,20.308 Z M28.716,20.416 C28.552,20.192 28.308,20.156 28.156,20.156 C27.908,20.156 27.692,20.244 27.536,20.4 C27.372,20.564 27.26,20.82 27.26,21.12 C27.26,21.356 27.332,21.588 27.52,21.788 C27.716,21.996 27.932,22.06 28.188,22.06 C28.336,22.06 28.56,22.024 28.716,21.784 L28.716,22 L29.292,22 L29.292,20.216 L28.716,20.216 L28.716,20.416 Z M28.3,20.652 C28.404,20.652 28.532,20.692 28.62,20.776 C28.704,20.856 28.752,20.976 28.752,21.104 C28.752,21.256 28.688,21.368 28.612,21.44 C28.536,21.516 28.428,21.564 28.312,21.564 C28.176,21.564 28.052,21.508 27.972,21.424 C27.92,21.368 27.852,21.264 27.852,21.104 C27.852,20.944 27.924,20.84 27.984,20.78 C28.06,20.704 28.176,20.652 28.3,20.652 L28.3,20.652 Z M29.74,22 L30.316,22 L30.316,21.084 C30.316,20.968 30.332,20.84 30.428,20.744 C30.472,20.696 30.548,20.648 30.668,20.648 C30.772,20.648 30.844,20.684 30.888,20.728 C30.98,20.82 30.984,20.968 30.984,21.084 L30.984,22 L31.56,22 L31.56,20.872 C31.56,20.728 31.548,20.516 31.38,20.348 C31.228,20.196 31.024,20.168 30.868,20.168 C30.7,20.168 30.492,20.204 30.316,20.428 L30.316,20.216 L29.74,20.216 L29.74,22 Z M33.952,19.084 L33.376,19.084 L33.376,20.416 C33.232,20.22 33.016,20.156 32.82,20.156 C32.576,20.156 32.356,20.248 32.2,20.396 C32.028,20.56 31.92,20.804 31.92,21.1 C31.92,21.376 32.016,21.632 32.2,21.816 C32.356,21.976 32.548,22.06 32.812,22.06 C33.128,22.06 33.288,21.912 33.376,21.784 L33.376,22 L33.952,22 L33.952,19.084 Z M32.96,20.652 C33.084,20.652 33.192,20.688 33.284,20.784 C33.352,20.856 33.412,20.96 33.412,21.112 C33.412,21.26 33.348,21.368 33.28,21.432 C33.188,21.52 33.06,21.564 32.952,21.564 C32.852,21.564 32.74,21.524 32.652,21.44 C32.568,21.36 32.512,21.244 32.512,21.112 C32.512,20.968 32.568,20.852 32.652,20.772 C32.744,20.684 32.844,20.652 32.96,20.652 L32.96,20.652 Z M37.068,19.536 C36.756,19.304 36.46,19.272 36.276,19.272 C36.028,19.272 35.804,19.324 35.616,19.516 C35.456,19.68 35.384,19.88 35.384,20.116 C35.384,20.244 35.404,20.432 35.544,20.58 C35.648,20.692 35.792,20.748 35.916,20.792 L36.136,20.868 C36.212,20.896 36.376,20.956 36.448,21.016 C36.504,21.064 36.54,21.12 36.54,21.208 C36.54,21.308 36.496,21.38 36.444,21.424 C36.356,21.5 36.244,21.516 36.164,21.516 C36.04,21.516 35.932,21.484 35.828,21.42 C35.756,21.376 35.648,21.284 35.58,21.216 L35.26,21.656 C35.36,21.756 35.516,21.88 35.652,21.948 C35.82,22.032 35.988,22.06 36.18,22.06 C36.356,22.06 36.7,22.036 36.936,21.788 C37.076,21.644 37.172,21.404 37.172,21.128 C37.172,20.972 37.132,20.78 36.976,20.632 C36.872,20.532 36.728,20.472 36.612,20.428 L36.412,20.352 C36.232,20.284 36.14,20.26 36.076,20.2 C36.036,20.164 36.016,20.116 36.016,20.052 C36.016,19.984 36.044,19.924 36.084,19.884 C36.156,19.804 36.26,19.792 36.344,19.792 C36.42,19.792 36.592,19.804 36.792,19.984 L37.068,19.536 Z M37.588,20.216 L37.588,22 L38.164,22 L38.164,20.216 L37.588,20.216 Z M37.54,19.456 C37.54,19.644 37.688,19.792 37.876,19.792 C38.064,19.792 38.212,19.644 38.212,19.456 C38.212,19.268 38.064,19.12 37.876,19.12 C37.688,19.12 37.54,19.268 37.54,19.456 L37.54,19.456 Z M38.436,22 L39.18,22 L39.668,21.424 L40.156,22 L40.9,22 L40.028,21.028 L40.736,20.216 L40,20.216 L39.668,20.628 L39.336,20.216 L38.6,20.216 L39.308,21.028 L38.436,22 Z M42.748,19.332 L42.132,19.332 L42.132,22 L42.748,22 L42.748,20.868 L43.812,20.868 L43.812,22 L44.428,22 L44.428,19.332 L43.812,19.332 L43.812,20.348 L42.748,20.348 L42.748,19.332 Z M44.944,20.216 L44.944,21.292 C44.944,21.488 44.976,21.668 45.14,21.828 C45.344,22.028 45.64,22.06 45.86,22.06 C46.072,22.06 46.372,22.028 46.576,21.828 C46.756,21.652 46.776,21.46 46.776,21.256 L46.776,20.216 L46.2,20.216 L46.2,21.2 C46.2,21.288 46.188,21.408 46.104,21.488 C46.052,21.536 45.968,21.572 45.86,21.572 C45.732,21.572 45.66,21.524 45.62,21.488 C45.528,21.404 45.52,21.28 45.52,21.2 L45.52,20.216 L44.944,20.216 Z M47.224,22 L47.8,22 L47.8,21.084 C47.8,20.968 47.816,20.84 47.912,20.744 C47.956,20.696 48.032,20.648 48.152,20.648 C48.256,20.648 48.328,20.684 48.372,20.728 C48.464,20.82 48.468,20.968 48.468,21.084 L48.468,22 L49.044,22 L49.044,20.872 C49.044,20.728 49.032,20.516 48.864,20.348 C48.712,20.196 48.508,20.168 48.352,20.168 C48.184,20.168 47.976,20.204 47.8,20.428 L47.8,20.216 L47.224,20.216 L47.224,22 Z M51.436,19.084 L50.86,19.084 L50.86,20.416 C50.716,20.22 50.5,20.156 50.304,20.156 C50.06,20.156 49.84,20.248 49.684,20.396 C49.512,20.56 49.404,20.804 49.404,21.1 C49.404,21.376 49.5,21.632 49.684,21.816 C49.84,21.976 50.032,22.06 50.296,22.06 C50.612,22.06 50.772,21.912 50.86,21.784 L50.86,22 L51.436,22 L51.436,19.084 Z M50.444,20.652 C50.568,20.652 50.676,20.688 50.768,20.784 C50.836,20.856 50.896,20.96 50.896,21.112 C50.896,21.26 50.832,21.368 50.764,21.432 C50.672,21.52 50.544,21.564 50.436,21.564 C50.336,21.564 50.224,21.524 50.136,21.44 C50.052,21.36 49.996,21.244 49.996,21.112 C49.996,20.968 50.052,20.852 50.136,20.772 C50.228,20.684 50.328,20.652 50.444,20.652 L50.444,20.652 Z M51.9,22 L52.476,22 L52.476,21.276 C52.476,21.124 52.488,20.932 52.616,20.796 C52.688,20.72 52.78,20.676 52.904,20.676 C53.004,20.676 53.088,20.7 53.164,20.74 L53.196,20.2 C53.132,20.18 53.08,20.172 53.008,20.172 C52.896,20.172 52.796,20.188 52.7,20.248 C52.608,20.304 52.528,20.396 52.476,20.496 L52.476,20.216 L51.9,20.216 L51.9,22 Z M53.892,20.864 C53.908,20.784 53.948,20.72 53.992,20.672 C54.048,20.616 54.136,20.556 54.284,20.556 C54.4,20.556 54.492,20.596 54.556,20.656 C54.64,20.736 54.668,20.848 54.672,20.864 L53.892,20.864 Z M55.204,21.148 C55.204,20.928 55.164,20.648 54.952,20.424 C54.732,20.192 54.444,20.156 54.244,20.156 C54.044,20.156 53.776,20.196 53.56,20.412 C53.38,20.596 53.288,20.86 53.288,21.116 C53.288,21.412 53.4,21.648 53.556,21.804 C53.764,22.012 54,22.06 54.268,22.06 C54.468,22.06 54.66,22.032 54.832,21.928 C54.936,21.864 55.096,21.732 55.176,21.48 L54.632,21.424 C54.584,21.524 54.516,21.568 54.508,21.572 C54.448,21.608 54.36,21.624 54.276,21.624 C54.188,21.624 54.068,21.608 53.98,21.512 C53.908,21.432 53.872,21.304 53.872,21.208 L55.204,21.208 L55.204,21.148 Z M57.508,19.084 L56.932,19.084 L56.932,20.416 C56.788,20.22 56.572,20.156 56.376,20.156 C56.132,20.156 55.912,20.248 55.756,20.396 C55.584,20.56 55.476,20.804 55.476,21.1 C55.476,21.376 55.572,21.632 55.756,21.816 C55.912,21.976 56.104,22.06 56.368,22.06 C56.684,22.06 56.844,21.912 56.932,21.784 L56.932,22 L57.508,22 L57.508,19.084 Z M56.516,20.652 C56.64,20.652 56.748,20.688 56.84,20.784 C56.908,20.856 56.968,20.96 56.968,21.112 C56.968,21.26 56.904,21.368 56.836,21.432 C56.744,21.52 56.616,21.564 56.508,21.564 C56.408,21.564 56.296,21.524 56.208,21.44 C56.124,21.36 56.068,21.244 56.068,21.112 C56.068,20.968 56.124,20.852 56.208,20.772 C56.3,20.684 56.4,20.652 56.516,20.652 L56.516,20.652 Z" id="Three-Thousand-Six-H" fill="#D0DCFC" sketch:type="MSShapeGroup"></path>
                    <path d="M73.772,20.132 C73.776,20.048 73.812,19.944 73.868,19.884 C73.92,19.832 74.004,19.796 74.108,19.796 C74.208,19.796 74.288,19.832 74.336,19.876 C74.388,19.924 74.424,20 74.424,20.092 C74.424,20.2 74.38,20.284 74.324,20.332 C74.236,20.404 74.092,20.408 74.056,20.408 L74.02,20.408 L74.02,20.832 L74.068,20.832 C74.16,20.832 74.3,20.84 74.396,20.916 C74.46,20.968 74.512,21.06 74.512,21.172 C74.512,21.28 74.468,21.384 74.404,21.444 C74.34,21.504 74.24,21.536 74.136,21.536 C74.008,21.536 73.904,21.492 73.84,21.428 C73.768,21.356 73.72,21.232 73.712,21.128 L73.096,21.128 C73.124,21.396 73.24,21.632 73.392,21.788 C73.628,22.024 73.912,22.064 74.172,22.064 C74.388,22.064 74.648,22.04 74.876,21.832 C75.064,21.66 75.144,21.428 75.144,21.224 C75.144,21.08 75.1,20.912 75.02,20.804 C74.948,20.704 74.828,20.628 74.716,20.588 C74.792,20.552 74.86,20.5 74.916,20.42 C75,20.304 75.024,20.188 75.024,20.056 C75.024,19.796 74.932,19.62 74.82,19.512 C74.684,19.376 74.448,19.276 74.12,19.276 C73.9,19.276 73.64,19.324 73.444,19.528 C73.304,19.672 73.204,19.908 73.18,20.132 L73.772,20.132 Z M76.172,20.132 C76.176,20.048 76.212,19.944 76.268,19.884 C76.32,19.832 76.404,19.796 76.508,19.796 C76.608,19.796 76.688,19.832 76.736,19.876 C76.788,19.924 76.824,20 76.824,20.092 C76.824,20.2 76.78,20.284 76.724,20.332 C76.636,20.404 76.492,20.408 76.456,20.408 L76.42,20.408 L76.42,20.832 L76.468,20.832 C76.56,20.832 76.7,20.84 76.796,20.916 C76.86,20.968 76.912,21.06 76.912,21.172 C76.912,21.28 76.868,21.384 76.804,21.444 C76.74,21.504 76.64,21.536 76.536,21.536 C76.408,21.536 76.304,21.492 76.24,21.428 C76.168,21.356 76.12,21.232 76.112,21.128 L75.496,21.128 C75.524,21.396 75.64,21.632 75.792,21.788 C76.028,22.024 76.312,22.064 76.572,22.064 C76.788,22.064 77.048,22.04 77.276,21.832 C77.464,21.66 77.544,21.428 77.544,21.224 C77.544,21.08 77.5,20.912 77.42,20.804 C77.348,20.704 77.228,20.628 77.116,20.588 C77.192,20.552 77.26,20.5 77.316,20.42 C77.4,20.304 77.424,20.188 77.424,20.056 C77.424,19.796 77.332,19.62 77.22,19.512 C77.084,19.376 76.848,19.276 76.52,19.276 C76.3,19.276 76.04,19.324 75.844,19.528 C75.704,19.672 75.604,19.908 75.58,20.132 L76.172,20.132 Z M77.86,22.736 L78.312,22.816 L80.42,19.084 L79.968,19.004 L77.86,22.736 Z M81.524,22 L82.14,22 L82.14,19.332 L81.144,19.332 L81.144,19.852 L81.524,19.852 L81.524,22 Z M85.004,20.668 C85.004,20.208 84.88,19.8 84.62,19.548 C84.464,19.396 84.232,19.272 83.904,19.272 C83.584,19.272 83.356,19.392 83.196,19.548 C82.936,19.8 82.812,20.208 82.812,20.668 C82.812,21.124 82.936,21.528 83.196,21.784 C83.356,21.94 83.584,22.06 83.904,22.06 C84.232,22.06 84.464,21.936 84.62,21.784 C84.88,21.528 85.004,21.124 85.004,20.668 L85.004,20.668 Z M83.908,19.8 C84.012,19.8 84.084,19.832 84.156,19.9 C84.352,20.092 84.38,20.476 84.38,20.664 C84.38,20.872 84.344,21.248 84.156,21.432 C84.084,21.5 84.012,21.532 83.908,21.532 C83.804,21.532 83.732,21.5 83.66,21.432 C83.472,21.248 83.436,20.872 83.436,20.664 C83.436,20.476 83.464,20.092 83.66,19.9 C83.732,19.832 83.804,19.8 83.908,19.8 L83.908,19.8 Z M87.404,20.668 C87.404,20.208 87.28,19.8 87.02,19.548 C86.864,19.396 86.632,19.272 86.304,19.272 C85.984,19.272 85.756,19.392 85.596,19.548 C85.336,19.8 85.212,20.208 85.212,20.668 C85.212,21.124 85.336,21.528 85.596,21.784 C85.756,21.94 85.984,22.06 86.304,22.06 C86.632,22.06 86.864,21.936 87.02,21.784 C87.28,21.528 87.404,21.124 87.404,20.668 L87.404,20.668 Z M86.308,19.8 C86.412,19.8 86.484,19.832 86.556,19.9 C86.752,20.092 86.78,20.476 86.78,20.664 C86.78,20.872 86.744,21.248 86.556,21.432 C86.484,21.5 86.412,21.532 86.308,21.532 C86.204,21.532 86.132,21.5 86.06,21.432 C85.872,21.248 85.836,20.872 85.836,20.664 C85.836,20.476 85.864,20.092 86.06,19.9 C86.132,19.832 86.204,19.8 86.308,19.8 L86.308,19.8 Z" id="33/100" fill="#D0DCFC" sketch:type="MSShapeGroup"></path>
                </g>
                <path d="M1,72 L114,72 L114,30.3777578 L57.5332446,50.0583957 L1,30.3777578 L1,72 Z" id="Path-498" stroke="#E6E6E6" stroke-width="2" fill="#FFFFFF" sketch:type="MSShapeGroup"></path>
                <path d="M114.5,50.0777578 L57.5332446,72 L0.499999993,50.0777578" id="Path-500" stroke="#E6E6E6" stroke-width="2" sketch:type="MSShapeGroup" transform="translate(57.500000, 61.038879) scale(1, -1) translate(-57.500000, -61.038879) "></path>
            </g>
        </g>
    </g>
</svg>