<?xml version="1.0" encoding="UTF-8" standalone="no"?>
<svg width="20px" height="20px" viewBox="0 0 20 20" version="1.1" xmlns="http://www.w3.org/2000/svg" xmlns:xlink="http://www.w3.org/1999/xlink" xmlns:sketch="http://www.bohemiancoding.com/sketch/ns">
    <!-- Generator: Sketch 3.3 (11970) - http://www.bohemiancoding.com/sketch -->
    <title>tag 19 copy</title>
    <desc>Created with Sketch.</desc>
    <defs></defs>
    <g id="Illustrations" stroke="none" stroke-width="1" fill="none" fill-rule="evenodd" sketch:type="MSPage">
        <g id="tag-19-copy" sketch:type="MSArtboardGroup">
            <path d="M10,1 L17.7942286,5.5 L17.7942286,14.5 L10,19 L2.20577137,14.5 L2.20577137,5.5 L10,1 Z M10,13 C11.6568542,13 13,11.6568542 13,10 C13,8.34314575 11.6568542,7 10,7 C8.34314575,7 7,8.34314575 7,10 C7,11.6568542 8.34314575,13 10,13 Z" id="Polygon-8" stroke="#4A4A4A" fill="#E3E5EA" sketch:type="MSShapeGroup" transform="translate(10.000000, 10.000000) rotate(-330.000000) translate(-10.000000, -10.000000) "></path>
            <path d="M6.75462043,8.27547655 L2.22499759,5.66029758 L2.22499759,13.5064878 L9.01999766,17.429583 L15.8149977,13.5064878 L11.2853749,10.8913089 C10.8331295,11.6729326 9.9879738,12.1987895 9.01999766,12.1987895 C7.57555392,12.1987895 6.40460091,11.0278364 6.40460091,9.5833927 C6.40460091,9.1069251 6.53201134,8.66021579 6.75462043,8.27547655 Z" id="Polygon-8-Copy" fill="#CBCFD8" sketch:type="MSShapeGroup" transform="translate(9.019998, 11.544940) rotate(-330.000000) translate(-9.019998, -11.544940) "></path>
            <circle id="Oval-540-Copy" stroke="#54545A" sketch:type="MSShapeGroup" cx="10" cy="10" r="3"></circle>
            <circle id="Oval-540-Copy-2" stroke="#93989C" sketch:type="MSShapeGroup" cx="10" cy="10" r="4"></circle>
            <polygon id="Path" stroke="#93989C" sketch:type="MSShapeGroup" transform="translate(10.000000, 10.000000) rotate(-330.000000) translate(-10.000000, -10.000000) " points="10 2 16.9282032 6 16.9282032 14 10 18 3.07179677 14 3.07179677 6 "></polygon>
        </g>
    </g>
</svg>