<?xml version="1.0" encoding="UTF-8" standalone="no"?>
<svg width="20px" height="20px" viewBox="0 0 20 20" version="1.1" xmlns="http://www.w3.org/2000/svg" xmlns:xlink="http://www.w3.org/1999/xlink" xmlns:sketch="http://www.bohemiancoding.com/sketch/ns">
    <!-- Generator: Sketch 3.1.1 (8761) - http://www.bohemiancoding.com/sketch -->
    <title>manufacturer</title>
    <desc>Created with Sketch.</desc>
    <defs></defs>
    <g id="Illustrations" stroke="none" stroke-width="1" fill="none" fill-rule="evenodd" sketch:type="MSPage">
        <g id="manufacturer" sketch:type="MSArtboardGroup" fill="#AAACAD">
            <path d="M3,5 L2,17 L6,17 L5,5 L3,5 Z" id="Rectangle-295" sketch:type="MSShapeGroup"></path>
            <path d="M13.4857335,11.7 L13.5377649,9 L9.65731238,11.7 L9.62653891,9 L5.3,11.7 L4,17 L18,17 L18,9 L13.4857335,11.7 Z" id="Rectangle-296" sketch:type="MSShapeGroup"></path>
            <path d="M8.26557175,1.6475935 C8.06569854,1.26282961 7.66354284,1 7.2,1 C6.60535377,1 6.11172933,1.43252566 6.01656913,2.0001345 C6.01105682,2.00004495 6.00553366,2 6,2 C5.44771525,2 5,2.44771525 5,3 C5,3.55228475 5.44771525,4 6,4 C6.02833222,4 6.05638924,3.99882175 6.08412475,3.99651158 L6.08412475,3.99651158 C6.28905477,4.58092927 6.84558778,5 7.5,5 C8.19173404,5 8.7741062,4.53176614 8.9474595,3.89495538 C9.11845408,3.96274323 9.30487615,4 9.5,4 C10.3284271,4 11,3.32842712 11,2.5 C11,1.67157288 10.3284271,1 9.5,1 C8.98820091,1 8.53626871,1.25632062 8.26557175,1.6475935 Z" id="Oval-304" sketch:type="MSShapeGroup"></path>
        </g>
    </g>
</svg>