<?xml version="1.0" encoding="UTF-8" standalone="no"?>
<svg width="35px" height="28px" viewBox="0 0 35 28" version="1.1" xmlns="http://www.w3.org/2000/svg" xmlns:xlink="http://www.w3.org/1999/xlink" xmlns:sketch="http://www.bohemiancoding.com/sketch/ns">
    <!-- Generator: Sketch 3.2.2 (9983) - http://www.bohemiancoding.com/sketch -->
    <title>request received</title>
    <desc>Created with Sketch.</desc>
    <defs></defs>
    <g id="Page-1" stroke="none" stroke-width="1" fill="none" fill-rule="evenodd" sketch:type="MSPage">
        <g id="Portrait" sketch:type="MSArtboardGroup" transform="translate(-143.000000, -90.000000)">
            <g id="request-received" sketch:type="MSLayerGroup" transform="translate(143.000000, 90.000000)">
                <g id="walkie-talkie" sketch:type="MSShapeGroup">
                    <g id="signal" transform="translate(0.000000, 8.000000)" fill="#FF9A57">
                        <path d="M28.5,7.5 C28.5,5.90177681 27.9621969,4.38433273 26.9903472,3.15721909 L26.206421,3.7780731 C27.0395609,4.83004369 27.5,6.12920063 27.5,7.5 C27.5,8.88541472 27.0296396,10.1975157 26.180136,11.2548786 L26.9597036,11.8811967 C27.9506136,10.6478277 28.5,9.11527845 28.5,7.5 Z M6.5,7.5 C6.5,9.1419996 7.06778557,10.6981584 8.08882119,11.9409224 L8.86148834,11.306111 C7.98612043,10.240648 7.5,8.90831299 7.5,7.5 C7.5,6.11368995 7.97097164,4.80079673 8.82148138,3.74310914 L8.04218195,3.11645741 C7.05010004,4.3502031 6.5,5.88367676 6.5,7.5 Z" id="Oval-345"></path>
                        <path d="M3.5,7.5 C3.5,9.64830703 4.17967077,11.6953999 5.42059524,13.3937543 L6.22802727,12.8037936 C5.11120377,11.2752864 4.5,9.43440853 4.5,7.5 C4.5,5.58157279 5.10110557,3.75500532 6.20087842,2.23356294 L5.3904403,1.64773869 C4.16844287,3.33826841 3.5,5.36945237 3.5,7.5 Z M31.5,7.5 C31.5,5.36107885 30.826275,3.32239138 29.5953672,1.62815436 L28.786344,2.21593103 C29.8941438,3.74072067 30.5,5.57403763 30.5,7.5 C30.5,9.46650421 29.868258,11.3360692 28.7168931,12.8783702 L29.5182281,13.4765861 C30.797494,11.7629563 31.5,9.68397382 31.5,7.5 Z" id="Oval-346"></path>
                        <path d="M0.5,7.5 C0.5,10.2143427 1.33430431,12.8048098 2.86431442,14.9772593 L3.68189949,14.4014514 C2.26964548,12.3962029 1.5,10.0064978 1.5,7.5 C1.5,5.00214063 2.2643298,2.62020036 3.66753816,0.618985128 L2.84875967,0.0448755604 C1.32854239,2.21296554 0.5,4.7950165 0.5,7.5 Z M34.5,7.5 C34.5,4.83463691 33.695626,2.28826013 32.2165948,0.138959156 L31.3928011,0.70584886 C32.7579665,2.68968217 33.5,5.03870992 33.5,7.5 C33.5,9.97544147 32.749378,12.3372135 31.3695392,14.327832 L32.1913992,14.8975215 C33.6863163,12.7408858 34.5,10.1806952 34.5,7.5 Z" id="Oval-347"></path>
                    </g>
                    <rect id="Rectangle-463" fill="#092F3E" x="22" y="0" width="2" height="12" rx="1"></rect>
                    <rect id="Rectangle-463" fill="#092F3E" x="12" y="9" width="12" height="19"></rect>
                    <rect id="Rectangle-464" fill="#FFFFFF" x="14" y="11" width="8" height="6"></rect>
                    <rect id="Rectangle-467" fill="#092F3E" x="15" y="12" width="6" height="4"></rect>
                    <path d="M21,13 L21,14.5 L19,16 L17,16 L21,13 Z" id="Rectangle-477" fill="#576367"></path>
                    <path d="M15,14 L18,12 L21,12 L15,16 L15,14 Z" id="Rectangle-476" fill="#576367"></path>
                    <rect id="Rectangle-465" fill="#092F3E" x="11" y="11" width="1" height="3"></rect>
                    <rect id="Rectangle-469" fill="#092F3E" x="14" y="7" width="4" height="2"></rect>
                    <path d="M14.4,7 L15,7 L15,9 L14.4,9 L14.4,7 Z" id="Rectangle-470" fill="#3E4E54"></path>
                    <path d="M15.4,7 L16,7 L16,9 L15.4,9 L15.4,7 Z" id="Rectangle-471" fill="#3E4E54"></path>
                    <path d="M16.4,7 L17,7 L17,9 L16.4,9 L16.4,7 Z" id="Rectangle-473" fill="#3E4E54"></path>
                    <path d="M17.4,7 L18,7 L18,9 L17.4,9 L17.4,7 Z" id="Rectangle-474" fill="#3E4E54"></path>
                    <rect id="Rectangle-466" fill="#092F3E" x="11" y="15" width="1" height="3"></rect>
                    <g id="speaker" transform="translate(14.000000, 22.000000)" fill="#FFFFFF">
                        <g id="row">
                            <circle id="Oval-345" cx="0.5" cy="0.5" r="0.5"></circle>
                            <circle id="Oval-348" cx="2.5" cy="0.5" r="0.5"></circle>
                            <circle id="Oval-349" cx="4.5" cy="0.5" r="0.5"></circle>
                            <circle id="Oval-349" cx="6.5" cy="0.5" r="0.5"></circle>
                        </g>
                        <g id="row" transform="translate(1.000000, 1.000000)">
                            <circle id="Oval-353" cx="0.5" cy="0.5" r="0.5"></circle>
                            <circle id="Oval-350" cx="2.5" cy="0.5" r="0.5"></circle>
                            <circle id="Oval-351" cx="4.5" cy="0.5" r="0.5"></circle>
                            <circle id="Oval-352" cx="6.5" cy="0.5" r="0.5"></circle>
                        </g>
                        <g id="row-2" transform="translate(1.000000, 3.000000)">
                            <circle id="Oval-353" cx="0.5" cy="0.5" r="0.5"></circle>
                            <circle id="Oval-350" cx="2.5" cy="0.5" r="0.5"></circle>
                            <circle id="Oval-351" cx="4.5" cy="0.5" r="0.5"></circle>
                            <circle id="Oval-352" cx="6.5" cy="0.5" r="0.5"></circle>
                        </g>
                        <g id="row" transform="translate(0.000000, 2.000000)">
                            <circle id="Oval-357" cx="0.5" cy="0.5" r="0.5"></circle>
                            <circle id="Oval-354" cx="2.5" cy="0.5" r="0.5"></circle>
                            <circle id="Oval-355" cx="4.5" cy="0.5" r="0.5"></circle>
                            <circle id="Oval-356" cx="6.5" cy="0.5" r="0.5"></circle>
                        </g>
                    </g>
                    <rect id="Rectangle-468" fill="#F6D262" x="14" y="18" width="2" height="1"></rect>
                    <rect id="Rectangle-468" fill="#F6D262" x="17" y="18" width="2" height="1"></rect>
                    <rect id="Rectangle-468" fill="#F6D262" x="21" y="18" width="1" height="1"></rect>
                    <rect id="Rectangle-468" fill="#F6D262" x="21" y="19" width="1" height="1"></rect>
                    <path d="M21,18.7 L22,18.7 L22,19.3 L21,19.3 L21,18.7 Z" id="Rectangle-475" fill="#092F3E"></path>
                    <rect id="Rectangle-472" fill="#F6D262" x="22" y="8" width="2" height="1"></rect>
                </g>
            </g>
        </g>
    </g>
</svg>