<?xml version="1.0" encoding="UTF-8" standalone="no"?>
<svg width="20px" height="20px" viewBox="0 0 20 20" version="1.1" xmlns="http://www.w3.org/2000/svg" xmlns:xlink="http://www.w3.org/1999/xlink" xmlns:sketch="http://www.bohemiancoding.com/sketch/ns">
    <!-- Generator: Sketch 3.2.1 (9971) - http://www.bohemiancoding.com/sketch -->
    <title>nav-invoices-icon</title>
    <desc>Created with Sketch.</desc>
    <defs></defs>
    <g id="Illustrations" stroke="none" stroke-width="1" fill="none" fill-rule="evenodd" sketch:type="MSPage">
        <g id="nav-invoices-icon" sketch:type="MSArtboardGroup">
            <g id="invoice" sketch:type="MSLayerGroup" transform="translate(3.000000, 3.000000)">
                <rect id="Rectangle-510" stroke="#B3B5B6" stroke-width="2" sketch:type="MSShapeGroup" x="0" y="0" width="14" height="14"></rect>
                <path d="M9.36739978,8.02600008 C9.36739978,8.60253627 9.17000176,9.06626495 8.77519981,9.41720002 C8.41799803,9.74306831 7.94173615,9.94359963 7.34639986,10.0188 L7.34639986,11.0716 L6.3969999,11.0716 L6.3969999,10.0564 C5.50712882,10.0564 4.76766958,9.76186962 4.17859999,9.17280003 L5.02459996,8.32680007 C5.40060182,8.70280193 5.89879682,8.89080005 6.5191999,8.89080005 L6.5191999,7.18940011 L6.21839991,7.15180012 C5.03399404,7.00139937 4.44179998,6.3778723 4.44179998,5.28120019 C4.44179998,4.704664 4.62666479,4.23780202 4.99639996,3.88060025 C5.34733503,3.53593187 5.81419701,3.33226725 6.3969999,3.26960027 L6.3969999,2.42360031 L7.34639986,2.42360031 L7.34639986,3.26020027 C8.05453671,3.26020027 8.67179718,3.51713103 9.19819979,4.03100024 L8.37099982,4.84880021 C8.05766494,4.54799872 7.6722688,4.39760023 7.21479987,4.39760023 L7.21479987,6.03320016 L7.57199986,6.08960016 C8.17360284,6.18360062 8.6153984,6.37786534 8.8973998,6.67240014 C9.21073469,6.98573502 9.36739978,7.43693049 9.36739978,8.02600008 L9.36739978,8.02600008 Z M6.5191999,5.97680016 L6.5191999,4.40700023 C5.97399719,4.4822006 5.70139993,4.75793116 5.70139993,5.23420019 C5.70139993,5.65406894 5.97399719,5.90159979 6.5191999,5.97680016 L6.5191999,5.97680016 Z M8.08899983,8.06360008 C8.08899983,7.79413208 8.00753399,7.59673406 7.84459984,7.4714001 C7.71926589,7.37739964 7.50933466,7.30533369 7.21479987,7.25520011 L7.21479987,8.87200005 C7.79760276,8.80306637 8.08899983,8.53360241 8.08899983,8.06360008 L8.08899983,8.06360008 Z" id="$" fill="#B3B5B6" sketch:type="MSShapeGroup"></path>
            </g>
        </g>
    </g>
</svg>