<?xml version="1.0" encoding="UTF-8" standalone="no"?>
<svg width="333px" height="316px" viewBox="0 0 333 316" version="1.1" xmlns="http://www.w3.org/2000/svg" xmlns:xlink="http://www.w3.org/1999/xlink" xmlns:sketch="http://www.bohemiancoding.com/sketch/ns">
    <!-- Generator: Sketch 3.2.2 (9983) - http://www.bohemiancoding.com/sketch -->
    <title>Group</title>
    <desc>Created with Sketch.</desc>
    <defs></defs>
    <g id="Page-1" stroke="none" stroke-width="1" fill="none" fill-rule="evenodd" sketch:type="MSPage">
        <g id="-12" sketch:type="MSArtboardGroup" transform="translate(-839.000000, -423.000000)" fill-opacity="0.5" fill="#E3E5EA">
            <g id="Group" sketch:type="MSLayerGroup" transform="translate(839.000000, 422.000000)">
                <path d="M19.2616488,83.376684 L4.03679093,85.2460615 L0.0151025939,52.4920385 L37.1308014,47.9348037 L35.0538206,37.2496638 L219.707425,1.35663916 L224.29429,24.9540169 L224.29429,24.9540169 L282.934223,17.7539385 L286.955912,50.5079615 L254.899243,54.4440255 L302.744371,51.0983682 L305.046335,84.0179819 L20.696893,103.901632 L19.2616488,83.376684 Z" id="Rectangle-531" sketch:type="MSShapeGroup"></path>
                <path d="M233.703288,24.5372241 L235.347812,32.997567 L42.9488844,70.3961301 L38.6891981,48.4819435 L233.703288,24.5372241 Z" id="Rectangle-541" sketch:type="MSShapeGroup"></path>
                <path d="M313.107672,107.372585 L313.265347,116.405805 L54.5877953,120.921038 L313.107672,107.372585 Z" id="Rectangle-531" sketch:type="MSShapeGroup"></path>
                <path d="M313.107672,107.372585 L312.689418,83.4108307 L15.7346526,88.5941954 L16.310582,121.589169 L54.5877953,120.921038 L7.35573116,123.396366 L9.08281772,156.35114 L328.644269,139.603634 L326.917182,106.64886 L313.107672,107.372585 Z" id="Rectangle-537" sketch:type="MSShapeGroup"></path>
                <path d="M327.462418,176 L138.592178,176 L325.398784,156.365835 L327.462418,176 Z" id="Rectangle-531" sketch:type="MSShapeGroup"></path>
                <path d="M327.462418,176 L333,176 L333,143 L13,143 L13,176 L138.592178,176 L7.1517771,189.814943 L10.6012164,222.634165 L328.848223,189.185057 L327.462418,176 Z" id="Rectangle-535" sketch:type="MSShapeGroup"></path>
                <path d="M288.861695,233 L84.5059916,233 L286.628864,211.75603 L288.861695,233 Z" id="Rectangle-531" sketch:type="MSShapeGroup"></path>
                <path d="M288.861695,233 L305,233 L305,200 L37,200 L37,233 L84.5059916,233 L51.9216967,236.424747 L55.371136,269.24397 L290.078303,244.575253 L288.861695,233 Z" id="Rectangle-533" sketch:type="MSShapeGroup"></path>
                <rect id="Rectangle-540" sketch:type="MSShapeGroup" transform="translate(152.548026, 263.500000) scale(-1, 1) translate(-152.548026, -263.500000) " x="18.5480262" y="247" width="268" height="33"></rect>
                <rect id="Rectangle-532" sketch:type="MSShapeGroup" x="22.7046328" y="271" width="236" height="33"></rect>
                <path d="M259.901864,54.5682677 L20.0928196,84.0131159 L19.2107567,71.3990295 L259.901864,54.5682677 Z" id="Rectangle-539" sketch:type="MSShapeGroup"></path>
            </g>
        </g>
    </g>
</svg>