<?xml version="1.0" encoding="UTF-8" standalone="no"?>
<svg width="409px" height="277px" viewBox="0 0 409 277" version="1.1" xmlns="http://www.w3.org/2000/svg" xmlns:xlink="http://www.w3.org/1999/xlink" xmlns:sketch="http://www.bohemiancoding.com/sketch/ns">
    <!-- Generator: Sketch 3.2.2 (9983) - http://www.bohemiancoding.com/sketch -->
    <title>Group</title>
    <desc>Created with Sketch.</desc>
    <defs></defs>
    <g id="Page-1" stroke="none" stroke-width="1" fill="none" fill-rule="evenodd" sketch:type="MSPage">
        <g id="-14" sketch:type="MSArtboardGroup" transform="translate(-278.000000, -95.000000)" fill-opacity="0.5" fill="#E3E5EA">
            <g id="Group" sketch:type="MSLayerGroup" transform="translate(482.500000, 234.000000) scale(-1, 1) translate(-482.500000, -234.000000) translate(278.000000, 100.000000)">
                <path d="M24.1965555,86.6839156 L4.37117149,89.1181667 L0.349483159,56.3641437 L47.8606529,50.5305056 L46.065576,41.2956354 L282.637727,-4.68933247 L287.648386,21.088274 L287.648386,21.088274 L362.628829,11.8818333 L366.650517,44.6358563 L269.691464,56.5409311 L387.404457,48.3096367 L389.706421,81.2292504 L25.5955426,106.690363 L24.1965555,86.6839156 Z" id="Rectangle-531" sketch:type="MSShapeGroup"></path>
                <path d="M287.671697,21.2081964 L288.934424,27.7043646 L52.3622728,73.6893325 L47.8839634,50.6504279 L287.671697,21.2081964 Z" id="Rectangle-541" sketch:type="MSShapeGroup"></path>
                <path d="M385.090937,104.617116 L385.268895,114.812347 L93.3156802,119.908409 L385.090937,104.617116 Z" id="Rectangle-531" sketch:type="MSShapeGroup"></path>
                <path d="M385.082229,104.618258 L384.68424,81.8174489 L19.7398309,88.1875772 L20.3157603,121.182551 L93.3374907,119.907952 L9.40575314,124.306628 L11.1328397,157.261403 L403.594247,136.693372 L401.86716,103.738597 L385.082229,104.618258 Z" id="Rectangle-537" sketch:type="MSShapeGroup"></path>
                <path d="M402.610918,175 L177.065974,175 L400.146569,151.553285 L402.610918,175 Z" id="Rectangle-531" sketch:type="MSShapeGroup"></path>
                <path d="M402.66347,175 L409,175 L409,142 L16,142 L16,175 L177.092178,175 L9.35172792,192.630232 L12.8011672,225.449454 L403.648272,184.369768 L402.66347,175 Z" id="Rectangle-535" sketch:type="MSShapeGroup"></path>
                <path d="M355.010419,232 L123.505992,232 L352.480955,207.933762 L355.010419,232 Z" id="Rectangle-531" sketch:type="MSShapeGroup"></path>
                <path d="M355.010419,232 L374,232 L374,199 L45,199 L45,232 L123.505992,232 L64.0696055,238.247016 L67.5190448,271.066238 L355.930394,240.752984 L355.010419,232 Z" id="Rectangle-533" sketch:type="MSShapeGroup"></path>
                <path d="M308.528868,52.895082 L25.3352186,87.6668899 L24.293579,72.7707496 L308.528868,52.895082 Z" id="Rectangle-539" sketch:type="MSShapeGroup"></path>
            </g>
        </g>
    </g>
</svg>