<?xml version="1.0" encoding="UTF-8" standalone="no"?>
<svg width="137px" height="124px" viewBox="0 0 137 124" version="1.1" xmlns="http://www.w3.org/2000/svg" xmlns:xlink="http://www.w3.org/1999/xlink" xmlns:sketch="http://www.bohemiancoding.com/sketch/ns">
    <!-- Generator: Sketch 3.2.2 (9983) - http://www.bohemiancoding.com/sketch -->
    <title>Group</title>
    <desc>Created with Sketch.</desc>
    <defs></defs>
    <g id="Page-1" stroke="none" stroke-width="1" fill="none" fill-rule="evenodd" sketch:type="MSPage">
        <g id="-14" sketch:type="MSArtboardGroup" transform="translate(-921.000000, -100.000000)">
            <g id="Group" sketch:type="MSLayerGroup" transform="translate(921.000000, 102.000000)">
                <g transform="translate(0.000000, 1.000000)" id="Rectangle-531" fill="#FD924C" sketch:type="MSShapeGroup" fill-opacity="0.799988678">
                    <rect x="15.5916654" y="7.61353229" width="80.6400949" height="13.6800161"></rect>
                    <rect x="0.471647641" y="14.0935399" width="122.400144" height="13.6800161"></rect>
                    <rect x="6.60906565" y="34.9735645" width="122.400144" height="13.6800161"></rect>
                    <rect x="3.13707739" y="46.8406239" width="131.689408" height="13.6800161"></rect>
                    <rect x="5.30012453" y="58.5702598" width="131.689408" height="13.6800161"></rect>
                    <rect x="3.13707739" y="70.6136064" width="131.689408" height="13.6800161"></rect>
                    <rect x="15.1310049" y="81.9754547" width="110.443654" height="13.6800161"></rect>
                    <rect x="21.7225013" y="91.493631" width="97.2606616" height="13.6800161"></rect>
                    <rect x="8.04906734" y="24.8935526" width="122.400144" height="13.6800161"></rect>
                </g>
                <circle id="Oval-77" stroke="#FD924C" stroke-width="3" sketch:type="MSShapeGroup" cx="69" cy="60" r="60"></circle>
                <path d="M74.5,28 L74.5,64 L83.5,64 L83.5,28 L74.5,28 Z M61,73 L83.5,73 L83.5,64 L61,64 L61,73 Z" id="Rectangle-142" fill="#FFFFFF" sketch:type="MSShapeGroup" transform="translate(72.250000, 50.500000) rotate(-315.000000) translate(-72.250000, -50.500000) "></path>
            </g>
        </g>
    </g>
</svg>