<?xml version="1.0" encoding="UTF-8" standalone="no"?>
<svg width="22px" height="22px" viewBox="0 0 22 22" version="1.1" xmlns="http://www.w3.org/2000/svg" xmlns:xlink="http://www.w3.org/1999/xlink" xmlns:sketch="http://www.bohemiancoding.com/sketch/ns">
    <!-- Generator: Sketch 3.2.2 (9983) - http://www.bohemiancoding.com/sketch -->
    <title>pdf-download-2</title>
    <desc>Created with Sketch.</desc>
    <defs></defs>
    <g id="Illustrations" stroke="none" stroke-width="1" fill="none" fill-rule="evenodd" sketch:type="MSPage">
        <g id="pdf-download-2" sketch:type="MSArtboardGroup">
            <g id="scope-icon-2" sketch:type="MSLayerGroup" transform="translate(3.000000, 2.000000)">
                <path d="M10.031548,1 L2,1 L2,17 L14,17 L14,4.95430717 L10.031548,1 Z" id="Rectangle-21" stroke="#CED2D6" stroke-width="2" fill="#FFFFFF" sketch:type="MSShapeGroup"></path>
                <path d="M15.0215454,4.5 L10.4,7.4505806e-09 L10.4000244,4.5 L15.0215454,4.5 Z" id="Rectangle-24" fill="#AAACAD" sketch:type="MSShapeGroup"></path>
            </g>
            <path d="M8.29999998,12.9362397 L13.7,12.9362397 L11,16 L8.29999998,12.9362397 Z" id="Path-431" fill="#092F3E" sketch:type="MSShapeGroup"></path>
            <rect id="Rectangle-895" fill="#092F3E" sketch:type="MSShapeGroup" x="10" y="5.99999999" width="2" height="7.00000001"></rect>
            <rect id="Rectangle-901" fill="#E14343" sketch:type="MSShapeGroup" x="2" y="5" width="5" height="3"></rect>
            <rect id="Rectangle-902" fill="#E3E5EA" sketch:type="MSShapeGroup" x="7.59999999" y="6" width="1.40000001" height="1"></rect>
            <path d="M7.60000001,8 L9,8 L9,9 L7.60000001,9 L7.60000001,8 Z" id="Rectangle-902" fill="#E3E5EA" sketch:type="MSShapeGroup"></path>
            <rect id="Rectangle-902" fill="#E3E5EA" sketch:type="MSShapeGroup" x="13" y="8" width="2" height="1"></rect>
            <rect id="Rectangle-902" fill="#E3E5EA" sketch:type="MSShapeGroup" x="13" y="10" width="2" height="1"></rect>
            <path d="M14.4,12 L15,12 L15,13 L14.4,13 L14.4,12 Z" id="Rectangle-902" fill="#E3E5EA" sketch:type="MSShapeGroup"></path>
            <path d="M13.9,14 L15,14 L15,15 L13,15 L13.9,14 Z" id="Rectangle-902" fill="#E3E5EA" sketch:type="MSShapeGroup"></path>
            <path d="M12.2,16 L15,16 L15,17 L11.3,17 L12.2,16 Z" id="Rectangle-902" fill="#E3E5EA" sketch:type="MSShapeGroup"></path>
            <path d="M7.00000001,16 L9.8,16 L10.7,17 L7.00000001,17 L7.00000001,16 Z" id="Rectangle-902" fill="#E3E5EA" sketch:type="MSShapeGroup"></path>
            <path d="M7,14 L8.12087921,14 L9,15 L7,15 L7,14 Z" id="Rectangle-902" fill="#E3E5EA" sketch:type="MSShapeGroup"></path>
            <rect id="Rectangle-902" fill="#E3E5EA" sketch:type="MSShapeGroup" x="7" y="10" width="2" height="1"></rect>
            <path d="M7,12 L7.59999999,12 L7.59999999,13 L7,13 L7,12 Z" id="Rectangle-902" fill="#E3E5EA" sketch:type="MSShapeGroup"></path>
        </g>
    </g>
</svg>