<?xml version="1.0" encoding="UTF-8" standalone="no"?>
<svg width="48px" height="48px" viewBox="0 0 48 48" version="1.1" xmlns="http://www.w3.org/2000/svg" xmlns:xlink="http://www.w3.org/1999/xlink" xmlns:sketch="http://www.bohemiancoding.com/sketch/ns">
    <!-- Generator: Sketch 3.2.1 (9971) - http://www.bohemiancoding.com/sketch -->
    <title>proposal-not-ready</title>
    <desc>Created with Sketch.</desc>
    <defs></defs>
    <g id="Illustrations" stroke="none" stroke-width="1" fill="none" fill-rule="evenodd" sketch:type="MSPage">
        <g id="proposal-not-ready" sketch:type="MSArtboardGroup">
            <circle id="Oval-282" stroke="#C7CACD" stroke-width="2" fill="#FFFFFF" sketch:type="MSShapeGroup" cx="24" cy="24" r="21"></circle>
            <path d="M21.3955078,13.6574707 L26.5898438,13.6574707 L26.2602539,26.6169434 L21.7250977,26.6169434 L21.3955078,13.6574707 Z M21,31.3366699 C21,30.5017048 21.2900362,29.7941924 21.8701172,29.2141113 C22.4501982,28.6340303 23.1577107,28.3439941 23.9926758,28.3439941 C24.8276409,28.3439941 25.5351533,28.6340303 26.1152344,29.2141113 C26.6953154,29.7941924 26.9853516,30.5017048 26.9853516,31.3366699 C26.9853516,32.1804241 26.6953154,32.8923311 26.1152344,33.4724121 C25.5351533,34.0524931 24.8276409,34.3425293 23.9926758,34.3425293 C23.1577107,34.3425293 22.4501982,34.0524931 21.8701172,33.4724121 C21.2900362,32.8923311 21,32.1804241 21,31.3366699 L21,31.3366699 Z" id="!" fill="#C7CACD" sketch:type="MSShapeGroup"></path>
        </g>
    </g>
</svg>