<?xml version="1.0" encoding="UTF-8" standalone="no"?>
<svg width="60px" height="74px" viewBox="0 0 60 74" version="1.1" xmlns="http://www.w3.org/2000/svg" xmlns:xlink="http://www.w3.org/1999/xlink" xmlns:sketch="http://www.bohemiancoding.com/sketch/ns">
    <!-- Generator: Sketch 3.1.1 (8761) - http://www.bohemiancoding.com/sketch -->
    <title>propsal-view</title>
    <desc>Created with Sketch.</desc>
    <defs></defs>
    <g id="Illustrations" stroke="none" stroke-width="1" fill="none" fill-rule="evenodd" sketch:type="MSPage">
        <g id="propsal-view" sketch:type="MSArtboardGroup">
            <g id="cooperative" sketch:type="MSLayerGroup" transform="translate(4.000000, 4.000000)">
                <rect id="Rectangle-23" stroke="#E6E6E6" stroke-width="2" fill="#FFFFFF" sketch:type="MSShapeGroup" x="0" y="6" width="46" height="60"></rect>
                <rect id="Rectangle-24" stroke="#E6E6E6" stroke-width="2" fill="#FFFFFF" sketch:type="MSShapeGroup" x="3" y="3" width="46" height="60"></rect>
                <rect id="Rectangle-22" stroke="#90ACF3" stroke-width="2" fill="#FFFFFF" sketch:type="MSShapeGroup" x="6" y="0" width="46" height="60"></rect>
                <rect id="Rectangle-29" stroke="#DAE3FB" stroke-width="2" fill="#FFFFFF" sketch:type="MSShapeGroup" x="8" y="2" width="42" height="56"></rect>
                <rect id="Rectangle-23" sketch:type="MSShapeGroup" x="12" y="6" width="9" height="9"></rect>
                <rect id="Rectangle-24" fill="#373C3E" sketch:type="MSShapeGroup" x="29" y="8" width="12" height="1"></rect>
                <rect id="Rectangle-24" fill="#373C3E" sketch:type="MSShapeGroup" x="12" y="19" width="16.5" height="1"></rect>
                <rect id="Rectangle-24" fill="#373C3E" sketch:type="MSShapeGroup" x="12" y="27" width="12" height="1"></rect>
                <rect id="Rectangle-24" fill="#373C3E" sketch:type="MSShapeGroup" x="38" y="19" width="3" height="1"></rect>
                <rect id="Rectangle-24" fill="#373C3E" sketch:type="MSShapeGroup" x="38" y="27" width="3" height="1"></rect>
                <rect id="Rectangle-24" fill="#373C3E" sketch:type="MSShapeGroup" x="32" y="12" width="9" height="1"></rect>
                <rect id="Rectangle-24" fill="#373C3E" sketch:type="MSShapeGroup" x="12" y="23" width="11" height="1"></rect>
                <rect id="Rectangle-24" fill="#373C3E" sketch:type="MSShapeGroup" x="12" y="31" width="16.5" height="1"></rect>
                <rect id="Rectangle-24" fill="#373C3E" sketch:type="MSShapeGroup" x="38" y="23" width="3" height="1"></rect>
                <rect id="Rectangle-24" fill="#373C3E" sketch:type="MSShapeGroup" x="36" y="31" width="5" height="1"></rect>
                <rect id="Rectangle-28" fill="#373C3E" sketch:type="MSShapeGroup" x="12" y="35" width="9" height="1"></rect>
                <rect id="Rectangle-27" fill="#373C3E" sketch:type="MSShapeGroup" x="38" y="35" width="3" height="1"></rect>
                <rect id="Rectangle-26" fill="#373C3E" sketch:type="MSShapeGroup" x="12" y="39" width="9" height="1"></rect>
                <rect id="Rectangle-25" fill="#373C3E" sketch:type="MSShapeGroup" x="38" y="39" width="3" height="1"></rect>
                <rect id="Rectangle-30" fill="#373C3E" sketch:type="MSShapeGroup" x="38" y="46" width="3" height="2"></rect>
                <rect id="Rectangle-31" fill="#373C3E" sketch:type="MSShapeGroup" x="12" y="46" width="9" height="2"></rect>
                <ellipse id="Oval-125" stroke-opacity="0.898777187" stroke="#EE5334" sketch:type="MSShapeGroup" transform="translate(38.899014, 46.945281) rotate(-15.000000) translate(-38.899014, -46.945281) " cx="38.8990143" cy="46.9452805" rx="6.23273402" ry="3.44539709"></ellipse>
            </g>
            <path d="M20.976,17 L19.688,17 L18.576,14.728 L17.776,14.728 L17.776,17 L16.664,17 L16.664,11.304 L18.896,11.304 C19.4346694,11.304 19.8773316,11.4613318 20.224,11.776 C20.5706684,12.0906682 20.744,12.514664 20.744,13.048 C20.744,13.789337 20.3973368,14.2879987 19.704,14.544 L20.976,17 Z M19.632,13.048 C19.632,12.8186655 19.5546674,12.6360007 19.4,12.5 C19.2453326,12.3639993 19.0533345,12.296 18.824,12.296 L17.776,12.296 L17.776,13.8 L18.824,13.8 C19.0586678,13.8 19.2519992,13.733334 19.404,13.6 C19.5560008,13.466666 19.632,13.2826678 19.632,13.048 L19.632,13.048 Z M25.648,12.296 L23.008,12.296 L23.008,13.696 L25.256,13.696 L25.256,14.688 L23.008,14.688 L23.008,17 L21.896,17 L21.896,11.304 L25.648,11.304 L25.648,12.296 Z M30.768,16.656 L30.184,17.24 L29.68,16.736 C29.3599984,16.944001 28.9760022,17.048 28.528,17.048 C27.919997,17.048 27.4053354,16.8400021 26.984,16.424 C26.7333321,16.1786654 26.5680004,15.8506687 26.488,15.44 C26.4453331,15.2213322 26.424,14.7920032 26.424,14.152 C26.424,13.5226635 26.4453331,13.0933345 26.488,12.864 C26.562667,12.4586646 26.7279987,12.1306679 26.984,11.88 C27.4053354,11.4639979 27.919997,11.256 28.528,11.256 C29.136003,11.256 29.6479979,11.4639979 30.064,11.88 C30.3146679,12.1306679 30.4799996,12.4586646 30.56,12.864 C30.6080002,13.1040012 30.632,13.5333302 30.632,14.152 L30.632,14.744 C30.632,15.0266681 30.6186668,15.205333 30.592,15.28 C30.5706666,15.5893349 30.4666676,15.8853319 30.28,16.168 L30.768,16.656 Z M29.52,14.152 L29.52,13.736 C29.52,13.5759992 29.5146667,13.4373339 29.504,13.32 C29.4399997,12.6053298 29.1146696,12.248 28.528,12.248 C27.9626638,12.248 27.6373338,12.6053298 27.552,13.32 L27.536,14.152 C27.5306666,14.5200018 27.5359999,14.7973324 27.552,14.984 C27.6213337,15.6986702 27.9466638,16.056 28.528,16.056 C28.6720007,16.056 28.7946662,16.0213337 28.896,15.952 L28.4,15.464 L28.992,14.88 L29.416,15.304 C29.4853337,15.095999 29.52,14.7120028 29.52,14.152 L29.52,14.152 Z" id="RFQ" fill="#5883ED" sketch:type="MSShapeGroup"></path>
        </g>
    </g>
</svg>