<?xml version="1.0" encoding="UTF-8" standalone="no"?>
<svg width="85px" height="43px" viewBox="0 0 85 43" version="1.1" xmlns="http://www.w3.org/2000/svg" xmlns:xlink="http://www.w3.org/1999/xlink" xmlns:sketch="http://www.bohemiancoding.com/sketch/ns">
    <!-- Generator: Sketch 3.2 (9961) - http://www.bohemiancoding.com/sketch -->
    <title>ravti-logo-black</title>
    <desc>Created with Sketch.</desc>
    <defs>
        <radialGradient cx="49.2494488%" cy="50.000231%" fx="49.2494488%" fy="50.000231%" r="53.617284%" id="radialGradient-1">
            <stop stop-color="#00B3C0" offset="0%"></stop>
            <stop stop-color="#01B4BF" offset="23.73%"></stop>
            <stop stop-color="#1CB5BC" offset="34.62%"></stop>
            <stop stop-color="#29B5B9" offset="44.27%"></stop>
            <stop stop-color="#40B7B2" offset="54%"></stop>
            <stop stop-color="#5ABBA5" offset="63.76%"></stop>
            <stop stop-color="#76C093" offset="73.56%"></stop>
            <stop stop-color="#93C87A" offset="83.38%"></stop>
            <stop stop-color="#B4D252" offset="93.08%"></stop>
            <stop stop-color="#CDDC29" offset="100%"></stop>
        </radialGradient>
        <linearGradient x1="49.9972358%" y1="87.6065568%" x2="49.9972358%" y2="-16.1378452%" id="linearGradient-2">
            <stop stop-color="#E4E517" offset="8.79%"></stop>
            <stop stop-color="#DDE22F" offset="14.22%"></stop>
            <stop stop-color="#CDDD55" offset="28.58%"></stop>
            <stop stop-color="#BFD96D" offset="43.74%"></stop>
            <stop stop-color="#B5D77C" offset="59.85%"></stop>
            <stop stop-color="#AFD584" offset="77.57%"></stop>
            <stop stop-color="#ADD586" offset="100%"></stop>
        </linearGradient>
        <linearGradient x1="50.0049858%" y1="12.3908495%" x2="50.0049858%" y2="116.136981%" id="linearGradient-3">
            <stop stop-color="#E4E517" offset="8.79%"></stop>
            <stop stop-color="#DDE22F" offset="14.22%"></stop>
            <stop stop-color="#CDDD55" offset="28.58%"></stop>
            <stop stop-color="#BFD96D" offset="43.74%"></stop>
            <stop stop-color="#B5D77C" offset="59.85%"></stop>
            <stop stop-color="#AFD584" offset="77.57%"></stop>
            <stop stop-color="#ADD586" offset="100%"></stop>
        </linearGradient>
    </defs>
    <g id="Page-1" stroke="none" stroke-width="1" fill="none" fill-rule="evenodd" sketch:type="MSPage">
        <g id="ravti-logo-black" sketch:type="MSLayerGroup" transform="translate(1.000000, 0.000000)">
            <g id="Page-1" sketch:type="MSShapeGroup">
                <g id="logo" transform="translate(-1.500000, 0.000000)">
                    <path d="M1.3390354,21.1103204 C1.3390354,21.1103204 1.9993646,-0.062139823 22.1498868,0.171071682 C22.1498868,0.171071682 38.1572549,0.0621398231 42.396239,21.15 C42.396239,21.15 45.5159576,41.5356053 64.2327717,42.1439018 C64.2327717,42.1439018 83.2535469,42.7967442 84.7048487,21.0421911 C84.7048487,21.0421911 82.8560018,39.8903973 64.2327717,39.8903973 C64.2327717,39.8903973 48.4515027,41.3173673 42.3026549,20.9160398 C42.3026549,20.9160398 37.7013132,2.04312744 22.3535256,2.51104779 C22.3535256,2.51104779 4.1484292,1.27124602 1.3390354,21.1103204 L1.3390354,21.1103204 L1.3390354,21.1103204 Z" id="Shape" fill="url(#radialGradient-1)"></path>
                    <path d="M8.90661769,23.5771965 C8.90661769,21.5928397 9.14469558,20.4425045 9.89860885,19.0140372 C10.4938035,17.8633275 11.2477168,16.9110159 12.2000283,16.1967823 C13.8268938,14.9270336 15.3744,14.4108239 17.7551787,14.3318389 L17.7551787,15.8003602 C15.4537593,16.038438 14.5014478,16.3555009 13.1126602,17.4669052 C11.4857947,18.8160132 10.5731628,20.720262 10.5731628,22.9030169 L10.5731628,30.9183052 L8.90661769,30.9183052 L8.90661769,23.5771965 L8.90661769,23.5771965 Z" id="Shape" fill="#000000"></path>
                    <path d="M38.2695558,30.9183052 L36.4046124,25.3234752 C35.1348638,28.14073 34.2619114,29.1724009 32.3176089,30.283431 C31.0081806,30.9976645 29.5797132,31.3547814 28.0718868,31.3547814 C23.2706496,31.3547814 19.4217238,27.5455354 19.4217238,22.6645645 C19.4217238,17.8633275 23.3500089,13.9743478 28.2306053,13.9743478 C30.5320248,13.9743478 33.1512558,15.1651114 34.539669,16.8316566 C35.3729417,17.8236478 36.0871752,19.1330761 36.6030107,20.720262 L39.936101,30.9183052 L38.2695558,30.9183052 L38.2695558,30.9183052 Z M28.0715124,29.8072752 C31.9997973,29.8072752 35.1745434,26.5928496 35.1745434,22.6248849 C35.1745434,18.6565459 32.079531,15.521854 28.111192,15.521854 C24.1829072,15.521854 21.0081611,18.6962256 21.0081611,22.7042442 C21.0085355,26.6325292 24.1829072,29.8072752 28.0715124,29.8072752 L28.0715124,29.8072752 L28.0715124,29.8072752 Z" id="Shape" fill="#000000"></path>
                    <path d="M40.2127354,14.4508779 L46.204362,28.2994486 L52.7121983,14.4508779 L54.4981566,14.4508779 L46.1646823,32.2277337 L38.4271514,14.4508779 L40.2127354,14.4508779 L40.2127354,14.4508779 Z" id="Shape" fill="#000000"></path>
                    <path d="M56.9567973,14.4108239 L58.3852645,14.4108239 L58.3852645,10.1651018 L59.9327707,9.80798496 L59.9327707,14.4905575 L64.6947027,14.4905575 L64.6947027,15.7999858 L59.9724504,15.7999858 L59.9724504,25.9583496 C59.9331452,28.6565655 60.9251362,29.7675955 63.3455947,29.7675955 C63.6634062,29.7675955 64.0201486,29.7282903 64.6947027,29.6882362 L64.6947027,31.1167035 C63.9407893,31.2353682 63.5832982,31.2754221 63.1075168,31.2754221 C59.8537858,31.2754221 58.3062796,29.8072752 58.3062796,26.6329035 L58.3062796,15.8396655 L56.9571717,15.8396655 L56.9571717,14.4108239 L56.9567973,14.4108239 L56.9567973,14.4108239 Z" id="Shape" fill="#000000"></path>
                    <path d="M71.5196018,7.98272124 C71.5196018,8.77631416 70.8450479,9.41118849 69.9720956,9.41118849 C69.0991434,9.41118849 68.464269,8.73626017 68.464269,7.82400266 C68.464269,6.99035576 69.0991434,6.3955354 70.0117752,6.3955354 C70.8847275,6.3955354 71.5196018,7.07008938 71.5196018,7.98272124 L71.5196018,7.98272124 L71.5196018,7.98272124 Z M69.0991434,14.4905575 L70.8057424,14.4905575 L70.8057424,30.9183053 L69.0991434,30.9183053 L69.0991434,14.4905575 L69.0991434,14.4905575 Z" id="Shape" fill="#000000"></path>
                    <path d="M7.30221239,10.6685841 C7.30221239,10.6685841 -0.9957,20.276299 6.42888583,32.3175744 C6.42888583,32.3175744 0.564159292,24.5190265 7.30221239,10.6685841 L7.30221239,10.6685841 L7.30221239,10.6685841 Z" id="Shape" fill="url(#linearGradient-2)"></path>
                    <path d="M78.1461027,32.3797141 C78.1461027,32.3797141 86.4440151,22.771999 79.0198035,10.7307239 C79.0198035,10.7307239 84.8841558,18.5292717 78.1461027,32.3797141 L78.1461027,32.3797141 L78.1461027,32.3797141 Z" id="Shape" fill="url(#linearGradient-3)"></path>
                </g>
            </g>
        </g>
    </g>
</svg>