<?xml version="1.0" encoding="UTF-8" standalone="no"?>
<svg width="90px" height="90px" viewBox="0 0 90 90" version="1.1" xmlns="http://www.w3.org/2000/svg" xmlns:xlink="http://www.w3.org/1999/xlink" xmlns:sketch="http://www.bohemiancoding.com/sketch/ns">
    <!-- Generator: Sketch 3.2.2 (9983) - http://www.bohemiancoding.com/sketch -->
    <title>request-submitted-success</title>
    <desc>Created with Sketch.</desc>
    <defs>
        <path id="path-1" d="M8.36414611,13.7155099 L25.0029621,13.7155104 L28.4394531,5.86158085 L39.0078468,9.64966679 L45.8496094,0.251953125 L53.1181984,12.3625574 L66.7792969,9.64966679 L68.3240905,24.9014993 L80.2941132,30.3186131 L72.5381165,39.3461266 L80.294113,51.6279031 L69.3818593,56.1462317 L68.7245557,68.2277761 L51.5163812,68.2277761 L43.5036982,78.6922523 L34.7390869,68.3240905 L21.3750401,74.7501204 L20.0942274,60.8571892 L3.3169331,55.6984542 L8.87613324,46.5012729 L0,33.329855 L10.9274612,27.2096656 L8.36414611,13.7155099 Z"></path>
    </defs>
    <g id="Illustrations" stroke="none" stroke-width="1" fill="none" fill-rule="evenodd" sketch:type="MSPage">
        <g id="request-submitted-success" sketch:type="MSArtboardGroup">
            <path d="M14.3641461,18.7155099 L31.0029621,18.7155104 L34.4394531,10.8615808 L45.0078468,14.6496668 L51.8496094,5.25195312 L59.1181984,17.3625574 L72.7792969,14.6496668 L74.3240905,29.9014993 L86.2941132,35.3186131 L78.5381165,44.3461266 L86.294113,56.6279031 L75.3818593,61.1462317 L74.7245557,73.2277761 L57.5163812,73.2277761 L49.5036982,83.6922523 L40.7390869,73.3240905 L27.3750401,79.7501204 L26.0942274,65.8571892 L9.3169331,60.6984542 L14.8761332,51.5012729 L6,38.329855 L16.9274612,32.2096656 L14.3641461,18.7155099 Z" id="Path-658" stroke="#6FC9B7" stroke-width="5" sketch:type="MSShapeGroup"></path>
            <path d="M14.3641461,18.7155099 L31.0029621,18.7155104 L34.4394531,10.8615808 L45.0078468,14.6496668 L51.8496094,5.25195312 L59.1181984,17.3625574 L72.7792969,14.6496668 L74.3240905,29.9014993 L86.2941132,35.3186131 L78.5381165,44.3461266 L86.294113,56.6279031 L75.3818593,61.1462317 L74.7245557,73.2277761 L57.5163812,73.2277761 L49.5036982,83.6922523 L40.7390869,73.3240905 L27.3750401,79.7501204 L26.0942274,65.8571892 L9.3169331,60.6984542 L14.8761332,51.5012729 L6,38.329855 L16.9274612,32.2096656 L14.3641461,18.7155099 Z" id="Path-659" fill="#6FC9B7" sketch:type="MSShapeGroup"></path>
            <g id="New-Mask-Group" sketch:type="MSLayerGroup" transform="translate(6.000000, 5.000000)">
                <mask id="mask-2" sketch:name="Mask" fill="white">
                    <use xlink:href="#path-1"></use>
                </mask>
                <use id="Mask" sketch:type="MSShapeGroup" xlink:href="#path-1"></use>
                <path d="M0.5,76.5 L84.5535507,76.5" id="Line" stroke-opacity="0.104761096" stroke="#092F3E" stroke-linecap="square" sketch:type="MSShapeGroup" mask="url(#mask-2)"></path>
                <path d="M0.5,73.5 L84.5535507,73.5" id="Line" stroke-opacity="0.104761096" stroke="#092F3E" stroke-linecap="square" sketch:type="MSShapeGroup" mask="url(#mask-2)"></path>
                <path d="M0.5,70.5 L84.5535507,70.5" id="Line-2" stroke-opacity="0.104761096" stroke="#092F3E" stroke-linecap="square" sketch:type="MSShapeGroup" mask="url(#mask-2)"></path>
                <path d="M0.5,67.5 L84.5535507,67.5" id="Line-3" stroke-opacity="0.104761096" stroke="#092F3E" stroke-linecap="square" sketch:type="MSShapeGroup" mask="url(#mask-2)"></path>
                <path d="M0.5,64.5 L84.5535507,64.5" id="Line-4" stroke-opacity="0.104761096" stroke="#092F3E" stroke-linecap="square" sketch:type="MSShapeGroup" mask="url(#mask-2)"></path>
                <path d="M0.5,61.5 L84.5535507,61.5" id="Line-5" stroke-opacity="0.104761096" stroke="#092F3E" stroke-linecap="square" sketch:type="MSShapeGroup" mask="url(#mask-2)"></path>
                <path d="M0.5,58.5 L84.5535507,58.5" id="Line-6" stroke-opacity="0.104761096" stroke="#092F3E" stroke-linecap="square" sketch:type="MSShapeGroup" mask="url(#mask-2)"></path>
                <path d="M0.5,55.5 L84.5535507,55.5" id="Line-7" stroke-opacity="0.104761096" stroke="#092F3E" stroke-linecap="square" sketch:type="MSShapeGroup" mask="url(#mask-2)"></path>
                <path d="M0.5,52.5 L84.5535507,52.5" id="Line-8" stroke-opacity="0.104761096" stroke="#092F3E" stroke-linecap="square" sketch:type="MSShapeGroup" mask="url(#mask-2)"></path>
                <path d="M0.5,49.5 L84.5535507,49.5" id="Line-9" stroke-opacity="0.104761096" stroke="#092F3E" stroke-linecap="square" sketch:type="MSShapeGroup" mask="url(#mask-2)"></path>
                <path d="M0.5,46.5 L84.5535507,46.5" id="Line-10" stroke-opacity="0.104761096" stroke="#092F3E" stroke-linecap="square" sketch:type="MSShapeGroup" mask="url(#mask-2)"></path>
                <path d="M0.5,43.5 L84.5535507,43.5" id="Line-11" stroke-opacity="0.104761096" stroke="#092F3E" stroke-linecap="square" sketch:type="MSShapeGroup" mask="url(#mask-2)"></path>
                <path d="M0.5,40.5 L84.5535507,40.5" id="Line-12" stroke-opacity="0.104761096" stroke="#092F3E" stroke-linecap="square" sketch:type="MSShapeGroup" mask="url(#mask-2)"></path>
                <path d="M0.5,37.5 L84.5535507,37.5" id="Line-13" stroke-opacity="0.104761096" stroke="#092F3E" stroke-linecap="square" sketch:type="MSShapeGroup" mask="url(#mask-2)"></path>
                <path d="M0.5,34.5 L84.5535507,34.5" id="Line-14" stroke-opacity="0.104761096" stroke="#092F3E" stroke-linecap="square" sketch:type="MSShapeGroup" mask="url(#mask-2)"></path>
                <path d="M0.5,31.5 L84.5535507,31.5" id="Line-15" stroke-opacity="0.104761096" stroke="#092F3E" stroke-linecap="square" sketch:type="MSShapeGroup" mask="url(#mask-2)"></path>
                <path d="M0.5,28.5 L84.5535507,28.5" id="Line-16" stroke-opacity="0.104761096" stroke="#092F3E" stroke-linecap="square" sketch:type="MSShapeGroup" mask="url(#mask-2)"></path>
                <path d="M0.5,25.5 L84.5535507,25.5" id="Line-17" stroke-opacity="0.104761096" stroke="#092F3E" stroke-linecap="square" sketch:type="MSShapeGroup" mask="url(#mask-2)"></path>
                <path d="M0.5,22.5 L84.5535507,22.5" id="Line-18" stroke-opacity="0.104761096" stroke="#092F3E" stroke-linecap="square" sketch:type="MSShapeGroup" mask="url(#mask-2)"></path>
                <path d="M0.5,19.5 L84.5535507,19.5" id="Line-19" stroke-opacity="0.104761096" stroke="#092F3E" stroke-linecap="square" sketch:type="MSShapeGroup" mask="url(#mask-2)"></path>
                <path d="M0.5,16.5 L84.5535507,16.5" id="Line-20" stroke-opacity="0.104761096" stroke="#092F3E" stroke-linecap="square" sketch:type="MSShapeGroup" mask="url(#mask-2)"></path>
                <path d="M0.5,13.5 L84.5535507,13.5" id="Line-21" stroke-opacity="0.104761096" stroke="#092F3E" stroke-linecap="square" sketch:type="MSShapeGroup" mask="url(#mask-2)"></path>
                <path d="M0.5,10.5 L84.5535507,10.5" id="Line-22" stroke-opacity="0.104761096" stroke="#092F3E" stroke-linecap="square" sketch:type="MSShapeGroup" mask="url(#mask-2)"></path>
                <path d="M0.5,7.5 L84.5535507,7.5" id="Line-23" stroke-opacity="0.104761096" stroke="#092F3E" stroke-linecap="square" sketch:type="MSShapeGroup" mask="url(#mask-2)"></path>
                <path d="M0.5,4.5 L84.5535507,4.5" id="Line-24" stroke-opacity="0.104761096" stroke="#092F3E" stroke-linecap="square" sketch:type="MSShapeGroup" mask="url(#mask-2)"></path>
                <path d="M0.5,1.5 L84.5535507,1.5" id="Line-25" stroke-opacity="0.104761096" stroke="#092F3E" stroke-linecap="square" sketch:type="MSShapeGroup" mask="url(#mask-2)"></path>
            </g>
            <g id="Group" sketch:type="MSLayerGroup" transform="translate(25.000000, 24.000000)">
                <path d="M6.17644734,33.3895986 C2.36110098,29.850745 0,24.954599 0,19.5451921 C0,8.75068041 9.40202046,0 21,0 C32.5979795,0 42,8.75068041 42,19.5451921 C42,30.3397034 32.5979795,39.0903838 21,39.0903838 C18.1035947,39.0903838 15.3441443,38.5446311 12.8338846,37.557586 L7.02807126,40 L6.17644734,33.3895986 L6.17644734,33.3895986 Z" id="Oval-216" stroke="#092F3E" stroke-width="2" fill="#FFFFFF" sketch:type="MSShapeGroup"></path>
                <circle id="Oval-395" opacity="0.6" fill="#58A1ED" sketch:type="MSShapeGroup" cx="10" cy="19" r="4"></circle>
                <circle id="Oval-396" opacity="0.8" fill="#58A1ED" sketch:type="MSShapeGroup" cx="21" cy="19" r="4"></circle>
                <circle id="Oval-397" fill="#58A1ED" sketch:type="MSShapeGroup" cx="31" cy="19" r="4"></circle>
            </g>
        </g>
    </g>
</svg>