<?xml version="1.0" encoding="UTF-8" standalone="no"?>
<svg width="89px" height="87px" viewBox="0 0 89 87" version="1.1" xmlns="http://www.w3.org/2000/svg" xmlns:xlink="http://www.w3.org/1999/xlink" xmlns:sketch="http://www.bohemiancoding.com/sketch/ns">
    <!-- Generator: Sketch 3.2.2 (9983) - http://www.bohemiancoding.com/sketch -->
    <title>rfq-submitted</title>
    <desc>Created with Sketch.</desc>
    <defs></defs>
    <g id="Page-1" stroke="none" stroke-width="1" fill="none" fill-rule="evenodd" sketch:type="MSPage">
        <g id="submit-pricing-2" sketch:type="MSArtboardGroup" transform="translate(-371.000000, -257.000000)">
            <g id="rfq-submitted" sketch:type="MSLayerGroup" transform="translate(371.000000, 258.000000)">
                <path d="M74.5,8.37775784 L37.5332446,32.7583957 L0.499999993,8.37775783" id="Path-499" stroke="#E6E6E6" stroke-width="2" fill="#FFFFFF" sketch:type="MSShapeGroup" transform="translate(37.500000, 20.568077) scale(1, -1) translate(-37.500000, -20.568077) "></path>
                <g id="cooperative" transform="translate(11.000000, 0.000000)" sketch:type="MSShapeGroup">
                    <rect id="Rectangle-23" stroke="#E6E6E6" stroke-width="2" fill="#FFFFFF" x="0" y="6" width="46" height="60"></rect>
                    <rect id="Rectangle-24" stroke="#E6E6E6" stroke-width="2" fill="#FFFFFF" x="3" y="3" width="46" height="60"></rect>
                    <rect id="Rectangle-22" stroke="#90ACF3" stroke-width="2" fill="#FFFFFF" x="6" y="0" width="46" height="60"></rect>
                    <rect id="Rectangle-29" stroke="#DAE3FB" stroke-width="2" fill="#FFFFFF" x="8" y="2" width="42" height="56"></rect>
                    <rect id="Rectangle-23" x="12" y="6" width="9" height="9"></rect>
                    <rect id="Rectangle-24" fill="#373C3E" x="29" y="8" width="12" height="1"></rect>
                    <rect id="Rectangle-24" fill="#373C3E" x="12" y="19" width="16.5" height="1"></rect>
                    <rect id="Rectangle-24" fill="#373C3E" x="12" y="27" width="12" height="1"></rect>
                    <rect id="Rectangle-24" fill="#373C3E" x="38" y="19" width="3" height="1"></rect>
                    <rect id="Rectangle-24" fill="#373C3E" x="38" y="27" width="3" height="1"></rect>
                    <rect id="Rectangle-24" fill="#373C3E" x="32" y="12" width="9" height="1"></rect>
                    <rect id="Rectangle-24" fill="#373C3E" x="12" y="23" width="11" height="1"></rect>
                    <rect id="Rectangle-24" fill="#373C3E" x="12" y="31" width="16.5" height="1"></rect>
                    <rect id="Rectangle-24" fill="#373C3E" x="38" y="23" width="3" height="1"></rect>
                    <rect id="Rectangle-24" fill="#373C3E" x="36" y="31" width="5" height="1"></rect>
                    <rect id="Rectangle-28" fill="#373C3E" x="12" y="35" width="9" height="1"></rect>
                    <rect id="Rectangle-27" fill="#373C3E" x="38" y="35" width="3" height="1"></rect>
                    <rect id="Rectangle-26" fill="#373C3E" x="12" y="39" width="9" height="1"></rect>
                    <rect id="Rectangle-25" fill="#373C3E" x="38" y="39" width="3" height="1"></rect>
                    <rect id="Rectangle-30" fill="#373C3E" x="38" y="46" width="3" height="2"></rect>
                    <rect id="Rectangle-31" fill="#373C3E" x="12" y="46" width="9" height="2"></rect>
                    <ellipse id="Oval-125" stroke-opacity="0.898777187" stroke="#EE5334" transform="translate(38.899014, 46.945281) rotate(-15.000000) translate(-38.899014, -46.945281) " cx="38.8990143" cy="46.9452805" rx="6.23273402" ry="3.44539709"></ellipse>
                </g>
                <path d="M27.976,13 L26.688,13 L25.576,10.728 L24.776,10.728 L24.776,13 L23.664,13 L23.664,7.304 L25.896,7.304 C26.4346694,7.304 26.8773316,7.46133176 27.224,7.776 C27.5706684,8.09066824 27.744,8.514664 27.744,9.048 C27.744,9.78933704 27.3973368,10.2879987 26.704,10.544 L27.976,13 Z M26.632,9.048 C26.632,8.81866552 26.5546674,8.63600068 26.4,8.5 C26.2453326,8.36399932 26.0533345,8.296 25.824,8.296 L24.776,8.296 L24.776,9.8 L25.824,9.8 C26.0586678,9.8 26.2519992,9.733334 26.404,9.6 C26.5560008,9.466666 26.632,9.28266784 26.632,9.048 L26.632,9.048 Z M32.648,8.296 L30.008,8.296 L30.008,9.696 L32.256,9.696 L32.256,10.688 L30.008,10.688 L30.008,13 L28.896,13 L28.896,7.304 L32.648,7.304 L32.648,8.296 Z M37.768,12.656 L37.184,13.24 L36.68,12.736 C36.3599984,12.944001 35.9760022,13.048 35.528,13.048 C34.919997,13.048 34.4053354,12.8400021 33.984,12.424 C33.7333321,12.1786654 33.5680004,11.8506687 33.488,11.44 C33.4453331,11.2213322 33.424,10.7920032 33.424,10.152 C33.424,9.52266352 33.4453331,9.09333448 33.488,8.864 C33.562667,8.45866464 33.7279987,8.13066792 33.984,7.88 C34.4053354,7.46399792 34.919997,7.256 35.528,7.256 C36.136003,7.256 36.6479979,7.46399792 37.064,7.88 C37.3146679,8.13066792 37.4799996,8.45866464 37.56,8.864 C37.6080002,9.1040012 37.632,9.53333024 37.632,10.152 L37.632,10.744 C37.632,11.0266681 37.6186668,11.205333 37.592,11.28 C37.5706666,11.5893349 37.4666676,11.8853319 37.28,12.168 L37.768,12.656 Z M36.52,10.152 L36.52,9.736 C36.52,9.5759992 36.5146667,9.43733392 36.504,9.32 C36.4399997,8.60532976 36.1146696,8.248 35.528,8.248 C34.9626638,8.248 34.6373338,8.60532976 34.552,9.32 L34.536,10.152 C34.5306666,10.5200018 34.5359999,10.7973324 34.552,10.984 C34.6213337,11.6986702 34.9466638,12.056 35.528,12.056 C35.6720007,12.056 35.7946662,12.0213337 35.896,11.952 L35.4,11.464 L35.992,10.88 L36.416,11.304 C36.4853337,11.095999 36.52,10.7120028 36.52,10.152 L36.52,10.152 Z" id="RFQ" fill="#5883ED" sketch:type="MSShapeGroup"></path>
                <path d="M1,75 L74,75 L74,33.3777578 L37.5332446,53.0583957 L1,33.3777578 L1,75 Z" id="Path-498" stroke="#E6E6E6" stroke-width="2" fill="#FFFFFF" sketch:type="MSShapeGroup"></path>
                <path d="M74.5,53.0777578 L37.5332446,75 L0.499999993,53.0777578" id="Path-500" stroke="#E6E6E6" stroke-width="2" sketch:type="MSShapeGroup" transform="translate(37.500000, 64.038879) scale(1, -1) translate(-37.500000, -64.038879) "></path>
                <g id="success-icon-3" transform="translate(74.000000, 70.506338) rotate(-8.000000) translate(-74.000000, -70.506338) translate(58.500000, 55.006338)" sketch:type="MSShapeGroup">
                    <circle id="Oval-282" stroke="#71CC68" fill-opacity="0.702558877" fill="#AADC6F" cx="15" cy="15" r="14"></circle>
                    <polygon id="Star-1" stroke="#71CC68" points="15 29.1243044 13.4320731 29.9178284 12.063392 28.8156544 10.3647451 29.2658477 9.25512786 27.9031941 7.5 27.9903811 6.69794219 26.4268023 4.9630409 26.1471724 4.5035963 24.4510043 2.86474508 23.8167788 2.76799361 22.0621522 1.29681814 21.1010496 1.56698829 19.3646501 0.327785989 18.1186754 0.953070051 16.4763918 1.13686838e-13 15 0.953070051 13.5236082 0.327785989 11.8813246 1.56698829 10.6353499 1.29681814 8.89895035 2.76799361 7.93784782 2.86474508 6.18322122 4.5035963 5.54899565 4.9630409 3.85282762 6.69794219 3.57319773 7.5 2.00961894 9.25512786 2.0968059 10.3647451 0.734152256 12.063392 1.18434557 13.4320731 0.0821715695 15 0.875695634 16.5679269 0.0821715695 17.936608 1.18434557 19.6352549 0.734152256 20.7448721 2.0968059 22.5 2.00961894 23.3020578 3.57319773 25.0369591 3.85282762 25.4964037 5.54899565 27.1352549 6.18322122 27.2320064 7.93784782 28.7031819 8.89895035 28.4330117 10.6353499 29.672214 11.8813246 29.0469299 13.5236082 30 15 29.0469299 16.4763918 29.672214 18.1186754 28.4330117 19.3646501 28.7031819 21.1010496 27.2320064 22.0621522 27.1352549 23.8167788 25.4964037 24.4510043 25.0369591 26.1471724 23.3020578 26.4268023 22.5 27.9903811 20.7448721 27.9031941 19.6352549 29.2658477 17.936608 28.8156544 16.5679269 29.9178284 "></polygon>
                    <g id="check" transform="translate(15.906718, 13.103374) rotate(-315.000000) translate(-15.906718, -13.103374) translate(11.906718, 5.103374)" fill="#FFFFFF">
                        <path d="M4.94117647,1.04805054e-13 L4.94117647,13.1764706 L8.23529412,13.1764706 L8.23529412,1.04805054e-13 L4.94117647,1.04805054e-13 L4.94117647,1.04805054e-13 Z M-4.61852778e-14,16.4705882 L8.23529412,16.4705882 L8.23529412,13.1764706 L-4.59835713e-14,13.1764706 L-4.61852778e-14,16.4705882 L-4.61852778e-14,16.4705882 Z" id="Rectangle-142"></path>
                    </g>
                </g>
            </g>
        </g>
    </g>
</svg>