<?xml version="1.0" encoding="UTF-8" standalone="no"?>
<svg width="30px" height="30px" viewBox="0 0 30 30" version="1.1" xmlns="http://www.w3.org/2000/svg" xmlns:xlink="http://www.w3.org/1999/xlink" xmlns:sketch="http://www.bohemiancoding.com/sketch/ns">
    <!-- Generator: Sketch 3.2.2 (9983) - http://www.bohemiancoding.com/sketch -->
    <title>Artboard 1</title>
    <desc>Created with Sketch.</desc>
    <defs></defs>
    <g id="Page-1" stroke="none" stroke-width="1" fill="none" fill-rule="evenodd" sketch:type="MSPage">
        <g id="Artboard-1" sketch:type="MSArtboardGroup" fill="#D8D8D8">
            <path d="M22.008138,12.0740803 C22.008138,11.9907759 21.97573,11.9241324 21.927119,11.8574888 L19.885447,9.75821775 C19.772021,9.64159165 19.577576,9.64159165 19.46415,9.75821775 L15.008119,14.3566211 L10.552089,9.75821775 C10.438663,9.64159165 10.244218,9.64159165 10.130792,9.75821775 L8.08912,11.8574888 C7.975694,11.974115 7.975694,12.1740457 8.08912,12.2906718 L14.797471,19.1882767 C14.910897,19.3049029 15.105342,19.3049029 15.218768,19.1882767 L21.927119,12.2906718 C21.97573,12.2240282 22.008138,12.1573847 22.008138,12.0740803 L22.008138,12.0740803 L22.008138,12.0740803 Z" id="ï”" sketch:type="MSShapeGroup" transform="translate(15.006094, 14.473247) rotate(-180.000000) translate(-15.006094, -14.473247) "></path>
        </g>
    </g>
</svg>