<?xml version="1.0" encoding="UTF-8" standalone="no"?>
<svg width="57px" height="57px" viewBox="0 0 57 57" version="1.1" xmlns="http://www.w3.org/2000/svg" xmlns:xlink="http://www.w3.org/1999/xlink" xmlns:sketch="http://www.bohemiancoding.com/sketch/ns">
    <!-- Generator: Sketch 3.2.2 (9983) - http://www.bohemiancoding.com/sketch -->
    <title>Quote</title>
    <desc>Created with Sketch.</desc>
    <defs></defs>
    <g id="Page-1" stroke="none" stroke-width="1" fill="none" fill-rule="evenodd" sketch:type="MSPage">
        <g id="Job-Summary-2" sketch:type="MSArtboardGroup" transform="translate(-181.000000, -760.000000)">
            <g id="Quote" sketch:type="MSLayerGroup" transform="translate(182.000000, 761.000000)">
                <circle id="Oval-3" stroke="#E3E5EA" stroke-width="2" fill="#FFFFFF" sketch:type="MSShapeGroup" cx="27.5" cy="27.5" r="27.5"></circle>
                <g id="Oval-361-+-Oval-361" transform="translate(21.000000, 22.000000)" fill="#AAACAD" sketch:type="MSShapeGroup">
                    <path d="M11.6508733,4.16887639 C12.9947915,4.46616473 14,5.66473097 14,7.09807624 C14,8.75493049 12.6568542,10.0980762 11,10.0980762 C9.34314575,10.0980762 8,8.75493049 8,7.09807624 C8,6.3736332 8.25678108,5.7091646 8.68429148,5.19072217 L11.6339746,0 L13.4037419,1.0217756 L11.6508733,4.16887639 Z" id="Oval-361"></path>
                    <path d="M3.65087328,4.16887639 C4.99479147,4.46616473 6,5.66473097 6,7.09807624 C6,8.75493049 4.65685425,10.0980762 3,10.0980762 C1.34314575,10.0980762 0,8.75493049 0,7.09807624 C0,6.3736332 0.256781077,5.7091646 0.684291483,5.19072217 L3.6339746,0 L5.40374186,1.0217756 L3.65087328,4.16887639 Z" id="Oval-361"></path>
                </g>
            </g>
        </g>
    </g>
</svg>