<?xml version="1.0" encoding="UTF-8" standalone="no"?>
<svg width="60px" height="74px" viewBox="0 0 60 74" version="1.1" xmlns="http://www.w3.org/2000/svg" xmlns:xlink="http://www.w3.org/1999/xlink" xmlns:sketch="http://www.bohemiancoding.com/sketch/ns">
    <!-- Generator: Sketch 3.2.2 (9983) - http://www.bohemiancoding.com/sketch -->
    <title>lease-view 2</title>
    <desc>Created with Sketch.</desc>
    <defs></defs>
    <g id="Illustrations" stroke="none" stroke-width="1" fill="none" fill-rule="evenodd" sketch:type="MSPage">
        <g id="lease-view-2" sketch:type="MSArtboardGroup">
            <g id="cooperative" sketch:type="MSLayerGroup" transform="translate(7.000000, 7.000000)">
                <rect id="Rectangle-22" stroke="#90ACF3" stroke-width="2" fill="#FFFFFF" sketch:type="MSShapeGroup" x="0" y="0" width="46" height="60"></rect>
                <rect id="Rectangle-29" stroke="#DAE3FB" stroke-width="2" fill="#FFFFFF" sketch:type="MSShapeGroup" x="2" y="2" width="42" height="56"></rect>
                <rect id="Rectangle-23" sketch:type="MSShapeGroup" x="6" y="6" width="9" height="9"></rect>
                <rect id="Rectangle-24" fill="#4A4A4A" sketch:type="MSShapeGroup" x="6" y="8" width="6" height="1"></rect>
                <rect id="Rectangle-24" fill="#4A4A4A" sketch:type="MSShapeGroup" x="6" y="10" width="6" height="1"></rect>
                <rect id="Rectangle-31" fill="#4A4A4A" sketch:type="MSShapeGroup" x="6" y="12" width="6" height="1"></rect>
                <rect id="Rectangle-24" fill="#9B9B9B" sketch:type="MSShapeGroup" x="6" y="15" width="31" height="1"></rect>
                <rect id="Rectangle-32" fill="#9B9B9B" sketch:type="MSShapeGroup" x="6" y="17" width="30" height="1"></rect>
                <rect id="Rectangle-33" fill="#9B9B9B" sketch:type="MSShapeGroup" x="6" y="19" width="14" height="1"></rect>
                <rect id="Rectangle-792" fill="#4A4A4A" sketch:type="MSShapeGroup" x="6" y="6" width="3" height="1"></rect>
                <rect id="Rectangle-27" fill="#9B9B9B" sketch:type="MSShapeGroup" x="10" y="25" width="27" height="1"></rect>
                <rect id="Rectangle-25" fill="#9B9B9B" sketch:type="MSShapeGroup" x="10" y="27" width="28" height="1"></rect>
                <rect id="Rectangle-26" fill="#9B9B9B" sketch:type="MSShapeGroup" x="10" y="29" width="25" height="1"></rect>
                <rect id="Rectangle-28" fill="#CED2D6" sketch:type="MSShapeGroup" x="6" y="49" width="14" height="1"></rect>
                <rect id="Rectangle-30" fill="#CED2D6" sketch:type="MSShapeGroup" x="26" y="49" width="14" height="1"></rect>
                <rect id="Rectangle-793" fill="#4A4A4A" sketch:type="MSShapeGroup" x="18" y="23" width="8" height="1"></rect>
                <rect id="Rectangle-794" fill="#4A4A4A" sketch:type="MSShapeGroup" x="6" y="25" width="2" height="1"></rect>
                <rect id="Rectangle-795" fill="#4A4A4A" sketch:type="MSShapeGroup" x="6" y="27" width="2" height="1"></rect>
                <rect id="Rectangle-796" fill="#4A4A4A" sketch:type="MSShapeGroup" x="6" y="29" width="2" height="1"></rect>
                <rect id="Rectangle-34" fill="#9B9B9B" sketch:type="MSShapeGroup" x="10" y="31" width="27" height="1"></rect>
                <rect id="Rectangle-797" fill="#4A4A4A" sketch:type="MSShapeGroup" x="6" y="31" width="2" height="1"></rect>
                <rect id="Rectangle-35" fill="#9B9B9B" sketch:type="MSShapeGroup" x="10" y="33" width="23" height="1"></rect>
                <rect id="Rectangle-798" fill="#4A4A4A" sketch:type="MSShapeGroup" x="6" y="33" width="2" height="1"></rect>
            </g>
            <g id="sig-2" sketch:type="MSLayerGroup" transform="translate(34.000000, 47.000000)" stroke="#F35B5B" stroke-linecap="round">
                <path d="M3.73309398,3.98032204 C-0.759882588,7.52076858 0.917333843,11.5026184 4.12956309,9.43567073 C7.34179234,7.36872307 9.30426696,2.70034056 8.77906961,1.5832598 C8.25387226,0.466179048 7.05968843,0.95524475 6.78776615,1.50462953 C6.31875048,2.34436997 5.88136136,6.74299802 7.69052135,9.55245494 C9.49968133,12.3619119 9.35404907,6.76492112 9.93340002,5.98922628 C9.93340002,5.98922628 11.0749507,5.25939935 11.5195172,5.47496084 C11.9640837,5.69052234 11.0738237,9.43567043 11.8979488,9.43567031" id="Path-392" sketch:type="MSShapeGroup"></path>
                <path d="M3.75156781,4.06014301 C4.44574317,5.45953085 3.19343125,7.64285461 4.91579949,10.9774136" id="Path-393" sketch:type="MSShapeGroup"></path>
            </g>
        </g>
    </g>
</svg>