<?xml version="1.0" encoding="UTF-8" standalone="no"?>
<svg width="75px" height="80px" viewBox="0 0 75 80" version="1.1" xmlns="http://www.w3.org/2000/svg" xmlns:xlink="http://www.w3.org/1999/xlink" xmlns:sketch="http://www.bohemiancoding.com/sketch/ns">
    <!-- Generator: Sketch 3.3.1 (12002) - http://www.bohemiancoding.com/sketch -->
    <title>lease-enrolled</title>
    <desc>Created with Sketch.</desc>
    <defs></defs>
    <g id="Illustrations" stroke="none" stroke-width="1" fill="none" fill-rule="evenodd" sketch:type="MSPage">
        <g id="lease-enrolled" sketch:type="MSArtboardGroup">
            <g id="cooperative" sketch:type="MSLayerGroup" transform="translate(4.000000, 10.000000)">
                <rect id="Rectangle-23" stroke="#E6E6E6" stroke-width="2" fill="#FFFFFF" sketch:type="MSShapeGroup" x="0" y="6" width="46" height="60"></rect>
                <rect id="Rectangle-24" stroke="#E6E6E6" stroke-width="2" fill="#FFFFFF" sketch:type="MSShapeGroup" x="3" y="3" width="46" height="60"></rect>
                <rect id="Rectangle-22" stroke="#9B9B9B" stroke-width="2" fill="#FFFFFF" sketch:type="MSShapeGroup" x="6" y="0" width="46" height="60"></rect>
                <rect id="Rectangle-29" fill="#FFFFFF" sketch:type="MSShapeGroup" x="8" y="2" width="42" height="56"></rect>
                <rect id="Rectangle-1188" stroke="#9B9B9B" stroke-linecap="square" stroke-dasharray="1,2.5" sketch:type="MSShapeGroup" x="13" y="17" width="32" height="37"></rect>
            </g>
            <g id="cooperative-2-+-Path-394" sketch:type="MSLayerGroup" transform="translate(10.000000, 10.000000)">
                <g id="cooperative-2" sketch:type="MSShapeGroup">
                    <rect id="Rectangle-22" stroke="#54545A" stroke-width="2" fill="#FFFFFF" x="0" y="0" width="46" height="60"></rect>
                    <rect id="Rectangle-29" stroke="#C4E9D6" stroke-width="2" fill="#FFFFFF" x="2" y="2" width="42" height="56"></rect>
                    <rect id="Rectangle-23" x="6" y="6" width="9" height="9"></rect>
                    <rect id="Rectangle-1454" fill="#E1F4EA" x="5" y="27" width="9" height="3"></rect>
                    <rect id="Rectangle-1454-Copy" fill="#E1F4EA" x="5" y="29" width="32" height="3"></rect>
                    <rect id="Rectangle-1454-Copy-2" fill="#E1F4EA" x="5" y="32" width="35" height="3"></rect>
                    <rect id="Rectangle-1454-Copy-3" fill="#E1F4EA" x="5" y="35" width="30" height="3"></rect>
                    <rect id="Rectangle-24" fill="#9B9B9B" x="6" y="8" width="30" height="1"></rect>
                    <rect id="Rectangle-24" fill="#9B9B9B" x="6" y="11" width="31" height="1"></rect>
                    <rect id="Rectangle-24" fill="#9B9B9B" x="6" y="14" width="31" height="1"></rect>
                    <rect id="Rectangle-32" fill="#9B9B9B" x="6" y="17" width="30" height="1"></rect>
                    <rect id="Rectangle-33" fill="#9B9B9B" x="6" y="20" width="31" height="1"></rect>
                    <rect id="Rectangle-34" fill="#9B9B9B" x="6" y="23" width="28" height="1"></rect>
                    <rect id="Rectangle-792" fill="#4A4A4A" x="6" y="6" width="5" height="1"></rect>
                    <rect id="Rectangle-27" fill="#9B9B9B" x="6" y="30" width="30" height="1"></rect>
                    <rect id="Rectangle-25" fill="#9B9B9B" x="6" y="33" width="31" height="1"></rect>
                    <rect id="Rectangle-26" fill="#9B9B9B" x="6" y="36" width="27" height="1"></rect>
                    <rect id="Rectangle-28" fill="#CED2D6" x="6" y="49" width="14" height="1"></rect>
                    <rect id="Rectangle-30" fill="#CED2D6" x="26" y="49" width="14" height="1"></rect>
                    <rect id="Rectangle-793" fill="#4A4A4A" x="6" y="28" width="7" height="1"></rect>
                </g>
                <path d="M13.5148119,44.43978 C11.0733249,42.5866567 6.79318882,40.8699598 11.2339223,46.4195942 C15.6746558,51.9692285 10.1250212,51.9148609 9.24949196,50.2566382 C8.37396274,48.5984155 15.1150759,42.2750614 16.3214293,44.6100645 C17.5277827,46.9450676 18.0971071,53.9090366 15.8059596,51.205 C13.514812,48.5009634 17.5134207,43.9294392 18.7536259,43.2775367" id="Path-394" stroke="#000000" stroke-linecap="round" sketch:type="MSShapeGroup"></path>
            </g>
            <g id="success-icon-3-copy" sketch:type="MSLayerGroup" transform="translate(56.500000, 18.500000) rotate(-8.000000) translate(-56.500000, -18.500000) translate(41.000000, 3.000000)">
                <circle id="Oval-282" stroke="#4EBC83" fill-opacity="0.700294384" fill="#4EBC83" sketch:type="MSShapeGroup" cx="15" cy="15" r="14"></circle>
                <polygon id="Star-1" stroke="#4EBC83" sketch:type="MSShapeGroup" points="15 29.1243044 13.4320731 29.9178284 12.063392 28.8156544 10.3647451 29.2658477 9.25512786 27.9031941 7.5 27.9903811 6.69794219 26.4268023 4.9630409 26.1471724 4.5035963 24.4510043 2.86474508 23.8167788 2.76799361 22.0621522 1.29681814 21.1010496 1.56698829 19.3646501 0.327785989 18.1186754 0.953070051 16.4763918 5.68434189e-14 15 0.953070051 13.5236082 0.327785989 11.8813246 1.56698829 10.6353499 1.29681814 8.89895035 2.76799361 7.93784782 2.86474508 6.18322122 4.5035963 5.54899565 4.9630409 3.85282762 6.69794219 3.57319773 7.5 2.00961894 9.25512786 2.0968059 10.3647451 0.734152256 12.063392 1.18434557 13.4320731 0.0821715695 15 0.875695634 16.5679269 0.0821715695 17.936608 1.18434557 19.6352549 0.734152256 20.7448721 2.0968059 22.5 2.00961894 23.3020578 3.57319773 25.0369591 3.85282762 25.4964037 5.54899565 27.1352549 6.18322122 27.2320064 7.93784782 28.7031819 8.89895035 28.4330117 10.6353499 29.672214 11.8813246 29.0469299 13.5236082 30 15 29.0469299 16.4763918 29.672214 18.1186754 28.4330117 19.3646501 28.7031819 21.1010496 27.2320064 22.0621522 27.1352549 23.8167788 25.4964037 24.4510043 25.0369591 26.1471724 23.3020578 26.4268023 22.5 27.9903811 20.7448721 27.9031941 19.6352549 29.2658477 17.936608 28.8156544 16.5679269 29.9178284 "></polygon>
                <g id="check" transform="translate(15.906718, 13.103374) rotate(-315.000000) translate(-15.906718, -13.103374) translate(11.906718, 5.103374)" fill="#FFFFFF" sketch:type="MSShapeGroup">
                    <path d="M4.94117647,1.04805054e-13 L4.94117647,13.1764706 L8.23529412,13.1764706 L8.23529412,1.04805054e-13 L4.94117647,1.04805054e-13 L4.94117647,1.04805054e-13 Z M-4.61852778e-14,16.4705882 L8.23529412,16.4705882 L8.23529412,13.1764706 L-4.59835713e-14,13.1764706 L-4.61852778e-14,16.4705882 L-4.61852778e-14,16.4705882 Z" id="Rectangle-142"></path>
                </g>
            </g>
        </g>
    </g>
</svg>