<?xml version="1.0" encoding="UTF-8" standalone="no"?>
<svg width="40px" height="40px" viewBox="0 0 40 40" version="1.1" xmlns="http://www.w3.org/2000/svg" xmlns:xlink="http://www.w3.org/1999/xlink" xmlns:sketch="http://www.bohemiancoding.com/sketch/ns">
    <!-- Generator: Sketch 3.2.2 (9983) - http://www.bohemiancoding.com/sketch -->
    <title>vendor-dash-pricing</title>
    <desc>Created with Sketch.</desc>
    <defs></defs>
    <g id="Illustrations" stroke="none" stroke-width="1" fill="none" fill-rule="evenodd" sketch:type="MSPage">
        <g id="vendor-dash-pricing" sketch:type="MSArtboardGroup">
            <circle id="Oval-495" stroke="#E6E6E6" stroke-width="2" fill="#FFFFFF" sketch:type="MSShapeGroup" cx="20" cy="20" r="18"></circle>
            <rect id="Rectangle-1259" fill="#D8D8D8" sketch:type="MSShapeGroup" x="8" y="19" width="24" height="2"></rect>
            <rect id="Rectangle-1262" fill="#D8D8D8" sketch:type="MSShapeGroup" transform="translate(20.000000, 20.000000) rotate(-270.000000) translate(-20.000000, -20.000000) " x="8" y="19" width="24" height="2"></rect>
            <g id="Rectangle-1260-+-Rectangle-1261" sketch:type="MSLayerGroup" transform="translate(9.000000, 9.000000)" fill="#979797">
                <rect id="Rectangle-1260" sketch:type="MSShapeGroup" x="3" y="0" width="2" height="8"></rect>
                <rect id="Rectangle-1261" sketch:type="MSShapeGroup" transform="translate(4.000000, 4.000000) rotate(-270.000000) translate(-4.000000, -4.000000) " x="3" y="0" width="2" height="8"></rect>
            </g>
            <rect id="Rectangle-1263" fill="#979797" sketch:type="MSShapeGroup" transform="translate(26.500000, 12.000000) rotate(-270.000000) translate(-26.500000, -12.000000) " x="25.5" y="8.5" width="2" height="7"></rect>
            <rect id="Rectangle-1263" fill="#979797" sketch:type="MSShapeGroup" transform="translate(26.500000, 15.000000) rotate(-270.000000) translate(-26.500000, -15.000000) " x="25.5" y="11.5" width="2" height="7"></rect>
            <rect id="Rectangle-1264" fill="#979797" sketch:type="MSShapeGroup" transform="translate(13.500000, 26.000000) rotate(-315.000000) translate(-13.500000, -26.000000) " x="12.5" y="21.5" width="2" height="9"></rect>
            <circle id="Oval-497" stroke="#979797" fill="#979797" sketch:type="MSShapeGroup" cx="11" cy="24" r="1"></circle>
            <circle id="Oval-498" stroke="#979797" fill="#979797" sketch:type="MSShapeGroup" cx="16" cy="29" r="1"></circle>
            <path d="M26.63,22.25 L26.63,23.26 C26.2,23.33 25.8,23.54 25.53,23.81 C25.18,24.16 24.96,24.7 24.96,25.29 C24.96,25.74 25.1,26.07 25.41,26.39 C25.71,26.69 26.07,26.86 26.42,27 L26.77,27.14 C27.13,27.28 27.3,27.33 27.46,27.44 C27.65,27.57 27.76,27.74 27.76,27.98 C27.76,28.22 27.65,28.38 27.52,28.49 C27.32,28.66 27.07,28.7 26.85,28.7 C26.47,28.7 26.18,28.59 25.92,28.43 C25.59,28.23 25.35,27.99 25.27,27.91 L24.53,29.01 C24.79,29.29 25.09,29.51 25.43,29.69 C25.85,29.91 26.23,30 26.63,30.02 L26.63,31.12 L27.53,31.12 L27.53,29.98 C28.03,29.9 28.45,29.67 28.74,29.36 C29.06,29.02 29.29,28.5 29.29,27.87 C29.29,27.39 29.15,26.98 28.82,26.64 C28.56,26.38 28.22,26.22 27.88,26.07 L27.32,25.83 C27.05,25.71 26.81,25.64 26.65,25.5 C26.53,25.4 26.46,25.28 26.46,25.11 C26.46,24.94 26.55,24.79 26.66,24.69 C26.79,24.57 27.01,24.5 27.29,24.5 C27.71,24.5 28.08,24.7 28.38,24.97 L29.05,23.9 C28.43,23.38 27.82,23.28 27.53,23.26 L27.53,22.25 L26.63,22.25 Z" id="$" fill="#979797" sketch:type="MSShapeGroup"></path>
        </g>
    </g>
</svg>