<?xml version="1.0" encoding="UTF-8" standalone="no"?>
<svg width="102px" height="95px" viewBox="0 0 102 95" version="1.1" xmlns="http://www.w3.org/2000/svg" xmlns:xlink="http://www.w3.org/1999/xlink" xmlns:sketch="http://www.bohemiancoding.com/sketch/ns">
    <!-- Generator: Sketch 3.2.2 (9983) - http://www.bohemiancoding.com/sketch -->
    <title>propsal-view 5</title>
    <desc>Created with Sketch.</desc>
    <defs></defs>
    <g id="Illustrations" stroke="none" stroke-width="1" fill="none" fill-rule="evenodd" sketch:type="MSPage">
        <g id="propsal-view-5" sketch:type="MSArtboardGroup">
            <path d="M87.5,17.3777578 L50.5332446,41.7583957 L13.5,17.3777578" id="Path-499" stroke="#E6E6E6" stroke-width="2" fill="#FFFFFF" sketch:type="MSShapeGroup" transform="translate(50.500000, 29.568077) scale(1, -1) translate(-50.500000, -29.568077) "></path>
            <g id="cooperative" sketch:type="MSLayerGroup" transform="translate(24.000000, 9.000000)">
                <rect id="Rectangle-23" stroke="#E6E6E6" stroke-width="2" fill="#FFFFFF" sketch:type="MSShapeGroup" x="0" y="6" width="46" height="60"></rect>
                <rect id="Rectangle-24" stroke="#E6E6E6" stroke-width="2" fill="#FFFFFF" sketch:type="MSShapeGroup" x="3" y="3" width="46" height="60"></rect>
                <rect id="Rectangle-22" stroke="#9B9B9B" stroke-width="2" fill="#FFFFFF" sketch:type="MSShapeGroup" x="6" y="0" width="46" height="60"></rect>
                <rect id="Rectangle-29" stroke="#E6E6E6" stroke-width="2" fill="#FFFFFF" sketch:type="MSShapeGroup" x="8" y="2" width="42" height="56"></rect>
                <rect id="Rectangle-1188" stroke="#9B9B9B" stroke-linecap="square" stroke-dasharray="1,2.5" sketch:type="MSShapeGroup" x="13" y="17" width="32" height="37"></rect>
            </g>
            <path d="M40.976,22 L39.688,22 L38.576,19.728 L37.776,19.728 L37.776,22 L36.664,22 L36.664,16.304 L38.896,16.304 C39.4346694,16.304 39.8773316,16.4613318 40.224,16.776 C40.5706684,17.0906682 40.744,17.514664 40.744,18.048 C40.744,18.789337 40.3973368,19.2879987 39.704,19.544 L40.976,22 Z M39.632,18.048 C39.632,17.8186655 39.5546674,17.6360007 39.4,17.5 C39.2453326,17.3639993 39.0533345,17.296 38.824,17.296 L37.776,17.296 L37.776,18.8 L38.824,18.8 C39.0586678,18.8 39.2519992,18.733334 39.404,18.6 C39.5560008,18.466666 39.632,18.2826678 39.632,18.048 L39.632,18.048 Z M45.648,17.296 L43.008,17.296 L43.008,18.696 L45.256,18.696 L45.256,19.688 L43.008,19.688 L43.008,22 L41.896,22 L41.896,16.304 L45.648,16.304 L45.648,17.296 Z M50.768,21.656 L50.184,22.24 L49.68,21.736 C49.3599984,21.944001 48.9760022,22.048 48.528,22.048 C47.919997,22.048 47.4053354,21.8400021 46.984,21.424 C46.7333321,21.1786654 46.5680004,20.8506687 46.488,20.44 C46.4453331,20.2213322 46.424,19.7920032 46.424,19.152 C46.424,18.5226635 46.4453331,18.0933345 46.488,17.864 C46.562667,17.4586646 46.7279987,17.1306679 46.984,16.88 C47.4053354,16.4639979 47.919997,16.256 48.528,16.256 C49.136003,16.256 49.6479979,16.4639979 50.064,16.88 C50.3146679,17.1306679 50.4799996,17.4586646 50.56,17.864 C50.6080002,18.1040012 50.632,18.5333302 50.632,19.152 L50.632,19.744 C50.632,20.0266681 50.6186668,20.205333 50.592,20.28 C50.5706666,20.5893349 50.4666676,20.8853319 50.28,21.168 L50.768,21.656 Z M49.52,19.152 L49.52,18.736 C49.52,18.5759992 49.5146667,18.4373339 49.504,18.32 C49.4399997,17.6053298 49.1146696,17.248 48.528,17.248 C47.9626638,17.248 47.6373338,17.6053298 47.552,18.32 L47.536,19.152 C47.5306666,19.5200018 47.5359999,19.7973324 47.552,19.984 C47.6213337,20.6986702 47.9466638,21.056 48.528,21.056 C48.6720007,21.056 48.7946662,21.0213337 48.896,20.952 L48.4,20.464 L48.992,19.88 L49.416,20.304 C49.4853337,20.095999 49.52,19.7120028 49.52,19.152 L49.52,19.152 Z" id="RFQ" fill="#9B9B9B" sketch:type="MSShapeGroup"></path>
            <path d="M14,84 L87,84 L87,42.3777578 L50.5332446,62.0583957 L14,42.3777578 L14,84 Z" id="Path-498" stroke="#E6E6E6" stroke-width="2" fill="#FFFFFF" sketch:type="MSShapeGroup"></path>
            <path d="M87.5,62.0777578 L50.5332446,84 L13.5,62.0777578" id="Path-500" stroke="#E6E6E6" stroke-width="2" sketch:type="MSShapeGroup" transform="translate(50.500000, 73.038879) scale(1, -1) translate(-50.500000, -73.038879) "></path>
        </g>
    </g>
</svg>