<?xml version="1.0" encoding="UTF-8" standalone="no"?>
<svg width="40px" height="40px" viewBox="0 0 40 40" version="1.1" xmlns="http://www.w3.org/2000/svg" xmlns:xlink="http://www.w3.org/1999/xlink" xmlns:sketch="http://www.bohemiancoding.com/sketch/ns">
    <!-- Generator: Sketch 3.2.2 (9983) - http://www.bohemiancoding.com/sketch -->
    <title>vendor-dash-reporting</title>
    <desc>Created with Sketch.</desc>
    <defs></defs>
    <g id="Illustrations" stroke="none" stroke-width="1" fill="none" fill-rule="evenodd" sketch:type="MSPage">
        <g id="vendor-dash-reporting" sketch:type="MSArtboardGroup">
            <circle id="Oval-495" stroke="#E6E6E6" stroke-width="2" fill="#FFFFFF" sketch:type="MSShapeGroup" cx="20" cy="20" r="18"></circle>
            <g id="scope-icon" sketch:type="MSLayerGroup" transform="translate(12.000000, 11.000000)">
                <path d="M8.63154796,1 L2,1 L2,17 L14,17 L14,6.25430719 L8.63154796,1 Z" id="Rectangle-21" stroke="#979797" stroke-width="2" fill="#FFFFFF" sketch:type="MSShapeGroup"></path>
                <path d="M15.0215454,5.90000002 L8.99999998,7.4505806e-09 L9.00002439,5.90000002 L15.0215454,5.90000002 Z" id="Rectangle-24" fill="#979797" sketch:type="MSShapeGroup"></path>
                <path d="M15.0215454,5.90000002 L8.99999998,7.4505806e-09 L9.00002439,5.90000002 L15.0215454,5.90000002 Z" id="Rectangle-25" fill="#E6E6E6" sketch:type="MSShapeGroup" transform="translate(12.010773, 2.950000) scale(-1, -1) translate(-12.010773, -2.950000) "></path>
                <path d="M4.5,4.5 L7.6622777,4.5" id="Line" stroke="#979797" stroke-linecap="square" sketch:type="MSShapeGroup"></path>
                <path d="M4.5,6.5 L8.6622777,6.5" id="Line-2" stroke="#979797" stroke-linecap="square" sketch:type="MSShapeGroup"></path>
                <path d="M4.5,8.5 L10.4936799,8.5" id="Line-3" stroke="#979797" stroke-linecap="square" sketch:type="MSShapeGroup"></path>
                <path d="M4.5,10.5 L10.4936799,10.5" id="Line-4" stroke="#979797" stroke-linecap="square" sketch:type="MSShapeGroup"></path>
                <path d="M4.5,12.5 L10.4936799,12.5" id="Line-5" stroke="#979797" stroke-linecap="square" sketch:type="MSShapeGroup"></path>
            </g>
        </g>
    </g>
</svg>