<?xml version="1.0" encoding="UTF-8" standalone="no"?>
<svg width="40px" height="40px" viewBox="0 0 40 40" version="1.1" xmlns="http://www.w3.org/2000/svg" xmlns:xlink="http://www.w3.org/1999/xlink" xmlns:sketch="http://www.bohemiancoding.com/sketch/ns">
    <!-- Generator: Sketch 3.2.2 (9983) - http://www.bohemiancoding.com/sketch -->
    <title>tenant move out 2</title>
    <desc>Created with Sketch.</desc>
    <defs></defs>
    <g id="Illustrations" stroke="none" stroke-width="1" fill="none" fill-rule="evenodd" sketch:type="MSPage">
        <g id="tenant-move-out-2" sketch:type="MSArtboardGroup">
            <rect id="Rectangle-1221" fill="#F8EABF" sketch:type="MSShapeGroup" x="0" y="0" width="40" height="40"></rect>
            <rect id="Rectangle-1222" fill="#F8E9BF" sketch:type="MSShapeGroup" x="0" y="36" width="40" height="4" rx="4"></rect>
            <path d="M31,33 L31,6 L28,6 L28,33.5 L28,36 L40,36 L40,33 L31,33 Z M9,33 L0,33 L0,36 L12,36 L12,33.5 L12,6 L9,6 L9,33 Z M9,3 L31,3 L31,6 L9,6 L9,3 Z" id="Rectangle-1219" fill="#BA937B" sketch:type="MSShapeGroup"></path>
            <rect id="Rectangle-1224" fill="#FFFFFF" sketch:type="MSShapeGroup" x="12" y="6" width="16" height="30"></rect>
            <rect id="Rectangle-1225" stroke="#979797" fill="#FFFFFF" sketch:type="MSShapeGroup" x="15" y="9" width="10" height="10"></rect>
            <rect id="Rectangle-1225" stroke="#979797" fill="#FFFFFF" sketch:type="MSShapeGroup" x="15" y="23" width="10" height="10"></rect>
            <path d="M30,3 L31,3 L31,34 L30,34 L30,3 L30,3 Z M31,33 L40,33 L40,34 L31,34 L31,33 Z M9,3 L30,3 L30,4 L9,4 L9,3 Z M9,4 L10,4 L10,34 L9,34 L9,4 Z M0,33 L9,33 L9,34 L0,34 L0,33 Z" id="Rectangle-1228" fill="#100F10" sketch:type="MSShapeGroup"></path>
            <rect id="Rectangle-1228" fill="#100F10" sketch:type="MSShapeGroup" x="11" y="6" width="1" height="30"></rect>
            <rect id="Rectangle-1228" fill="#100F10" sketch:type="MSShapeGroup" x="28" y="6" width="1" height="30"></rect>
            <rect id="Rectangle-1229" fill="#100F10" sketch:type="MSShapeGroup" x="28" y="35" width="12" height="1"></rect>
            <rect id="Rectangle-1229" fill="#100F10" sketch:type="MSShapeGroup" x="11" y="5" width="18" height="1"></rect>
            <rect id="Rectangle-1229" fill="#100F10" sketch:type="MSShapeGroup" x="0" y="35" width="12" height="1"></rect>
            <circle id="Oval-468" stroke="#F6D262" fill="#FA9200" sketch:type="MSShapeGroup" cx="26" cy="21" r="1"></circle>
            <path d="M12,36 L28,36 L29,40 L11,40 L12,36 Z" id="Rectangle-1344" fill="#DFCD99" sketch:type="MSShapeGroup"></path>
            <path d="M12,36 L28,36 L28.2,37 L11.8,37 L12,36 Z" id="Rectangle-1346" fill="#FFFFFF" sketch:type="MSShapeGroup"></path>
            <rect id="Rectangle-1345" fill="#979797" sketch:type="MSShapeGroup" x="12" y="35" width="16" height="1"></rect>
        </g>
    </g>
</svg>