<?xml version="1.0" encoding="UTF-8" standalone="no"?>
<svg width="102px" height="95px" viewBox="0 0 102 95" version="1.1" xmlns="http://www.w3.org/2000/svg" xmlns:xlink="http://www.w3.org/1999/xlink" xmlns:sketch="http://www.bohemiancoding.com/sketch/ns">
    <!-- Generator: Sketch 3.2.2 (9983) - http://www.bohemiancoding.com/sketch -->
    <title>vendor scheduling blank slate</title>
    <desc>Created with Sketch.</desc>
    <defs></defs>
    <g id="Illustrations" stroke="none" stroke-width="1" fill="none" fill-rule="evenodd" sketch:type="MSPage">
        <g id="vendor-scheduling-blank-slate" sketch:type="MSArtboardGroup">
            <rect id="Rectangle-1195" fill="#E6E6E6" sketch:type="MSShapeGroup" x="10" y="6" width="82" height="82"></rect>
            <rect id="Rectangle-1198" stroke="#979797" stroke-width="2" fill="#FFFFFF" sketch:type="MSShapeGroup" x="17" y="13" width="68" height="68"></rect>
            <path d="M18.5,77.5 L83.5076904,77.5" id="Line" stroke="#E6E6E6" stroke-linecap="square" sketch:type="MSShapeGroup"></path>
            <path d="M18.5,75.5 L83.5076904,75.5" id="Line-2" stroke="#E6E6E6" stroke-linecap="square" sketch:type="MSShapeGroup"></path>
            <path d="M18.5,73.5 L83.5076904,73.5" id="Line-3" stroke="#E6E6E6" stroke-linecap="square" sketch:type="MSShapeGroup"></path>
            <rect id="Rectangle-1196" stroke="#979797" stroke-width="2" fill="#FFFFFF" sketch:type="MSShapeGroup" x="17" y="13" width="68" height="16"></rect>
            <rect id="Rectangle-1203" fill="#E6E6E6" sketch:type="MSShapeGroup" x="18" y="14" width="66" height="2"></rect>
            <rect id="Rectangle-1197" fill="#979797" sketch:type="MSShapeGroup" x="27" y="21" width="5" height="14"></rect>
            <rect id="Rectangle-1204" fill="#E6E6E6" sketch:type="MSShapeGroup" transform="translate(72.500000, 35.500000) scale(1, -1) translate(-72.500000, -35.500000) " x="70" y="35" width="5" height="1"></rect>
            <rect id="Rectangle-1197" fill="#979797" sketch:type="MSShapeGroup" x="70" y="21" width="5" height="14"></rect>
            <path d="M49.214,58.27 L44.384,58.27 L45.854,56.863 C46.757,56.002 47.492,55.288 48.101,54.448 C48.773,53.503 49.151,52.6 49.151,51.361 C49.151,49.912 48.605,48.757 47.849,48.001 C47.345,47.518 46.253,46.678 44.216,46.678 C42.221,46.678 41.024,47.413 40.352,48.127 C39.491,49.03 39.008,50.416 38.903,51.634 L42.137,51.634 C42.137,51.088 42.347,50.332 42.725,49.912 C42.998,49.618 43.397,49.408 44.006,49.408 C44.552,49.408 45.014,49.555 45.287,49.807 C45.623,50.122 45.833,50.668 45.833,51.193 C45.833,52.159 45.308,53.062 44.993,53.566 C44.552,54.238 43.439,55.603 42.704,56.422 L38.504,61 L49.214,61 L49.214,58.27 Z M54.653,51.193 C54.674,50.752 54.863,50.206 55.157,49.891 C55.43,49.618 55.871,49.429 56.417,49.429 C56.942,49.429 57.362,49.618 57.614,49.849 C57.887,50.101 58.076,50.5 58.076,50.983 C58.076,51.55 57.845,51.991 57.551,52.243 C57.089,52.621 56.333,52.642 56.144,52.642 L55.955,52.642 L55.955,54.868 L56.207,54.868 C56.69,54.868 57.425,54.91 57.929,55.309 C58.265,55.582 58.538,56.065 58.538,56.653 C58.538,57.22 58.307,57.766 57.971,58.081 C57.635,58.396 57.11,58.564 56.564,58.564 C55.892,58.564 55.346,58.333 55.01,57.997 C54.632,57.619 54.38,56.968 54.338,56.422 L51.104,56.422 C51.251,57.829 51.86,59.068 52.658,59.887 C53.897,61.126 55.388,61.336 56.753,61.336 C57.887,61.336 59.252,61.21 60.449,60.118 C61.436,59.215 61.856,57.997 61.856,56.926 C61.856,56.17 61.625,55.288 61.205,54.721 C60.827,54.196 60.197,53.797 59.609,53.587 C60.008,53.398 60.365,53.125 60.659,52.705 C61.1,52.096 61.226,51.487 61.226,50.794 C61.226,49.429 60.743,48.505 60.155,47.938 C59.441,47.224 58.202,46.699 56.48,46.699 C55.325,46.699 53.96,46.951 52.931,48.022 C52.196,48.778 51.671,50.017 51.545,51.193 L54.653,51.193 Z" id="23" fill="#979797" sketch:type="MSShapeGroup"></path>
            <path d="M41.09,42 L42.05,42 L40.472,37.998 L39.626,37.998 L38.012,42 L38.972,42 L39.278,41.244 L40.79,41.244 L41.09,42 Z M39.548,40.536 L40.046,39.192 L40.538,40.536 L39.548,40.536 Z M46.058,37.998 L45.134,37.998 L45.134,40.344 C45.134,40.518 45.122,40.812 44.924,41.016 C44.762,41.19 44.54,41.226 44.366,41.226 C44.192,41.226 43.97,41.19 43.808,41.016 C43.61,40.812 43.598,40.518 43.598,40.344 L43.598,37.998 L42.674,37.998 L42.674,40.368 C42.674,40.752 42.722,41.226 43.118,41.634 C43.502,42.03 43.946,42.09 44.366,42.09 C44.786,42.09 45.23,42.03 45.614,41.634 C46.01,41.226 46.058,40.752 46.058,40.368 L46.058,37.998 Z M49.16,40.56 L50.126,40.56 C50.048,40.854 49.868,41.01 49.838,41.034 C49.748,41.112 49.538,41.25 49.142,41.25 C48.836,41.25 48.566,41.178 48.332,40.938 C48.164,40.77 47.996,40.476 47.996,40.02 C47.996,39.648 48.116,39.306 48.338,39.072 C48.53,38.868 48.8,38.748 49.166,38.748 C49.394,38.748 49.598,38.808 49.778,38.94 C49.934,39.054 50.054,39.216 50.132,39.372 L50.966,38.922 C50.822,38.67 50.588,38.388 50.318,38.208 C49.946,37.962 49.526,37.908 49.196,37.908 C48.722,37.908 48.116,37.98 47.624,38.49 C47.288,38.832 47.048,39.354 47.048,40.008 C47.048,40.806 47.402,41.292 47.636,41.532 C48.104,42.012 48.62,42.09 49.1,42.09 C49.574,42.09 50.084,42.006 50.528,41.544 C50.972,41.082 51.146,40.344 51.146,39.858 L51.146,39.816 L49.16,39.816 L49.16,40.56 Z M55.52,37.998 L54.596,37.998 L54.596,40.344 C54.596,40.518 54.584,40.812 54.386,41.016 C54.224,41.19 54.002,41.226 53.828,41.226 C53.654,41.226 53.432,41.19 53.27,41.016 C53.072,40.812 53.06,40.518 53.06,40.344 L53.06,37.998 L52.136,37.998 L52.136,40.368 C52.136,40.752 52.184,41.226 52.58,41.634 C52.964,42.03 53.408,42.09 53.828,42.09 C54.248,42.09 54.692,42.03 55.076,41.634 C55.472,41.226 55.52,40.752 55.52,40.368 L55.52,37.998 Z M59.174,38.304 C58.706,37.956 58.262,37.908 57.986,37.908 C57.614,37.908 57.278,37.986 56.996,38.274 C56.756,38.52 56.648,38.82 56.648,39.174 C56.648,39.366 56.678,39.648 56.888,39.87 C57.044,40.038 57.26,40.122 57.446,40.188 L57.776,40.302 C57.89,40.344 58.136,40.434 58.244,40.524 C58.328,40.596 58.382,40.68 58.382,40.812 C58.382,40.962 58.316,41.07 58.238,41.136 C58.106,41.25 57.938,41.274 57.818,41.274 C57.632,41.274 57.47,41.226 57.314,41.13 C57.206,41.064 57.044,40.926 56.942,40.824 L56.462,41.484 C56.612,41.634 56.846,41.82 57.05,41.922 C57.302,42.048 57.554,42.09 57.842,42.09 C58.106,42.09 58.622,42.054 58.976,41.682 C59.186,41.466 59.33,41.106 59.33,40.692 C59.33,40.458 59.27,40.17 59.036,39.948 C58.88,39.798 58.664,39.708 58.49,39.642 L58.19,39.528 C57.92,39.426 57.782,39.39 57.686,39.3 C57.626,39.246 57.596,39.174 57.596,39.078 C57.596,38.976 57.638,38.886 57.698,38.826 C57.806,38.706 57.962,38.688 58.088,38.688 C58.202,38.688 58.46,38.706 58.76,38.976 L59.174,38.304 Z M62.5700001,38.778 L62.5700001,37.998 L59.9060001,37.998 L59.9060001,38.778 L60.7760001,38.778 L60.7760001,42 L61.7000001,42 L61.7000001,38.778 L62.5700001,38.778 Z" id="AUGUST" fill="#979797" sketch:type="MSShapeGroup"></path>
        </g>
    </g>
</svg>