<?xml version="1.0" encoding="UTF-8" standalone="no"?>
<svg width="302px" height="204px" viewBox="0 0 302 204" version="1.1" xmlns="http://www.w3.org/2000/svg" xmlns:xlink="http://www.w3.org/1999/xlink" xmlns:sketch="http://www.bohemiancoding.com/sketch/ns">
    <!-- Generator: Sketch 3.2.2 (9983) - http://www.bohemiancoding.com/sketch -->
    <title>welcome-highlight</title>
    <desc>Created with Sketch.</desc>
    <defs></defs>
    <g id="Page-1" stroke="none" stroke-width="1" fill="none" fill-rule="evenodd" sketch:type="MSPage">
        <g id="-13" sketch:type="MSArtboardGroup" transform="translate(-297.000000, -483.000000)" fill-opacity="0.1" fill="#6FC9B7">
            <g id="welcome-highlight" sketch:type="MSLayerGroup" transform="translate(297.000000, 483.000000)">
                <g id="welcome" sketch:type="MSShapeGroup">
                    <rect id="Rectangle-540" x="33" y="27" width="180" height="19"></rect>
                    <rect id="Rectangle-540" x="6" y="12" width="190" height="19"></rect>
                    <rect id="Rectangle-540" x="23" y="0" width="95" height="19"></rect>
                    <rect id="Rectangle-532" x="0" y="36" width="271" height="19"></rect>
                    <rect id="Rectangle-533" x="14" y="65" width="271" height="19"></rect>
                    <rect id="Rectangle-534" x="6" y="78" width="216" height="19"></rect>
                    <rect id="Rectangle-535" x="10" y="94" width="292" height="19"></rect>
                    <rect id="Rectangle-535" x="50" y="169" width="172" height="19"></rect>
                    <rect id="Rectangle-536" x="6" y="111" width="245" height="19"></rect>
                    <rect id="Rectangle-536" x="23" y="185" width="136" height="19"></rect>
                    <rect id="Rectangle-536" x="6" y="156" width="292" height="19"></rect>
                    <rect id="Rectangle-537" x="32" y="126" width="245" height="19"></rect>
                    <rect id="Rectangle-538" x="32" y="140" width="245" height="19"></rect>
                    <rect id="Rectangle-539" x="17" y="51" width="196" height="19"></rect>
                </g>
            </g>
        </g>
    </g>
</svg>