<?xml version="1.0" encoding="UTF-8" standalone="no"?>
<svg width="220px" height="66px" viewBox="0 0 220 66" version="1.1" xmlns="http://www.w3.org/2000/svg" xmlns:xlink="http://www.w3.org/1999/xlink" xmlns:sketch="http://www.bohemiancoding.com/sketch/ns">
    <!-- Generator: Sketch 3.2.2 (9983) - http://www.bohemiancoding.com/sketch -->
    <title>response stamp</title>
    <desc>Created with Sketch.</desc>
    <defs>
        <linearGradient x1="50%" y1="0%" x2="50%" y2="100%" id="linearGradient-1">
            <stop stop-color="#9CD8D8" stop-opacity="0.5" offset="0%"></stop>
            <stop stop-color="#FFFFFF" stop-opacity="0.5" offset="100%"></stop>
        </linearGradient>
        <path d="M214,60 L6,60 L6,6.00000004 L214,6 L214,60 Z M0,3 L0,63 L0,66 L3,66 L217,66 L220,66 L220,63 L220,3 L220,0 L217,0 L3,0 L0,0 L0,3 Z" id="path-2"></path>
        <path d="M30.616,24.36 C31.6400051,24.36 32.4799967,24.4999986 33.136,24.78 C33.7920033,25.0600014 34.3119981,25.3839982 34.696,25.752 C35.0320017,26.0720016 35.3479985,26.5239971 35.644,27.108 C35.9400015,27.6920029 36.088,28.4319955 36.088,29.328 C36.088,29.8400026 36.0080008,30.3839971 35.848,30.96 C35.6879992,31.5360029 35.3520026,32.0799974 34.84,32.592 C34.5679986,32.8640014 34.2400019,33.1079989 33.856,33.324 C33.4719981,33.5400011 33.0560022,33.7039994 32.608,33.816 L37.528,40.368 L33.016,40.368 L28.696,34.056 L28.696,40.368 L25,40.368 L25,24.36 L30.616,24.36 Z M28.696,31.632 L29.536,31.632 C29.8720017,31.632 30.243998,31.5960004 30.652,31.524 C31.060002,31.4519996 31.4239984,31.2560016 31.744,30.936 C31.8720006,30.8079994 32.0039993,30.6160013 32.14,30.36 C32.2760007,30.1039987 32.344,29.776002 32.344,29.376 C32.344,28.9119977 32.2600008,28.5560012 32.092,28.308 C31.9239992,28.0599988 31.7600008,27.8720006 31.6,27.744 C31.2959985,27.5199989 30.940002,27.3800003 30.532,27.324 C30.123998,27.2679997 29.8000012,27.24 29.56,27.24 L28.696,27.24 L28.696,31.632 Z M48.616,27.48 L43.264,27.48 L43.264,30.576 L48.352,30.576 L48.352,33.696 L43.264,33.696 L43.264,37.248 L48.616,37.248 L48.616,40.368 L39.568,40.368 L39.568,24.36 L48.616,24.36 L48.616,27.48 Z M59.872,28.272 C59.5679985,27.9999986 59.2800014,27.7880008 59.008,27.636 C58.7359986,27.4839992 58.4840012,27.3680004 58.252,27.288 C58.0199988,27.2079996 57.8120009,27.1600001 57.628,27.144 C57.4439991,27.1279999 57.2960006,27.12 57.184,27.12 C56.9279987,27.12 56.6600014,27.1519997 56.38,27.216 C56.0999986,27.2800003 55.8480011,27.4319988 55.624,27.672 C55.4959994,27.8000006 55.3960004,27.9479992 55.324,28.116 C55.2519996,28.2840008 55.216,28.471999 55.216,28.68 C55.216,29.0640019 55.3359988,29.359999 55.576,29.568 C55.768001,29.7440009 56.0159985,29.8879994 56.32,30 C56.6240015,30.1120006 57.0479973,30.271999 57.592,30.48 L58.792,30.936 C59.1440018,31.0640006 59.515998,31.223999 59.908,31.416 C60.300002,31.608001 60.6559984,31.8559985 60.976,32.16 C61.4400023,32.6080022 61.7519992,33.0999973 61.912,33.636 C62.0720008,34.1720027 62.152,34.6719977 62.152,35.136 C62.152,35.9680042 62.0200013,36.7279966 61.756,37.416 C61.4919987,38.1040034 61.1520021,38.6639978 60.736,39.096 C60.3839982,39.4640018 60.0000021,39.7559989 59.584,39.972 C59.1679979,40.1880011 58.7520021,40.3519994 58.336,40.464 C57.9199979,40.5760006 57.5240019,40.6479998 57.148,40.68 C56.7719981,40.7120002 56.4560013,40.728 56.2,40.728 C55.6239971,40.728 55.0800026,40.6800005 54.568,40.584 C54.0559974,40.4879995 53.5440026,40.3120013 53.032,40.056 C52.6159979,39.847999 52.1960021,39.5800016 51.772,39.252 C51.3479979,38.9239984 50.9840015,38.6080015 50.68,38.304 L52.6,35.664 C52.808001,35.872001 53.0519986,36.0959988 53.332,36.336 C53.6120014,36.5760012 53.8639989,36.7599994 54.088,36.888 C54.7120031,37.2720019 55.3839964,37.464 56.104,37.464 C56.3440012,37.464 56.6159985,37.4280004 56.92,37.356 C57.2240015,37.2839996 57.5119986,37.1360011 57.784,36.912 C57.9440008,36.7839994 58.0799994,36.6120011 58.192,36.396 C58.3040006,36.1799989 58.36,35.9200015 58.36,35.616 C58.36,35.3439986 58.3120005,35.1200009 58.216,34.944 C58.1199995,34.7679991 57.9840009,34.6080007 57.808,34.464 C57.6959994,34.3679995 57.5600008,34.2760004 57.4,34.188 C57.2399992,34.0999996 57.0680009,34.0200004 56.884,33.948 C56.6999991,33.8759996 56.5240008,33.8080003 56.356,33.744 C56.1879992,33.6799997 56.0480006,33.6240002 55.936,33.576 L54.616,33.12 C54.2479982,32.9919994 53.864002,32.832001 53.464,32.64 C53.063998,32.447999 52.7040016,32.1840017 52.384,31.848 C51.9679979,31.3999978 51.7040006,30.9200026 51.592,30.408 C51.4799994,29.8959974 51.424,29.4480019 51.424,29.064 C51.424,28.3439964 51.5359989,27.688003 51.76,27.096 C51.9840011,26.503997 52.3359976,25.9600025 52.816,25.464 C53.3760028,24.8879971 53.9879967,24.500001 54.652,24.3 C55.3160033,24.099999 56.0239962,24 56.776,24 C57.0480014,24 57.3599982,24.0159998 57.712,24.048 C58.0640018,24.0800002 58.443998,24.1519994 58.852,24.264 C59.260002,24.3760006 59.6919977,24.535999 60.148,24.744 C60.6040023,24.952001 61.0639977,25.2319982 61.528,25.584 L59.872,28.272 Z M70.456,24.36 C71.1600035,24.36 71.8759964,24.4399992 72.604,24.6 C73.3320036,24.7600008 74.0159968,25.1199972 74.656,25.68 C74.9920017,25.9840015 75.263999,26.3039983 75.472,26.64 C75.680001,26.9760017 75.8399994,27.3159983 75.952,27.66 C76.0640006,28.0040017 76.1359998,28.3399984 76.168,28.668 C76.2000002,28.9960016 76.216,29.2959986 76.216,29.568 C76.216,30.576005 76.0640015,31.375997 75.76,31.968 C75.4559985,32.560003 75.1520015,33.0159984 74.848,33.336 C74.5279984,33.6560016 74.1880018,33.911999 73.828,34.104 C73.4679982,34.296001 73.1080018,34.4399995 72.748,34.536 C72.3879982,34.6320005 72.0400017,34.6919999 71.704,34.716 C71.3679983,34.7400001 71.0560014,34.752 70.768,34.752 L68.512,34.752 L68.512,40.368 L64.816,40.368 L64.816,24.36 L70.456,24.36 Z M68.512,31.728 L69.832,31.728 C70.0880013,31.728 70.4079981,31.7000003 70.792,31.644 C71.1760019,31.5879997 71.5199985,31.4160014 71.824,31.128 C72.0000009,30.9519991 72.1439994,30.7320013 72.256,30.468 C72.3680006,30.2039987 72.424,29.8960018 72.424,29.544 C72.424,29.2079983 72.3680006,28.9080013 72.256,28.644 C72.1439994,28.3799987 72.0000009,28.1600009 71.824,27.984 C71.5519986,27.7119986 71.2320018,27.5440003 70.864,27.48 C70.4959982,27.4159997 70.1280018,27.384 69.76,27.384 L68.512,27.384 L68.512,31.728 Z M86.536,24 C89.0640126,24 91.127992,24.7759922 92.728,26.328 C93.4960038,27.0640037 94.1039978,27.9439949 94.552,28.968 C95.0000022,29.9920051 95.224,31.1279938 95.224,32.376 C95.224,33.4480054 95.024002,34.5039948 94.624,35.544 C94.223998,36.5840052 93.5920043,37.5279958 92.728,38.376 C91.9759962,39.0960036 91.096005,39.6679979 90.088,40.092 C89.079995,40.5160021 87.8960068,40.728 86.536,40.728 C85.7839962,40.728 85.0920032,40.6600007 84.46,40.524 C83.8279968,40.3879993 83.2560026,40.2080011 82.744,39.984 C82.2319974,39.7599989 81.772002,39.5080014 81.364,39.228 C80.955998,38.9479986 80.6000015,38.6640014 80.296,38.376 C79.5279962,37.6559964 78.9200022,36.7800052 78.472,35.748 C78.0239978,34.7159948 77.8,33.6080059 77.8,32.424 C77.8,31.8479971 77.8599994,31.2760028 77.98,30.708 C78.1000006,30.1399972 78.2719989,29.5920026 78.496,29.064 C78.7200011,28.5359974 78.9799985,28.0440023 79.276,27.588 C79.5720015,27.1319977 79.9039982,26.7200018 80.272,26.352 C80.5440014,26.0799986 80.8719981,25.8040014 81.256,25.524 C81.6400019,25.2439986 82.0919974,24.9920011 82.612,24.768 C83.1320026,24.5439989 83.7159968,24.3600007 84.364,24.216 C85.0120032,24.0719993 85.735996,24 86.536,24 L86.536,24 Z M86.512,27.408 C85.8079965,27.408 85.156003,27.5279988 84.556,27.768 C83.955997,28.0080012 83.4400022,28.3439978 83.008,28.776 C82.6559982,29.1120017 82.3320015,29.575997 82.036,30.168 C81.7399985,30.760003 81.592,31.5039955 81.592,32.4 C81.592,33.8400072 82.0799951,35.0399952 83.056,36 C83.5680026,36.4960025 84.1119971,36.839999 84.688,37.032 C85.2640029,37.224001 85.8639969,37.32 86.488,37.32 C87.3040041,37.32 88.0039971,37.1880013 88.588,36.924 C89.1720029,36.6599987 89.6559981,36.3360019 90.04,35.952 C90.3600016,35.6479985 90.6719985,35.2080029 90.976,34.632 C91.2800015,34.0559971 91.432,33.3040046 91.432,32.376 C91.432,31.5439958 91.2920014,30.828003 91.012,30.228 C90.7319986,29.627997 90.4080018,29.1440018 90.04,28.776 C89.639998,28.3919981 89.136003,28.0680013 88.528,27.804 C87.919997,27.5399987 87.2480037,27.408 86.512,27.408 L86.512,27.408 Z M97.984,40.368 L97.984,24.36 L101.2,24.36 L109.888,34.68 L109.888,24.36 L113.584,24.36 L113.584,40.368 L110.368,40.368 L101.68,30 L101.68,40.368 L97.984,40.368 Z M122.152,24.36 C122.680003,24.36 123.211997,24.3879997 123.748,24.444 C124.284003,24.5000003 124.819997,24.6039992 125.356,24.756 C125.892003,24.9080008 126.419997,25.1279986 126.94,25.416 C127.460003,25.7040014 127.967998,26.0879976 128.464,26.568 C129.184004,27.2560034 129.747998,28.0719953 130.156,29.016 C130.564002,29.9600047 130.768,31.0559938 130.768,32.304 C130.768,33.5680063 130.572002,34.6599954 130.18,35.58 C129.787998,36.5000046 129.256003,37.2959966 128.584,37.968 C128.023997,38.5280028 127.444003,38.9679984 126.844,39.288 C126.243997,39.6080016 125.664003,39.8479992 125.104,40.008 C124.543997,40.1680008 124.016002,40.2679998 123.52,40.308 C123.023998,40.3480002 122.608002,40.368 122.272,40.368 L117.088,40.368 L117.088,24.36 L122.152,24.36 Z M120.784,37.248 L121.768,37.248 C121.960001,37.248 122.199999,37.2400001 122.488,37.224 C122.776001,37.2079999 123.087998,37.1640004 123.424,37.092 C123.760002,37.0199996 124.099998,36.9120007 124.444,36.768 C124.788002,36.6239993 125.111998,36.4240013 125.416,36.168 C125.848002,35.7999982 126.215998,35.2880033 126.52,34.632 C126.824002,33.9759967 126.976,33.2000045 126.976,32.304 C126.976,31.4399957 126.836001,30.7280028 126.556,30.168 C126.275999,29.6079972 125.976002,29.1680016 125.656,28.848 C125.351998,28.5439985 125.032002,28.3040009 124.696,28.128 C124.359998,27.9519991 124.024002,27.8160005 123.688,27.72 C123.351998,27.6239995 123.020002,27.5600002 122.692,27.528 C122.363998,27.4959998 122.056001,27.48 121.768,27.48 L120.784,27.48 L120.784,37.248 Z M142.576,27.48 L137.224,27.48 L137.224,30.576 L142.312,30.576 L142.312,33.696 L137.224,33.696 L137.224,37.248 L142.576,37.248 L142.576,40.368 L133.528,40.368 L133.528,24.36 L142.576,24.36 L142.576,27.48 Z M150.64,24.36 C151.168003,24.36 151.699997,24.3879997 152.236,24.444 C152.772003,24.5000003 153.307997,24.6039992 153.844,24.756 C154.380003,24.9080008 154.907997,25.1279986 155.428,25.416 C155.948003,25.7040014 156.455998,26.0879976 156.952,26.568 C157.672004,27.2560034 158.235998,28.0719953 158.644,29.016 C159.052002,29.9600047 159.256,31.0559938 159.256,32.304 C159.256,33.5680063 159.060002,34.6599954 158.668,35.58 C158.275998,36.5000046 157.744003,37.2959966 157.072,37.968 C156.511997,38.5280028 155.932003,38.9679984 155.332,39.288 C154.731997,39.6080016 154.152003,39.8479992 153.592,40.008 C153.031997,40.1680008 152.504002,40.2679998 152.008,40.308 C151.511998,40.3480002 151.096002,40.368 150.76,40.368 L145.576,40.368 L145.576,24.36 L150.64,24.36 Z M149.272,37.248 L150.256,37.248 C150.448001,37.248 150.687999,37.2400001 150.976,37.224 C151.264001,37.2079999 151.575998,37.1640004 151.912,37.092 C152.248002,37.0199996 152.587998,36.9120007 152.932,36.768 C153.276002,36.6239993 153.599998,36.4240013 153.904,36.168 C154.336002,35.7999982 154.703998,35.2880033 155.008,34.632 C155.312002,33.9759967 155.464,33.2000045 155.464,32.304 C155.464,31.4399957 155.324001,30.7280028 155.044,30.168 C154.763999,29.6079972 154.464002,29.1680016 154.144,28.848 C153.839998,28.5439985 153.520002,28.3040009 153.184,28.128 C152.847998,27.9519991 152.512002,27.8160005 152.176,27.72 C151.839998,27.6239995 151.508002,27.5600002 151.18,27.528 C150.851998,27.4959998 150.544001,27.48 150.256,27.48 L149.272,27.48 L149.272,37.248 Z M173.224,27.48 L173.224,40.368 L169.528,40.368 L169.528,27.48 L166.048,27.48 L166.048,24.36 L176.704,24.36 L176.704,27.48 L173.224,27.48 Z M186.64,24 C189.168013,24 191.231992,24.7759922 192.832,26.328 C193.600004,27.0640037 194.207998,27.9439949 194.656,28.968 C195.104002,29.9920051 195.328,31.1279938 195.328,32.376 C195.328,33.4480054 195.128002,34.5039948 194.728,35.544 C194.327998,36.5840052 193.696004,37.5279958 192.832,38.376 C192.079996,39.0960036 191.200005,39.6679979 190.192,40.092 C189.183995,40.5160021 188.000007,40.728 186.64,40.728 C185.887996,40.728 185.196003,40.6600007 184.564,40.524 C183.931997,40.3879993 183.360003,40.2080011 182.848,39.984 C182.335997,39.7599989 181.876002,39.5080014 181.468,39.228 C181.059998,38.9479986 180.704002,38.6640014 180.4,38.376 C179.631996,37.6559964 179.024002,36.7800052 178.576,35.748 C178.127998,34.7159948 177.904,33.6080059 177.904,32.424 C177.904,31.8479971 177.963999,31.2760028 178.084,30.708 C178.204001,30.1399972 178.375999,29.5920026 178.6,29.064 C178.824001,28.5359974 179.083999,28.0440023 179.38,27.588 C179.676001,27.1319977 180.007998,26.7200018 180.376,26.352 C180.648001,26.0799986 180.975998,25.8040014 181.36,25.524 C181.744002,25.2439986 182.195997,24.9920011 182.716,24.768 C183.236003,24.5439989 183.819997,24.3600007 184.468,24.216 C185.116003,24.0719993 185.839996,24 186.64,24 L186.64,24 Z M186.616,27.408 C185.911996,27.408 185.260003,27.5279988 184.66,27.768 C184.059997,28.0080012 183.544002,28.3439978 183.112,28.776 C182.759998,29.1120017 182.436001,29.575997 182.14,30.168 C181.843999,30.760003 181.696,31.5039955 181.696,32.4 C181.696,33.8400072 182.183995,35.0399952 183.16,36 C183.672003,36.4960025 184.215997,36.839999 184.792,37.032 C185.368003,37.224001 185.967997,37.32 186.592,37.32 C187.408004,37.32 188.107997,37.1880013 188.692,36.924 C189.276003,36.6599987 189.759998,36.3360019 190.144,35.952 C190.464002,35.6479985 190.775998,35.2080029 191.08,34.632 C191.384002,34.0559971 191.536,33.3040046 191.536,32.376 C191.536,31.5439958 191.396001,30.828003 191.116,30.228 C190.835999,29.627997 190.512002,29.1440018 190.144,28.776 C189.743998,28.3919981 189.240003,28.0680013 188.632,27.804 C188.023997,27.5399987 187.352004,27.408 186.616,27.408 L186.616,27.408 Z" id="path-3"></path>
    </defs>
    <g id="Page-2" stroke="none" stroke-width="1" fill="none" fill-rule="evenodd" sketch:type="MSPage">
        <g id="-5" sketch:type="MSArtboardGroup" transform="translate(-968.000000, -2257.000000)">
            <g id="work-request" sketch:type="MSLayerGroup" transform="translate(679.000000, 2217.000000)">
                <g id="response-stamp" transform="translate(289.000000, 40.000000)">
                    <g id="Rectangle-240">
                        <use fill="#6FC9B7" fill-rule="evenodd" sketch:type="MSShapeGroup" xlink:href="#path-2"></use>
                        <use fill="none" xlink:href="#path-2"></use>
                        <use fill="url(#linearGradient-1)" fill-rule="evenodd" xlink:href="#path-2"></use>
                    </g>
                    <g id="RESPONDED-TO">
                        <use fill="#6FC9B7" fill-rule="evenodd" sketch:type="MSShapeGroup" xlink:href="#path-3"></use>
                        <use fill="none" xlink:href="#path-3"></use>
                        <use fill="none" xlink:href="#path-3"></use>
                    </g>
                </g>
            </g>
        </g>
    </g>
</svg>