<?xml version="1.0" encoding="UTF-8" standalone="no"?>
<svg width="40px" height="40px" viewBox="0 0 40 40" version="1.1" xmlns="http://www.w3.org/2000/svg" xmlns:xlink="http://www.w3.org/1999/xlink" xmlns:sketch="http://www.bohemiancoding.com/sketch/ns">
    <!-- Generator: Sketch 3.2.1 (9971) - http://www.bohemiancoding.com/sketch -->
    <title>work-request</title>
    <desc>Created with Sketch.</desc>
    <defs></defs>
    <g id="Illustrations" stroke="none" stroke-width="1" fill="none" fill-rule="evenodd" sketch:type="MSPage">
        <g id="work-request" sketch:type="MSArtboardGroup">
            <g id="walkie-talkie" sketch:type="MSLayerGroup">
                <rect id="Rectangle-450" fill="#FDA64D" sketch:type="MSShapeGroup" x="0" y="0" width="40" height="40" rx="2"></rect>
                <g id="signal" transform="translate(4.000000, 13.000000)" stroke="#FFFFFF" sketch:type="MSShapeGroup">
                    <path d="M25.5699198,11.5680376 C26.4646439,10.4543896 27,9.03971435 27,7.5 C27,5.97668382 26.4759864,4.57575757 25.5983841,3.4676461 M7.43183166,3.42978328 C6.53605479,4.54376474 6,5.95928122 6,7.5 C6,9.06539874 6.55336589,10.5015519 7.47515477,11.6235167" id="Oval-345"></path>
                    <path d="M4.79565936,1.94065082 C3.6658614,3.50363039 3,5.42405506 3,7.5 C3,9.5934333 3.67712748,11.528715 4.82431126,13.0987739 M28.1175606,13.1774782 C29.2999643,11.5935995 30,9.62855079 30,7.5 C30,5.41580915 29.3288383,3.48837651 28.1908556,1.9220427" id="Oval-346"></path>
                    <path d="M2.25814891,0.331930344 C0.835136966,2.36138888 0,4.8331661 0,7.5 C0,10.1761646 0.840991126,12.6559052 2.27310695,14.6893553 M30.7804692,14.6126768 C32.1799606,12.5937066 33,10.1426185 33,7.5 C33,4.87266825 32.1894205,2.43465748 30.8046979,0.422404008" id="Oval-347"></path>
                </g>
                <rect id="Rectangle-463" fill="#092F3E" sketch:type="MSShapeGroup" x="25" y="5" width="2" height="12" rx="1"></rect>
                <rect id="Rectangle-463" fill="#092F3E" sketch:type="MSShapeGroup" x="15" y="14" width="12" height="19"></rect>
                <rect id="Rectangle-464" fill="#FFFFFF" sketch:type="MSShapeGroup" x="17" y="16" width="8" height="6"></rect>
                <rect id="Rectangle-467" fill="#092F3E" sketch:type="MSShapeGroup" x="18" y="17" width="6" height="4"></rect>
                <path d="M24,18 L24,19.5 L22,21 L20,21 L24,18 Z" id="Rectangle-477" fill="#576367" sketch:type="MSShapeGroup"></path>
                <path d="M18,19 L21,17 L24,17 L18,21 L18,19 Z" id="Rectangle-476" fill="#576367" sketch:type="MSShapeGroup"></path>
                <rect id="Rectangle-465" fill="#092F3E" sketch:type="MSShapeGroup" x="14" y="16" width="1" height="3"></rect>
                <rect id="Rectangle-469" fill="#092F3E" sketch:type="MSShapeGroup" x="17" y="12" width="4" height="2"></rect>
                <path d="M17.4,12 L18,12 L18,14 L17.4,14 L17.4,12 Z" id="Rectangle-470" fill="#3E4E54" sketch:type="MSShapeGroup"></path>
                <path d="M18.4,12 L19,12 L19,14 L18.4,14 L18.4,12 Z" id="Rectangle-471" fill="#3E4E54" sketch:type="MSShapeGroup"></path>
                <path d="M19.4,12 L20,12 L20,14 L19.4,14 L19.4,12 Z" id="Rectangle-473" fill="#3E4E54" sketch:type="MSShapeGroup"></path>
                <path d="M20.4,12 L21,12 L21,14 L20.4,14 L20.4,12 Z" id="Rectangle-474" fill="#3E4E54" sketch:type="MSShapeGroup"></path>
                <rect id="Rectangle-466" fill="#092F3E" sketch:type="MSShapeGroup" x="14" y="20" width="1" height="3"></rect>
                <g id="speaker" transform="translate(17.000000, 27.000000)" fill="#FFFFFF" sketch:type="MSShapeGroup">
                    <g id="row">
                        <circle id="Oval-345" cx="0.5" cy="0.5" r="0.5"></circle>
                        <circle id="Oval-348" cx="2.5" cy="0.5" r="0.5"></circle>
                        <circle id="Oval-349" cx="4.5" cy="0.5" r="0.5"></circle>
                        <circle id="Oval-349" cx="6.5" cy="0.5" r="0.5"></circle>
                    </g>
                    <g id="row" transform="translate(1.000000, 1.000000)">
                        <circle id="Oval-353" cx="0.5" cy="0.5" r="0.5"></circle>
                        <circle id="Oval-350" cx="2.5" cy="0.5" r="0.5"></circle>
                        <circle id="Oval-351" cx="4.5" cy="0.5" r="0.5"></circle>
                        <circle id="Oval-352" cx="6.5" cy="0.5" r="0.5"></circle>
                    </g>
                    <g id="row-2" transform="translate(1.000000, 3.000000)">
                        <circle id="Oval-353" cx="0.5" cy="0.5" r="0.5"></circle>
                        <circle id="Oval-350" cx="2.5" cy="0.5" r="0.5"></circle>
                        <circle id="Oval-351" cx="4.5" cy="0.5" r="0.5"></circle>
                        <circle id="Oval-352" cx="6.5" cy="0.5" r="0.5"></circle>
                    </g>
                    <g id="row" transform="translate(0.000000, 2.000000)">
                        <circle id="Oval-357" cx="0.5" cy="0.5" r="0.5"></circle>
                        <circle id="Oval-354" cx="2.5" cy="0.5" r="0.5"></circle>
                        <circle id="Oval-355" cx="4.5" cy="0.5" r="0.5"></circle>
                        <circle id="Oval-356" cx="6.5" cy="0.5" r="0.5"></circle>
                    </g>
                </g>
                <rect id="Rectangle-468" fill="#F6D262" sketch:type="MSShapeGroup" x="17" y="23" width="2" height="1"></rect>
                <rect id="Rectangle-468" fill="#F6D262" sketch:type="MSShapeGroup" x="20" y="23" width="2" height="1"></rect>
                <rect id="Rectangle-468" fill="#F6D262" sketch:type="MSShapeGroup" x="24" y="23" width="1" height="1"></rect>
                <rect id="Rectangle-468" fill="#F6D262" sketch:type="MSShapeGroup" x="24" y="24" width="1" height="1"></rect>
                <path d="M24,23.7 L25,23.7 L25,24.3 L24,24.3 L24,23.7 Z" id="Rectangle-475" fill="#092F3E" sketch:type="MSShapeGroup"></path>
                <rect id="Rectangle-472" fill="#F6D262" sketch:type="MSShapeGroup" x="25" y="13" width="2" height="1"></rect>
            </g>
        </g>
    </g>
</svg>