<?xml version="1.0" encoding="UTF-8" standalone="no"?>
<svg width="40px" height="40px" viewBox="0 0 40 40" version="1.1" xmlns="http://www.w3.org/2000/svg" xmlns:xlink="http://www.w3.org/1999/xlink" xmlns:sketch="http://www.bohemiancoding.com/sketch/ns">
    <!-- Generator: Sketch 3.1 (8751) - http://www.bohemiancoding.com/sketch -->
    <title>cloud</title>
    <desc>Created with Sketch.</desc>
    <defs></defs>
    <g id="Illustrations" stroke="none" stroke-width="1" fill="none" fill-rule="evenodd" sketch:type="MSPage">
        <g id="cloud" sketch:type="MSArtboardGroup" stroke-width="2" fill="#FFFFFF">
            <path d="M29.9725298,16.0000528 C29.9816824,16.0000176 29.9908391,16 30,16 C33.8659932,16 37,19.1340068 37,23 C37,26.8659932 33.8659932,30 30,30 L9,30 C5.6862915,30 3,27.3137085 3,24 C3,21.0106371 5.18615931,18.5318791 8.04692668,18.0752772 C8.5099039,13.5391437 12.3416463,10 17,10 C19.1465347,10 21.1175551,10.7514656 22.6643371,12.0056724 C23.438253,11.3768658 24.4251156,11 25.5,11 C27.9852814,11 30,13.0147186 30,15.5 C30,15.6690227 29.9906813,15.8358688 29.9725298,16.0000528 Z" id="Rectangle-60" stroke="#6FC9B7" sketch:type="MSShapeGroup"></path>
            <path d="M29,17 C32.3137085,17 35,19.6862915 35,23 C35,26.3137085 32.3137085,28.2 29,28.2 L10.1976274,28.2 L10.1976274,28.2 C10.1822778,28.2112783 10.166894,28.2226201 10.1514759,28.234026 C6.84270024,28.234026 5,26.7614237 5,24 C5,21.401012 6.81339526,20.1509833 9.90539966,19.1792075 C10.0403315,15.1858755 12.6963607,12 17,12 C19.0795346,12 20.9737496,12.7438569 22.3964199,13.9632344 C23.0961096,13.3627956 24.0056871,13 25,13 C28.0175781,13 29,14.790861 29,17 Z" id="Rectangle-61" stroke="#C4E9E1" sketch:type="MSShapeGroup"></path>
        </g>
    </g>
</svg>