<?xml version="1.0" encoding="UTF-8" standalone="no"?>
<svg width="20px" height="20px" viewBox="0 0 20 20" version="1.1" xmlns="http://www.w3.org/2000/svg" xmlns:xlink="http://www.w3.org/1999/xlink" xmlns:sketch="http://www.bohemiancoding.com/sketch/ns">
    <!-- Generator: Sketch 3.1 (8751) - http://www.bohemiancoding.com/sketch -->
    <title>money</title>
    <desc>Created with Sketch.</desc>
    <defs></defs>
    <g id="Illustrations" stroke="none" stroke-width="1" fill="none" fill-rule="evenodd" sketch:type="MSPage">
        <g id="money" sketch:type="MSArtboardGroup">
            <circle id="Oval-267" stroke="#D8D8D8" sketch:type="MSShapeGroup" cx="10" cy="10" r="8"></circle>
            <path d="M12.94,11.844 C12.94,12.1593349 12.8831672,12.4471654 12.7695,12.7075 C12.6558328,12.9678346 12.494501,13.1933324 12.2855,13.384 C12.076499,13.5746676 11.8253348,13.7268328 11.532,13.8405 C11.2386652,13.9541672 10.9086685,14.0219999 10.542,14.044 L10.542,15.254 L9.882,15.254 L9.882,14.066 C9.36133073,14.0439999 8.91400187,13.9523341 8.54,13.791 C8.16599813,13.6296659 7.80666839,13.3766684 7.462,13.032 L8.034,12.46 C8.3273348,12.7533348 8.62249852,12.964166 8.9195,13.0925 C9.21650149,13.220834 9.55199813,13.2923333 9.926,13.307 L9.926,10.392 L9.706,10.359 C9.40533183,10.3296665 9.13033458,10.2581672 8.881,10.1445 C8.63166542,10.0308328 8.43000077,9.90800066 8.276,9.776 C7.87266465,9.41666487 7.671,8.92900308 7.671,8.313 C7.671,7.68966355 7.86716471,7.1818353 8.2595,6.7895 C8.65183529,6.3971647 9.19266322,6.17166696 9.882,6.113 L9.882,5.134 L10.542,5.134 L10.542,6.113 C10.9673355,6.13500011 11.3376651,6.21383266 11.653,6.3495 C11.9683349,6.48516735 12.2799985,6.68866531 12.588,6.96 L12.049,7.499 C11.8363323,7.30833238 11.6108345,7.15616724 11.3725,7.0425 C11.1341655,6.92883276 10.846335,6.86100011 10.509,6.839 L10.509,9.688 L10.85,9.732 C11.2166685,9.79066696 11.5026656,9.86216625 11.708,9.9465 C11.9133344,10.0308338 12.1003325,10.1463326 12.269,10.293 C12.4816677,10.4763342 12.6466661,10.6981654 12.764,10.9585 C12.8813339,11.2188346 12.94,11.5139984 12.94,11.844 L12.94,11.844 Z M9.926,6.839 C9.46399769,6.87566685 9.1101679,7.02233205 8.8645,7.279 C8.6188321,7.53566795 8.496,7.86933128 8.496,8.28 C8.496,8.67600198 8.61333216,8.97666564 8.848,9.182 C9.00200077,9.30666729 9.17249907,9.40199967 9.3595,9.468 C9.54650093,9.53400033 9.73533238,9.58166652 9.926,9.611 L9.926,6.839 Z M12.104,11.866 C12.104,11.6606656 12.0710003,11.4736675 12.005,11.305 C11.9389997,11.1363325 11.8436673,10.9970005 11.719,10.887 C11.5356657,10.7256659 11.3468343,10.6266668 11.1525,10.59 C10.9581657,10.5533332 10.7436678,10.5166669 10.509,10.48 L10.509,13.307 C11.0076692,13.2703331 11.3981653,13.1273346 11.6805,12.878 C11.9628347,12.6286654 12.104,12.2913355 12.104,11.866 L12.104,11.866 Z" id="$" fill="#D8D8D8" sketch:type="MSShapeGroup"></path>
        </g>
    </g>
</svg>