<?xml version="1.0" encoding="UTF-8" standalone="no"?>
<svg width="40px" height="40px" viewBox="0 0 40 40" version="1.1" xmlns="http://www.w3.org/2000/svg" xmlns:xlink="http://www.w3.org/1999/xlink" xmlns:sketch="http://www.bohemiancoding.com/sketch/ns">
    <!-- Generator: Sketch 3.1 (8751) - http://www.bohemiancoding.com/sketch -->
    <title>money</title>
    <desc>Created with Sketch.</desc>
    <defs></defs>
    <g id="Illustrations" stroke="none" stroke-width="1" fill="none" fill-rule="evenodd" sketch:type="MSPage">
        <g id="money" sketch:type="MSArtboardGroup">
            <circle id="Oval-128" stroke="#9B9B9B" stroke-width="2" fill="#D8D8D8" sketch:type="MSShapeGroup" cx="20" cy="20" r="16"></circle>
            <circle id="Oval-129" stroke="#D8D8D8" stroke-width="2" fill="#FFFFFF" sketch:type="MSShapeGroup" cx="20" cy="20" r="14"></circle>
            <path d="M25.278,22.22 C25.278,23.3240055 24.9000038,24.2119966 24.144,24.884 C23.4599966,25.5080031 22.5480057,25.8919993 21.408,26.036 L21.408,28.052 L19.59,28.052 L19.59,26.108 C17.8859915,26.108 16.4700056,25.5440056 15.342,24.416 L16.962,22.796 C17.6820036,23.5160036 18.6359941,23.876 19.824,23.876 L19.824,20.618 L19.248,20.546 C16.9799887,20.2579986 15.846,19.0640105 15.846,16.964 C15.846,15.8599945 16.1999965,14.9660034 16.908,14.282 C17.5800034,13.6219967 18.4739944,13.2320006 19.59,13.112 L19.59,11.492 L21.408,11.492 L21.408,13.094 C22.7640068,13.094 23.945995,13.5859951 24.954,14.57 L23.37,16.136 C22.769997,15.5599971 22.0320044,15.272 21.156,15.272 L21.156,18.404 L21.84,18.512 C22.9920058,18.6920009 23.8379973,19.0639972 24.378,19.628 C24.978003,20.228003 25.278,21.0919944 25.278,22.22 L25.278,22.22 Z M19.824,18.296 L19.824,15.29 C18.7799948,15.4340007 18.258,15.9619954 18.258,16.874 C18.258,17.678004 18.7799948,18.1519993 19.824,18.296 L19.824,18.296 Z M22.83,22.292 C22.83,21.7759974 22.6740016,21.3980012 22.362,21.158 C22.1219988,20.9779991 21.7200028,20.8400005 21.156,20.744 L21.156,23.84 C22.2720056,23.7079993 22.83,23.1920045 22.83,22.292 L22.83,22.292 Z" id="$" fill="#9B9B9B" sketch:type="MSShapeGroup"></path>
        </g>
    </g>
</svg>