<?xml version="1.0" encoding="UTF-8" standalone="no"?>
<svg width="57px" height="18px" viewBox="0 0 57 18" version="1.1" xmlns="http://www.w3.org/2000/svg" xmlns:xlink="http://www.w3.org/1999/xlink" xmlns:sketch="http://www.bohemiancoding.com/sketch/ns">
    <!-- Generator: Sketch 3.1 (8751) - http://www.bohemiancoding.com/sketch -->
    <title>RAVTI - 4</title>
    <desc>Created with Sketch.</desc>
    <defs></defs>
    <g id="Element-Collages" stroke="none" stroke-width="1" fill="none" fill-rule="evenodd" sketch:type="MSPage">
        <g id="Full-Height-Takeover" sketch:type="MSArtboardGroup" transform="translate(-113.000000, -33.000000)" fill="#FFFFFF">
            <g id="nav" sketch:type="MSLayerGroup" transform="translate(113.000000, 30.000000)">
                <g id="RAVTI---4" transform="translate(0.000000, 3.000000)" sketch:type="MSShapeGroup">
                    <path d="M10.0657122,13.8656641 L7.89463602,10.6326837 C8.81609195,10.3898051 9.63793103,9.85007496 10.210728,9.25637181 C11.2816092,8.12293853 11.5057471,6.71964018 11.5057471,5.5862069 C11.5057471,3.5892054 10.7586207,2.29385307 10.0613027,1.56521739 C9.26436782,0.755622189 7.94444444,0 5.82758621,0 L0,0 L0,18 L3.80000305,18 L3.80000305,10.9025497 L8.31800766,18 L10.0657122,13.8656641 Z M4.94736842,3 C5.47368421,3 6.52631579,3.05464481 7.18421053,3.57377049 C7.52631579,3.84699454 8,4.39344262 8,5.43169399 C8,6.33333333 7.63157895,6.90710383 7.34210526,7.20765027 C6.65789474,7.91803279 5.65789474,8 4.92105263,8 L3.8,8 L3.8,3 L4.94736842,3 Z" id="Rectangle-7"></path>
                    <path d="M22.9583952,18 L27,18 L20.3566122,0 L16.794948,0 L10,18 L14.0416048,18 L15.3298663,14.5997001 L21.6953938,14.5997001 L22.9583952,18 Z M16.4,11 L18.6121212,5 L20.7,11 L16.4,11 Z" id="Path"></path>
                    <path d="M22,0 L29.180597,18 L31.819403,18 L39,0 L34.7880597,0 L30.5,11.5232384 L26.2119403,0 L22,0 Z" id="Path"></path>
                    <path d="M40.9498139,0 L51,0 L51,3.50824588 L47.4076577,3.50824588 L47.4076577,18 L43.5923423,18 L43.5923423,3.50824588 L39.4606519,3.50824588 L40.9498139,0 Z" id="Path"></path>
                    <path d="M53,0 L53,18 L57,18 L57,0 L53,0 Z" id="Path"></path>
                </g>
            </g>
        </g>
    </g>
</svg>