<?xml version="1.0" encoding="UTF-8" standalone="no"?>
<svg width="40px" height="40px" viewBox="0 0 40 40" version="1.1" xmlns="http://www.w3.org/2000/svg" xmlns:xlink="http://www.w3.org/1999/xlink" xmlns:sketch="http://www.bohemiancoding.com/sketch/ns">
    <!-- Generator: Sketch 3.1 (8751) - http://www.bohemiancoding.com/sketch -->
    <title>secure</title>
    <desc>Created with Sketch.</desc>
    <defs></defs>
    <g id="Illustrations" stroke="none" stroke-width="1" fill="none" fill-rule="evenodd" sketch:type="MSPage">
        <g id="secure" sketch:type="MSArtboardGroup">
            <path d="M10,9.83405251 L10,31.8965517 L10,33 L11.25,33 L28.75,33 L30,33 L30,31.8965517 L30,9.83405251 C30,4.95815318 25.5164275,1 20,1 C14.4770034,1 10,4.95550411 10,9.83405251 Z M27.7142857,9.46784933 L27.7142857,31 L29,29.9230769 L11,29.9230769 L12.2857143,31 L12.2857143,9.46784933 C12.2857143,5.89569681 15.7398582,3 20,3 C24.2538439,3 27.7142857,5.89866615 27.7142857,9.46784933 Z" id="Rectangle-60" fill="#9B9B9B" sketch:type="MSShapeGroup"></path>
            <rect id="Rectangle-57" stroke="#9B9B9B" stroke-width="2" fill="#FFFFFF" sketch:type="MSShapeGroup" x="6" y="19" width="28" height="16"></rect>
            <rect id="Rectangle-60" stroke="#D8D8D8" stroke-width="2" fill="#FFFFFF" sketch:type="MSShapeGroup" x="8" y="21" width="24" height="12"></rect>
        </g>
    </g>
</svg>