<?xml version="1.0" encoding="UTF-8" standalone="no"?>
<svg width="90px" height="90px" viewBox="0 0 90 90" version="1.1" xmlns="http://www.w3.org/2000/svg" xmlns:xlink="http://www.w3.org/1999/xlink" xmlns:sketch="http://www.bohemiancoding.com/sketch/ns">
    <!-- Generator: Sketch 3.1 (8751) - http://www.bohemiancoding.com/sketch -->
    <title>Time Saver</title>
    <desc>Created with Sketch.</desc>
    <defs></defs>
    <g id="Illustrations" stroke="none" stroke-width="1" fill="none" fill-rule="evenodd" sketch:type="MSPage">
        <g id="Time-Saver" sketch:type="MSArtboardGroup">
            <rect id="Rectangle-2" stroke="#979797" stroke-width="2" fill="#D8D8D8" sketch:type="MSShapeGroup" x="80" y="39" width="5" height="13"></rect>
            <circle id="Oval-1" stroke="#979797" stroke-width="2" fill="#FFFFFF" sketch:type="MSShapeGroup" cx="45" cy="45" r="36"></circle>
            <circle id="Oval-2" stroke="#979797" stroke-width="2" fill="#FFFFFF" sketch:type="MSShapeGroup" cx="45" cy="45" r="31.5537916"></circle>
            <circle id="Oval-3" stroke="#E6E6E6" stroke-width="2" fill="#FFFFFF" sketch:type="MSShapeGroup" cx="45" cy="45" r="29.7768958"></circle>
            <g id="time-period" sketch:type="MSLayerGroup" transform="translate(44.000000, 18.000000)" fill="#D8D8D8">
                <circle id="Oval-3" sketch:type="MSShapeGroup" cx="1" cy="1" r="1"></circle>
                <circle id="Oval-3" sketch:type="MSShapeGroup" cx="1" cy="53" r="1"></circle>
            </g>
            <rect id="Rectangle-4" stroke="#979797" fill="#D8D8D8" sketch:type="MSShapeGroup" x="44" y="27" width="2" height="17"></rect>
            <rect id="Rectangle-5" stroke="#979797" fill="#D8D8D8" sketch:type="MSShapeGroup" transform="translate(54.000000, 50.500000) rotate(-240.000000) translate(-54.000000, -50.500000) " x="53" y="39" width="2" height="23"></rect>
            <g id="time-period-3" sketch:type="MSLayerGroup" transform="translate(45.000000, 45.000000) rotate(-30.000000) translate(-45.000000, -45.000000) translate(44.000000, 18.000000)" fill="#D8D8D8">
                <circle id="Oval-3" sketch:type="MSShapeGroup" cx="1" cy="1" r="1"></circle>
                <circle id="Oval-3" sketch:type="MSShapeGroup" cx="1" cy="53" r="1"></circle>
            </g>
            <g id="time-period-4" sketch:type="MSLayerGroup" transform="translate(45.000000, 45.000000) rotate(-60.000000) translate(-45.000000, -45.000000) translate(44.000000, 18.000000)" fill="#D8D8D8">
                <circle id="Oval-3" sketch:type="MSShapeGroup" cx="1" cy="1" r="1"></circle>
                <circle id="Oval-3" sketch:type="MSShapeGroup" cx="1" cy="53" r="1"></circle>
            </g>
            <g id="time-period-5" sketch:type="MSLayerGroup" transform="translate(45.000000, 45.000000) rotate(-90.000000) translate(-45.000000, -45.000000) translate(44.000000, 18.000000)" fill="#D8D8D8">
                <circle id="Oval-3" sketch:type="MSShapeGroup" cx="1" cy="1" r="1"></circle>
                <circle id="Oval-3" sketch:type="MSShapeGroup" cx="1" cy="53" r="1"></circle>
            </g>
            <g id="time-period-2" sketch:type="MSLayerGroup" transform="translate(45.000000, 45.000000) rotate(-330.000000) translate(-45.000000, -45.000000) translate(44.000000, 18.000000)" fill="#D8D8D8">
                <circle id="Oval-3" sketch:type="MSShapeGroup" cx="1" cy="1" r="1"></circle>
                <circle id="Oval-3" sketch:type="MSShapeGroup" cx="1" cy="53" r="1"></circle>
            </g>
            <g id="time-period-6" sketch:type="MSLayerGroup" transform="translate(45.000000, 45.000000) rotate(-300.000000) translate(-45.000000, -45.000000) translate(44.000000, 18.000000)" fill="#D8D8D8">
                <circle id="Oval-3" sketch:type="MSShapeGroup" cx="1" cy="1" r="1"></circle>
                <circle id="Oval-3" sketch:type="MSShapeGroup" cx="1" cy="53" r="1"></circle>
            </g>
            <circle id="Oval-15" stroke="#979797" fill="#D8D8D8" sketch:type="MSShapeGroup" cx="45" cy="45" r="2"></circle>
            <path d="M52,55 L54,55 L53,19 L52,55 Z" id="Rectangle-3" fill="#D8D8D8" sketch:type="MSShapeGroup" transform="translate(53.000000, 37.000000) rotate(45.000000) translate(-53.000000, -37.000000) "></path>
        </g>
    </g>
</svg>