<?xml version="1.0" encoding="UTF-8" standalone="no"?>
<svg width="90px" height="90px" viewBox="0 0 90 90" version="1.1" xmlns="http://www.w3.org/2000/svg" xmlns:xlink="http://www.w3.org/1999/xlink" xmlns:sketch="http://www.bohemiancoding.com/sketch/ns">
    <!-- Generator: Sketch 3.1 (8751) - http://www.bohemiancoding.com/sketch -->
    <title>Wholesale pricing</title>
    <desc>Created with Sketch.</desc>
    <defs></defs>
    <g id="Illustrations" stroke="none" stroke-width="1" fill="none" fill-rule="evenodd" sketch:type="MSPage">
        <g id="Wholesale-pricing" sketch:type="MSArtboardGroup" stroke="#979797">
            <g id="wholesale" sketch:type="MSLayerGroup" transform="translate(3.000000, 3.000000)">
                <rect id="Rectangle-8" fill="#E6E6E6" sketch:type="MSShapeGroup" x="7" y="61" width="24" height="17"></rect>
                <rect id="Rectangle-8" fill="#E6E6E6" sketch:type="MSShapeGroup" x="8" y="44" width="24" height="17"></rect>
                <rect id="Rectangle-8" fill="#E6E6E6" sketch:type="MSShapeGroup" x="10" y="22" width="24" height="17"></rect>
                <rect id="Rectangle-8" fill="#E6E6E6" sketch:type="MSShapeGroup" x="52" y="61" width="24" height="17"></rect>
                <rect id="Rectangle-8" fill="#E6E6E6" sketch:type="MSShapeGroup" x="52" y="22" width="24" height="17"></rect>
                <rect id="Rectangle-8" fill="#E6E6E6" sketch:type="MSShapeGroup" x="50" y="44" width="24" height="17"></rect>
                <rect id="Rectangle-8" fill="#E6E6E6" sketch:type="MSShapeGroup" x="47" y="0" width="24" height="22"></rect>
                <rect id="Rectangle-10" fill="#FFFFFF" sketch:type="MSShapeGroup" transform="translate(23.000000, 23.000000) rotate(-42.000000) translate(-23.000000, -23.000000) " x="-4" y="21" width="54" height="4"></rect>
                <rect id="Rectangle-11" fill="#FFFFFF" sketch:type="MSShapeGroup" transform="translate(21.000000, 61.000000) scale(-1, 1) rotate(-46.000000) translate(-21.000000, -61.000000) " x="-6" y="59" width="54" height="4"></rect>
                <rect id="Rectangle-13" fill="#FFFFFF" sketch:type="MSShapeGroup" transform="translate(61.000000, 24.000000) scale(-1, 1) rotate(-41.000000) translate(-61.000000, -24.000000) " x="33" y="22" width="56" height="4"></rect>
                <rect id="Rectangle-12" fill="#FFFFFF" sketch:type="MSShapeGroup" transform="translate(61.500000, 62.000000) rotate(-46.000000) translate(-61.500000, -62.000000) " x="34" y="60" width="55" height="4"></rect>
                <path d="M39,7 L4,7 L4,7 L4,40 L4,40 L39,40 L39,7 Z M43,7 L80,7 L80,40 L43,40 L43,7 Z M39,79 L4,79 L4,44 L4,44 L39,44 L39,79 Z M43,79 L80,79 L80,44 L43,44 L43,79 Z M2.5,3 L0,3 L0,79.5 L0,79.5 L0,83 L84,83 L84,79.5 L84,3 L81,3 L2.5,3 L2.5,3 Z" id="Rectangle-6" stroke-width="2" fill="#FFFFFF" sketch:type="MSShapeGroup"></path>
            </g>
        </g>
    </g>
</svg>