<?xml version="1.0" encoding="UTF-8" standalone="no"?>
<svg width="90px" height="90px" viewBox="0 0 90 90" version="1.1" xmlns="http://www.w3.org/2000/svg" xmlns:xlink="http://www.w3.org/1999/xlink" xmlns:sketch="http://www.bohemiancoding.com/sketch/ns">
    <!-- Generator: Sketch 3.1 (8751) - http://www.bohemiancoding.com/sketch -->
    <title>Wholesale pricing</title>
    <desc>Created with Sketch.</desc>
    <defs></defs>
    <g id="Illustrations" stroke="none" stroke-width="1" fill="none" fill-rule="evenodd" sketch:type="MSPage">
        <g id="Wholesale-pricing" sketch:type="MSArtboardGroup" stroke="#979797">
            <rect id="Rectangle-8" fill="#E6E6E6" sketch:type="MSShapeGroup" x="10" y="64" width="24" height="17"></rect>
            <rect id="Rectangle-8" fill="#E6E6E6" sketch:type="MSShapeGroup" x="11" y="47" width="24" height="17"></rect>
            <rect id="Rectangle-8" fill="#E6E6E6" sketch:type="MSShapeGroup" x="13" y="25" width="24" height="17"></rect>
            <rect id="Rectangle-8" fill="#E6E6E6" sketch:type="MSShapeGroup" x="55" y="64" width="24" height="17"></rect>
            <rect id="Rectangle-8" fill="#E6E6E6" sketch:type="MSShapeGroup" x="55" y="25" width="24" height="17"></rect>
            <rect id="Rectangle-8" fill="#E6E6E6" sketch:type="MSShapeGroup" x="53" y="47" width="24" height="17"></rect>
            <rect id="Rectangle-8" fill="#E6E6E6" sketch:type="MSShapeGroup" x="50" y="3" width="24" height="22"></rect>
            <rect id="Rectangle-10" fill="#FFFFFF" sketch:type="MSShapeGroup" transform="translate(26.000000, 26.000000) rotate(-42.000000) translate(-26.000000, -26.000000) " x="-1" y="24" width="54" height="4"></rect>
            <rect id="Rectangle-11" fill="#FFFFFF" sketch:type="MSShapeGroup" transform="translate(24.000000, 64.000000) scale(-1, 1) rotate(-46.000000) translate(-24.000000, -64.000000) " x="-3" y="62" width="54" height="4"></rect>
            <rect id="Rectangle-13" fill="#FFFFFF" sketch:type="MSShapeGroup" transform="translate(64.000000, 27.000000) scale(-1, 1) rotate(-41.000000) translate(-64.000000, -27.000000) " x="36" y="25" width="56" height="4"></rect>
            <rect id="Rectangle-12" fill="#FFFFFF" sketch:type="MSShapeGroup" transform="translate(64.500000, 65.000000) rotate(-46.000000) translate(-64.500000, -65.000000) " x="37" y="63" width="55" height="4"></rect>
            <path d="M42,10 L7,10 L7,10 L7,43 L7,43 L42,43 L42,10 Z M46,10 L83,10 L83,43 L46,43 L46,10 Z M42,82 L7,82 L7,47 L7,47 L42,47 L42,82 Z M46,82 L83,82 L83,47 L46,47 L46,82 Z M5.5,6 L3,6 L3,82.5 L3,82.5 L3,86 L87,86 L87,82.5 L87,6 L84,6 L5.5,6 L5.5,6 Z" id="Rectangle-6" stroke-width="2" fill="#FFFFFF" sketch:type="MSShapeGroup"></path>
        </g>
    </g>
</svg>